<svg width="17" height="17" viewBox="0 0 17 17" fill="none" xmlns="http://www.w3.org/2000/svg">
<g id="iconoir:wallet">
<g id="Group">
<path id="Vector" d="M13.394 13.8334H4.06063C3.70701 13.8334 3.36787 13.6929 3.11782 13.4429C2.86777 13.1928 2.72729 12.8537 2.72729 12.5001V6.50008C2.72729 6.14646 2.86777 5.80732 3.11782 5.55727C3.36787 5.30722 3.70701 5.16675 4.06063 5.16675H13.394C13.7476 5.16675 14.0867 5.30722 14.3368 5.55727C14.5868 5.80732 14.7273 6.14646 14.7273 6.50008V12.5001C14.7273 12.8537 14.5868 13.1928 14.3368 13.4429C14.0867 13.6929 13.7476 13.8334 13.394 13.8334Z" stroke="white" stroke-width="1.5"/>
<path id="Vector_2" d="M11.7273 9.83341C11.6388 9.83341 11.5541 9.7983 11.4916 9.73578C11.429 9.67327 11.3939 9.58849 11.3939 9.50008C11.3939 9.41168 11.429 9.32689 11.4916 9.26438C11.5541 9.20187 11.6388 9.16675 11.7273 9.16675C11.8157 9.16675 11.9004 9.20187 11.963 9.26438C12.0255 9.32689 12.0606 9.41168 12.0606 9.50008C12.0606 9.58849 12.0255 9.67327 11.963 9.73578C11.9004 9.7983 11.8157 9.83341 11.7273 9.83341Z" fill="white" stroke="white" stroke-width="1.5" stroke-linecap="round" stroke-linejoin="round"/>
<path id="Vector_3" d="M12.7273 5.16664V4.23531C12.7272 4.03097 12.6802 3.82939 12.5899 3.64612C12.4995 3.46285 12.3683 3.30279 12.2062 3.17831C12.0442 3.05384 11.8557 2.96827 11.6553 2.92821C11.455 2.88816 11.2481 2.89469 11.0506 2.94731L3.7173 4.90264C3.43333 4.97831 3.18232 5.14568 3.00329 5.37872C2.82426 5.61177 2.72723 5.89743 2.72729 6.19131V6.49997" stroke="white" stroke-width="1.5"/>
</g>
</g>
</svg>
