<svg width="58" height="56" viewBox="0 0 58 56" fill="none" xmlns="http://www.w3.org/2000/svg">
<path d="M23.68 5.59998C21.908 3.04668 19.2799 1.21272 16.272 0.430475C13.2641 -0.351765 10.0755 -0.0305094 7.28407 1.33601C4.49267 2.70254 2.2832 5.0239 1.05613 7.87935C-0.170942 10.7348 -0.334411 13.9354 0.595349 16.901C1.52511 19.8666 3.48657 22.401 6.12422 24.0448C8.76187 25.6886 11.9012 26.3331 14.9731 25.8614C18.045 25.3897 20.8463 23.833 22.8693 21.4735C24.8922 19.1141 26.0029 16.1079 26 13C26.0085 10.353 25.1982 7.76827 23.68 5.59998ZM14 18V19C14 19.2652 13.8946 19.5196 13.7071 19.7071C13.5196 19.8946 13.2652 20 13 20C12.7348 20 12.4804 19.8946 12.2929 19.7071C12.1054 19.5196 12 19.2652 12 19V18H11C10.7348 18 10.4804 17.8946 10.2929 17.7071C10.1054 17.5196 10 17.2652 10 17C10 16.7348 10.1054 16.4804 10.2929 16.2929C10.4804 16.1053 10.7348 16 11 16H14C14.2652 16 14.5196 15.8946 14.7071 15.7071C14.8946 15.5195 15 15.2652 15 15C15 14.7348 14.8946 14.4804 14.7071 14.2929C14.5196 14.1053 14.2652 14 14 14H12C11.2043 14 10.4413 13.6839 9.87868 13.1213C9.31607 12.5587 9 11.7956 9 11C9 10.2043 9.31607 9.44127 9.87868 8.87866C10.4413 8.31605 11.2043 7.99998 12 7.99998V6.99998C12 6.73476 12.1054 6.48041 12.2929 6.29287C12.4804 6.10534 12.7348 5.99998 13 5.99998C13.2652 5.99998 13.5196 6.10534 13.7071 6.29287C13.8946 6.48041 14 6.73476 14 6.99998V7.99998H15C15.2652 7.99998 15.5196 8.10534 15.7071 8.29287C15.8946 8.48041 16 8.73476 16 8.99998C16 9.26519 15.8946 9.51955 15.7071 9.70708C15.5196 9.89462 15.2652 9.99998 15 9.99998H12C11.7348 9.99998 11.4804 10.1053 11.2929 10.2929C11.1054 10.4804 11 10.7348 11 11C11 11.2652 11.1054 11.5195 11.2929 11.7071C11.4804 11.8946 11.7348 12 12 12H14C14.7956 12 15.5587 12.316 16.1213 12.8787C16.6839 13.4413 17 14.2043 17 15C17 15.7956 16.6839 16.5587 16.1213 17.1213C15.5587 17.6839 14.7956 18 14 18Z" fill="#009ED4"/>
<path d="M32 52H22V56H32V52Z" fill="#009ED4"/>
<path d="M44 46H34V50H44V46Z" fill="#F39200"/>
<path d="M44 52H34V56H44V52Z" fill="#009ED4"/>
<path d="M56 46H46V50H56V46Z" fill="#F39200"/>
<path d="M56 40H46V44H56V40Z" fill="#009ED4"/>
<path d="M56 52H46V56H56V52Z" fill="#009ED4"/>
<path d="M51.94 7.69L55.23 11.69C55.3287 11.7938 55.4485 11.8752 55.5813 11.9287C55.7142 11.9822 55.8569 12.0065 56 12C56.2337 12.0005 56.4601 11.9191 56.64 11.77C56.7413 11.6861 56.825 11.583 56.8863 11.4666C56.9477 11.3503 56.9855 11.223 56.9975 11.092C57.0096 10.961 56.9957 10.8289 56.9567 10.7033C56.9176 10.5777 56.8542 10.4611 56.77 10.36L51.77 4.36C51.6762 4.24676 51.5585 4.15561 51.4254 4.09305C51.2923 4.03048 51.1471 3.99805 51 3.99805C50.8529 3.99805 50.7077 4.03048 50.5746 4.09305C50.4415 4.15561 50.3238 4.24676 50.23 4.36L45.23 10.36C45.146 10.4611 45.0826 10.5778 45.0437 10.7034C45.0047 10.829 44.9909 10.961 45.003 11.0919C45.0151 11.2229 45.0528 11.3501 45.1141 11.4665C45.1753 11.5828 45.2589 11.686 45.36 11.77C45.4611 11.854 45.5778 11.9174 45.7034 11.9563C45.829 11.9953 45.961 12.0091 46.0919 11.997C46.2229 11.985 46.3501 11.9472 46.4665 11.886C46.5828 11.8247 46.686 11.7411 46.77 11.64L49.93 7.85C48.58 26.29 27.15 41 1 41C0.734784 41 0.48043 41.1054 0.292893 41.2929C0.105357 41.4804 0 41.7348 0 42C0 42.2652 0.105357 42.5196 0.292893 42.7071C0.48043 42.8946 0.734784 43 1 43C28.34 43 50.72 27.31 51.94 7.69Z" fill="#F39200"/>
</svg>
