<svg width="64" height="64" viewBox="0 0 64 64" fill="none" xmlns="http://www.w3.org/2000/svg">
<path d="M52.2614 2.95115C50.3203 2.24708 48.2579 1.93867 46.1957 2.04411C44.1335 2.14955 42.1133 2.66669 40.254 3.56507C38.3948 4.46345 36.7343 5.72489 35.3702 7.27505C34.0061 8.82521 32.9661 10.6327 32.3114 12.5911C35.4228 10.4001 39.0829 9.11883 42.8814 8.89103C43.3314 8.89115 36.9814 11.0311 34.4914 13.5111C33.9714 14.0211 33.2514 14.3411 32.6814 14.8811C38.5485 17.9271 46.6289 17.7236 50.7115 12.5111C52.5297 9.99096 53.3199 6.87298 52.9214 3.79108C52.904 3.6024 52.8324 3.42278 52.7153 3.27378C52.5982 3.12479 52.4406 3.01276 52.2614 2.95115ZM23.0315 13.9012C24.8586 14.1462 26.5605 14.9656 27.8915 16.2412C28.672 9.42688 22.114 3.55274 14.6213 5.89126C14.4487 5.94432 14.2935 6.04288 14.1721 6.17659C14.0508 6.3103 13.9676 6.47423 13.9314 6.65116C12.3273 12.7319 18.4088 21.6694 26.7914 18.0311C26.5139 17.4056 26.1241 16.8362 25.6414 16.3511C24.3914 15.0011 22.7314 13.9012 23.0315 13.9012Z" fill="#F39200"/>
<path d="M31.9719 13.6212C32.032 13.4012 32.1419 13.0512 32.3119 12.5912C30.6981 13.7745 29.4421 15.3801 28.6819 17.2312C28.4509 16.8766 28.1864 16.5451 27.8919 16.2412C27.8612 17.1645 27.6869 17.7519 26.7919 18.0312C28.0576 19.4629 27.8308 21.0368 27.9205 22.8071C22.3445 19.5927 15.6521 26.9518 20.702 32.1212C20.243 32.6693 19.9974 33.3646 20.0103 34.0793C20.0231 34.794 20.2936 35.48 20.772 36.0112C14.912 38.9812 11.002 44.7912 11.002 50.0112C11.002 57.3012 18.072 62.0112 29.002 62.0112C39.942 62.0112 47.002 57.3012 47.002 50.0112C47.002 44.7912 43.092 38.9812 37.232 36.0112C37.7084 35.4776 37.9784 34.7912 37.9931 34.076C38.0078 33.3608 37.7662 32.6639 37.312 32.1112C42.3756 26.779 35.5687 19.5691 29.9147 22.8599C29.7161 21.4061 29.8632 19.9259 30.344 18.5396C30.8248 17.1533 31.6258 15.8999 32.682 14.8812C32.4237 14.8037 32.2055 14.6291 32.0731 14.3942C31.9408 14.1593 31.9045 13.8823 31.9719 13.6212ZM28.0019 57.0112V56.0112H25.0019C24.7391 56.0075 24.4884 55.9005 24.3039 55.7133C24.1194 55.5262 24.016 55.274 24.016 55.0112C24.016 54.7484 24.1194 54.4961 24.3039 54.309C24.4884 54.1219 24.7392 54.0149 25.002 54.0112H30.0019C30.5323 54.0112 31.0411 53.8005 31.4161 53.4254C31.7912 53.0503 32.0019 52.5416 32.0019 52.0112C32.0019 51.4808 31.7912 50.972 31.4161 50.597C31.0411 50.2219 30.5323 50.0112 30.0019 50.0112H28.0019C26.9474 50.0015 25.9395 49.5758 25.1972 48.8267C24.455 48.0776 24.0386 47.0657 24.0386 46.0112C24.0386 44.9567 24.455 43.9448 25.1972 43.1957C25.9395 42.4466 26.9474 42.0209 28.0019 42.0112V41.0112C28.0019 40.746 28.1073 40.4916 28.2948 40.3041C28.4823 40.1165 28.7367 40.0112 29.0019 40.0112C29.2671 40.0112 29.5215 40.1165 29.709 40.3041C29.8966 40.4916 30.0019 40.746 30.0019 41.0112V42.0112H33.0019C33.2646 42.0151 33.5151 42.1222 33.6995 42.3093C33.8838 42.4964 33.9872 42.7485 33.9872 43.0112C33.9872 43.2739 33.8838 43.526 33.6995 43.7131C33.5151 43.9002 33.2646 44.0073 33.0019 44.0112H28.0019C27.4754 44.0172 26.9726 44.2306 26.6024 44.605C26.2322 44.9794 26.0246 45.4847 26.0246 46.0112C26.0246 46.5377 26.2323 47.043 26.6024 47.4174C26.9726 47.7918 27.4755 48.0052 28.002 48.0112H30.0019C31.0566 48.0206 32.0648 48.4462 32.8073 49.1953C33.5497 49.9444 33.9663 50.9565 33.9663 52.0112C33.9663 53.0659 33.5497 54.0779 32.8073 54.827C32.0648 55.5762 31.0566 56.0018 30.0019 56.0112V57.0112C29.9978 57.2737 29.8907 57.5241 29.7036 57.7083C29.5165 57.8926 29.2645 57.9958 29.0019 57.9958C28.7394 57.9958 28.4873 57.8926 28.3002 57.7083C28.1131 57.5241 28.006 57.2737 28.0019 57.0112ZM29.0019 34.0112C26.9625 34.0348 24.9388 34.3722 23.0019 35.0113C22.7411 35.0047 22.4931 34.8964 22.311 34.7096C22.1288 34.5228 22.0269 34.2722 22.0269 34.0112C22.0269 33.7503 22.1288 33.4997 22.311 33.3129C22.4931 33.1261 22.7411 33.0178 23.0019 33.0112H35.0019C35.1365 33.0137 35.2693 33.0433 35.3923 33.0982C35.5152 33.1532 35.6259 33.2324 35.7176 33.331C35.8092 33.4297 35.8801 33.5458 35.9259 33.6725C35.9717 33.7992 35.9915 33.9338 35.9841 34.0682C35.9767 34.2027 35.9422 34.3343 35.8828 34.4552C35.8234 34.5761 35.7403 34.6838 35.6383 34.7718C35.5364 34.8598 35.4177 34.9264 35.2895 34.9675C35.1612 35.0086 35.026 35.0235 34.8919 35.0112C32.9985 34.3501 31.0074 34.0121 29.0019 34.0112Z" fill="#009ED4"/>
</svg>
