<svg width="34" height="34" viewBox="0 0 34 34" fill="none" xmlns="http://www.w3.org/2000/svg">
<path d="M17.0007 26.918C17.2808 26.918 17.5547 26.8349 17.7877 26.6792C18.0207 26.5236 18.2023 26.3023 18.3095 26.0434C18.4167 25.7846 18.4448 25.4997 18.3901 25.2249C18.3354 24.9501 18.2005 24.6977 18.0024 24.4996C17.8043 24.3014 17.5518 24.1665 17.277 24.1119C17.0022 24.0572 16.7174 24.0852 16.4585 24.1925C16.1997 24.2997 15.9784 24.4813 15.8227 24.7142C15.6671 24.9472 15.584 25.2211 15.584 25.5013C15.584 25.877 15.7332 26.2374 15.9989 26.503C16.2646 26.7687 16.6249 26.918 17.0007 26.918ZM24.084 26.918C24.3642 26.918 24.6381 26.8349 24.871 26.6792C25.104 26.5236 25.2856 26.3023 25.3928 26.0434C25.5 25.7846 25.5281 25.4997 25.4734 25.2249C25.4188 24.9501 25.2838 24.6977 25.0857 24.4996C24.8876 24.3014 24.6352 24.1665 24.3604 24.1119C24.0856 24.0572 23.8007 24.0852 23.5419 24.1925C23.283 24.2997 23.0617 24.4813 22.9061 24.7142C22.7504 24.9472 22.6673 25.2211 22.6673 25.5013C22.6673 25.877 22.8166 26.2374 23.0822 26.503C23.3479 26.7687 23.7083 26.918 24.084 26.918ZM24.084 21.2513C24.3642 21.2513 24.6381 21.1682 24.871 21.0126C25.104 20.8569 25.2856 20.6356 25.3928 20.3768C25.5 20.1179 25.5281 19.8331 25.4734 19.5583C25.4188 19.2835 25.2838 19.031 25.0857 18.8329C24.8876 18.6348 24.6352 18.4999 24.3604 18.4452C24.0856 18.3905 23.8007 18.4186 23.5419 18.5258C23.283 18.633 23.0617 18.8146 22.9061 19.0476C22.7504 19.2805 22.6673 19.5544 22.6673 19.8346C22.6673 20.2104 22.8166 20.5707 23.0822 20.8364C23.3479 21.102 23.7083 21.2513 24.084 21.2513ZM17.0007 21.2513C17.2808 21.2513 17.5547 21.1682 17.7877 21.0126C18.0207 20.8569 18.2023 20.6356 18.3095 20.3768C18.4167 20.1179 18.4448 19.8331 18.3901 19.5583C18.3354 19.2835 18.2005 19.031 18.0024 18.8329C17.8043 18.6348 17.5518 18.4999 17.277 18.4452C17.0022 18.3905 16.7174 18.4186 16.4585 18.5258C16.1997 18.633 15.9784 18.8146 15.8227 19.0476C15.6671 19.2805 15.584 19.5544 15.584 19.8346C15.584 20.2104 15.7332 20.5707 15.9989 20.8364C16.2646 21.102 16.6249 21.2513 17.0007 21.2513ZM26.9173 4.2513H25.5007V2.83464C25.5007 2.45891 25.3514 2.09858 25.0857 1.8329C24.82 1.56722 24.4597 1.41797 24.084 1.41797C23.7083 1.41797 23.3479 1.56722 23.0822 1.8329C22.8166 2.09858 22.6673 2.45891 22.6673 2.83464V4.2513H11.334V2.83464C11.334 2.45891 11.1847 2.09858 10.9191 1.8329C10.6534 1.56722 10.293 1.41797 9.91732 1.41797C9.54159 1.41797 9.18126 1.56722 8.91558 1.8329C8.64991 2.09858 8.50065 2.45891 8.50065 2.83464V4.2513H7.08398C5.95681 4.2513 4.87581 4.69907 4.07878 5.4961C3.28175 6.29313 2.83398 7.37413 2.83398 8.5013V28.3346C2.83398 29.4618 3.28175 30.5428 4.07878 31.3398C4.87581 32.1369 5.95681 32.5846 7.08398 32.5846H26.9173C28.0445 32.5846 29.1255 32.1369 29.9225 31.3398C30.7196 30.5428 31.1673 29.4618 31.1673 28.3346V8.5013C31.1673 7.37413 30.7196 6.29313 29.9225 5.4961C29.1255 4.69907 28.0445 4.2513 26.9173 4.2513ZM28.334 28.3346C28.334 28.7104 28.1847 29.0707 27.9191 29.3364C27.6534 29.602 27.293 29.7513 26.9173 29.7513H7.08398C6.70826 29.7513 6.34793 29.602 6.08225 29.3364C5.81657 29.0707 5.66732 28.7104 5.66732 28.3346V15.5846H28.334V28.3346ZM28.334 12.7513H5.66732V8.5013C5.66732 8.12558 5.81657 7.76524 6.08225 7.49957C6.34793 7.23389 6.70826 7.08464 7.08398 7.08464H8.50065V8.5013C8.50065 8.87703 8.64991 9.23736 8.91558 9.50304C9.18126 9.76871 9.54159 9.91797 9.91732 9.91797C10.293 9.91797 10.6534 9.76871 10.9191 9.50304C11.1847 9.23736 11.334 8.87703 11.334 8.5013V7.08464H22.6673V8.5013C22.6673 8.87703 22.8166 9.23736 23.0822 9.50304C23.3479 9.76871 23.7083 9.91797 24.084 9.91797C24.4597 9.91797 24.82 9.76871 25.0857 9.50304C25.3514 9.23736 25.5007 8.87703 25.5007 8.5013V7.08464H26.9173C27.293 7.08464 27.6534 7.23389 27.9191 7.49957C28.1847 7.76524 28.334 8.12558 28.334 8.5013V12.7513ZM9.91732 21.2513C10.1975 21.2513 10.4714 21.1682 10.7044 21.0126C10.9373 20.8569 11.1189 20.6356 11.2261 20.3768C11.3334 20.1179 11.3614 19.8331 11.3068 19.5583C11.2521 19.2835 11.1172 19.031 10.9191 18.8329C10.7209 18.6348 10.4685 18.4999 10.1937 18.4452C9.91889 18.3905 9.63405 18.4186 9.37518 18.5258C9.11632 18.633 8.89507 18.8146 8.7394 19.0476C8.58374 19.2805 8.50065 19.5544 8.50065 19.8346C8.50065 20.2104 8.64991 20.5707 8.91558 20.8364C9.18126 21.102 9.54159 21.2513 9.91732 21.2513ZM9.91732 26.918C10.1975 26.918 10.4714 26.8349 10.7044 26.6792C10.9373 26.5236 11.1189 26.3023 11.2261 26.0434C11.3334 25.7846 11.3614 25.4997 11.3068 25.2249C11.2521 24.9501 11.1172 24.6977 10.9191 24.4996C10.7209 24.3014 10.4685 24.1665 10.1937 24.1119C9.91889 24.0572 9.63405 24.0852 9.37518 24.1925C9.11632 24.2997 8.89507 24.4813 8.7394 24.7142C8.58374 24.9472 8.50065 25.2211 8.50065 25.5013C8.50065 25.877 8.64991 26.2374 8.91558 26.503C9.18126 26.7687 9.54159 26.918 9.91732 26.918Z" fill="#F7931A"/>
</svg>
