<svg width="40" height="41" viewBox="0 0 40 41" fill="none" xmlns="http://www.w3.org/2000/svg">
<circle cx="20.1034" cy="20.6699" r="19.7753" fill="#F7931A"/>
<path d="M15.229 21.9461H15.3703C16.1472 22.0168 16.7122 22.5818 16.7122 23.3587C16.7122 23.7824 16.9947 24.0649 17.4184 24.0649C17.8422 24.0649 18.1247 23.7824 18.1247 23.3587C18.1247 22.0168 17.2066 20.9574 16.0059 20.6042V19.8274C16.0059 19.4036 15.7234 19.1211 15.2997 19.1211C14.8759 19.1211 14.5934 19.4036 14.5934 19.8274V20.6042C13.3927 20.8867 12.4746 22.0168 12.4746 23.3587C12.4746 24.9124 13.7459 26.1837 15.2997 26.1837C16.0765 26.1837 16.7122 26.8193 16.7122 27.5962C16.7122 28.3731 16.0765 29.0088 15.2997 29.0088C14.5228 29.0088 13.8871 28.3731 13.8871 27.5962C13.8871 27.1725 13.6046 26.89 13.1809 26.89C12.7571 26.89 12.4746 27.1725 12.4746 27.5962C12.4746 28.9381 13.3927 29.9975 14.5934 30.3507V31.1982C14.5934 31.6219 14.8759 31.9044 15.2997 31.9044C15.7234 31.9044 16.0059 31.6219 16.0059 31.1982V30.3507C17.2066 30.0681 18.1247 28.9381 18.1247 27.5962C18.1247 26.0425 16.8534 24.7712 15.2997 24.7712C14.5228 24.7712 13.8871 24.1356 13.8871 23.3587C13.8871 22.5818 14.4521 22.0168 15.229 21.9461Z" fill="white"/>
<path d="M31.968 25.1237C32.1093 24.7706 32.2505 24.4175 32.2505 24.0643V22.6518C32.2505 22.0868 32.0386 21.5924 31.6855 21.2393C32.0386 20.8862 32.2505 20.3918 32.2505 19.8268V18.4142C32.2505 17.8492 32.0386 17.3548 31.6855 17.0017C32.0386 16.6486 32.2505 16.1542 32.2505 15.5892V14.1767C32.2505 13.6117 32.0386 13.1173 31.6855 12.7641C32.0386 12.411 32.2505 11.9166 32.2505 11.3516V9.9391C32.2505 8.73845 31.3324 7.82031 30.1317 7.82031H21.6566C20.4559 7.82031 19.5378 8.73845 19.5378 9.9391V11.3516C19.5378 11.9166 19.7497 12.411 20.1028 12.7641C19.7497 13.1173 19.5378 13.6117 19.5378 14.1767V15.5892C19.5378 16.1542 19.7497 16.6486 20.1028 17.0017C19.9616 17.143 19.8909 17.2842 19.8203 17.4961C18.4784 16.7192 16.9953 16.2955 15.3709 16.2955C10.2858 16.2955 6.18945 20.3918 6.18945 25.4769C6.18945 30.5619 10.2858 34.6583 15.3709 34.6583C16.9953 34.6583 18.549 34.2345 19.8203 33.4576C20.1734 34.1639 20.8797 34.6583 21.7272 34.6583H30.2023C31.403 34.6583 32.3211 33.7401 32.3211 32.5395V31.1269C32.3211 30.7738 32.1799 30.4207 32.0386 30.0676C32.533 29.7144 32.9568 29.0788 32.9568 28.3019V26.8894C32.9568 26.1125 32.533 25.4769 31.968 25.1237ZM31.5442 28.3019C31.5442 28.7257 31.2617 29.0082 30.838 29.0082H23.7754C24.1285 28.1606 24.3404 27.1719 24.4816 26.1831H30.838C31.2617 26.1831 31.5442 26.4656 31.5442 26.8894V28.3019ZM30.838 22.6518V24.0643C30.838 24.4881 30.5555 24.7706 30.1317 24.7706H24.4816C24.411 23.7818 24.1991 22.7931 23.7754 21.9455H30.1317C30.4848 21.9455 30.838 22.2987 30.838 22.6518ZM20.9503 14.1767C20.9503 13.8235 21.2328 13.4704 21.6566 13.4704H30.1317C30.4848 13.4704 30.838 13.8235 30.838 14.1767V15.5892C30.838 16.0129 30.5555 16.2955 30.1317 16.2955H21.6566C21.2328 16.2955 20.9503 16.0129 20.9503 15.5892V14.1767ZM20.9503 9.9391C20.9503 9.51534 21.2328 9.23284 21.6566 9.23284H30.1317C30.5555 9.23284 30.838 9.51534 30.838 9.9391V11.3516C30.838 11.7048 30.5555 12.0579 30.1317 12.0579H21.6566C21.3034 12.0579 20.9503 11.7048 20.9503 11.3516V9.9391ZM21.6566 17.708H30.1317C30.5555 17.708 30.838 17.9905 30.838 18.4142V19.8268C30.838 20.1799 30.5555 20.533 30.1317 20.533H23.0691C22.5041 19.6855 21.7978 18.9086 21.0209 18.273C21.0209 17.9199 21.3034 17.708 21.6566 17.708ZM7.53135 25.4769C7.53135 21.1687 10.992 17.708 15.3002 17.708C19.6084 17.708 23.0691 21.1687 23.0691 25.4769C23.0691 29.785 19.6084 33.2457 15.3002 33.2457C10.992 33.2457 7.53135 29.785 7.53135 25.4769ZM30.838 32.5395C30.838 32.9632 30.5555 33.2457 30.1317 33.2457H21.6566C21.3034 33.2457 21.0209 33.0338 20.9503 32.6807C21.7272 32.0451 22.4335 31.2682 22.9985 30.4207H30.1317C30.4848 30.4207 30.838 30.7738 30.838 31.1269V32.5395Z" fill="white"/>
</svg>
