<svg width="43" height="43" viewBox="0 0 43 43" fill="none" xmlns="http://www.w3.org/2000/svg">
<path d="M30.3846 4.86849C28.2986 4.86849 26.2594 5.48707 24.5249 6.64601C22.7905 7.80495 21.4386 9.45219 20.6403 11.3794C19.842 13.3067 19.6332 15.4274 20.0401 17.4733C20.4471 19.5193 21.4516 21.3986 22.9267 22.8736C24.4017 24.3487 26.281 25.3532 28.327 25.7602C30.3729 26.1671 32.4936 25.9583 34.4209 25.16C36.3481 24.3617 37.9954 23.0098 39.1543 21.2754C40.3132 19.5409 40.9318 17.5017 40.9318 15.4157C40.919 12.6223 39.8037 9.94704 37.8285 7.97183C35.8533 5.99662 33.178 4.88129 30.3846 4.86849ZM33.5326 18.7015C33.2483 19.1437 32.8387 19.4911 32.3562 19.6994C31.9169 19.8887 31.4467 19.9959 30.9688 20.0158V21.2653H29.8086V20.0077C29.399 19.974 28.9968 19.8783 28.616 19.7238C28.0881 19.5049 27.6366 19.1352 27.3178 18.6609C27.0028 18.1777 26.8312 17.6151 26.8229 17.0383V16.9491L28.0967 16.8355V16.9328C28.1291 17.2967 28.2488 17.6473 28.4456 17.9551C28.6472 18.2438 28.9294 18.4667 29.2569 18.596C29.4259 18.6721 29.6027 18.7292 29.7843 18.7664V15.8213C29.3147 15.7162 28.8578 15.5612 28.4212 15.3589C28.035 15.176 27.7024 14.8966 27.4558 14.5475C27.2425 14.2072 27.1299 13.8134 27.1312 13.4117C27.1468 12.9378 27.3052 12.4797 27.5856 12.0974C27.8649 11.6845 28.2642 11.3673 28.7295 11.1887C29.0874 11.0457 29.4649 10.9582 29.8492 10.9291V9.66339H31.0094V10.9372C31.3852 10.9744 31.754 11.0645 32.1046 11.2049C32.5792 11.4035 32.9834 11.7398 33.2648 12.1704C33.5369 12.5952 33.6883 13.086 33.7029 13.5902V13.6875L32.4048 13.7849V13.6875C32.3945 13.4633 32.3388 13.2434 32.2412 13.0412C32.1436 12.8391 32.0061 12.6587 31.8369 12.5111C31.6008 12.3258 31.3217 12.203 31.0256 12.1541V14.7341C31.5157 14.8433 31.996 14.9926 32.4616 15.1804C32.9297 15.3697 33.3347 15.6875 33.6299 16.0972C33.8826 16.4822 34.0127 16.9348 34.0031 17.3953C33.9827 17.8783 33.8189 18.3444 33.5326 18.734V18.7015ZM18.4582 3.1566C18.3815 3.07645 18.2892 3.01288 18.1869 2.96983C18.0847 2.92677 17.9747 2.90515 17.8637 2.90629C17.7528 2.90744 17.6433 2.93132 17.5419 2.97647C17.4406 3.02162 17.3496 3.08707 17.2745 3.16879C17.1995 3.2505 17.142 3.34674 17.1056 3.45156C17.0692 3.55637 17.0547 3.66753 17.063 3.77817C17.0713 3.88881 17.1022 3.99657 17.1538 4.09479C17.2054 4.19302 17.2766 4.27962 17.3629 4.34924L18.6611 5.52566C15.3103 5.52566 12.6573 6.45057 10.7669 8.33283C7.30257 11.716 7.692 16.8517 7.70823 17.0383C7.72458 17.242 7.81722 17.4321 7.96764 17.5705C8.11805 17.7089 8.31516 17.7854 8.51955 17.7847H8.58445C8.69112 17.7765 8.79511 17.7473 8.89045 17.6988C8.98578 17.6502 9.07058 17.5833 9.13995 17.5019C9.20933 17.4205 9.26191 17.3261 9.29467 17.2243C9.32744 17.1224 9.33974 17.0151 9.33087 16.9085C9.33087 16.8679 9.02256 12.284 11.8946 9.43623C13.4524 7.89472 15.6916 7.12396 18.5475 7.12396L16.9248 8.51943C16.8359 8.59265 16.7636 8.68396 16.7127 8.7873C16.6618 8.89064 16.6335 9.00363 16.6296 9.11876C16.6258 9.23389 16.6465 9.34851 16.6904 9.45501C16.7343 9.56151 16.8004 9.65744 16.8843 9.73641C17.0264 9.89761 17.2267 9.99584 17.4411 10.0095C17.6556 10.0232 17.8668 9.95125 18.0282 9.80943L21.2735 6.98604C21.359 6.91091 21.4278 6.81864 21.4753 6.7152C21.5228 6.61176 21.5481 6.49948 21.5494 6.38566C21.5465 6.15651 21.4532 5.93778 21.2897 5.77717L18.4582 3.1566ZM38.2545 26.4983C38.0475 26.4979 37.8481 26.5767 37.6973 26.7185C37.5465 26.8602 37.4556 27.0543 37.4431 27.2609C37.4431 27.3096 37.1592 31.8692 33.9301 34.3275C32.1777 35.6581 29.8735 36.1287 27.0177 35.7555L28.7782 34.5791C28.875 34.5217 28.9588 34.4449 29.0243 34.3535C29.0898 34.2621 29.1356 34.1581 29.1587 34.048C29.1819 33.9379 29.1819 33.8243 29.1588 33.7142C29.1357 33.6041 29.0899 33.5001 29.0244 33.4086C28.959 33.3172 28.8752 33.2404 28.7784 33.183C28.6817 33.1257 28.5741 33.0891 28.4624 33.0756C28.3508 33.062 28.2375 33.0718 28.1299 33.1044C28.0222 33.137 27.9225 33.1916 27.8371 33.2647L24.2754 35.6419C24.1799 35.7052 24.0989 35.7881 24.0378 35.8849C23.9766 35.9818 23.9367 36.0906 23.9206 36.204C23.9045 36.3174 23.9126 36.433 23.9444 36.5431C23.9762 36.6531 24.0309 36.7552 24.105 36.8426L26.539 39.7634C26.6144 39.8539 26.7086 39.927 26.8151 39.9774C26.9216 40.0278 27.0378 40.0545 27.1556 40.0555C27.3452 40.0558 27.5289 39.9898 27.6748 39.8689C27.757 39.8008 27.8249 39.7171 27.8747 39.6227C27.9244 39.5283 27.9551 39.425 27.9649 39.3188C27.9747 39.2125 27.9634 39.1054 27.9318 39.0034C27.9001 38.9015 27.8486 38.8069 27.7803 38.7249L26.6769 37.3213C27.3725 37.4259 28.0748 37.4802 28.7782 37.4836C30.9658 37.5607 33.1163 36.9038 34.8875 35.6175C38.7088 32.7049 39.0252 27.5692 39.0414 27.3502C39.0469 27.2423 39.0307 27.1344 38.9939 27.0328C38.9571 26.9313 38.9004 26.8381 38.8271 26.7587C38.7538 26.6794 38.6654 26.6155 38.567 26.5708C38.4687 26.526 38.3624 26.5014 38.2545 26.4983Z" fill="white"/>
<circle cx="10.5" cy="30.5" r="10.5" fill="#FFF9F9"/>
<path d="M9.81 36C9.24 36 8.745 35.88 8.325 35.64C7.915 35.39 7.595 35.055 7.365 34.635C7.145 34.205 7.035 33.725 7.035 33.195V25.5H8.475V33.375C8.475 33.765 8.595 34.09 8.835 34.35C9.085 34.6 9.41 34.725 9.81 34.725H12.63V36H9.81Z" fill="#009ED4"/>
</svg>
