<svg width="100" height="100" viewBox="0 0 100 100" fill="none" xmlns="http://www.w3.org/2000/svg">
<path d="M81.6584 4.61285C78.6253 3.51274 75.4028 3.03086 72.1806 3.1956C68.9585 3.36035 65.8018 4.16839 62.8968 5.57211C59.9918 6.97583 57.3972 8.94682 55.2658 11.3689C53.1344 13.7911 51.5094 16.6153 50.4865 19.6753C55.348 16.2518 61.0668 14.2499 67.0021 13.8939C67.7052 13.8941 57.7834 17.2378 53.8927 21.1128C53.0802 21.9097 51.9552 22.4097 51.0646 23.2535C60.2319 28.0128 72.8575 27.6948 79.2366 19.5502C82.0776 15.6126 83.3123 10.7407 82.6896 5.92524C82.6623 5.63043 82.5505 5.34977 82.3675 5.11696C82.1846 4.88416 81.9384 4.70912 81.6584 4.61285ZM35.9865 21.7222C38.8414 22.1051 41.5007 23.3855 43.5803 25.3785C44.7999 14.7312 34.553 5.55283 22.8457 9.20677C22.5759 9.28968 22.3335 9.44369 22.1439 9.65261C21.9542 9.86153 21.8243 10.1177 21.7677 10.3941C19.2612 19.8953 28.7636 33.8601 41.8615 28.1753C41.4278 27.1979 40.8188 26.3082 40.0646 25.5503C38.1115 23.441 35.5177 21.7222 35.9865 21.7222Z" fill="#F39200"/>
<path d="M49.955 21.2812C50.0488 20.9375 50.2206 20.3906 50.4863 19.6719C47.9647 21.5208 46.0021 24.0295 44.8144 26.9219C44.4535 26.3679 44.0401 25.8499 43.58 25.375C43.532 26.8177 43.2597 27.7355 41.8613 28.1719C43.8389 30.4089 43.4845 32.8681 43.6247 35.6343C34.9121 30.6118 24.4554 42.1104 32.3457 50.1875C31.6286 51.0439 31.2449 52.1303 31.2649 53.247C31.285 54.3638 31.7077 55.4357 32.4551 56.2657C23.2988 60.9063 17.1895 69.9844 17.1895 78.1407C17.1895 89.5313 28.2363 96.8907 45.3145 96.8907C62.4082 96.8907 73.4395 89.5313 73.4395 78.1407C73.4395 69.9844 67.3301 60.9063 58.1738 56.2657C58.9184 55.4319 59.3402 54.3594 59.3631 53.2419C59.386 52.1244 59.0085 51.0355 58.2988 50.1719C66.2108 41.8403 55.575 30.5749 46.7407 35.7168C46.4304 33.4452 46.6602 31.1324 47.4115 28.9663C48.1627 26.8002 49.4143 24.8417 51.0644 23.2501C50.6609 23.1289 50.32 22.8562 50.1132 22.4891C49.9063 22.1221 49.8496 21.6892 49.955 21.2812ZM43.7519 89.0781V87.5156H39.0644C38.6538 87.5098 38.262 87.3426 37.9738 87.0502C37.6855 86.7578 37.5239 86.3637 37.5239 85.9531C37.5239 85.5425 37.6855 85.1484 37.9738 84.856C38.2621 84.5636 38.6539 84.3964 39.0645 84.3906H46.8769C47.7057 84.3906 48.5005 84.0614 49.0866 83.4753C49.6726 82.8893 50.0019 82.0944 50.0019 81.2656C50.0019 80.4368 49.6726 79.642 49.0866 79.0559C48.5005 78.4699 47.7057 78.1406 46.8769 78.1406H43.7519C42.1043 78.1254 40.5293 77.4603 39.3696 76.2898C38.2099 75.1194 37.5592 73.5383 37.5592 71.8906C37.5592 70.2429 38.2099 68.6619 39.3696 67.4914C40.5293 66.321 42.1043 65.6558 43.7519 65.6406V64.0781C43.7519 63.6637 43.9165 63.2663 44.2095 62.9733C44.5026 62.6802 44.9 62.5156 45.3144 62.5156C45.7288 62.5156 46.1262 62.6802 46.4192 62.9733C46.7123 63.2663 46.8769 63.6637 46.8769 64.0781V65.6406H51.5644C51.9748 65.6467 52.3663 65.814 52.6544 66.1064C52.9424 66.3987 53.1039 66.7927 53.1039 67.2031C53.1039 67.6136 52.9424 68.0075 52.6544 68.2999C52.3663 68.5922 51.9748 68.7595 51.5644 68.7656H43.7519C42.9293 68.775 42.1435 69.1084 41.5651 69.6934C40.9867 70.2785 40.6624 71.068 40.6624 71.8907C40.6624 72.7134 40.9868 73.5029 41.5652 74.0879C42.1436 74.6729 42.9294 75.0063 43.752 75.0156H46.8769C48.5248 75.0304 50.1002 75.6953 51.2603 76.8658C52.4204 78.0363 53.0712 79.6176 53.0712 81.2656C53.0712 82.9136 52.4204 84.4949 51.2603 85.6654C50.1002 86.8359 48.5248 87.5009 46.8769 87.5156V89.0781C46.8705 89.4883 46.7031 89.8796 46.4108 90.1674C46.1185 90.4553 45.7247 90.6166 45.3144 90.6166C44.9042 90.6166 44.5104 90.4553 44.218 90.1674C43.9257 89.8796 43.7582 89.4883 43.7519 89.0781ZM45.3144 53.1406C42.1277 53.1776 38.9657 53.7046 35.9394 54.7033C35.5318 54.693 35.1444 54.5238 34.8598 54.2319C34.5752 53.94 34.4159 53.5484 34.4159 53.1407C34.4159 52.733 34.5752 52.3414 34.8598 52.0495C35.1444 51.7576 35.5318 51.5885 35.9394 51.5781H54.6893C54.8997 51.582 55.1072 51.6283 55.2993 51.7141C55.4915 51.8 55.6643 51.9237 55.8076 52.0779C55.9508 52.232 56.0616 52.4135 56.1331 52.6114C56.2046 52.8093 56.2356 53.0196 56.224 53.2298C56.2125 53.4399 56.1587 53.6456 56.0658 53.8344C55.973 54.0233 55.8431 54.1915 55.6838 54.3291C55.5245 54.4666 55.3391 54.5706 55.1387 54.6349C54.9383 54.6991 54.727 54.7224 54.5174 54.7031C51.559 53.6702 48.4479 53.142 45.3144 53.1406Z" fill="#009ED4"/>
</svg>
