<svg width="100" height="100" viewBox="0 0 100 100" fill="none" xmlns="http://www.w3.org/2000/svg">
<path d="M41.6875 13.4383C38.9187 9.44878 34.8123 6.58321 30.1125 5.36096C25.4126 4.13871 20.4304 4.64067 16.0689 6.77586C11.7073 8.91106 8.255 12.5382 6.3377 16.9998C4.4204 21.4615 4.16498 26.4624 5.61773 31.0962C7.07048 35.7299 10.1353 39.6899 14.2566 42.2584C18.3779 44.8268 23.2831 45.8338 28.083 45.0967C32.8829 44.3597 37.2599 41.9274 40.4207 38.2407C43.5815 34.5541 45.317 29.857 45.3125 25.0008C45.3258 20.865 44.0596 16.8263 41.6875 13.4383ZM26.5625 32.8133V34.3758C26.5625 34.7902 26.3979 35.1876 26.1049 35.4807C25.8118 35.7737 25.4144 35.9383 25 35.9383C24.5856 35.9383 24.1882 35.7737 23.8951 35.4807C23.6021 35.1876 23.4375 34.7902 23.4375 34.3758V32.8133H21.875C21.4606 32.8133 21.0632 32.6487 20.7701 32.3557C20.4771 32.0626 20.3125 31.6652 20.3125 31.2508C20.3125 30.8364 20.4771 30.439 20.7701 30.146C21.0632 29.8529 21.4606 29.6883 21.875 29.6883H26.5625C26.9769 29.6883 27.3743 29.5237 27.6674 29.2307C27.9604 28.9376 28.125 28.5402 28.125 28.1258C28.125 27.7114 27.9604 27.314 27.6674 27.021C27.3743 26.7279 26.9769 26.5633 26.5625 26.5633H23.4375C22.1943 26.5633 21.002 26.0694 20.1229 25.1904C19.2439 24.3113 18.75 23.119 18.75 21.8758C18.75 20.6326 19.2439 19.4403 20.1229 18.5612C21.002 17.6822 22.1943 17.1883 23.4375 17.1883V15.6258C23.4375 15.2114 23.6021 14.814 23.8951 14.521C24.1882 14.2279 24.5856 14.0633 25 14.0633C25.4144 14.0633 25.8118 14.2279 26.1049 14.521C26.3979 14.814 26.5625 15.2114 26.5625 15.6258V17.1883H28.125C28.5394 17.1883 28.9368 17.3529 29.2299 17.646C29.5229 17.939 29.6875 18.3364 29.6875 18.7508C29.6875 19.1652 29.5229 19.5626 29.2299 19.8557C28.9368 20.1487 28.5394 20.3133 28.125 20.3133H23.4375C23.0231 20.3133 22.6257 20.4779 22.3326 20.771C22.0396 21.064 21.875 21.4614 21.875 21.8758C21.875 22.2902 22.0396 22.6876 22.3326 22.9807C22.6257 23.2737 23.0231 23.4383 23.4375 23.4383H26.5625C27.8057 23.4383 28.998 23.9322 29.8771 24.8112C30.7561 25.6903 31.25 26.8826 31.25 28.1258C31.25 29.369 30.7561 30.5613 29.8771 31.4404C28.998 32.3194 27.8057 32.8133 26.5625 32.8133Z" fill="#009ED4"/>
<path d="M54.6875 85.9375H39.0625V92.1875H54.6875V85.9375Z" fill="#009ED4"/>
<path d="M73.4375 76.5625H57.8125V82.8125H73.4375V76.5625Z" fill="#F39200"/>
<path d="M73.4375 85.9375H57.8125V92.1875H73.4375V85.9375Z" fill="#009ED4"/>
<path d="M92.1875 76.5625H76.5625V82.8125H92.1875V76.5625Z" fill="#F39200"/>
<path d="M92.1875 67.1875H76.5625V73.4375H92.1875V67.1875Z" fill="#009ED4"/>
<path d="M92.1875 85.9375H76.5625V92.1875H92.1875V85.9375Z" fill="#009ED4"/>
<path d="M85.8438 16.7023L90.9844 22.9523C91.1385 23.1145 91.3257 23.2416 91.5333 23.3252C91.7409 23.4088 91.964 23.4468 92.1875 23.4367C92.5526 23.4374 92.9064 23.3102 93.1875 23.0773C93.3457 22.9461 93.4765 22.785 93.5724 22.6032C93.6682 22.4214 93.7273 22.2225 93.7461 22.0179C93.765 21.8132 93.7433 21.6068 93.6823 21.4106C93.6213 21.2143 93.5222 21.032 93.3906 20.8741L85.5781 11.4992C85.4315 11.3222 85.2477 11.1798 85.0397 11.082C84.8317 10.9843 84.6048 10.9336 84.375 10.9336C84.1452 10.9336 83.9183 10.9843 83.7103 11.082C83.5023 11.1798 83.3185 11.3222 83.1719 11.4992L75.3594 20.8741C75.2281 21.0321 75.1291 21.2145 75.0683 21.4107C75.0074 21.6069 74.9858 21.8132 75.0047 22.0178C75.0235 22.2224 75.0825 22.4212 75.1782 22.603C75.2739 22.7848 75.4045 22.946 75.5625 23.0773C75.7205 23.2086 75.9028 23.3075 76.099 23.3684C76.2953 23.4292 76.5015 23.4509 76.7061 23.432C76.9107 23.4131 77.1096 23.3542 77.2914 23.2584C77.4731 23.1627 77.6343 23.0321 77.7656 22.8742L82.7031 16.9523C80.5938 45.7648 47.1094 68.7492 6.25 68.7492C5.8356 68.7492 5.43817 68.9138 5.14515 69.2068C4.85212 69.4998 4.6875 69.8973 4.6875 70.3117C4.6875 70.7261 4.85212 71.1235 5.14515 71.4165C5.43817 71.7095 5.8356 71.8742 6.25 71.8742C48.9688 71.8742 83.9375 47.3585 85.8438 16.7023Z" fill="#F39200"/>
</svg>
