<svg width="66" height="88" viewBox="0 0 66 88" fill="none" xmlns="http://www.w3.org/2000/svg">
<path d="M14.0225 0L26.1663 21.0338H1.87866L14.0225 0Z" fill="#025C7B"/>
<path d="M14.3809 0H65.4371V87.7305L40 67L14.3809 87.7305V0Z" fill="#009ED4"/>
<path d="M27.998 37.33V38.408H22.412V37.33H27.998ZM30.0249 41.978C31.2103 41.026 32.1389 40.2467 32.8109 39.64C33.4829 39.024 34.0476 38.3847 34.5049 37.722C34.9716 37.05 35.2049 36.392 35.2049 35.748C35.2049 35.1413 35.0556 34.6653 34.7569 34.32C34.4676 33.9653 33.9963 33.788 33.3429 33.788C32.7083 33.788 32.2136 33.9887 31.8589 34.39C31.5136 34.782 31.3269 35.3093 31.2989 35.972H30.0669C30.1043 34.9267 30.4216 34.1193 31.0189 33.55C31.6163 32.9807 32.3863 32.696 33.3289 32.696C34.2903 32.696 35.0509 32.962 35.6109 33.494C36.1803 34.026 36.4649 34.7587 36.4649 35.692C36.4649 36.4667 36.2316 37.2227 35.7649 37.96C35.3076 38.688 34.7849 39.332 34.1969 39.892C33.6089 40.4427 32.8576 41.0867 31.9429 41.824H36.7589V42.888H30.0249V41.978ZM44.6857 33.984H39.7717V37.176C39.9863 36.8773 40.3037 36.6347 40.7237 36.448C41.1437 36.252 41.5963 36.154 42.0817 36.154C42.8563 36.154 43.4863 36.3173 43.9717 36.644C44.457 36.9613 44.8023 37.3767 45.0077 37.89C45.2223 38.394 45.3297 38.9307 45.3297 39.5C45.3297 40.172 45.2037 40.774 44.9517 41.306C44.6997 41.838 44.3123 42.258 43.7897 42.566C43.2763 42.874 42.637 43.028 41.8717 43.028C40.8917 43.028 40.0983 42.776 39.4917 42.272C38.885 41.768 38.5163 41.096 38.3857 40.256H39.6317C39.753 40.788 40.0097 41.2033 40.4017 41.502C40.7937 41.8007 41.2883 41.95 41.8857 41.95C42.623 41.95 43.1783 41.7307 43.5517 41.292C43.925 40.844 44.1117 40.256 44.1117 39.528C44.1117 38.8 43.925 38.24 43.5517 37.848C43.1783 37.4467 42.6277 37.246 41.8997 37.246C41.405 37.246 40.971 37.3673 40.5977 37.61C40.2337 37.8433 39.9677 38.1653 39.7997 38.576H38.5957V32.864H44.6857V33.984ZM46.7427 35.16C46.7427 34.5253 46.934 34.0213 47.3167 33.648C47.6993 33.2653 48.1893 33.074 48.7867 33.074C49.384 33.074 49.874 33.2653 50.2567 33.648C50.6393 34.0213 50.8307 34.5253 50.8307 35.16C50.8307 35.804 50.6393 36.3173 50.2567 36.7C49.874 37.0733 49.384 37.26 48.7867 37.26C48.1893 37.26 47.6993 37.0733 47.3167 36.7C46.934 36.3173 46.7427 35.804 46.7427 35.16ZM54.9187 33.228L49.2487 43H47.9887L53.6587 33.228H54.9187ZM48.7867 33.858C48.4693 33.858 48.2173 33.97 48.0307 34.194C47.8533 34.4087 47.7647 34.7307 47.7647 35.16C47.7647 35.5893 47.8533 35.916 48.0307 36.14C48.2173 36.364 48.4693 36.476 48.7867 36.476C49.104 36.476 49.356 36.364 49.5427 36.14C49.7293 35.9067 49.8227 35.58 49.8227 35.16C49.8227 34.7307 49.7293 34.4087 49.5427 34.194C49.356 33.97 49.104 33.858 48.7867 33.858ZM52.1047 41.068C52.1047 40.424 52.296 39.9153 52.6787 39.542C53.0613 39.1593 53.5513 38.968 54.1487 38.968C54.746 38.968 55.2313 39.1593 55.6047 39.542C55.9873 39.9153 56.1787 40.424 56.1787 41.068C56.1787 41.7027 55.9873 42.2113 55.6047 42.594C55.2313 42.9767 54.746 43.168 54.1487 43.168C53.5513 43.168 53.0613 42.9813 52.6787 42.608C52.296 42.2253 52.1047 41.712 52.1047 41.068ZM54.1347 39.766C53.8173 39.766 53.5653 39.878 53.3787 40.102C53.192 40.3167 53.0987 40.6387 53.0987 41.068C53.0987 41.488 53.192 41.81 53.3787 42.034C53.5653 42.2487 53.8173 42.356 54.1347 42.356C54.452 42.356 54.704 42.2487 54.8907 42.034C55.0773 41.81 55.1707 41.488 55.1707 41.068C55.1707 40.6387 55.0773 40.3167 54.8907 40.102C54.704 39.878 54.452 39.766 54.1347 39.766Z" fill="white"/>
</svg>
