<svg width="66" height="89" viewBox="0 0 66 89" fill="none" xmlns="http://www.w3.org/2000/svg">
<path d="M14.5284 0L26.6722 21.0338H2.38452L14.5284 0Z" fill="#025C7B"/>
<rect x="14.8867" width="51.0563" height="87.7305" fill="#009ED4"/>
<path d="M40.499 72L66 88.5H14.5L40.499 72Z" fill="#FEFEFC"/>
<path d="M28.1074 37.33V38.408H22.5214V37.33H28.1074ZM31.9263 40.284C32.0196 40.816 32.2343 41.2267 32.5703 41.516C32.9156 41.8053 33.3776 41.95 33.9563 41.95C34.731 41.95 35.3003 41.6467 35.6643 41.04C36.0376 40.4333 36.215 39.4113 36.1963 37.974C36.0003 38.394 35.6736 38.7253 35.2163 38.968C34.759 39.2013 34.2503 39.318 33.6903 39.318C33.065 39.318 32.505 39.192 32.0103 38.94C31.525 38.6787 31.1423 38.3007 30.8623 37.806C30.5823 37.3113 30.4423 36.714 30.4423 36.014C30.4423 35.0153 30.7316 34.2127 31.3103 33.606C31.889 32.99 32.7103 32.682 33.7743 32.682C35.081 32.682 35.9956 33.1067 36.5183 33.956C37.0503 34.8053 37.3163 36.07 37.3163 37.75C37.3163 38.926 37.209 39.8967 36.9943 40.662C36.789 41.4273 36.4343 42.0107 35.9303 42.412C35.4356 42.8133 34.7543 43.014 33.8863 43.014C32.9343 43.014 32.1923 42.7573 31.6603 42.244C31.1283 41.7307 30.825 41.0773 30.7503 40.284H31.9263ZM33.9003 38.24C34.5256 38.24 35.039 38.0487 35.4403 37.666C35.8416 37.274 36.0423 36.7467 36.0423 36.084C36.0423 35.384 35.8463 34.8193 35.4543 34.39C35.0623 33.9607 34.5116 33.746 33.8023 33.746C33.149 33.746 32.6263 33.9513 32.2343 34.362C31.8516 34.7727 31.6603 35.314 31.6603 35.986C31.6603 36.6673 31.8516 37.2133 32.2343 37.624C32.617 38.0347 33.1723 38.24 33.9003 38.24ZM40.7447 40.284C40.838 40.816 41.0527 41.2267 41.3887 41.516C41.734 41.8053 42.196 41.95 42.7747 41.95C43.5493 41.95 44.1187 41.6467 44.4827 41.04C44.856 40.4333 45.0333 39.4113 45.0147 37.974C44.8187 38.394 44.492 38.7253 44.0347 38.968C43.5773 39.2013 43.0687 39.318 42.5087 39.318C41.8833 39.318 41.3233 39.192 40.8287 38.94C40.3433 38.6787 39.9607 38.3007 39.6807 37.806C39.4007 37.3113 39.2607 36.714 39.2607 36.014C39.2607 35.0153 39.55 34.2127 40.1287 33.606C40.7073 32.99 41.5287 32.682 42.5927 32.682C43.8993 32.682 44.814 33.1067 45.3367 33.956C45.8687 34.8053 46.1347 36.07 46.1347 37.75C46.1347 38.926 46.0273 39.8967 45.8127 40.662C45.6073 41.4273 45.2527 42.0107 44.7487 42.412C44.254 42.8133 43.5727 43.014 42.7047 43.014C41.7527 43.014 41.0107 42.7573 40.4787 42.244C39.9467 41.7307 39.6433 41.0773 39.5687 40.284H40.7447ZM42.7187 38.24C43.344 38.24 43.8573 38.0487 44.2587 37.666C44.66 37.274 44.8607 36.7467 44.8607 36.084C44.8607 35.384 44.6647 34.8193 44.2727 34.39C43.8807 33.9607 43.33 33.746 42.6207 33.746C41.9673 33.746 41.4447 33.9513 41.0527 34.362C40.67 34.7727 40.4787 35.314 40.4787 35.986C40.4787 36.6673 40.67 37.2133 41.0527 37.624C41.4353 38.0347 41.9907 38.24 42.7187 38.24ZM47.645 35.16C47.645 34.5253 47.8364 34.0213 48.219 33.648C48.6017 33.2653 49.0917 33.074 49.689 33.074C50.2864 33.074 50.7764 33.2653 51.159 33.648C51.5417 34.0213 51.733 34.5253 51.733 35.16C51.733 35.804 51.5417 36.3173 51.159 36.7C50.7764 37.0733 50.2864 37.26 49.689 37.26C49.0917 37.26 48.6017 37.0733 48.219 36.7C47.8364 36.3173 47.645 35.804 47.645 35.16ZM55.821 33.228L50.151 43H48.891L54.561 33.228H55.821ZM49.689 33.858C49.3717 33.858 49.1197 33.97 48.933 34.194C48.7557 34.4087 48.667 34.7307 48.667 35.16C48.667 35.5893 48.7557 35.916 48.933 36.14C49.1197 36.364 49.3717 36.476 49.689 36.476C50.0064 36.476 50.2584 36.364 50.445 36.14C50.6317 35.9067 50.725 35.58 50.725 35.16C50.725 34.7307 50.6317 34.4087 50.445 34.194C50.2584 33.97 50.0064 33.858 49.689 33.858ZM53.007 41.068C53.007 40.424 53.1984 39.9153 53.581 39.542C53.9637 39.1593 54.4537 38.968 55.051 38.968C55.6484 38.968 56.1337 39.1593 56.507 39.542C56.8897 39.9153 57.081 40.424 57.081 41.068C57.081 41.7027 56.8897 42.2113 56.507 42.594C56.1337 42.9767 55.6484 43.168 55.051 43.168C54.4537 43.168 53.9637 42.9813 53.581 42.608C53.1984 42.2253 53.007 41.712 53.007 41.068ZM55.037 39.766C54.7197 39.766 54.4677 39.878 54.281 40.102C54.0944 40.3167 54.001 40.6387 54.001 41.068C54.001 41.488 54.0944 41.81 54.281 42.034C54.4677 42.2487 54.7197 42.356 55.037 42.356C55.3544 42.356 55.6064 42.2487 55.793 42.034C55.9797 41.81 56.073 41.488 56.073 41.068C56.073 40.6387 55.9797 40.3167 55.793 40.102C55.6064 39.878 55.3544 39.766 55.037 39.766Z" fill="white"/>
</svg>
