<svg width="66" height="89" viewBox="0 0 66 89" fill="none" xmlns="http://www.w3.org/2000/svg">
<path d="M14.5284 0L26.6722 21.0338H2.38452L14.5284 0Z" fill="#025C7B"/>
<rect x="14.8867" width="51.0563" height="87.7305" fill="#009ED4"/>
<path d="M40.499 72L66 88.5H14.5L40.499 72Z" fill="#FEFEFC"/>
<path d="M28.3876 37.33V38.408H22.8016V37.33H28.3876ZM32.4166 37.736C31.8939 37.5307 31.4926 37.232 31.2126 36.84C30.9326 36.448 30.7926 35.972 30.7926 35.412C30.7926 34.908 30.9186 34.4553 31.1706 34.054C31.4226 33.6433 31.7959 33.3213 32.2906 33.088C32.7946 32.8453 33.4012 32.724 34.1106 32.724C34.8199 32.724 35.4219 32.8453 35.9166 33.088C36.4206 33.3213 36.7986 33.6433 37.0506 34.054C37.3119 34.4553 37.4426 34.908 37.4426 35.412C37.4426 35.9533 37.2979 36.4293 37.0086 36.84C36.7192 37.2413 36.3226 37.54 35.8186 37.736C36.3972 37.9133 36.8546 38.226 37.1906 38.674C37.5359 39.1127 37.7086 39.6447 37.7086 40.27C37.7086 40.8767 37.5592 41.4087 37.2606 41.866C36.9619 42.314 36.5372 42.664 35.9866 42.916C35.4452 43.1587 34.8199 43.28 34.1106 43.28C33.4012 43.28 32.7759 43.1587 32.2346 42.916C31.7026 42.664 31.2872 42.314 30.9886 41.866C30.6899 41.4087 30.5406 40.8767 30.5406 40.27C30.5406 39.6447 30.7086 39.108 31.0446 38.66C31.3806 38.212 31.8379 37.904 32.4166 37.736ZM36.2106 35.566C36.2106 34.9967 36.0239 34.558 35.6506 34.25C35.2772 33.942 34.7639 33.788 34.1106 33.788C33.4666 33.788 32.9579 33.942 32.5846 34.25C32.2112 34.558 32.0246 35.0013 32.0246 35.58C32.0246 36.1027 32.2159 36.5227 32.5986 36.84C32.9906 37.1573 33.4946 37.316 34.1106 37.316C34.7359 37.316 35.2399 37.1573 35.6226 36.84C36.0146 36.5133 36.2106 36.0887 36.2106 35.566ZM34.1106 38.296C33.4199 38.296 32.8552 38.4593 32.4166 38.786C31.9779 39.1033 31.7586 39.584 31.7586 40.228C31.7586 40.8253 31.9686 41.306 32.3886 41.67C32.8179 42.034 33.3919 42.216 34.1106 42.216C34.8292 42.216 35.3986 42.034 35.8186 41.67C36.2386 41.306 36.4486 40.8253 36.4486 40.228C36.4486 39.6027 36.2339 39.1267 35.8046 38.8C35.3752 38.464 34.8106 38.296 34.1106 38.296ZM39.3726 35.426C39.4379 34.5673 39.7693 33.8953 40.3666 33.41C40.9639 32.9247 41.7386 32.682 42.6906 32.682C43.3253 32.682 43.8713 32.7987 44.3286 33.032C44.7953 33.256 45.1453 33.564 45.3786 33.956C45.6213 34.348 45.7426 34.7913 45.7426 35.286C45.7426 35.8647 45.5746 36.364 45.2386 36.784C44.9119 37.204 44.4826 37.4747 43.9506 37.596V37.666C44.5573 37.8153 45.0379 38.1093 45.3926 38.548C45.7473 38.9867 45.9246 39.5607 45.9246 40.27C45.9246 40.802 45.8033 41.2827 45.5606 41.712C45.3179 42.132 44.9539 42.4633 44.4686 42.706C43.9833 42.9487 43.3999 43.07 42.7186 43.07C41.7293 43.07 40.9173 42.8133 40.2826 42.3C39.6479 41.7773 39.2933 41.04 39.2186 40.088H40.4506C40.5159 40.648 40.7446 41.1053 41.1366 41.46C41.5286 41.8147 42.0513 41.992 42.7046 41.992C43.3579 41.992 43.8526 41.824 44.1886 41.488C44.5339 41.1427 44.7066 40.6993 44.7066 40.158C44.7066 39.458 44.4733 38.954 44.0066 38.646C43.5399 38.338 42.8353 38.184 41.8926 38.184H41.5706V37.12H41.9066C42.7653 37.1107 43.4139 36.9707 43.8526 36.7C44.2913 36.42 44.5106 35.9907 44.5106 35.412C44.5106 34.9173 44.3473 34.5207 44.0206 34.222C43.7033 33.9233 43.2459 33.774 42.6486 33.774C42.0699 33.774 41.6033 33.9233 41.2486 34.222C40.8939 34.5207 40.6839 34.922 40.6186 35.426H39.3726ZM47.3647 35.16C47.3647 34.5253 47.5561 34.0213 47.9387 33.648C48.3214 33.2653 48.8114 33.074 49.4087 33.074C50.0061 33.074 50.4961 33.2653 50.8787 33.648C51.2614 34.0213 51.4527 34.5253 51.4527 35.16C51.4527 35.804 51.2614 36.3173 50.8787 36.7C50.4961 37.0733 50.0061 37.26 49.4087 37.26C48.8114 37.26 48.3214 37.0733 47.9387 36.7C47.5561 36.3173 47.3647 35.804 47.3647 35.16ZM55.5407 33.228L49.8707 43H48.6107L54.2807 33.228H55.5407ZM49.4087 33.858C49.0914 33.858 48.8394 33.97 48.6527 34.194C48.4754 34.4087 48.3867 34.7307 48.3867 35.16C48.3867 35.5893 48.4754 35.916 48.6527 36.14C48.8394 36.364 49.0914 36.476 49.4087 36.476C49.7261 36.476 49.9781 36.364 50.1647 36.14C50.3514 35.9067 50.4447 35.58 50.4447 35.16C50.4447 34.7307 50.3514 34.4087 50.1647 34.194C49.9781 33.97 49.7261 33.858 49.4087 33.858ZM52.7267 41.068C52.7267 40.424 52.9181 39.9153 53.3007 39.542C53.6834 39.1593 54.1734 38.968 54.7707 38.968C55.3681 38.968 55.8534 39.1593 56.2267 39.542C56.6094 39.9153 56.8007 40.424 56.8007 41.068C56.8007 41.7027 56.6094 42.2113 56.2267 42.594C55.8534 42.9767 55.3681 43.168 54.7707 43.168C54.1734 43.168 53.6834 42.9813 53.3007 42.608C52.9181 42.2253 52.7267 41.712 52.7267 41.068ZM54.7567 39.766C54.4394 39.766 54.1874 39.878 54.0007 40.102C53.8141 40.3167 53.7207 40.6387 53.7207 41.068C53.7207 41.488 53.8141 41.81 54.0007 42.034C54.1874 42.2487 54.4394 42.356 54.7567 42.356C55.0741 42.356 55.3261 42.2487 55.5127 42.034C55.6994 41.81 55.7927 41.488 55.7927 41.068C55.7927 40.6387 55.6994 40.3167 55.5127 40.102C55.3261 39.878 55.0741 39.766 54.7567 39.766Z" fill="white"/>
</svg>
