<svg width="66" height="88" viewBox="0 0 66 88" fill="none" xmlns="http://www.w3.org/2000/svg">
<path d="M14.0225 0L26.1663 21.0338H1.87866L14.0225 0Z" fill="#025C7B"/>
<path d="M14.3809 0H65.4371V87.7305L40 67L14.3809 87.7305V0Z" fill="#009ED4"/>
<path d="M29.7822 37.33V38.408H24.1962V37.33H29.7822ZM31.6271 34.04V32.878H34.2591V43H32.9711V34.04H31.6271ZM36.4475 37.834C36.4475 36.2287 36.7088 34.978 37.2315 34.082C37.7541 33.1767 38.6688 32.724 39.9755 32.724C41.2728 32.724 42.1828 33.1767 42.7055 34.082C43.2281 34.978 43.4895 36.2287 43.4895 37.834C43.4895 39.4673 43.2281 40.7367 42.7055 41.642C42.1828 42.5473 41.2728 43 39.9755 43C38.6688 43 37.7541 42.5473 37.2315 41.642C36.7088 40.7367 36.4475 39.4673 36.4475 37.834ZM42.2295 37.834C42.2295 37.022 42.1735 36.336 42.0615 35.776C41.9588 35.2067 41.7395 34.7493 41.4035 34.404C41.0768 34.0587 40.6008 33.886 39.9755 33.886C39.3408 33.886 38.8555 34.0587 38.5195 34.404C38.1928 34.7493 37.9735 35.2067 37.8615 35.776C37.7588 36.336 37.7075 37.022 37.7075 37.834C37.7075 38.674 37.7588 39.3787 37.8615 39.948C37.9735 40.5173 38.1928 40.9747 38.5195 41.32C38.8555 41.6653 39.3408 41.838 39.9755 41.838C40.6008 41.838 41.0768 41.6653 41.4035 41.32C41.7395 40.9747 41.9588 40.5173 42.0615 39.948C42.1735 39.3787 42.2295 38.674 42.2295 37.834ZM44.9585 35.16C44.9585 34.5253 45.1498 34.0213 45.5325 33.648C45.9152 33.2653 46.4052 33.074 47.0025 33.074C47.5998 33.074 48.0898 33.2653 48.4725 33.648C48.8552 34.0213 49.0465 34.5253 49.0465 35.16C49.0465 35.804 48.8552 36.3173 48.4725 36.7C48.0898 37.0733 47.5998 37.26 47.0025 37.26C46.4052 37.26 45.9152 37.0733 45.5325 36.7C45.1498 36.3173 44.9585 35.804 44.9585 35.16ZM53.1345 33.228L47.4645 43H46.2045L51.8745 33.228H53.1345ZM47.0025 33.858C46.6852 33.858 46.4332 33.97 46.2465 34.194C46.0692 34.4087 45.9805 34.7307 45.9805 35.16C45.9805 35.5893 46.0692 35.916 46.2465 36.14C46.4332 36.364 46.6852 36.476 47.0025 36.476C47.3198 36.476 47.5718 36.364 47.7585 36.14C47.9452 35.9067 48.0385 35.58 48.0385 35.16C48.0385 34.7307 47.9452 34.4087 47.7585 34.194C47.5718 33.97 47.3198 33.858 47.0025 33.858ZM50.3205 41.068C50.3205 40.424 50.5118 39.9153 50.8945 39.542C51.2772 39.1593 51.7672 38.968 52.3645 38.968C52.9618 38.968 53.4472 39.1593 53.8205 39.542C54.2032 39.9153 54.3945 40.424 54.3945 41.068C54.3945 41.7027 54.2032 42.2113 53.8205 42.594C53.4472 42.9767 52.9618 43.168 52.3645 43.168C51.7672 43.168 51.2772 42.9813 50.8945 42.608C50.5118 42.2253 50.3205 41.712 50.3205 41.068ZM52.3505 39.766C52.0332 39.766 51.7812 39.878 51.5945 40.102C51.4078 40.3167 51.3145 40.6387 51.3145 41.068C51.3145 41.488 51.4078 41.81 51.5945 42.034C51.7812 42.2487 52.0332 42.356 52.3505 42.356C52.6678 42.356 52.9198 42.2487 53.1065 42.034C53.2932 41.81 53.3865 41.488 53.3865 41.068C53.3865 40.6387 53.2932 40.3167 53.1065 40.102C52.9198 39.878 52.6678 39.766 52.3505 39.766Z" fill="white"/>
</svg>
