<svg width="66" height="89" viewBox="0 0 66 89" fill="none" xmlns="http://www.w3.org/2000/svg">
<path d="M14.5284 0L26.6722 21.0338H2.38452L14.5284 0Z" fill="#025C7B"/>
<rect x="14.8867" width="51.0563" height="87.7305" fill="#009ED4"/>
<path d="M40.499 72L66 88.5H14.5L40.499 72Z" fill="#FEFEFC"/>
<path d="M28.7089 37.33V38.408H23.1229V37.33H28.7089ZM37.1199 33.872L33.2279 43H31.9399L35.8879 33.998H30.4839V32.906H37.1199V33.872ZM44.9864 33.984H40.0724V37.176C40.2871 36.8773 40.6044 36.6347 41.0244 36.448C41.4444 36.252 41.8971 36.154 42.3824 36.154C43.1571 36.154 43.7871 36.3173 44.2724 36.644C44.7578 36.9613 45.1031 37.3767 45.3084 37.89C45.5231 38.394 45.6304 38.9307 45.6304 39.5C45.6304 40.172 45.5044 40.774 45.2524 41.306C45.0004 41.838 44.6131 42.258 44.0904 42.566C43.5771 42.874 42.9378 43.028 42.1724 43.028C41.1924 43.028 40.3991 42.776 39.7924 42.272C39.1858 41.768 38.8171 41.096 38.6864 40.256H39.9324C40.0538 40.788 40.3104 41.2033 40.7024 41.502C41.0944 41.8007 41.5891 41.95 42.1864 41.95C42.9238 41.95 43.4791 41.7307 43.8524 41.292C44.2258 40.844 44.4124 40.256 44.4124 39.528C44.4124 38.8 44.2258 38.24 43.8524 37.848C43.4791 37.4467 42.9284 37.246 42.2004 37.246C41.7058 37.246 41.2718 37.3673 40.8984 37.61C40.5344 37.8433 40.2684 38.1653 40.1004 38.576H38.8964V32.864H44.9864V33.984ZM47.0435 35.16C47.0435 34.5253 47.2348 34.0213 47.6175 33.648C48.0001 33.2653 48.4901 33.074 49.0875 33.074C49.6848 33.074 50.1748 33.2653 50.5575 33.648C50.9401 34.0213 51.1315 34.5253 51.1315 35.16C51.1315 35.804 50.9401 36.3173 50.5575 36.7C50.1748 37.0733 49.6848 37.26 49.0875 37.26C48.4901 37.26 48.0001 37.0733 47.6175 36.7C47.2348 36.3173 47.0435 35.804 47.0435 35.16ZM55.2195 33.228L49.5495 43H48.2895L53.9595 33.228H55.2195ZM49.0875 33.858C48.7701 33.858 48.5181 33.97 48.3315 34.194C48.1541 34.4087 48.0655 34.7307 48.0655 35.16C48.0655 35.5893 48.1541 35.916 48.3315 36.14C48.5181 36.364 48.7701 36.476 49.0875 36.476C49.4048 36.476 49.6568 36.364 49.8435 36.14C50.0301 35.9067 50.1235 35.58 50.1235 35.16C50.1235 34.7307 50.0301 34.4087 49.8435 34.194C49.6568 33.97 49.4048 33.858 49.0875 33.858ZM52.4055 41.068C52.4055 40.424 52.5968 39.9153 52.9795 39.542C53.3621 39.1593 53.8521 38.968 54.4495 38.968C55.0468 38.968 55.5321 39.1593 55.9055 39.542C56.2881 39.9153 56.4795 40.424 56.4795 41.068C56.4795 41.7027 56.2881 42.2113 55.9055 42.594C55.5321 42.9767 55.0468 43.168 54.4495 43.168C53.8521 43.168 53.3621 42.9813 52.9795 42.608C52.5968 42.2253 52.4055 41.712 52.4055 41.068ZM54.4355 39.766C54.1181 39.766 53.8661 39.878 53.6795 40.102C53.4928 40.3167 53.3995 40.6387 53.3995 41.068C53.3995 41.488 53.4928 41.81 53.6795 42.034C53.8661 42.2487 54.1181 42.356 54.4355 42.356C54.7528 42.356 55.0048 42.2487 55.1915 42.034C55.3781 41.81 55.4715 41.488 55.4715 41.068C55.4715 40.6387 55.3781 40.3167 55.1915 40.102C55.0048 39.878 54.7528 39.766 54.4355 39.766Z" fill="white"/>
</svg>
