<svg width="20" height="21" viewBox="0 0 20 21" fill="none" xmlns="http://www.w3.org/2000/svg">
<g clip-path="url(#clip0_1819_9396)">
<path d="M16.6805 3.81356C13.5586 0.687938 8.03677 1.14856 4.34739 4.84231C0.658015 8.53606 0.198015 14.0636 3.31989 17.1892C4.56176 18.4323 6.18301 19.1061 7.91802 19.2348C9.35989 19.3423 10.4018 17.8629 9.89427 16.5079L9.59864 15.7192C9.17927 14.5992 10.0824 13.6442 11.0624 13.9504L12.2968 14.3367C15.0568 15.2004 18.0618 13.5373 18.5936 10.6917C19.0699 8.14169 18.4549 5.58981 16.6805 3.81356ZM5.31239 14.8754C4.44927 14.8754 3.74989 14.1761 3.74989 13.3129C3.74989 12.4498 4.44927 11.7504 5.31239 11.7504C6.17552 11.7504 6.87489 12.4498 6.87489 13.3129C6.87489 14.1761 6.17552 14.8754 5.31239 14.8754ZM6.56239 9.25044C5.69927 9.25044 4.99989 8.55106 4.99989 7.68794C4.99989 6.82481 5.69927 6.12544 6.56239 6.12544C7.42552 6.12544 8.12489 6.82481 8.12489 7.68794C8.12489 8.55106 7.42552 9.25044 6.56239 9.25044ZM12.1874 7.37544C11.3243 7.37544 10.6249 6.67606 10.6249 5.81294C10.6249 4.94981 11.3243 4.25044 12.1874 4.25044C13.0505 4.25044 13.7499 4.94981 13.7499 5.81294C13.7499 6.67606 13.0505 7.37544 12.1874 7.37544ZM15.3124 11.7504C14.4493 11.7504 13.7499 11.0511 13.7499 10.1879C13.7499 9.32481 14.4493 8.62544 15.3124 8.62544C16.1755 8.62544 16.8749 9.32481 16.8749 10.1879C16.8749 11.0511 16.1755 11.7504 15.3124 11.7504Z" fill="white"/>
</g>
<defs>
<clipPath id="clip0_1819_9396">
<rect width="20" height="20" fill="white" transform="translate(0 0.5)"/>
</clipPath>
</defs>
</svg>
