<svg width="20" height="20" viewBox="0 0 20 20" fill="none" xmlns="http://www.w3.org/2000/svg">
<path fill-rule="evenodd" clip-rule="evenodd" d="M2.11663 5.00033L2.49996 9.60449C2.50829 10.142 2.85413 10.5962 3.33329 10.7628V16.2503H2.70829C2.43329 16.2503 2.16663 16.3587 1.97079 16.5545C1.77496 16.7503 1.66663 17.0128 1.66663 17.292C1.66663 17.5712 1.77496 17.8337 1.97079 18.0295C2.16663 18.2253 2.42913 18.3337 2.70829 18.3337H17.2916C17.5666 18.3337 17.8333 18.2253 18.0291 18.0295C18.225 17.8337 18.3333 17.5712 18.3333 17.292C18.3333 17.0128 18.225 16.7503 18.0291 16.5545C17.9958 16.5212 17.9583 16.4878 17.9166 16.4587V15.0003C17.9166 14.7712 17.7291 14.5837 17.5 14.5837V13.7503C17.5 13.5212 17.3125 13.3337 17.0833 13.3337H16.875V7.08783L17.2291 7.18366C17.45 7.24199 17.6791 7.11283 17.7416 6.88783L18.0666 5.67949C18.125 5.45866 17.9958 5.22949 17.7708 5.16699L7.03746 2.29616L7.06246 2.21699C7.10413 2.09199 7.08329 1.95033 7.00413 1.84199C6.92496 1.73366 6.79996 1.66699 6.66663 1.66699H2.08329C1.85413 1.66699 1.66663 1.85449 1.66663 2.08366V4.58366C1.66663 4.81283 1.85413 5.00033 2.08329 5.00033H2.11663ZM17.2916 17.0837H2.70829C2.65413 17.0837 2.59996 17.1045 2.56246 17.1462C2.52496 17.1878 2.49996 17.2378 2.49996 17.292C2.49996 17.3462 2.52079 17.4003 2.56246 17.4378C2.60413 17.4753 2.65413 17.5003 2.70829 17.5003H17.2916C17.3458 17.5003 17.4 17.4795 17.4375 17.4378C17.475 17.3962 17.5 17.3462 17.5 17.292C17.5 17.2378 17.4791 17.1837 17.4375 17.1462C17.3958 17.1087 17.3458 17.0837 17.2916 17.0837ZM17.0833 15.417H15.8333V16.2503H17.0833V15.417ZM16.0416 13.3337V6.86283L11.25 5.57949V6.25033H11.6666C11.8958 6.25033 12.0833 6.43783 12.0833 6.66699V7.91699C12.0833 8.10449 11.9625 8.26283 11.7916 8.31283L13.65 15.0003H14.1666C14.3958 15.0003 14.5833 15.1878 14.5833 15.417V16.2503H15V15.0003C15 14.7712 15.1875 14.5837 15.4166 14.5837V13.7503C15.4166 13.5212 15.6041 13.3337 15.8333 13.3337H16.0416ZM9.99996 13.592L7.21663 15.0003H7.49996C7.72913 15.0003 7.91663 15.1878 7.91663 15.417V16.2503H12.0833V15.417C12.0833 15.1878 12.2708 15.0003 12.5 15.0003H12.7833L9.99996 13.592ZM6.37496 4.27533L6.22913 4.71699C6.17079 4.88783 6.01246 5.00033 5.83329 5.00033H5.38329L4.99996 9.60449C4.99163 10.142 4.64579 10.5962 4.16663 10.7628V16.2503H5.41663V15.417C5.41663 15.1878 5.60413 15.0003 5.83329 15.0003H6.34996L8.20829 8.31283C8.04163 8.25866 7.91663 8.10033 7.91663 7.91699V6.66699C7.91663 6.43783 8.10413 6.25033 8.33329 6.25033H8.74996V4.90866L6.37496 4.27116V4.27533ZM13.75 15.8337H12.9166V16.2503H13.75V15.8337ZM7.08329 15.8337H6.24996V16.2503H7.08329V15.8337ZM16.6666 14.167V14.5837H16.25V14.167H16.6666ZM7.52079 13.9003L9.06663 13.1253L7.89579 12.542L7.51663 13.9003H7.52079ZM10.9333 13.1253L12.4791 13.9003L12.1 12.542L10.9291 13.1253H10.9333ZM8.74579 12.0337L9.99996 12.6628L11.2541 12.0337L9.99996 11.1962L8.74579 12.0337ZM10.75 10.6962L11.7791 11.3837L11.4583 10.2253L10.75 10.6962ZM8.22079 11.3837L9.24996 10.6962L8.54163 10.2253L8.22079 11.3837ZM9.06663 8.33783L8.77496 9.38366L9.99996 10.2003L11.225 9.38366L10.9333 8.33783H9.06663ZM3.74996 9.17116C3.97913 9.17116 4.16663 9.35866 4.16663 9.58783C4.16663 9.81699 3.97913 10.0045 3.74996 10.0045C3.52079 10.0045 3.33329 9.81699 3.33329 9.58783C3.33329 9.35866 3.52079 9.17116 3.74996 9.17116ZM4.25829 8.44616L4.54579 5.00449H2.94996L3.23746 8.44616C3.39163 8.37533 3.56663 8.33783 3.74579 8.33783C3.92496 8.33783 4.09996 8.37533 4.25413 8.44616H4.25829ZM11.25 7.08783H8.74996V7.50449H11.25V7.08783ZM6.77079 3.08783L6.63746 3.48366L17.0416 6.27116L17.15 5.86699L6.77079 3.08783ZM9.58329 6.25033H10.4166V5.35866L9.58329 5.13366V6.25033ZM2.49996 4.16699H5.53329L6.08746 2.50033H2.49996V4.16699Z" fill="#F5F5F5"/>
</svg>
