<svg width="20" height="15" viewBox="0 0 20 15" fill="none" xmlns="http://www.w3.org/2000/svg">
<g clip-path="url(#clip0_1823_3242)">
<path d="M18.8007 4.6565H16.6524C16.5869 4.6565 16.5242 4.63051 16.4779 4.58425C16.4316 4.53798 16.4057 4.47523 16.4057 4.4098V0.606477C16.4057 0.541048 16.4316 0.478298 16.4779 0.432033C16.5242 0.385767 16.5869 0.359775 16.6524 0.359775H16.8511V0H16.2583C16.1929 0 16.1301 0.0259921 16.0839 0.0722577C16.0376 0.118523 16.0116 0.181273 16.0116 0.246702V4.4098C16.0116 4.47523 15.9856 4.53798 15.9393 4.58425C15.8931 4.63051 15.8303 4.6565 15.7649 4.6565H11.7903C11.7248 4.6565 11.6621 4.63051 11.6158 4.58425C11.5696 4.53798 11.5436 4.47523 11.5436 4.4098V0.829192C11.5436 0.763763 11.5176 0.701013 11.4713 0.654748C11.425 0.608482 11.3623 0.582493 11.2969 0.582493H5.06078C4.99684 0.581567 4.9351 0.605854 4.88893 0.6501C4.84276 0.694346 4.81587 0.754991 4.81407 0.818914L4.6873 3.8136C4.68401 3.87433 4.6584 3.9317 4.6154 3.9747C4.5724 4.01771 4.51503 4.04331 4.4543 4.0466C3.28195 4.12796 2.17131 4.6024 1.302 5.39318C1.2568 5.43875 1.23145 5.50032 1.23145 5.5645C1.23145 5.62868 1.2568 5.69026 1.302 5.73582L1.58639 6.01679C1.63238 6.06117 1.6938 6.08598 1.75772 6.08598C1.82163 6.08598 1.88305 6.06117 1.92904 6.01679C2.70171 5.39885 3.66025 5.05962 4.64961 5.05397H4.67702C4.97053 5.05407 5.26326 5.08392 5.55075 5.14305C6.0746 5.24683 6.57436 5.44789 7.02412 5.73582C7.33928 5.92305 7.6265 6.15374 7.87729 6.42111C8.31003 6.87202 8.64074 7.41073 8.84697 8.00068C8.92854 8.22276 8.98821 8.45228 9.02514 8.68597C9.07334 8.94127 9.09743 9.20053 9.0971 9.46034C9.09679 9.84066 9.04844 10.2194 8.95319 10.5876C8.94435 10.6235 8.94379 10.6609 8.95154 10.697C8.95929 10.7331 8.97516 10.7669 8.99795 10.796C9.02073 10.825 9.04982 10.8485 9.08303 10.8647C9.11624 10.8808 9.15269 10.8892 9.18962 10.8892H12.7017C12.7631 10.8885 12.8221 10.865 12.8671 10.8232C12.9121 10.7813 12.9399 10.7242 12.945 10.663C13.0204 9.99003 13.2744 9.34947 13.6808 8.80774C14.0871 8.26601 14.631 7.84283 15.256 7.58207C15.8809 7.32131 16.5643 7.23247 17.2352 7.32475C17.9061 7.41704 18.54 7.68709 19.0714 8.10691C19.105 8.13497 19.1456 8.15344 19.1888 8.16038C19.232 8.16732 19.2763 8.16246 19.317 8.14632C19.3577 8.13018 19.3933 8.10336 19.42 8.06868C19.4468 8.034 19.4636 7.99276 19.4689 7.94929L19.7498 5.6673C19.7593 5.53734 19.7417 5.40682 19.6982 5.284C19.6547 5.16118 19.5862 5.04872 19.497 4.95372C19.4078 4.85873 19.2998 4.78327 19.18 4.73211C19.0602 4.68096 18.931 4.65521 18.8007 4.6565ZM7.00698 4.13911C7.00794 4.1803 6.99857 4.22108 6.97972 4.25772C6.96087 4.29436 6.93314 4.32569 6.89907 4.34886C6.865 4.37203 6.82566 4.3863 6.78466 4.39036C6.74366 4.39442 6.70229 4.38814 6.66434 4.37211C6.38876 4.26629 6.10442 4.18489 5.81459 4.12883C5.75499 4.11877 5.70127 4.08687 5.6639 4.03937C5.62653 3.99186 5.60819 3.93215 5.61244 3.87185L5.76662 1.66524C5.77174 1.60311 5.79988 1.54514 5.84551 1.50267C5.89115 1.46021 5.95099 1.43631 6.01332 1.43567H6.75C6.81543 1.43567 6.87818 1.46166 6.92445 1.50793C6.97071 1.55419 6.9967 1.61694 6.9967 1.68237L7.00698 4.13911ZM10.6561 7.7951C10.6561 7.86053 10.6301 7.92328 10.5839 7.96955C10.5376 8.01581 10.4748 8.0418 10.4094 8.0418H10.2347C10.143 8.04088 10.0542 8.01035 9.98129 7.95478C9.90842 7.8992 9.85548 7.82156 9.83035 7.73342C9.50448 6.6721 8.84924 5.74204 7.95952 5.07795C7.92922 5.05507 7.90454 5.0256 7.88732 4.99176C7.8701 4.95792 7.86082 4.92061 7.86016 4.88265V1.68237C7.86105 1.61722 7.88733 1.55498 7.9334 1.50891C7.97948 1.46283 8.04171 1.43656 8.10687 1.43567H10.4094C10.4748 1.43567 10.5376 1.46166 10.5839 1.50793C10.6301 1.55419 10.6561 1.61694 10.6561 1.68237V7.7951Z" fill="#F5F5F5"/>
<path d="M8.0178 10.2585C8.00529 10.2568 7.99261 10.2568 7.98011 10.2585C7.98011 10.2071 7.98011 10.1557 7.98011 10.1009C7.98011 10.0461 7.98011 9.99809 7.98011 9.9467C7.99247 9.94989 8.00544 9.94989 8.0178 9.9467C8.14899 9.9233 8.26557 9.84886 8.34199 9.73968C8.41842 9.6305 8.44846 9.49549 8.42554 9.36421C8.4013 9.23253 8.32631 9.11565 8.21671 9.03874C8.10712 8.96183 7.9717 8.93105 7.83963 8.95303H7.80536C7.7766 8.85366 7.74111 8.75635 7.69914 8.66179L7.73341 8.64466C7.79151 8.61186 7.8425 8.56783 7.88345 8.51515C7.9244 8.46247 7.95447 8.40219 7.97192 8.33779C7.98937 8.27339 7.99386 8.20616 7.98511 8.14002C7.97636 8.07387 7.95456 8.01012 7.92097 7.95247C7.88738 7.89483 7.84267 7.84443 7.78943 7.8042C7.7362 7.76397 7.67551 7.73473 7.61088 7.71816C7.54625 7.70158 7.47896 7.69802 7.41294 7.70766C7.34692 7.71731 7.28348 7.73998 7.22629 7.77435L7.19889 7.79491C7.13721 7.71267 7.06868 7.63387 7.00015 7.55506C7.00015 7.55506 7.01729 7.55506 7.02757 7.5345C7.10295 7.43071 7.13619 7.30221 7.12061 7.17489C7.10503 7.04757 7.04176 6.93088 6.94358 6.84834C6.84539 6.76579 6.71958 6.72352 6.59147 6.73004C6.46337 6.73656 6.34249 6.79139 6.25319 6.88348C6.25319 6.88348 6.23606 6.90061 6.23264 6.91089C6.14699 6.85476 6.05771 6.80439 5.96538 6.76013C5.96729 6.74879 5.96729 6.7372 5.96538 6.72586C6.01081 6.6 6.00438 6.46125 5.94752 6.34012C5.89065 6.219 5.78799 6.12542 5.66213 6.07999C5.53627 6.03455 5.39752 6.04097 5.27639 6.09784C5.15526 6.15471 5.06169 6.25736 5.01625 6.38322C5.01465 6.39344 5.01465 6.40384 5.01625 6.41406C4.91589 6.39 4.81401 6.37283 4.7113 6.36266C4.713 6.35016 4.713 6.33748 4.7113 6.32497C4.7113 6.19139 4.65823 6.06327 4.56377 5.96882C4.46931 5.87436 4.34121 5.82129 4.20762 5.82129C4.07404 5.82129 3.94592 5.87436 3.85146 5.96882C3.757 6.06327 3.70394 6.19139 3.70394 6.32497V6.36266C3.60123 6.37283 3.49934 6.39 3.39898 6.41406V6.38322C3.34853 6.26471 3.2546 6.17003 3.13649 6.11865C3.01838 6.06726 2.88507 6.06308 2.76397 6.10696C2.64287 6.15083 2.54318 6.23944 2.4854 6.35455C2.42761 6.46966 2.41613 6.60254 2.4533 6.72586V6.7567C2.36162 6.80347 2.27241 6.85493 2.18604 6.91089L2.16548 6.88348C2.12273 6.83286 2.07043 6.79115 2.01157 6.76074C1.9527 6.73033 1.88842 6.71182 1.8224 6.70625C1.75638 6.70068 1.68991 6.70817 1.62679 6.72829C1.56366 6.74841 1.50511 6.78077 1.45449 6.82352C1.40387 6.86626 1.36216 6.91856 1.33175 6.97743C1.30134 7.03629 1.28283 7.10057 1.27726 7.16659C1.2717 7.23261 1.27919 7.29908 1.29931 7.36221C1.31943 7.42533 1.35179 7.48388 1.39453 7.5345C1.39453 7.5345 1.39453 7.5345 1.41851 7.55506C1.34851 7.63089 1.28329 7.71099 1.22321 7.79491L1.18895 7.77435C1.07354 7.70801 0.936498 7.69023 0.807982 7.72493C0.679467 7.75963 0.570002 7.84397 0.503664 7.95938C0.437326 8.07479 0.419547 8.21182 0.454246 8.34034C0.488945 8.46885 0.573283 8.57832 0.688694 8.64466C0.697728 8.65237 0.708212 8.65819 0.71953 8.66179C0.678413 8.75773 0.644146 8.85367 0.609882 8.95303C0.609882 8.95303 0.589325 8.95303 0.579046 8.95303C0.446975 8.93105 0.311554 8.96183 0.20196 9.03874C0.0923657 9.11565 0.0173626 9.23253 -0.00687923 9.36421C-0.0181932 9.42946 -0.0165236 9.4963 -0.00197509 9.56091C0.0125734 9.62552 0.0397224 9.68662 0.0779133 9.74072C0.116104 9.79483 0.164588 9.84087 0.220594 9.87621C0.276599 9.91156 0.339022 9.93551 0.404295 9.9467H0.438561C0.435146 9.99804 0.435146 10.0495 0.438561 10.1009C0.435065 10.1534 0.435065 10.206 0.438561 10.2585H0.404295C0.33905 10.27 0.276701 10.2942 0.220813 10.3298C0.164926 10.3653 0.116594 10.4116 0.0785721 10.4658C0.0405505 10.52 0.0135844 10.5813 -0.000783033 10.6459C-0.0151504 10.7106 -0.0166384 10.7775 -0.00516435 10.8427C0.00630972 10.908 0.0305286 10.9703 0.0660974 11.0262C0.101666 11.0821 0.147889 11.1304 0.202138 11.1684C0.256386 11.2064 0.317594 11.2334 0.382263 11.2478C0.446932 11.2621 0.513801 11.2636 0.579046 11.2522H0.609882C0.644146 11.3515 0.678413 11.4475 0.71953 11.5434H0.688694C0.631548 11.5763 0.581429 11.62 0.541203 11.6723C0.500978 11.7245 0.471428 11.7841 0.454246 11.8477C0.437065 11.9114 0.432593 11.9778 0.441071 12.0431C0.449549 12.1085 0.470817 12.1715 0.503664 12.2287C0.536511 12.2858 0.580295 12.336 0.63251 12.3762C0.684726 12.4164 0.744348 12.446 0.807982 12.4631C0.871617 12.4803 0.938009 12.4848 1.00337 12.4763C1.06874 12.4678 1.1318 12.4466 1.18895 12.4137C1.2015 12.409 1.2131 12.402 1.22321 12.3932C1.28243 12.4777 1.3477 12.5579 1.41851 12.633C1.40968 12.6401 1.40164 12.6482 1.39453 12.657C1.30873 12.7593 1.26702 12.8914 1.27858 13.0244C1.29015 13.1574 1.35404 13.2803 1.45621 13.3663C1.50645 13.4096 1.56487 13.4425 1.62801 13.4629C1.69115 13.4833 1.75774 13.4909 1.82385 13.4851C1.88996 13.4794 1.95425 13.4604 2.01293 13.4294C2.0716 13.3984 2.12348 13.356 2.16548 13.3046L2.18604 13.2806C2.27512 13.3354 2.36078 13.3868 2.4533 13.4348C2.45392 13.4439 2.45392 13.4531 2.4533 13.4622C2.43038 13.5245 2.42 13.5907 2.42276 13.6571C2.42553 13.7234 2.44137 13.7885 2.46939 13.8487C2.49741 13.9089 2.53706 13.9629 2.58604 14.0077C2.63503 14.0525 2.69239 14.0872 2.75482 14.1098C2.81685 14.1331 2.88292 14.1438 2.94915 14.1413C3.01538 14.1387 3.08042 14.1229 3.14044 14.0948C3.20047 14.0667 3.25427 14.0269 3.29867 13.9777C3.34307 13.9284 3.37717 13.8709 3.39898 13.8083V13.7774C3.49934 13.8015 3.60123 13.8187 3.70394 13.8288V13.8631C3.70394 13.9967 3.757 14.1248 3.85146 14.2193C3.94592 14.3137 4.07404 14.3668 4.20762 14.3668C4.34121 14.3668 4.46931 14.3137 4.56377 14.2193C4.65823 14.1248 4.7113 13.9967 4.7113 13.8631C4.71299 13.8517 4.71299 13.8402 4.7113 13.8288C4.81401 13.8187 4.91589 13.8015 5.01625 13.7774C5.01465 13.7876 5.01465 13.7981 5.01625 13.8083C5.06169 13.9341 5.15526 14.0368 5.27639 14.0937C5.39752 14.1505 5.53627 14.1569 5.66213 14.1115C5.78799 14.0661 5.89065 13.9725 5.94752 13.8514C6.00438 13.7302 6.01081 13.5915 5.96538 13.4656C5.96667 13.4554 5.96667 13.445 5.96538 13.4348C6.05701 13.3892 6.14622 13.3389 6.23264 13.284L6.25319 13.308C6.29519 13.3594 6.34706 13.4018 6.40573 13.4328C6.46441 13.4638 6.5287 13.4828 6.59481 13.4885C6.66092 13.4943 6.72752 13.4867 6.79066 13.4663C6.85381 13.4459 6.91223 13.413 6.96246 13.3697C7.06514 13.2843 7.12968 13.1615 7.14189 13.0285C7.1541 12.8955 7.11298 12.7631 7.02757 12.6604L7.00015 12.6364C7.06868 12.5611 7.13721 12.4788 7.19889 12.3966C7.20624 12.4055 7.21564 12.4126 7.22629 12.4171C7.28348 12.4515 7.34692 12.4742 7.41294 12.4838C7.47896 12.4935 7.54625 12.4899 7.61088 12.4733C7.67551 12.4568 7.7362 12.4275 7.78943 12.3873C7.84267 12.3471 7.88738 12.2967 7.92097 12.239C7.95456 12.1814 7.97636 12.1176 7.98511 12.0515C7.99386 11.9853 7.98937 11.9181 7.97192 11.8537C7.95447 11.7893 7.9244 11.729 7.88345 11.6763C7.8425 11.6237 7.79151 11.5796 7.73341 11.5468H7.69914C7.74111 11.4523 7.7766 11.355 7.80536 11.2556H7.83963C7.97139 11.2792 8.10714 11.2495 8.21703 11.1731C8.32691 11.0966 8.40191 10.9796 8.42554 10.8478C8.44917 10.7161 8.41948 10.5803 8.34302 10.4704C8.26655 10.3606 8.14956 10.2856 8.0178 10.2619V10.2585ZM4.21447 12.2047C3.79837 12.2047 3.39162 12.0813 3.04565 11.8502C2.69968 11.619 2.43003 11.2904 2.2708 10.906C2.11156 10.5216 2.0699 10.0986 2.15108 9.69045C2.23226 9.28235 2.43263 8.90749 2.72685 8.61326C3.02108 8.31904 3.39594 8.11867 3.80404 8.03749C4.21214 7.95631 4.63514 7.99798 5.01957 8.15721C5.40399 8.31644 5.73256 8.5861 5.96373 8.93207C6.1949 9.27804 6.3183 9.68479 6.3183 10.1009C6.3183 10.6589 6.09664 11.194 5.7021 11.5885C5.30756 11.9831 4.77244 12.2047 4.21447 12.2047ZM19.6847 11.2522H19.6573C19.6573 11.2145 19.6573 11.1734 19.6573 11.1357C19.6573 11.098 19.6573 11.0569 19.6573 11.0192C19.6662 11.0226 19.6759 11.0226 19.6847 11.0192C19.7336 11.0106 19.7802 10.9925 19.8221 10.966C19.8639 10.9394 19.9001 10.9048 19.9286 10.8642C19.957 10.8237 19.9772 10.7779 19.988 10.7295C19.9988 10.6811 20 10.6311 19.9914 10.5823C19.9829 10.5335 19.9648 10.4868 19.9382 10.445C19.9116 10.4032 19.8771 10.367 19.8365 10.3385C19.7959 10.31 19.7501 10.2898 19.7018 10.279C19.6534 10.2682 19.6034 10.2671 19.5545 10.2756H19.5271C19.506 10.2008 19.4797 10.1275 19.4483 10.0563H19.4723C19.5591 10.0068 19.6226 9.92482 19.6489 9.82844C19.6753 9.73207 19.6623 9.62917 19.6128 9.54238C19.5626 9.45539 19.48 9.39179 19.3831 9.36547C19.2861 9.33915 19.1827 9.35225 19.0954 9.4019C19.0954 9.4019 19.0783 9.4019 19.0748 9.41903C19.0269 9.35735 18.9755 9.29568 18.9241 9.24086L18.9446 9.2203C19.0087 9.14351 19.0396 9.04441 19.0307 8.94481C19.0217 8.84521 18.9735 8.75327 18.8967 8.6892C18.8199 8.62514 18.7208 8.5942 18.6212 8.60319C18.5216 8.61219 18.4296 8.66038 18.3656 8.73717C18.3656 8.73717 18.3656 8.73717 18.3484 8.73717C18.2846 8.69546 18.2182 8.65769 18.1497 8.6241V8.60011C18.1738 8.50824 18.1626 8.41068 18.1184 8.32662C18.0742 8.24256 18.0002 8.17809 17.9108 8.14587C17.8215 8.11366 17.7233 8.11603 17.6356 8.15254C17.548 8.18904 17.4771 8.25703 17.437 8.34313C17.437 8.34313 17.437 8.34313 17.437 8.36712C17.3616 8.36712 17.2828 8.33628 17.2075 8.326C17.2091 8.31809 17.2091 8.30993 17.2075 8.30202C17.1985 8.20782 17.1547 8.12034 17.0847 8.05668C17.0147 7.99302 16.9235 7.95774 16.8288 7.95774C16.7342 7.95774 16.643 7.99302 16.573 8.05668C16.5029 8.12034 16.4592 8.20782 16.4502 8.30202C16.4486 8.30993 16.4486 8.31809 16.4502 8.326C16.3714 8.326 16.296 8.34999 16.2206 8.36712C16.2211 8.35913 16.2211 8.35112 16.2206 8.34313C16.2038 8.29656 16.1779 8.25377 16.1445 8.2172C16.1111 8.18063 16.0708 8.151 16.0259 8.13C15.9811 8.109 15.9325 8.09705 15.883 8.09481C15.8335 8.09258 15.7841 8.10012 15.7375 8.11699C15.6909 8.13386 15.6482 8.15975 15.6116 8.19316C15.575 8.22657 15.5454 8.26685 15.5244 8.31172C15.5034 8.35658 15.4914 8.40514 15.4892 8.45462C15.487 8.5041 15.4945 8.55354 15.5114 8.60011V8.6241C15.4428 8.65836 15.3777 8.69605 15.3092 8.73717C15.2451 8.66038 15.1532 8.61219 15.0536 8.60319C14.954 8.5942 14.8549 8.62514 14.7781 8.6892C14.7013 8.75327 14.6531 8.84521 14.6441 8.94481C14.6351 9.04441 14.6661 9.14351 14.7301 9.2203L14.7473 9.24086C14.6945 9.29712 14.6453 9.35662 14.5999 9.41903L14.576 9.4019C14.4894 9.35567 14.3882 9.34502 14.2939 9.37221C14.1996 9.39941 14.1197 9.46231 14.071 9.54754C14.0224 9.63277 14.0089 9.73361 14.0335 9.82863C14.058 9.92364 14.1186 10.0053 14.2025 10.0563H14.2265C14.1956 10.1283 14.1682 10.2003 14.1442 10.2756H14.1202C14.0714 10.2671 14.0214 10.2682 13.973 10.279C13.9247 10.2898 13.8789 10.31 13.8383 10.3385C13.7977 10.367 13.7632 10.4032 13.7366 10.445C13.71 10.4868 13.6919 10.5335 13.6834 10.5823C13.6748 10.6311 13.676 10.6811 13.6868 10.7295C13.6976 10.7779 13.7178 10.8237 13.7462 10.8642C13.7747 10.9048 13.8109 10.9394 13.8527 10.966C13.8946 10.9925 13.9412 11.0106 13.99 11.0192H14.0037C14.0037 11.0569 14.0037 11.0945 14.0037 11.1357C14.0037 11.1768 14.0037 11.2145 14.0037 11.2522C13.9112 11.2761 13.831 11.334 13.7792 11.4143C13.7274 11.4946 13.7078 11.5915 13.7242 11.6857C13.7406 11.7799 13.7919 11.8644 13.8678 11.9225C13.9437 11.9806 14.0388 12.0079 14.134 11.9991H14.1579C14.1819 12.0711 14.2093 12.143 14.2402 12.2184C14.2364 12.2168 14.2323 12.216 14.2282 12.216C14.2241 12.216 14.22 12.2168 14.2162 12.2184C14.1685 12.2402 14.1258 12.2716 14.0909 12.3108C14.0561 12.35 14.0298 12.3961 14.0137 12.446C13.9976 12.4959 13.9922 12.5487 13.9977 12.6008C14.0032 12.653 14.0195 12.7034 14.0456 12.7489C14.0717 12.7944 14.107 12.834 14.1493 12.865C14.1915 12.8961 14.2398 12.918 14.291 12.9294C14.3422 12.9407 14.3952 12.9412 14.4467 12.9309C14.4981 12.9206 14.5468 12.8997 14.5897 12.8694H14.6137C14.6582 12.9311 14.7096 12.9894 14.761 13.0476C14.7553 13.0464 14.7495 13.0464 14.7439 13.0476C14.7119 13.0856 14.6878 13.1296 14.6728 13.1769C14.6578 13.2243 14.6523 13.2741 14.6566 13.3236C14.6609 13.3731 14.6749 13.4212 14.6978 13.4653C14.7207 13.5093 14.7521 13.5485 14.7901 13.5804C14.8281 13.6124 14.8721 13.6365 14.9194 13.6515C14.9668 13.6664 15.0166 13.6719 15.0661 13.6676C15.1156 13.6633 15.1637 13.6493 15.2078 13.6264C15.2518 13.6035 15.291 13.5722 15.3229 13.5342V13.5136C15.3914 13.5547 15.4566 13.5958 15.5251 13.6301C15.5257 13.6369 15.5257 13.6438 15.5251 13.6507C15.508 13.6972 15.5002 13.7467 15.5022 13.7963C15.5043 13.8458 15.516 13.8945 15.5369 13.9396C15.5577 13.9846 15.5872 14.0251 15.6237 14.0587C15.6602 14.0923 15.7029 14.1184 15.7495 14.1355C15.7961 14.1526 15.8456 14.1603 15.8951 14.1583C15.9447 14.1563 15.9934 14.1445 16.0384 14.1237C16.0834 14.1029 16.1239 14.0733 16.1575 14.0369C16.1911 14.0004 16.2173 13.9576 16.2343 13.9111C16.2339 13.9031 16.2339 13.8951 16.2343 13.8871C16.3099 13.9049 16.3866 13.9175 16.4639 13.9248C16.4622 13.9338 16.4622 13.9431 16.4639 13.9522C16.4729 14.0464 16.5167 14.1339 16.5867 14.1975C16.6567 14.2612 16.7479 14.2965 16.8425 14.2965C16.9372 14.2965 17.0284 14.2612 17.0984 14.1975C17.1684 14.1339 17.2122 14.0464 17.2212 13.9522C17.2228 13.9431 17.2228 13.9338 17.2212 13.9248C17.2984 13.9172 17.3751 13.9046 17.4507 13.8871C17.4507 13.8871 17.4507 13.8871 17.4507 13.9111C17.49 13.9989 17.5612 14.0686 17.6498 14.1061C17.7385 14.1435 17.838 14.146 17.9284 14.113C18.0188 14.0799 18.0933 14.0139 18.1369 13.9281C18.1805 13.8423 18.19 13.7431 18.1634 13.6507V13.6267C18.2326 13.5944 18.2991 13.5566 18.3622 13.5136L18.3793 13.5342C18.411 13.5723 18.4499 13.6038 18.4939 13.6268C18.5379 13.6497 18.586 13.6637 18.6355 13.6678C18.6849 13.672 18.7347 13.6662 18.7819 13.6509C18.8291 13.6356 18.8728 13.6111 18.9104 13.5787C18.9864 13.5141 19.0341 13.4223 19.043 13.323C19.052 13.2236 19.0216 13.1247 18.9583 13.0476H18.9378C18.9892 12.9894 19.0406 12.9311 19.0886 12.8694C19.0886 12.8694 19.0885 12.8694 19.1091 12.8694C19.152 12.8981 19.2002 12.9176 19.2509 12.9269C19.3016 12.9361 19.3537 12.9348 19.4039 12.9232C19.4541 12.9115 19.5014 12.8897 19.5428 12.859C19.5842 12.8283 19.6189 12.7895 19.6447 12.7449C19.6705 12.7003 19.6869 12.6509 19.6929 12.5997C19.6989 12.5485 19.6943 12.4966 19.6794 12.4473C19.6645 12.3979 19.6397 12.3522 19.6064 12.3128C19.5732 12.2734 19.5322 12.2413 19.486 12.2184C19.4822 12.2168 19.4781 12.216 19.474 12.216C19.4699 12.216 19.4658 12.2168 19.462 12.2184C19.4923 12.1468 19.5186 12.0736 19.5408 11.9991H19.5682C19.6191 12.0123 19.6721 12.0147 19.7239 12.0063C19.7758 11.998 19.8253 11.979 19.8695 11.9505C19.9136 11.9221 19.9514 11.8848 19.9804 11.841C20.0094 11.7972 20.029 11.7479 20.038 11.6962C20.0471 11.6445 20.0453 11.5914 20.0328 11.5404C20.0203 11.4894 19.9974 11.4415 19.9655 11.3998C19.9336 11.3581 19.8934 11.3235 19.8474 11.298C19.8015 11.2726 19.7507 11.257 19.6985 11.2522H19.6847ZM16.8374 12.7118C16.5257 12.7118 16.2209 12.6194 15.9617 12.4462C15.7025 12.273 15.5005 12.0268 15.3812 11.7388C15.2619 11.4508 15.2307 11.1339 15.2915 10.8282C15.3523 10.5224 15.5025 10.2416 15.7229 10.0212C15.9433 9.80073 16.2242 9.65061 16.5299 9.5898C16.8356 9.52898 17.1526 9.56019 17.4406 9.67949C17.7286 9.79878 17.9747 10.0008 18.1479 10.26C18.3211 10.5192 18.4135 10.8239 18.4135 11.1357C18.4126 11.5534 18.2463 11.9538 17.9509 12.2492C17.6555 12.5446 17.2551 12.7109 16.8374 12.7118Z" fill="#F5F5F5"/>
</g>
<defs>
<clipPath id="clip0_1823_3242">
<rect width="20" height="14.3738" fill="white"/>
</clipPath>
</defs>
</svg>
