<svg width="20" height="21" viewBox="0 0 20 21" fill="none" xmlns="http://www.w3.org/2000/svg">
<g clip-path="url(#clip0_1819_9406)">
<path d="M2.07083 8.71542L8.15442 15.2091L5.22493 8.71542H2.07083ZM10 16.254L13.408 8.71542H6.59202L10 16.254ZM5.25422 7.46551L7.24628 3.71574H4.68785L1.87553 7.46551H5.25421H5.25422ZM11.8456 15.2091L17.9292 8.71542H14.7751L11.8456 15.2091ZM6.67014 7.46551H13.3299L11.3378 3.71574H8.6622L6.67014 7.46551ZM14.7458 7.46551H18.1245L15.3122 3.71574H12.7537L14.7458 7.46551ZM16.1226 2.71972L19.8724 7.71939C19.9635 7.83658 20.0059 7.97166 19.9994 8.12464C19.9928 8.27762 19.9375 8.40945 19.8334 8.52012L10.459 18.5195C10.3418 18.6497 10.1888 18.7148 10 18.7148C9.81122 18.7148 9.65823 18.6497 9.54105 18.5195L0.166655 8.52013C0.0624963 8.40945 0.00716146 8.27762 0.000651042 8.12464C-0.00585937 7.97166 0.0364583 7.83658 0.127604 7.71939L3.87736 2.71973C3.99454 2.55046 4.16054 2.46582 4.37537 2.46582H15.6246C15.8395 2.46582 16.0055 2.55044 16.1226 2.71972Z" fill="white"/>
</g>
<defs>
<clipPath id="clip0_1819_9406">
<rect width="20" height="20" fill="white" transform="translate(0 0.5)"/>
</clipPath>
</defs>
</svg>
