<svg width="12" height="17" viewBox="0 0 12 17" fill="none" xmlns="http://www.w3.org/2000/svg">
<path d="M1 0.5C0.734784 0.5 0.48043 0.605357 0.292893 0.792893C0.105357 0.98043 0 1.23478 0 1.5V15.5C0 15.7652 0.105357 16.0196 0.292893 16.2071C0.48043 16.3946 0.734784 16.5 1 16.5H4V13C4 12.8674 4.05268 12.7402 4.14645 12.6464C4.24021 12.5527 4.36739 12.5 4.5 12.5H7.5C7.63261 12.5 7.75979 12.5527 7.85355 12.6464C7.94732 12.7402 8 12.8674 8 13V16.5H11C11.2652 16.5 11.5196 16.3946 11.7071 16.2071C11.8946 16.0196 12 15.7652 12 15.5V1.5C12 1.23478 11.8946 0.98043 11.7071 0.792893C11.5196 0.605357 11.2652 0.5 11 0.5H1ZM2 3C2 2.86739 2.05268 2.74021 2.14645 2.64645C2.24021 2.55268 2.36739 2.5 2.5 2.5H3.5C3.63261 2.5 3.75979 2.55268 3.85355 2.64645C3.94732 2.74021 4 2.86739 4 3V4C4 4.13261 3.94732 4.25979 3.85355 4.35355C3.75979 4.44732 3.63261 4.5 3.5 4.5H2.5C2.36739 4.5 2.24021 4.44732 2.14645 4.35355C2.05268 4.25979 2 4.13261 2 4V3ZM5 3C5 2.86739 5.05268 2.74021 5.14645 2.64645C5.24021 2.55268 5.36739 2.5 5.5 2.5H6.5C6.63261 2.5 6.75979 2.55268 6.85355 2.64645C6.94732 2.74021 7 2.86739 7 3V4C7 4.13261 6.94732 4.25979 6.85355 4.35355C6.75979 4.44732 6.63261 4.5 6.5 4.5H5.5C5.36739 4.5 5.24021 4.44732 5.14645 4.35355C5.05268 4.25979 5 4.13261 5 4V3ZM8.5 2.5H9.5C9.63261 2.5 9.75979 2.55268 9.85355 2.64645C9.94732 2.74021 10 2.86739 10 3V4C10 4.13261 9.94732 4.25979 9.85355 4.35355C9.75979 4.44732 9.63261 4.5 9.5 4.5H8.5C8.36739 4.5 8.24021 4.44732 8.14645 4.35355C8.05268 4.25979 8 4.13261 8 4V3C8 2.86739 8.05268 2.74021 8.14645 2.64645C8.24021 2.55268 8.36739 2.5 8.5 2.5ZM2 6C2 5.86739 2.05268 5.74021 2.14645 5.64645C2.24021 5.55268 2.36739 5.5 2.5 5.5H3.5C3.63261 5.5 3.75979 5.55268 3.85355 5.64645C3.94732 5.74021 4 5.86739 4 6V7C4 7.13261 3.94732 7.25979 3.85355 7.35355C3.75979 7.44732 3.63261 7.5 3.5 7.5H2.5C2.36739 7.5 2.24021 7.44732 2.14645 7.35355C2.05268 7.25979 2 7.13261 2 7V6ZM5.5 5.5H6.5C6.63261 5.5 6.75979 5.55268 6.85355 5.64645C6.94732 5.74021 7 5.86739 7 6V7C7 7.13261 6.94732 7.25979 6.85355 7.35355C6.75979 7.44732 6.63261 7.5 6.5 7.5H5.5C5.36739 7.5 5.24021 7.44732 5.14645 7.35355C5.05268 7.25979 5 7.13261 5 7V6C5 5.86739 5.05268 5.74021 5.14645 5.64645C5.24021 5.55268 5.36739 5.5 5.5 5.5ZM8 6C8 5.86739 8.05268 5.74021 8.14645 5.64645C8.24021 5.55268 8.36739 5.5 8.5 5.5H9.5C9.63261 5.5 9.75979 5.55268 9.85355 5.64645C9.94732 5.74021 10 5.86739 10 6V7C10 7.13261 9.94732 7.25979 9.85355 7.35355C9.75979 7.44732 9.63261 7.5 9.5 7.5H8.5C8.36739 7.5 8.24021 7.44732 8.14645 7.35355C8.05268 7.25979 8 7.13261 8 7V6ZM2.5 8.5H3.5C3.63261 8.5 3.75979 8.55268 3.85355 8.64645C3.94732 8.74021 4 8.86739 4 9V10C4 10.1326 3.94732 10.2598 3.85355 10.3536C3.75979 10.4473 3.63261 10.5 3.5 10.5H2.5C2.36739 10.5 2.24021 10.4473 2.14645 10.3536C2.05268 10.2598 2 10.1326 2 10V9C2 8.86739 2.05268 8.74021 2.14645 8.64645C2.24021 8.55268 2.36739 8.5 2.5 8.5ZM5 9C5 8.86739 5.05268 8.74021 5.14645 8.64645C5.24021 8.55268 5.36739 8.5 5.5 8.5H6.5C6.63261 8.5 6.75979 8.55268 6.85355 8.64645C6.94732 8.74021 7 8.86739 7 9V10C7 10.1326 6.94732 10.2598 6.85355 10.3536C6.75979 10.4473 6.63261 10.5 6.5 10.5H5.5C5.36739 10.5 5.24021 10.4473 5.14645 10.3536C5.05268 10.2598 5 10.1326 5 10V9ZM8.5 8.5H9.5C9.63261 8.5 9.75979 8.55268 9.85355 8.64645C9.94732 8.74021 10 8.86739 10 9V10C10 10.1326 9.94732 10.2598 9.85355 10.3536C9.75979 10.4473 9.63261 10.5 9.5 10.5H8.5C8.36739 10.5 8.24021 10.4473 8.14645 10.3536C8.05268 10.2598 8 10.1326 8 10V9C8 8.86739 8.05268 8.74021 8.14645 8.64645C8.24021 8.55268 8.36739 8.5 8.5 8.5Z" fill="white"/>
</svg>
