<svg width="17" height="21" viewBox="0 0 17 21" fill="none" xmlns="http://www.w3.org/2000/svg">
<path d="M9.42024 13.5024C9.40026 13.441 9.3698 13.3834 9.33021 13.3324L9.21017 13.1823C9.11718 13.0886 9.00654 13.0141 8.88464 12.9634C8.76275 12.9126 8.632 12.8864 8.49995 12.8864C8.36789 12.8864 8.23715 12.9126 8.11525 12.9634C7.99335 13.0141 7.88272 13.0886 7.78973 13.1823C7.74204 13.2257 7.70152 13.2763 7.66969 13.3324C7.6301 13.3834 7.59964 13.441 7.57966 13.5024C7.55069 13.5626 7.53048 13.6266 7.51964 13.6925C7.51474 13.7557 7.51474 13.8193 7.51964 13.8825C7.51616 14.017 7.54354 14.1504 7.59967 14.2727C7.70146 14.5159 7.89519 14.7092 8.13872 14.8103C8.38225 14.9115 8.65588 14.9124 8.90007 14.8128C9.02164 14.7585 9.13323 14.6841 9.23018 14.5928C9.32016 14.5006 9.39148 14.3919 9.44024 14.2727C9.49279 14.1493 9.52001 14.0166 9.52027 13.8825C9.52517 13.8193 9.52517 13.7557 9.52027 13.6925C9.4969 13.6244 9.46315 13.5603 9.42024 13.5024ZM8.49995 5.86003C8.23465 5.86003 7.98021 5.96542 7.79262 6.15302C7.60502 6.34061 7.49963 6.59505 7.49963 6.86035V9.86128C7.49963 10.1266 7.60502 10.381 7.79262 10.5686C7.98021 10.7562 8.23465 10.8616 8.49995 10.8616C8.76525 10.8616 9.01968 10.7562 9.20728 10.5686C9.39487 10.381 9.50026 10.1266 9.50026 9.86128V6.86035C9.50026 6.59505 9.39487 6.34061 9.20728 6.15302C9.01968 5.96542 8.76525 5.86003 8.49995 5.86003ZM16.1323 2.14887C16.0161 2.05486 15.8803 1.98809 15.7349 1.95347C15.5895 1.91885 15.4382 1.91726 15.2921 1.94881C14.2232 2.17282 13.1197 2.17568 12.0497 1.95719C10.9796 1.73871 9.96565 1.30352 9.07013 0.678411C8.90268 0.562248 8.70374 0.5 8.49995 0.5C8.29615 0.5 8.09722 0.562248 7.92977 0.678411C7.03424 1.30352 6.02025 1.73871 4.9502 1.95719C3.88016 2.17568 2.77672 2.17282 1.70782 1.94881C1.56171 1.91726 1.41039 1.91885 1.26498 1.95347C1.11957 1.98809 0.98377 2.05486 0.867558 2.14887C0.751501 2.24302 0.658013 2.36197 0.593965 2.497C0.529916 2.63202 0.496934 2.77967 0.497442 2.92912V10.3814C0.496553 11.8156 0.838322 13.2293 1.49429 14.5047C2.15026 15.7801 3.10144 16.8803 4.26862 17.7137L7.91977 20.3146C8.08918 20.4352 8.29198 20.5 8.49995 20.5C8.70792 20.5 8.91071 20.4352 9.08013 20.3146L12.7313 17.7137C13.8985 16.8803 14.8496 15.7801 15.5056 14.5047C16.1616 13.2293 16.5033 11.8156 16.5025 10.3814V2.92912C16.503 2.77967 16.47 2.63202 16.4059 2.497C16.3419 2.36197 16.2484 2.24302 16.1323 2.14887ZM14.5018 10.3814C14.5026 11.4966 14.237 12.5957 13.7272 13.5875C13.2174 14.5792 12.4782 15.4349 11.5709 16.0832L8.49995 18.2739L5.42899 16.0832C4.52174 15.4349 3.78246 14.5792 3.27266 13.5875C2.76287 12.5957 2.4973 11.4966 2.49807 10.3814V4.07948C4.59515 4.25896 6.69542 3.7724 8.49995 2.68904C10.3045 3.7724 12.4047 4.25896 14.5018 4.07948V10.3814Z" fill="white"/>
</svg>
