<svg xmlns="http://www.w3.org/2000/svg" width="16" height="16" viewBox="0 0 16 16" fill="none">
  <path d="M12.4964 4.24063C11.2817 3.63359 9.66924 3.3125 7.8335 3.3125C5.99775 3.3125 4.38525 3.63359 3.17061 4.24063C1.95596 4.84766 1.271 5.70195 1.271 6.59375V9.40625C1.271 10.298 1.96357 11.1553 3.17061 11.7594C4.37764 12.3635 5.99775 12.6875 7.8335 12.6875C9.66924 12.6875 11.2817 12.3664 12.4964 11.7594C13.711 11.1523 14.396 10.298 14.396 9.40625V6.59375C14.396 5.70195 13.7034 4.84473 12.4964 4.24063ZM7.8335 4.25C11.5038 4.25 13.4585 5.61113 13.4585 6.59375C13.4585 7.57637 11.5038 8.9375 7.8335 8.9375C4.16318 8.9375 2.2085 7.57637 2.2085 6.59375C2.2085 5.61113 4.16318 4.25 7.8335 4.25ZM7.36475 9.8668V11.7418C6.25146 11.7055 5.31396 11.5414 4.55225 11.3029V9.46777C5.47049 9.71242 6.41469 9.84637 7.36475 9.8668ZM8.30225 9.8668C9.2523 9.84637 10.1965 9.71242 11.1147 9.46777V11.3023C10.353 11.5408 9.41553 11.7049 8.30225 11.7412V9.8668ZM2.2085 9.40625V8.32402C2.50349 8.56889 2.82644 8.77796 3.17061 8.94688C3.31299 9.01777 3.46357 9.08457 3.61475 9.14785V10.9297C2.68721 10.4703 2.2085 9.89199 2.2085 9.40625ZM12.0522 10.9297V9.14785C12.2052 9.08457 12.354 9.01777 12.4964 8.94688C12.8406 8.77796 13.1635 8.56889 13.4585 8.32402V9.40625C13.4585 9.89199 12.9798 10.4703 12.0522 10.9297Z" fill="white"/>
</svg>