<svg xmlns="http://www.w3.org/2000/svg" width="13" height="10" viewBox="0 0 13 10" fill="none">
  <path d="M3.16667 6.58333H5.06667C5.23464 6.58333 5.39573 6.51661 5.5145 6.39783C5.63327 6.27906 5.7 6.11797 5.7 5.95C5.7 5.78203 5.63327 5.62094 5.5145 5.50217C5.39573 5.38339 5.23464 5.31667 5.06667 5.31667H3.16667C2.9987 5.31667 2.83761 5.38339 2.71883 5.50217C2.60006 5.62094 2.53333 5.78203 2.53333 5.95C2.53333 6.11797 2.60006 6.27906 2.71883 6.39783C2.83761 6.51661 2.9987 6.58333 3.16667 6.58333ZM10.7667 0.25H1.9C1.39609 0.25 0.912816 0.450178 0.556497 0.806497C0.200178 1.16282 0 1.64609 0 2.15V7.85C0 8.35391 0.200178 8.83718 0.556497 9.1935C0.912816 9.54982 1.39609 9.75 1.9 9.75H10.7667C11.2706 9.75 11.7539 9.54982 12.1102 9.1935C12.4665 8.83718 12.6667 8.35391 12.6667 7.85V2.15C12.6667 1.64609 12.4665 1.16282 12.1102 0.806497C11.7539 0.450178 11.2706 0.25 10.7667 0.25ZM11.4 7.85C11.4 8.01797 11.3333 8.17906 11.2145 8.29783C11.0957 8.41661 10.9346 8.48333 10.7667 8.48333H1.9C1.73203 8.48333 1.57094 8.41661 1.45217 8.29783C1.33339 8.17906 1.26667 8.01797 1.26667 7.85V4.05H11.4V7.85ZM11.4 2.78333H1.26667V2.15C1.26667 1.98203 1.33339 1.82094 1.45217 1.70217C1.57094 1.58339 1.73203 1.51667 1.9 1.51667H10.7667C10.9346 1.51667 11.0957 1.58339 11.2145 1.70217C11.3333 1.82094 11.4 1.98203 11.4 2.15V2.78333Z" fill="white"/>
</svg>
