<svg width="18" height="18" viewBox="0 0 18 18" fill="none" xmlns="http://www.w3.org/2000/svg">
<path fill-rule="evenodd" clip-rule="evenodd" d="M2.598 2.598C1.5 3.6975 1.5 5.4645 1.5 9C1.5 12.5355 1.5 14.3033 2.598 15.4012C3.6975 16.5 5.4645 16.5 9 16.5C12.5355 16.5 14.3033 16.5 15.4012 15.4012C16.5 14.304 16.5 12.5355 16.5 9C16.5 5.4645 16.5 3.69675 15.4012 2.598C14.304 1.5 12.5355 1.5 9 1.5C5.4645 1.5 3.69675 1.5 2.598 2.598ZM10.3125 7.5C10.3125 7.8105 10.5645 8.0625 10.875 8.0625H11.3925L9.88275 9.57225C9.86533 9.58971 9.84464 9.60356 9.82186 9.61302C9.79908 9.62247 9.77466 9.62733 9.75 9.62733C9.72534 9.62733 9.70092 9.62247 9.67814 9.61302C9.65536 9.60356 9.63467 9.58971 9.61725 9.57225L8.42775 8.38275C8.18164 8.13681 7.84794 7.99865 7.5 7.99865C7.15206 7.99865 6.81836 8.13681 6.57225 8.38275L4.8525 10.1025C4.79723 10.154 4.75291 10.2161 4.72216 10.2851C4.69142 10.3541 4.67489 10.4286 4.67356 10.5041C4.67222 10.5796 4.68612 10.6547 4.71441 10.7247C4.7427 10.7947 4.78481 10.8584 4.83822 10.9118C4.89164 10.9652 4.95526 11.0073 5.0253 11.0356C5.09534 11.0639 5.17036 11.0778 5.24589 11.0764C5.32142 11.0751 5.3959 11.0586 5.4649 11.0278C5.5339 10.9971 5.596 10.9528 5.6475 10.8975L7.36725 9.17775C7.38467 9.16029 7.40536 9.14644 7.42814 9.13698C7.45092 9.12753 7.47534 9.12266 7.5 9.12266C7.52466 9.12266 7.54908 9.12753 7.57186 9.13698C7.59464 9.14644 7.61533 9.16029 7.63275 9.17775L8.82225 10.3673C9.06836 10.6132 9.40206 10.7513 9.75 10.7513C10.0979 10.7513 10.4316 10.6132 10.6778 10.3673L12.1875 8.85825V9.375C12.1875 9.52418 12.2468 9.66726 12.3523 9.77275C12.4577 9.87824 12.6008 9.9375 12.75 9.9375C12.8992 9.9375 13.0423 9.87824 13.1477 9.77275C13.2532 9.66726 13.3125 9.52418 13.3125 9.375V7.5C13.3125 7.35082 13.2532 7.20774 13.1477 7.10225C13.0423 6.99676 12.8992 6.9375 12.75 6.9375H10.875C10.7258 6.9375 10.5827 6.99676 10.4773 7.10225C10.3718 7.20774 10.3125 7.35082 10.3125 7.5Z" fill="#FFA143"/>
</svg>
