<svg xmlns="http://www.w3.org/2000/svg" width="18" height="18" viewBox="0 0 18 18" fill="none">
  <path d="M4.5 1C4.23478 1 3.98043 1.10536 3.79289 1.29289C3.60536 1.48043 3.5 1.73478 3.5 2V16C3.5 16.2652 3.60536 16.5196 3.79289 16.7071C3.98043 16.8946 4.23478 17 4.5 17H7.5V13.5C7.5 13.3674 7.55268 13.2402 7.64645 13.1464C7.74021 13.0527 7.86739 13 8 13H11C11.1326 13 11.2598 13.0527 11.3536 13.1464C11.4473 13.2402 11.5 13.3674 11.5 13.5V17H14.5C14.7652 17 15.0196 16.8946 15.2071 16.7071C15.3946 16.5196 15.5 16.2652 15.5 16V2C15.5 1.73478 15.3946 1.48043 15.2071 1.29289C15.0196 1.10536 14.7652 1 14.5 1H4.5ZM5.5 3.5C5.5 3.36739 5.55268 3.24021 5.64645 3.14645C5.74021 3.05268 5.86739 3 6 3H7C7.13261 3 7.25979 3.05268 7.35355 3.14645C7.44732 3.24021 7.5 3.36739 7.5 3.5V4.5C7.5 4.63261 7.44732 4.75979 7.35355 4.85355C7.25979 4.94732 7.13261 5 7 5H6C5.86739 5 5.74021 4.94732 5.64645 4.85355C5.55268 4.75979 5.5 4.63261 5.5 4.5V3.5ZM8.5 3.5C8.5 3.36739 8.55268 3.24021 8.64645 3.14645C8.74021 3.05268 8.86739 3 9 3H10C10.1326 3 10.2598 3.05268 10.3536 3.14645C10.4473 3.24021 10.5 3.36739 10.5 3.5V4.5C10.5 4.63261 10.4473 4.75979 10.3536 4.85355C10.2598 4.94732 10.1326 5 10 5H9C8.86739 5 8.74021 4.94732 8.64645 4.85355C8.55268 4.75979 8.5 4.63261 8.5 4.5V3.5ZM12 3H13C13.1326 3 13.2598 3.05268 13.3536 3.14645C13.4473 3.24021 13.5 3.36739 13.5 3.5V4.5C13.5 4.63261 13.4473 4.75979 13.3536 4.85355C13.2598 4.94732 13.1326 5 13 5H12C11.8674 5 11.7402 4.94732 11.6464 4.85355C11.5527 4.75979 11.5 4.63261 11.5 4.5V3.5C11.5 3.36739 11.5527 3.24021 11.6464 3.14645C11.7402 3.05268 11.8674 3 12 3ZM5.5 6.5C5.5 6.36739 5.55268 6.24021 5.64645 6.14645C5.74021 6.05268 5.86739 6 6 6H7C7.13261 6 7.25979 6.05268 7.35355 6.14645C7.44732 6.24021 7.5 6.36739 7.5 6.5V7.5C7.5 7.63261 7.44732 7.75979 7.35355 7.85355C7.25979 7.94732 7.13261 8 7 8H6C5.86739 8 5.74021 7.94732 5.64645 7.85355C5.55268 7.75979 5.5 7.63261 5.5 7.5V6.5ZM9 6H10C10.1326 6 10.2598 6.05268 10.3536 6.14645C10.4473 6.24021 10.5 6.36739 10.5 6.5V7.5C10.5 7.63261 10.4473 7.75979 10.3536 7.85355C10.2598 7.94732 10.1326 8 10 8H9C8.86739 8 8.74021 7.94732 8.64645 7.85355C8.55268 7.75979 8.5 7.63261 8.5 7.5V6.5C8.5 6.36739 8.55268 6.24021 8.64645 6.14645C8.74021 6.05268 8.86739 6 9 6ZM11.5 6.5C11.5 6.36739 11.5527 6.24021 11.6464 6.14645C11.7402 6.05268 11.8674 6 12 6H13C13.1326 6 13.2598 6.05268 13.3536 6.14645C13.4473 6.24021 13.5 6.36739 13.5 6.5V7.5C13.5 7.63261 13.4473 7.75979 13.3536 7.85355C13.2598 7.94732 13.1326 8 13 8H12C11.8674 8 11.7402 7.94732 11.6464 7.85355C11.5527 7.75979 11.5 7.63261 11.5 7.5V6.5ZM6 9H7C7.13261 9 7.25979 9.05268 7.35355 9.14645C7.44732 9.24021 7.5 9.36739 7.5 9.5V10.5C7.5 10.6326 7.44732 10.7598 7.35355 10.8536C7.25979 10.9473 7.13261 11 7 11H6C5.86739 11 5.74021 10.9473 5.64645 10.8536C5.55268 10.7598 5.5 10.6326 5.5 10.5V9.5C5.5 9.36739 5.55268 9.24021 5.64645 9.14645C5.74021 9.05268 5.86739 9 6 9ZM8.5 9.5C8.5 9.36739 8.55268 9.24021 8.64645 9.14645C8.74021 9.05268 8.86739 9 9 9H10C10.1326 9 10.2598 9.05268 10.3536 9.14645C10.4473 9.24021 10.5 9.36739 10.5 9.5V10.5C10.5 10.6326 10.4473 10.7598 10.3536 10.8536C10.2598 10.9473 10.1326 11 10 11H9C8.86739 11 8.74021 10.9473 8.64645 10.8536C8.55268 10.7598 8.5 10.6326 8.5 10.5V9.5ZM12 9H13C13.1326 9 13.2598 9.05268 13.3536 9.14645C13.4473 9.24021 13.5 9.36739 13.5 9.5V10.5C13.5 10.6326 13.4473 10.7598 13.3536 10.8536C13.2598 10.9473 13.1326 11 13 11H12C11.8674 11 11.7402 10.9473 11.6464 10.8536C11.5527 10.7598 11.5 10.6326 11.5 10.5V9.5C11.5 9.36739 11.5527 9.24021 11.6464 9.14645C11.7402 9.05268 11.8674 9 12 9Z" fill="#FFA143"/>
</svg>