<svg width="142" height="18" viewBox="0 0 142 18" fill="none" xmlns="http://www.w3.org/2000/svg">
<path d="M16.2292 18.0001H7.4939L11.8622 12H16.2292V18.0001Z" fill="#F9861E"/>
<path d="M16.2293 12H11.8623V18.0001H16.2293V12Z" fill="#FFA143"/>
<path d="M5.23023 0L0.863281 5.99997V11.9999V17.9999H9.59718V11.9999V5.99997V0H5.23023Z" fill="#F9861E"/>
<path d="M9.59718 0H5.23022V17.9999H9.59718V0Z" fill="#FFA143"/>
<path d="M27.0769 6.23071H28.9982V15.9727H35.9865V17.6472H27.0769V6.23071Z" fill="white"/>
<path d="M41.0535 17.6457V6.22913H42.9748V17.6457H41.0535Z" fill="white"/>
<path d="M48.5291 6.23071H55.1025C57.6437 6.23071 59.3275 7.46356 59.3275 9.32077C59.3275 10.6902 58.3222 11.68 56.8311 11.7865C58.5751 11.8166 59.7423 12.8827 59.7423 14.465C59.7423 16.3683 58.1618 17.6457 55.7825 17.6457H48.5291V6.22913V6.23071ZM55.2074 11.0255C56.478 11.0255 57.3199 10.4313 57.3199 9.54955C57.3199 8.55977 56.5813 7.89092 55.1041 7.89092H50.4658V11.0271H55.2074V11.0255ZM55.7841 15.987C56.9961 15.987 57.7933 15.3325 57.7933 14.3586C57.7933 13.3847 56.7586 12.6698 55.2074 12.6698H50.4658V15.9886H55.7841V15.987Z" fill="white"/>
<path d="M65.0312 6.23071H74.4127V7.90522H66.9526V11.0414H73.6155V12.7159H66.9526V15.9727H74.5314V17.6472H65.0312V6.23071Z" fill="white"/>
<path d="M79.9375 17.6457V6.22913H86.3938C88.9935 6.22913 90.7375 7.73682 90.7375 10.0039C90.7375 11.6324 89.6288 12.835 87.8417 13.2163L91.1662 17.6457H88.773L85.6552 13.3529H81.8727V17.6457H79.9375ZM81.8727 11.6641H86.511C87.8694 11.6641 88.7715 10.9937 88.7715 9.98962C88.7715 8.74089 87.8263 7.91952 86.3922 7.91952H81.8711V11.6641H81.8727Z" fill="white"/>
<path d="M95.2293 6.23071H106.797V7.90522H101.922V17.6472H100V7.90522H95.2278V6.23071H95.2293Z" fill="white"/>
<path d="M111.155 6.23071H113.076V13.0797C113.076 14.9067 114.612 16.0331 116.902 16.0331C119.192 16.0331 120.64 14.9067 120.64 13.0797V6.23071H122.561V13.0797C122.561 15.9711 120.287 17.9046 116.873 17.9046C113.459 17.9046 111.155 15.9711 111.155 13.0797V6.23071Z" fill="white"/>
<path d="M130.272 6.24501L130.288 6.22913L134.809 14.9512L139.256 6.22913H141.591V17.6457H139.669V9.09199L135.503 17.6457H134.039L129.77 8.98396V17.6457H127.848V6.22913L130.271 6.24501H130.272Z" fill="white"/>
</svg>
