<svg xmlns="http://www.w3.org/2000/svg" width="14" height="15" viewBox="0 0 14 15" fill="none">
  <path d="M3.50001 1.11108C3.29373 1.11108 3.0959 1.19303 2.95003 1.33889C2.80417 1.48475 2.72223 1.68258 2.72223 1.88886V12.7778C2.72223 12.984 2.80417 13.1819 2.95003 13.3277C3.0959 13.4736 3.29373 13.5555 3.50001 13.5555H5.83334V10.8333C5.83334 10.7302 5.87431 10.6313 5.94724 10.5583C6.02017 10.4854 6.11909 10.4444 6.22223 10.4444H8.55556C8.6587 10.4444 8.75762 10.4854 8.83055 10.5583C8.90348 10.6313 8.94445 10.7302 8.94445 10.8333V13.5555H11.2778C11.4841 13.5555 11.6819 13.4736 11.8278 13.3277C11.9736 13.1819 12.0556 12.984 12.0556 12.7778V1.88886C12.0556 1.68258 11.9736 1.48475 11.8278 1.33889C11.6819 1.19303 11.4841 1.11108 11.2778 1.11108H3.50001ZM4.27778 3.05553C4.27778 2.95239 4.31876 2.85347 4.39169 2.78054C4.46462 2.70761 4.56353 2.66664 4.66667 2.66664H5.44445C5.54759 2.66664 5.64651 2.70761 5.71944 2.78054C5.79237 2.85347 5.83334 2.95239 5.83334 3.05553V3.83331C5.83334 3.93645 5.79237 4.03536 5.71944 4.10829C5.64651 4.18122 5.54759 4.22219 5.44445 4.22219H4.66667C4.56353 4.22219 4.46462 4.18122 4.39169 4.10829C4.31876 4.03536 4.27778 3.93645 4.27778 3.83331V3.05553ZM6.61112 3.05553C6.61112 2.95239 6.65209 2.85347 6.72502 2.78054C6.79795 2.70761 6.89687 2.66664 7.00001 2.66664H7.77778C7.88092 2.66664 7.97984 2.70761 8.05277 2.78054C8.1257 2.85347 8.16667 2.95239 8.16667 3.05553V3.83331C8.16667 3.93645 8.1257 4.03536 8.05277 4.10829C7.97984 4.18122 7.88092 4.22219 7.77778 4.22219H7.00001C6.89687 4.22219 6.79795 4.18122 6.72502 4.10829C6.65209 4.03536 6.61112 3.93645 6.61112 3.83331V3.05553ZM9.33334 2.66664H10.1111C10.2143 2.66664 10.3132 2.70761 10.3861 2.78054C10.459 2.85347 10.5 2.95239 10.5 3.05553V3.83331C10.5 3.93645 10.459 4.03536 10.3861 4.10829C10.3132 4.18122 10.2143 4.22219 10.1111 4.22219H9.33334C9.2302 4.22219 9.13128 4.18122 9.05835 4.10829C8.98542 4.03536 8.94445 3.93645 8.94445 3.83331V3.05553C8.94445 2.95239 8.98542 2.85347 9.05835 2.78054C9.13128 2.70761 9.2302 2.66664 9.33334 2.66664ZM4.27778 5.38886C4.27778 5.28572 4.31876 5.18681 4.39169 5.11388C4.46462 5.04094 4.56353 4.99997 4.66667 4.99997H5.44445C5.54759 4.99997 5.64651 5.04094 5.71944 5.11388C5.79237 5.18681 5.83334 5.28572 5.83334 5.38886V6.16664C5.83334 6.26978 5.79237 6.36869 5.71944 6.44163C5.64651 6.51456 5.54759 6.55553 5.44445 6.55553H4.66667C4.56353 6.55553 4.46462 6.51456 4.39169 6.44163C4.31876 6.36869 4.27778 6.26978 4.27778 6.16664V5.38886ZM7.00001 4.99997H7.77778C7.88092 4.99997 7.97984 5.04094 8.05277 5.11388C8.1257 5.18681 8.16667 5.28572 8.16667 5.38886V6.16664C8.16667 6.26978 8.1257 6.36869 8.05277 6.44163C7.97984 6.51456 7.88092 6.55553 7.77778 6.55553H7.00001C6.89687 6.55553 6.79795 6.51456 6.72502 6.44163C6.65209 6.36869 6.61112 6.26978 6.61112 6.16664V5.38886C6.61112 5.28572 6.65209 5.18681 6.72502 5.11388C6.79795 5.04094 6.89687 4.99997 7.00001 4.99997ZM8.94445 5.38886C8.94445 5.28572 8.98542 5.18681 9.05835 5.11388C9.13128 5.04094 9.2302 4.99997 9.33334 4.99997H10.1111C10.2143 4.99997 10.3132 5.04094 10.3861 5.11388C10.459 5.18681 10.5 5.28572 10.5 5.38886V6.16664C10.5 6.26978 10.459 6.36869 10.3861 6.44163C10.3132 6.51456 10.2143 6.55553 10.1111 6.55553H9.33334C9.2302 6.55553 9.13128 6.51456 9.05835 6.44163C8.98542 6.36869 8.94445 6.26978 8.94445 6.16664V5.38886ZM4.66667 7.33331H5.44445C5.54759 7.33331 5.64651 7.37428 5.71944 7.44721C5.79237 7.52014 5.83334 7.61905 5.83334 7.72219V8.49997C5.83334 8.60311 5.79237 8.70203 5.71944 8.77496C5.64651 8.84789 5.54759 8.88886 5.44445 8.88886H4.66667C4.56353 8.88886 4.46462 8.84789 4.39169 8.77496C4.31876 8.70203 4.27778 8.60311 4.27778 8.49997V7.72219C4.27778 7.61905 4.31876 7.52014 4.39169 7.44721C4.46462 7.37428 4.56353 7.33331 4.66667 7.33331ZM6.61112 7.72219C6.61112 7.61905 6.65209 7.52014 6.72502 7.44721C6.79795 7.37428 6.89687 7.33331 7.00001 7.33331H7.77778C7.88092 7.33331 7.97984 7.37428 8.05277 7.44721C8.1257 7.52014 8.16667 7.61905 8.16667 7.72219V8.49997C8.16667 8.60311 8.1257 8.70203 8.05277 8.77496C7.97984 8.84789 7.88092 8.88886 7.77778 8.88886H7.00001C6.89687 8.88886 6.79795 8.84789 6.72502 8.77496C6.65209 8.70203 6.61112 8.60311 6.61112 8.49997V7.72219ZM9.33334 7.33331H10.1111C10.2143 7.33331 10.3132 7.37428 10.3861 7.44721C10.459 7.52014 10.5 7.61905 10.5 7.72219V8.49997C10.5 8.60311 10.459 8.70203 10.3861 8.77496C10.3132 8.84789 10.2143 8.88886 10.1111 8.88886H9.33334C9.2302 8.88886 9.13128 8.84789 9.05835 8.77496C8.98542 8.70203 8.94445 8.60311 8.94445 8.49997V7.72219C8.94445 7.61905 8.98542 7.52014 9.05835 7.44721C9.13128 7.37428 9.2302 7.33331 9.33334 7.33331Z" fill="#FFA143"/>
</svg>