<svg width="121" height="120" viewBox="0 0 121 120" fill="none" xmlns="http://www.w3.org/2000/svg">
<g filter="url(#filter0_dii_1708_11433)">
<rect x="20.5" y="14" width="80" height="80" rx="40" fill="#F7F7F7"/>
<rect x="21" y="14.5" width="79" height="79" rx="39.5" stroke="#000041" stroke-opacity="0.05"/>
</g>
<path d="M74.7812 62.5312H47.2188C46.1687 62.5312 45.25 61.6125 45.25 60.5625V42.1875C45.25 41.1375 46.1687 40.2188 47.2188 40.2188H74.7812C75.8313 40.2188 76.75 41.1375 76.75 42.1875V60.5625C76.75 61.6125 75.8313 62.5312 74.7812 62.5312ZM47.2188 41.5312C46.825 41.5312 46.5625 41.7937 46.5625 42.1875V60.5625C46.5625 60.9563 46.825 61.2188 47.2188 61.2188H74.7812C75.175 61.2188 75.4375 60.9563 75.4375 60.5625V42.1875C75.4375 41.7937 75.175 41.5312 74.7812 41.5312H47.2188ZM69.5312 67.7812H52.4688C52.075 67.7812 51.8125 67.5188 51.8125 67.125C51.8125 66.7312 52.075 66.4688 52.4688 66.4688H69.5312C69.925 66.4688 70.1875 66.7312 70.1875 67.125C70.1875 67.5188 69.925 67.7812 69.5312 67.7812Z" fill="#00B3B5"/>
<path d="M76.0938 58.5938H45.9062C45.5125 58.5938 45.25 58.3313 45.25 57.9375C45.25 57.5437 45.5125 57.2812 45.9062 57.2812H76.0938C76.4875 57.2812 76.75 57.5437 76.75 57.9375C76.75 58.3313 76.4875 58.5938 76.0938 58.5938ZM73.4688 44.1562H64.2812C63.8875 44.1562 63.625 43.8938 63.625 43.5C63.625 43.1062 63.8875 42.8438 64.2812 42.8438H73.4688C73.8625 42.8438 74.125 43.1062 74.125 43.5C74.125 43.8938 73.8625 44.1562 73.4688 44.1562ZM73.4688 46.7812H64.2812C63.8875 46.7812 63.625 46.5188 63.625 46.125C63.625 45.7312 63.8875 45.4688 64.2812 45.4688H73.4688C73.8625 45.4688 74.125 45.7312 74.125 46.125C74.125 46.5188 73.8625 46.7812 73.4688 46.7812ZM64.2812 67.7812H57.7188C57.325 67.7812 57.0625 67.5188 57.0625 67.125V61.875C57.0625 61.4812 57.325 61.2188 57.7188 61.2188H64.2812C64.675 61.2188 64.9375 61.4812 64.9375 61.875V67.125C64.9375 67.5188 64.675 67.7812 64.2812 67.7812ZM58.375 66.4688H63.625V62.5312H58.375V66.4688ZM53.7812 55.9688C50.8937 55.9688 48.5312 53.6063 48.5312 50.7188V49.4062C48.5312 49.0125 48.7937 48.75 49.1875 48.75C49.5813 48.75 49.8438 49.0125 49.8438 49.4062V50.7188C49.8438 52.95 51.55 54.6562 53.7812 54.6562C56.0125 54.6562 57.7188 52.95 57.7188 50.7188V49.4062C57.7188 49.0125 57.9812 48.75 58.375 48.75C58.7688 48.75 59.0312 49.0125 59.0312 49.4062V50.7188C59.0312 53.6063 56.6688 55.9688 53.7812 55.9688Z" fill="#00B3B5"/>
<path d="M49.1874 50.325H48.9249C48.6624 50.1937 48.5312 50.0625 48.5312 49.8L47.8749 46.7812C47.7437 45.9937 47.8749 45.3375 48.2687 44.6812C48.6624 44.025 49.3187 43.6312 49.9749 43.6312L54.8312 42.8437C55.7499 42.7125 56.5374 42.8437 57.0624 43.3687C57.5874 43.7625 57.8499 44.2875 57.9812 44.8125C58.5062 44.9437 58.8999 45.2062 59.1624 45.6C59.5562 46.125 59.8187 46.9125 59.6874 47.5687L59.0312 49.8C59.0312 50.0625 58.7687 50.1937 58.6374 50.1937C58.3749 50.1937 58.2437 50.1937 57.9812 50.0625L56.2749 48.75C56.1437 48.6187 56.0124 48.6187 55.8812 48.6187H51.6812C51.5499 48.6187 51.4187 48.6187 51.2874 48.75L49.5812 50.0625C49.4499 50.325 49.3187 50.325 49.1874 50.325ZM51.6812 47.4375H55.8812C56.2749 47.4375 56.7999 47.5687 57.0624 47.8312L57.9812 48.6187L58.3749 47.3062C58.3749 47.0437 58.3749 46.7812 58.1124 46.5187C57.8499 46.2562 57.7187 46.125 57.3249 46.125C56.9312 46.125 56.6687 45.8625 56.6687 45.4687C56.6687 45.075 56.5374 44.6812 56.1437 44.4187C55.8812 44.1562 55.4874 44.025 55.0937 44.1562L50.3687 44.9437C49.9749 44.9437 49.7124 45.2062 49.4499 45.4687C49.1874 45.7312 49.1874 46.125 49.1874 46.5187L49.5812 48.6187L50.4999 47.8312C50.8937 47.5687 51.2874 47.4375 51.6812 47.4375Z" fill="#00B3B5"/>
<path d="M56.4062 53.4751H54.4375C54.0437 53.4751 53.7812 53.2126 53.7812 52.8188C53.7812 52.4251 54.0437 52.1626 54.4375 52.1626H56.4062C57.1938 52.1626 57.7188 51.6376 57.7188 50.8501V49.5376C57.7188 49.1438 57.9812 48.8813 58.375 48.8813C58.7688 48.8813 59.0312 49.1438 59.0312 49.5376V50.8501C59.0312 52.2938 57.85 53.4751 56.4062 53.4751Z" fill="#00B3B5"/>
<path d="M61.6562 44.1562C62.0187 44.1562 62.3125 43.8624 62.3125 43.5C62.3125 43.1376 62.0187 42.8438 61.6562 42.8438C61.2938 42.8438 61 43.1376 61 43.5C61 43.8624 61.2938 44.1562 61.6562 44.1562Z" fill="#00B3B5"/>
<path d="M61.6562 46.7812C62.0187 46.7812 62.3125 46.4874 62.3125 46.125C62.3125 45.7626 62.0187 45.4688 61.6562 45.4688C61.2938 45.4688 61 45.7626 61 46.125C61 46.4874 61.2938 46.7812 61.6562 46.7812Z" fill="#00B3B5"/>
<path d="M73.4688 49.4062H64.2812C63.8875 49.4062 63.625 49.1438 63.625 48.75C63.625 48.3562 63.8875 48.0938 64.2812 48.0938H73.4688C73.8625 48.0938 74.125 48.3562 74.125 48.75C74.125 49.1438 73.8625 49.4062 73.4688 49.4062Z" fill="#00B3B5"/>
<path d="M61.6562 49.4062C62.0187 49.4062 62.3125 49.1124 62.3125 48.75C62.3125 48.3876 62.0187 48.0938 61.6562 48.0938C61.2938 48.0938 61 48.3876 61 48.75C61 49.1124 61.2938 49.4062 61.6562 49.4062Z" fill="#00B3B5"/>
<path d="M72.1562 55.9688H62.9688C61.9187 55.9688 61 55.05 61 54V52.6875C61 51.6375 61.9187 50.7188 62.9688 50.7188H72.1562C73.2063 50.7188 74.125 51.6375 74.125 52.6875V54C74.125 55.05 73.2063 55.9688 72.1562 55.9688ZM62.9688 52.0312C62.575 52.0312 62.3125 52.2937 62.3125 52.6875V54C62.3125 54.3938 62.575 54.6562 62.9688 54.6562H72.1562C72.55 54.6562 72.8125 54.3938 72.8125 54V52.6875C72.8125 52.2937 72.55 52.0312 72.1562 52.0312H62.9688Z" fill="#00B3B5"/>
<defs>
<filter id="filter0_dii_1708_11433" x="0.5" y="0" width="120" height="120" filterUnits="userSpaceOnUse" color-interpolation-filters="sRGB">
<feFlood flood-opacity="0" result="BackgroundImageFix"/>
<feColorMatrix in="SourceAlpha" type="matrix" values="0 0 0 0 0 0 0 0 0 0 0 0 0 0 0 0 0 0 127 0" result="hardAlpha"/>
<feOffset dy="6"/>
<feGaussianBlur stdDeviation="10"/>
<feComposite in2="hardAlpha" operator="out"/>
<feColorMatrix type="matrix" values="0 0 0 0 0 0 0 0 0 0 0 0 0 0 0 0 0 0 0.08 0"/>
<feBlend mode="normal" in2="BackgroundImageFix" result="effect1_dropShadow_1708_11433"/>
<feBlend mode="normal" in="SourceGraphic" in2="effect1_dropShadow_1708_11433" result="shape"/>
<feColorMatrix in="SourceAlpha" type="matrix" values="0 0 0 0 0 0 0 0 0 0 0 0 0 0 0 0 0 0 127 0" result="hardAlpha"/>
<feMorphology radius="4" operator="erode" in="SourceAlpha" result="effect2_innerShadow_1708_11433"/>
<feOffset dy="4"/>
<feGaussianBlur stdDeviation="4"/>
<feComposite in2="hardAlpha" operator="arithmetic" k2="-1" k3="1"/>
<feColorMatrix type="matrix" values="0 0 0 0 1 0 0 0 0 1 0 0 0 0 1 0 0 0 0.8 0"/>
<feBlend mode="normal" in2="shape" result="effect2_innerShadow_1708_11433"/>
<feColorMatrix in="SourceAlpha" type="matrix" values="0 0 0 0 0 0 0 0 0 0 0 0 0 0 0 0 0 0 127 0" result="hardAlpha"/>
<feOffset dy="-4"/>
<feGaussianBlur stdDeviation="2"/>
<feComposite in2="hardAlpha" operator="arithmetic" k2="-1" k3="1"/>
<feColorMatrix type="matrix" values="0 0 0 0 0 0 0 0 0 0 0 0 0 0 0 0 0 0 0.08 0"/>
<feBlend mode="normal" in2="effect2_innerShadow_1708_11433" result="effect3_innerShadow_1708_11433"/>
</filter>
</defs>
</svg>
