<svg width="913" height="114" viewBox="0 0 913 114" fill="none" xmlns="http://www.w3.org/2000/svg">
<path d="M170 39.5172H182.46V100.837H227.78V111.377H170V39.5172Z" fill="#000041"/>
<path d="M260.64 111.367V39.5072H273.1V111.367H260.64Z" fill="#000041"/>
<path d="M309.12 39.5172H351.75C368.23 39.5172 379.15 47.2772 379.15 58.9672C379.15 67.5872 372.63 73.8172 362.96 74.4872C374.27 74.6772 381.84 81.3872 381.84 91.3472C381.84 103.327 371.59 111.367 356.16 111.367H309.12V39.5072V39.5172ZM352.43 69.6972C360.67 69.6972 366.13 65.9572 366.13 60.4072C366.13 54.1772 361.34 49.9672 351.76 49.9672H321.68V69.7072H352.43V69.6972ZM356.17 100.927C364.03 100.927 369.2 96.8072 369.2 90.6772C369.2 84.5472 362.49 80.0472 352.43 80.0472H321.68V100.937H356.17V100.927Z" fill="#000041"/>
<path d="M416.14 39.5172H476.98V50.0572H428.6V69.7972H471.81V80.3372H428.6V100.837H477.75V111.377H416.14V39.5172Z" fill="#000041"/>
<path d="M512.81 111.367V39.5072H554.68C571.54 39.5072 582.85 48.9972 582.85 63.2672C582.85 73.5172 575.66 81.0872 564.07 83.4872L585.63 111.367H570.11L549.89 84.3472H525.36V111.367H512.81ZM525.36 73.7172H555.44C564.25 73.7172 570.1 69.4972 570.1 63.1772C570.1 55.3172 563.97 50.1472 554.67 50.1472H525.35V73.7172H525.36Z" fill="#000041"/>
<path d="M611.98 39.5172H687V50.0572H655.38V111.377H642.92V50.0572H611.97V39.5172H611.98Z" fill="#000041"/>
<path d="M715.26 39.5172H727.72V82.6272C727.72 94.1272 737.68 101.217 752.53 101.217C767.38 101.217 776.77 94.1272 776.77 82.6272V39.5172H789.23V82.6272C789.23 100.827 774.48 112.997 752.34 112.997C730.2 112.997 715.26 100.827 715.26 82.6272V39.5172Z" fill="#000041"/>
<path d="M839.24 39.6072L839.34 39.5072L868.66 94.4072L897.5 39.5072H912.64V111.367H900.18V57.5272L873.16 111.367H863.67L835.98 56.8472V111.367H823.52V39.5072L839.23 39.6072H839.24Z" fill="#000041"/>
<path d="M99.65 113.299H43L71.3292 75.5322H99.65V113.299Z" fill="#F9861E"/>
<path d="M99.6499 75.5322H71.3291V113.299H99.6499V75.5322Z" fill="#FFA143"/>
<path d="M28.3204 0L0 37.7661V75.5323V113.298H56.6408V75.5323V37.7661V0H28.3204Z" fill="#F9861E"/>
<path d="M56.6407 0H28.3203V113.298H56.6407V0Z" fill="#FFA143"/>
</svg>
