<svg version="1.1" id="Layer_1" xmlns="http://www.w3.org/2000/svg" xmlns:xlink="http://www.w3.org/1999/xlink" x="0px" y="0px"
	 width="100%" viewBox="0 0 694 664" enable-background="new 0 0 694 664" xml:space="preserve">
<path fill="#F39200" opacity="1.000000" stroke="none" 
	d="
M190.166565,631.999756 
	C188.975159,632.332947 187.784134,632.955872 186.592331,632.957397 
	C149.101578,633.004700 111.610756,632.992310 74.119949,632.979736 
	C73.636642,632.979614 73.153358,632.861511 71.999977,632.711060 
	C71.999977,630.834167 71.999985,628.908569 71.999985,626.982971 
	C71.999962,573.829285 72.123566,520.675232 71.970154,467.522003 
	C71.754425,392.775085 71.361244,318.028625 70.923889,243.282654 
	C70.899811,239.166504 72.255562,236.821716 75.734367,234.522705 
	C93.077431,223.061279 111.785378,214.656387 132.394119,212.296799 
	C149.089722,210.385223 165.892929,211.854340 181.669373,218.919861 
	C184.163071,220.036667 186.767807,220.905487 190.000214,222.150497 
	C190.000214,220.027191 190.000214,218.289474 190.000214,216.551758 
	C190.000229,176.894791 189.912903,137.237259 190.161362,97.581848 
	C190.181885,94.307968 191.679413,90.326988 193.859512,87.908455 
	C202.745377,78.050819 211.749344,68.225571 221.477768,59.217796 
	C238.664734,43.303947 256.270477,27.706751 276.371429,15.549759 
	C285.282013,10.160696 295.575012,7.060126 305.223022,2.880522 
	C305.787384,2.636043 306.195374,2.030601 306.338074,1.296571 
	C312.354401,1.000000 318.708801,1.000000 325.531616,0.999998 
	C326.280823,1.639618 326.439423,2.740565 326.860107,2.851980 
	C340.408600,6.440340 345.270294,16.725136 346.952179,29.208326 
	C349.136047,45.417313 351.280212,61.640987 352.923157,77.910675 
	C354.328552,91.827530 355.179016,105.808411 355.954102,119.778770 
	C356.824310,135.462997 357.328827,151.167450 358.002625,166.862671 
	C358.662109,182.225098 359.334381,197.586990 360.001099,212.949112 
	C360.667816,228.311264 361.334564,243.673401 362.001282,259.035553 
	C362.667969,274.397766 363.337585,289.759857 364.000580,305.122223 
	C364.670715,320.650940 365.334076,336.179932 366.000854,351.708801 
	C366.667633,367.237579 367.326996,382.766693 368.004333,398.295044 
	C368.659882,413.324310 369.345062,428.352325 369.997314,443.381714 
	C370.678467,459.076630 371.322998,474.773132 372.007416,490.467926 
	C372.655518,505.330933 373.322205,520.193176 374.003784,535.054688 
	C374.654877,549.250916 375.346588,563.445190 375.997986,577.641357 
	C376.249908,583.131897 380.991119,582.335632 384.075439,582.870605 
	C402.706940,586.102295 421.383575,589.090881 440.084106,591.901306 
	C452.853088,593.820312 465.705994,595.177185 478.483765,597.042969 
	C490.580139,598.809265 502.610474,601.024780 514.701538,602.831055 
	C525.047668,604.376709 535.452087,605.529724 545.806396,607.024902 
	C557.915039,608.773438 569.997253,610.704956 582.091003,612.556458 
	C591.768066,614.037903 601.441650,615.543030 611.123474,616.992554 
	C620.971008,618.467041 630.829590,619.867554 640.677368,621.340454 
	C643.888672,621.820740 647.062744,622.631775 650.287109,622.921021 
	C654.009949,623.254944 656.262573,624.890747 655.908569,628.740112 
	C655.520203,632.963562 652.374817,633.046570 648.973450,633.043518 
	C583.310730,632.984680 517.647949,633.015320 451.985199,632.993835 
	C414.490448,632.981567 376.995667,632.909058 339.593689,632.312378 
	C339.402130,629.174072 339.117798,626.587158 338.904602,623.536316 
	C338.983826,428.177246 339.036346,233.281998 338.787048,38.387142 
	C338.779510,32.498177 336.407135,26.213182 333.685974,20.849075 
	C331.380676,16.304792 327.146942,12.623441 321.332001,11.988643 
	C312.047394,10.975073 303.285034,13.106908 295.284851,17.427828 
	C274.216888,28.806641 255.437408,43.518970 237.491150,59.205704 
	C226.585785,68.738045 216.592468,79.310562 206.125351,89.348984 
	C201.243652,94.030731 198.951889,99.610527 198.963959,106.399101 
	C199.036591,147.210373 199.000000,188.021835 198.655777,229.037384 
	C197.447830,237.077545 196.428284,237.923523 190.011261,235.680023 
	C170.602264,221.424591 148.778519,219.789062 126.462875,223.470901 
	C110.194931,226.154953 95.581833,234.035538 81.244858,241.430710 
	C81.244858,369.062683 81.244858,496.312988 81.244858,624.000061 
	C117.603142,624.000061 153.718262,624.000061 189.905029,624.439697 
	C190.039948,627.252869 190.103256,629.626282 190.166565,631.999756 
z"/>
<path fill="#2EA9DA" opacity="1.000000" stroke="none" 
	d="
M338.833466,624.000183 
	C339.117798,626.587158 339.402130,629.174072 339.343384,631.963806 
	C337.411255,632.444275 335.822388,632.963074 334.233093,632.964600 
	C287.722382,633.007874 241.211624,633.004456 194.700897,632.973999 
	C193.433899,632.973145 192.167160,632.590942 190.533417,632.193176 
	C190.103256,629.626282 190.039948,627.252869 189.975952,623.975830 
	C189.983582,496.208801 189.991074,369.345337 190.007111,242.481888 
	C190.007385,240.321228 190.111176,238.160553 190.166672,235.999893 
	C196.428284,237.923523 197.447830,237.077545 198.969666,229.188049 
	C203.265518,233.438126 208.074890,237.205124 210.334885,242.139725 
	C219.325302,261.769897 228.453140,281.427277 235.780350,301.706787 
	C245.516327,328.653046 252.194214,356.516022 255.002197,385.159271 
	C256.379028,399.203918 258.552063,413.243011 258.775269,427.309845 
	C259.050507,444.650665 258.102875,462.048676 256.865509,479.363525 
	C255.911240,492.717438 253.904694,506.011383 251.994781,519.278503 
	C248.396606,544.272888 241.892395,568.588318 233.946045,592.513855 
	C230.452942,603.031128 226.407196,613.364990 222.532959,624.000183 
	C261.539520,624.000183 300.186493,624.000183 338.833466,624.000183 
M199.000046,431.500000 
	C199.152466,495.539246 199.304901,559.578491 199.458221,623.997253 
	C203.827499,623.997253 207.162476,624.276184 210.408752,623.861084 
	C211.720551,623.693359 213.529541,622.234680 213.938568,620.980652 
	C218.416397,607.252197 223.246826,593.598633 226.844696,579.631897 
	C233.630951,553.288086 239.640518,526.742737 242.010437,499.543640 
	C243.408890,483.493927 245.131317,467.452789 245.842255,451.369537 
	C246.331207,440.307800 245.749023,429.148743 244.905106,418.089691 
	C243.607254,401.082184 242.592056,383.968597 239.766754,367.184540 
	C236.563919,348.157715 232.442337,329.164673 226.964874,310.677032 
	C221.910721,293.618073 214.696747,277.182098 208.085388,260.610870 
	C205.873550,255.066895 202.586533,249.951874 199.790970,244.640762 
	C199.527328,244.766251 199.263672,244.891739 199.000031,245.017242 
	C199.000031,306.844818 199.000031,368.672424 199.000046,431.500000 
z"/>
</svg>