<svg xmlns="http://www.w3.org/2000/svg" width="14" height="14" viewBox="0 0 14 14" fill="none">
  <path d="M13.179 3.10162V1.02C13.179 0.732375 12.9466 0.5 12.659 0.5H1.67401C1.38639 0.5 1.15401 0.732375 1.15401 1.02V3.10162C0.882639 3.11788 0.666514 3.34375 0.666514 3.62V5.76013C0.665473 6.15345 0.745114 6.5428 0.900514 6.90412C0.970389 7.06987 1.05651 7.22587 1.15401 7.37375V12.98C1.15401 13.266 1.38639 13.5 1.67401 13.5H12.659C12.9466 13.5 13.179 13.2676 13.179 12.98V7.37375C13.278 7.2255 13.3629 7.06827 13.4325 6.90412C13.5869 6.54175 13.6665 6.15662 13.6665 5.76013V3.62C13.6665 3.34375 13.4504 3.11788 13.179 3.10162ZM2.32401 1.67H12.009V3.1H2.32401V1.67ZM8.20651 12.3316H6.12651V10.64H8.20651V12.3316ZM12.009 12.3316H9.24651V10.12C9.24651 9.83237 9.01413 9.6 8.72651 9.6H5.60651C5.31889 9.6 5.08651 9.83237 5.08651 10.12V12.3316H2.32401V8.39587C2.37114 8.41862 2.41989 8.44138 2.47026 8.46088C2.83264 8.61363 3.21776 8.69 3.61426 8.69C4.01076 8.69 4.39426 8.61363 4.75826 8.46088C4.98251 8.36663 5.19376 8.24637 5.38714 8.10175C5.39039 8.10012 5.39364 8.10012 5.39689 8.10175C5.59086 8.24699 5.8021 8.36762 6.02576 8.46088C6.38813 8.61363 6.77326 8.69 7.16976 8.69C7.56626 8.69 7.94976 8.61363 8.31376 8.46088C8.53801 8.36663 8.74926 8.24637 8.94263 8.10175C8.94588 8.10012 8.94913 8.10012 8.95238 8.10175C9.14636 8.24699 9.35759 8.36762 9.58126 8.46088C9.94363 8.61363 10.3288 8.69 10.7253 8.69C11.1218 8.69 11.5053 8.61363 11.8693 8.46088C11.918 8.43975 11.9668 8.41862 12.0155 8.39587V12.3316H12.009ZM12.4965 5.76013C12.4965 6.73187 11.7003 7.52 10.7204 7.52C10.0574 7.52 9.47888 7.16087 9.17338 6.62787C9.12626 6.54662 9.04176 6.49625 8.94751 6.49625H8.93776C8.84513 6.49625 8.75901 6.54662 8.71188 6.62787C8.55598 6.89976 8.33087 7.12553 8.05944 7.28223C7.788 7.43892 7.47992 7.52096 7.16651 7.52C6.50513 7.52 5.92826 7.1625 5.62276 6.63112C5.57401 6.54825 5.48626 6.49625 5.39039 6.49625C5.29451 6.49625 5.20514 6.54825 5.15801 6.63112C5.0012 6.90197 4.7758 7.12673 4.50451 7.28278C4.23322 7.43882 3.9256 7.52064 3.61264 7.52C2.63276 7.52 1.83651 6.73187 1.83651 5.76013V4.27812C1.83651 4.27325 1.83976 4.27 1.84464 4.27H12.4884C12.4933 4.27 12.4965 4.27325 12.4965 4.27812V5.76013Z" fill="white"/>
</svg>