<svg width="24" height="25" viewBox="0 0 24 25" fill="none" xmlns="http://www.w3.org/2000/svg">
<g id="fe:question">
<path id="Vector" fill-rule="evenodd" clip-rule="evenodd" d="M12 22.5C6.477 22.5 2 18.023 2 12.5C2 6.977 6.477 2.5 12 2.5C17.523 2.5 22 6.977 22 12.5C22 18.023 17.523 22.5 12 22.5ZM12 20.5C14.1217 20.5 16.1566 19.6571 17.6569 18.1569C19.1571 16.6566 20 14.6217 20 12.5C20 10.3783 19.1571 8.34344 17.6569 6.84315C16.1566 5.34285 14.1217 4.5 12 4.5C9.87827 4.5 7.84344 5.34285 6.34315 6.84315C4.84285 8.34344 4 10.3783 4 12.5C4 14.6217 4.84285 16.6566 6.34315 18.1569C7.84344 19.6571 9.87827 20.5 12 20.5ZM11 16.5H13V18.5H11V16.5ZM11 14.508C11 14.508 13 14.5 13 14.508C13 13.506 16 12.5 16 10.5C16 8.29 14.227 6.5 12.009 6.5C11.483 6.49882 10.9618 6.60141 10.4755 6.80189C9.98916 7.00238 9.54714 7.29683 9.17475 7.66839C8.80236 8.03994 8.50692 8.4813 8.30534 8.96719C8.10376 9.45307 8 9.97395 8 10.5H10C10 9.4 10.9 8.5 12 8.5C13.1 8.5 14 9.4 14 10.5C14 11.4 11 12.867 11 14.508Z" fill="#FFA143"/>
</g>
</svg>
