<svg xmlns="http://www.w3.org/2000/svg" width="12" height="13" viewBox="0 0 12 13" fill="none">
  <path fill-rule="evenodd" clip-rule="evenodd" d="M1.0205 1.354C0.166504 2.20917 0.166504 3.5835 0.166504 6.33333C0.166504 9.08317 0.166504 10.4581 1.0205 11.3121C1.87567 12.1667 3.25 12.1667 5.99984 12.1667C8.74967 12.1667 10.1246 12.1667 10.9786 11.3121C11.8332 10.4587 11.8332 9.08317 11.8332 6.33333C11.8332 3.5835 11.8332 2.20858 10.9786 1.354C10.1252 0.5 8.74967 0.5 5.99984 0.5C3.25 0.5 1.87509 0.5 1.0205 1.354ZM7.02067 5.16667C7.02067 5.40817 7.21667 5.60417 7.45817 5.60417H7.86067L6.68642 6.77842C6.67287 6.792 6.65678 6.80277 6.63906 6.81012C6.62135 6.81748 6.60235 6.82126 6.58317 6.82126C6.56399 6.82126 6.545 6.81748 6.52728 6.81012C6.50956 6.80277 6.49347 6.792 6.47992 6.77842L5.55475 5.85325C5.36333 5.66196 5.10379 5.55451 4.83317 5.55451C4.56255 5.55451 4.30301 5.66196 4.11159 5.85325L2.774 7.19083C2.73102 7.23089 2.69654 7.27919 2.67263 7.33285C2.64872 7.38652 2.63586 7.44445 2.63483 7.5032C2.63379 7.56194 2.6446 7.62029 2.6666 7.67477C2.6886 7.72924 2.72135 7.77873 2.7629 7.82027C2.80444 7.86182 2.85393 7.89457 2.90841 7.91657C2.96288 7.93858 3.02123 7.94938 3.07998 7.94835C3.13872 7.94731 3.19665 7.93445 3.25032 7.91054C3.30398 7.88663 3.35228 7.85215 3.39234 7.80917L4.72992 6.47158C4.74347 6.458 4.75956 6.44723 4.77728 6.43988C4.795 6.43252 4.81399 6.42874 4.83317 6.42874C4.85235 6.42874 4.87135 6.43252 4.88906 6.43988C4.90678 6.44723 4.92287 6.458 4.93642 6.47158L5.86159 7.39675C6.05301 7.58804 6.31255 7.69549 6.58317 7.69549C6.85379 7.69549 7.11333 7.58804 7.30475 7.39675L8.479 6.22308V6.625C8.479 6.74103 8.5251 6.85231 8.60715 6.93436C8.68919 7.01641 8.80047 7.0625 8.9165 7.0625C9.03254 7.0625 9.14382 7.01641 9.22586 6.93436C9.30791 6.85231 9.354 6.74103 9.354 6.625V5.16667C9.354 5.05063 9.30791 4.93936 9.22586 4.85731C9.14382 4.77526 9.03254 4.72917 8.9165 4.72917H7.45817C7.34214 4.72917 7.23086 4.77526 7.14881 4.85731C7.06676 4.93936 7.02067 5.05063 7.02067 5.16667Z" fill="#FFA143"/>
</svg>