<svg width="47" height="49" viewBox="0 0 47 49" fill="none" xmlns="http://www.w3.org/2000/svg">
<path d="M40.1289 8.44981L39.1389 7.45981L42.6249 3.97781C42.8226 3.78013 42.961 3.53116 43.0247 3.25899C43.0884 2.98682 43.0747 2.70227 42.9853 2.43744C42.8959 2.17261 42.7342 1.93804 42.5186 1.76017C42.303 1.58231 42.0419 1.46823 41.7649 1.43081L31.2569 0.0128092C31.0282 -0.0171685 30.7956 0.00563813 30.577 0.0794811C30.3584 0.153324 30.1597 0.276242 29.9959 0.438809C29.833 0.602025 29.7099 0.800614 29.6362 1.01914C29.5625 1.23767 29.5402 1.47025 29.5709 1.69881L30.9849 12.2068C31.0221 12.4837 31.1359 12.7448 31.3135 12.9605C31.491 13.1762 31.7253 13.3381 31.9899 13.4278C32.2548 13.5174 32.5395 13.5312 32.8118 13.4676C33.0841 13.4039 33.3332 13.2655 33.5309 13.0678L37.0179 9.57781L38.0079 10.5688C41.3249 13.8902 43.4007 18.2498 43.8881 22.9184C44.3755 27.5871 43.245 32.2815 40.6856 36.2163C38.1262 40.1512 34.2931 43.0878 29.8278 44.5349C25.3624 45.982 20.5355 45.8518 16.1547 44.1661C11.7738 42.4804 8.10465 39.3415 5.76105 35.2744C3.41746 31.2073 2.54157 26.4588 3.27991 21.8232C4.01825 17.1877 6.32604 12.9462 9.81721 9.8085C13.3084 6.67077 17.7712 4.82706 22.4589 4.58581C22.8568 4.56499 23.23 4.38699 23.4966 4.09096C23.7632 3.79494 23.9013 3.40513 23.8804 3.00731C23.8596 2.60948 23.6816 2.23622 23.3856 1.96964C23.0896 1.70306 22.6998 1.56499 22.3019 1.58581C16.9228 1.8615 11.8016 3.97623 7.79519 7.57613C3.78877 11.176 1.14025 16.0427 0.292801 21.3618C-0.554646 26.6808 0.450402 32.1296 3.13977 36.7963C5.82913 41.463 10.0396 45.0645 15.0667 46.9981C20.0938 48.9317 25.6325 49.0802 30.756 47.4186C35.8795 45.7571 40.2769 42.3863 43.2124 37.8704C46.1479 33.3545 47.4434 27.9674 46.8821 22.6106C46.3208 17.2537 43.9368 12.2522 40.1289 8.44281V8.44981ZM35.2599 7.09581L33.5529 8.80381L32.8059 3.24781C35.1809 4.14981 36.9679 5.38881 35.2599 7.09581Z" fill="white"/>
</svg>
