<svg xmlns="http://www.w3.org/2000/svg" width="14" height="14" viewBox="0 0 14 14" fill="none">
  <path d="M4.14163 6.62083C4.27775 6.34861 4.41872 6.08611 4.56455 5.83333C4.71038 5.58055 4.8708 5.32777 5.0458 5.075L4.22913 4.91458L3.00413 6.13958L4.14163 6.62083ZM11.1708 2.61041C10.4902 2.62986 9.76361 2.82916 8.99088 3.20833C8.21816 3.5875 7.51563 4.09305 6.8833 4.725C6.47497 5.13333 6.11038 5.57083 5.78955 6.0375C5.46872 6.50416 5.23052 6.94166 5.07497 7.35L6.73747 8.99791C7.1458 8.84236 7.5833 8.60416 8.04997 8.28333C8.51663 7.9625 8.95413 7.59791 9.36247 7.18958C9.99441 6.55763 10.5 5.85764 10.8791 5.08958C11.2583 4.32152 11.4576 3.59722 11.4771 2.91666C11.4771 2.87777 11.4697 2.83889 11.4549 2.8C11.4401 2.76111 11.4183 2.72708 11.3896 2.69791C11.3604 2.66875 11.3264 2.64697 11.2875 2.63258C11.2486 2.61819 11.2097 2.6108 11.1708 2.61041ZM7.96247 6.11041C7.73886 5.8868 7.62705 5.61225 7.62705 5.28675C7.62705 4.96125 7.73886 4.6865 7.96247 4.4625C8.18608 4.23888 8.46316 4.12708 8.79372 4.12708C9.12427 4.12708 9.40136 4.23888 9.62497 4.4625C9.84858 4.68611 9.96038 4.96086 9.96038 5.28675C9.96038 5.61263 9.84858 5.88719 9.62497 6.11041C9.40136 6.33402 9.12427 6.44583 8.79372 6.44583C8.46316 6.44583 8.18608 6.33402 7.96247 6.11041ZM7.46663 9.93125L7.94788 11.0833L9.17288 9.85833L9.01247 9.04166C8.75969 9.21666 8.50691 9.37475 8.25413 9.51591C8.00136 9.65708 7.73886 9.79552 7.46663 9.93125ZM12.5854 2.14375C12.6632 3.21319 12.4882 4.256 12.0604 5.27216C11.6326 6.28833 10.9569 7.25802 10.0333 8.18125L10.325 9.625C10.3639 9.81944 10.3541 10.009 10.2958 10.1937C10.2375 10.3785 10.1402 10.5389 10.0041 10.675L8.16663 12.5125C8.0208 12.6583 7.8458 12.7143 7.64163 12.6805C7.43747 12.6467 7.29649 12.5323 7.21872 12.3375L6.32913 10.2521L3.83538 7.75833L1.74997 6.86875C1.55552 6.79097 1.43886 6.65 1.39997 6.44583C1.36108 6.24166 1.41455 6.06666 1.56038 5.92083L3.39788 4.08333C3.534 3.94722 3.69675 3.85 3.88613 3.79166C4.07552 3.73333 4.26763 3.72361 4.46247 3.7625L5.90622 4.05416C6.82983 3.13055 7.79972 2.45486 8.81588 2.02708C9.83205 1.5993 10.8747 1.4243 11.9437 1.50208C12.0215 1.5118 12.0993 1.53377 12.1771 1.568C12.2548 1.60222 12.3229 1.6483 12.3812 1.70625C12.4396 1.76458 12.4858 1.83264 12.5201 1.91041C12.5543 1.98819 12.5761 2.06597 12.5854 2.14375ZM2.28955 9.31875C2.62983 8.97847 3.04555 8.806 3.53672 8.80133C4.02788 8.79666 4.44341 8.96427 4.7833 9.30416C5.12358 9.64444 5.29138 10.0602 5.28672 10.5513C5.28205 11.0425 5.10938 11.458 4.76872 11.7979C4.30205 12.2646 3.75022 12.5417 3.11322 12.6292C2.47622 12.7167 1.83708 12.8042 1.1958 12.8917L1.4583 10.9742C1.5458 10.3376 1.82288 9.7858 2.28955 9.31875ZM3.1208 10.1354C2.95552 10.3007 2.84138 10.5 2.77838 10.7333C2.71538 10.9667 2.66425 11.2049 2.62497 11.4479C2.86802 11.409 3.10622 11.3604 3.33955 11.3021C3.57288 11.2437 3.77219 11.1319 3.93747 10.9667C4.05413 10.85 4.11733 10.709 4.12705 10.5437C4.13677 10.3785 4.0833 10.2375 3.96663 10.1208C3.84997 10.0042 3.70899 9.94816 3.54372 9.95283C3.37844 9.9575 3.23747 10.0184 3.1208 10.1354Z" fill="white"/>
</svg>