<svg width="24" height="25" viewBox="0 0 24 25" fill="none" xmlns="http://www.w3.org/2000/svg">
<path d="M18.9308 6.02149C17.6561 5.43659 16.2892 5.00566 14.8599 4.75885C14.8339 4.75408 14.8079 4.76599 14.7945 4.7898C14.6187 5.10248 14.4239 5.51039 14.2876 5.83101C12.7503 5.60087 11.221 5.60087 9.71527 5.83101C9.57887 5.50326 9.37707 5.10248 9.20048 4.7898C9.18707 4.76678 9.16107 4.75488 9.13504 4.75885C7.70659 5.00487 6.33963 5.4358 5.06411 6.02149C5.05307 6.02625 5.04361 6.03419 5.03732 6.0445C2.44449 9.91814 1.73421 13.6966 2.08265 17.4281C2.08423 17.4464 2.09447 17.4639 2.10867 17.475C3.81934 18.7312 5.47642 19.4939 7.10273 19.9994C7.12876 20.0074 7.15634 19.9979 7.1729 19.9764C7.55761 19.4511 7.90054 18.8971 8.19456 18.3146C8.21192 18.2805 8.19535 18.24 8.15989 18.2265C7.61594 18.0202 7.098 17.7686 6.59977 17.4829C6.56037 17.4599 6.55721 17.4035 6.59347 17.3765C6.69831 17.298 6.80318 17.2162 6.9033 17.1337C6.92141 17.1186 6.94665 17.1154 6.96794 17.125C10.2411 18.6194 13.7846 18.6194 17.0191 17.125C17.0404 17.1146 17.0657 17.1178 17.0846 17.1329C17.1847 17.2154 17.2895 17.298 17.3952 17.3765C17.4314 17.4035 17.4291 17.4599 17.3897 17.4829C16.8914 17.7741 16.3735 18.0202 15.8288 18.2257C15.7933 18.2392 15.7775 18.2805 15.7949 18.3146C16.0952 18.8963 16.4381 19.4503 16.8157 19.9756C16.8315 19.9979 16.8599 20.0074 16.8859 19.9994C18.5201 19.4939 20.1772 18.7312 21.8879 17.475C21.9028 17.4639 21.9123 17.4472 21.9139 17.4289C22.3309 13.1148 21.2154 9.36738 18.9568 6.04529C18.9513 6.03419 18.9419 6.02625 18.9308 6.02149ZM8.68335 15.156C7.69792 15.156 6.88594 14.2513 6.88594 13.1402C6.88594 12.0292 7.68217 11.1244 8.68335 11.1244C9.69239 11.1244 10.4965 12.0371 10.4807 13.1402C10.4807 14.2513 9.68451 15.156 8.68335 15.156ZM15.329 15.156C14.3435 15.156 13.5316 14.2513 13.5316 13.1402C13.5316 12.0292 14.3278 11.1244 15.329 11.1244C16.338 11.1244 17.1421 12.0371 17.1264 13.1402C17.1264 14.2513 16.338 15.156 15.329 15.156Z" fill="black"/>
</svg>
