<svg width="24" height="25" viewBox="0 0 24 25" fill="none" xmlns="http://www.w3.org/2000/svg">
<path fill-rule="evenodd" clip-rule="evenodd" d="M22 12.3799C22 17.9027 17.5228 22.3799 12 22.3799C6.47715 22.3799 2 17.9027 2 12.3799C2 6.85704 6.47715 2.37988 12 2.37988C17.5228 2.37988 22 6.85704 22 12.3799ZM12.3583 9.76233C11.3857 10.1669 9.44176 11.0042 6.52656 12.2743C6.05318 12.4626 5.8052 12.6467 5.78262 12.8268C5.74447 13.1311 6.12558 13.251 6.64454 13.4142C6.71513 13.4364 6.78828 13.4594 6.86326 13.4837C7.37385 13.6497 8.06067 13.8439 8.41772 13.8516C8.7416 13.8586 9.10309 13.7251 9.50218 13.451C12.2259 11.6124 13.632 10.6831 13.7202 10.663C13.7825 10.6489 13.8688 10.6311 13.9273 10.6831C13.9858 10.7351 13.98 10.8335 13.9738 10.8599C13.9361 11.0208 12.4401 12.4116 11.6659 13.1314C11.4246 13.3558 11.2534 13.5149 11.2184 13.5513C11.14 13.6327 11.0601 13.7097 10.9833 13.7837C10.509 14.241 10.1532 14.5839 11.003 15.1439C11.4113 15.413 11.7381 15.6355 12.0641 15.8575C12.4201 16.1 12.7752 16.3418 13.2347 16.643C13.3517 16.7197 13.4635 16.7994 13.5724 16.877C13.9867 17.1724 14.3589 17.4377 14.8188 17.3954C15.086 17.3708 15.362 17.1196 15.5022 16.3702C15.8335 14.5992 16.4847 10.7619 16.6352 9.18071C16.6483 9.04217 16.6318 8.86487 16.6184 8.78704C16.6051 8.70921 16.5773 8.59832 16.4761 8.51623C16.3563 8.41901 16.1713 8.3985 16.0886 8.39996C15.7125 8.40659 15.1354 8.60724 12.3583 9.76233Z" fill="black"/>
</svg>
