<svg width="24" height="24" viewBox="0 0 24 24" fill="none" xmlns="http://www.w3.org/2000/svg">
<g clip-path="url(#clip0_502_55)">
<mask id="mask0_502_55" style="mask-type:luminance" maskUnits="userSpaceOnUse" x="3" y="3" width="18" height="18">
<path d="M21 3H3V21H21V3Z" fill="white"/>
</mask>
<g mask="url(#mask0_502_55)">
<path d="M18.8906 3H5.10938C3.9444 3 3 3.9444 3 5.10938V18.8906C3 20.0556 3.9444 21 5.10938 21H18.8906C20.0556 21 21 20.0556 21 18.8906V5.10938C21 3.9444 20.0556 3 18.8906 3Z" fill="black"/>
<path d="M15.5122 6.51562H17.373L13.3078 11.1619L18.0902 17.4844H14.3456L11.4127 13.6498L8.05687 17.4844H6.19501L10.5431 12.5147L5.95538 6.51562H9.79499L12.4461 10.0206L15.5122 6.51562ZM14.8592 16.3706H15.8902L9.23474 7.57088H8.1283L14.8592 16.3706Z" fill="white"/>
</g>
</g>
<defs>
<clipPath id="clip0_502_55">
<rect width="18" height="18" fill="white" transform="translate(3 3)"/>
</clipPath>
</defs>
</svg>
