<svg width="21" height="20" viewBox="0 0 21 20" fill="none" xmlns="http://www.w3.org/2000/svg">
<g id="ph:book">
<path id="Vector" d="M16.9773 1.875H6.35229C5.68925 1.875 5.05337 2.13839 4.58453 2.60723C4.11569 3.07607 3.85229 3.71196 3.85229 4.375V17.5C3.85229 17.6658 3.91814 17.8247 4.03535 17.9419C4.15256 18.0592 4.31153 18.125 4.47729 18.125H15.7273C15.8931 18.125 16.052 18.0592 16.1692 17.9419C16.2864 17.8247 16.3523 17.6658 16.3523 17.5C16.3523 17.3342 16.2864 17.1753 16.1692 17.0581C16.052 16.9408 15.8931 16.875 15.7273 16.875H5.10229C5.10229 16.5435 5.23399 16.2255 5.46841 15.9911C5.70283 15.7567 6.02077 15.625 6.35229 15.625H16.9773C17.1431 15.625 17.302 15.5592 17.4192 15.4419C17.5364 15.3247 17.6023 15.1658 17.6023 15V2.5C17.6023 2.33424 17.5364 2.17527 17.4192 2.05806C17.302 1.94085 17.1431 1.875 16.9773 1.875ZM16.3523 14.375H6.35229C5.91335 14.3744 5.48206 14.49 5.10229 14.7102V4.375C5.10229 4.04348 5.23399 3.72554 5.46841 3.49112C5.70283 3.2567 6.02077 3.125 6.35229 3.125H16.3523V14.375Z" fill="white"/>
</g>
</svg>
