<svg xmlns="http://www.w3.org/2000/svg" width="16" height="17" viewBox="0 0 16 17" fill="none">
  <g clip-path="url(#clip0_4_5108)">
    <path d="M7.90731 3.83022C7.86375 3.78782 7.80579 3.76416 7.74551 3.76416C7.68522 3.76416 7.62726 3.78782 7.5837 3.83022L2.19693 9.06584C2.17405 9.0881 2.15585 9.11486 2.14343 9.14448C2.13101 9.17411 2.12462 9.20599 2.12466 9.2382L2.12378 14.152C2.12378 14.4047 2.22243 14.647 2.39802 14.8256C2.57362 15.0043 2.81177 15.1046 3.0601 15.1046H5.87199C5.99615 15.1046 6.11523 15.0545 6.20303 14.9651C6.29082 14.8758 6.34015 14.7547 6.34015 14.6283V10.5796C6.34015 10.5165 6.36481 10.4559 6.40871 10.4112C6.45261 10.3666 6.51215 10.3415 6.57423 10.3415H8.91503C8.97711 10.3415 9.03665 10.3666 9.08055 10.4112C9.12445 10.4559 9.14911 10.5165 9.14911 10.5796V14.6283C9.14911 14.7547 9.19843 14.8758 9.28623 14.9651C9.37403 15.0545 9.4931 15.1046 9.61727 15.1046H12.428C12.6763 15.1046 12.9145 15.0043 13.0901 14.8256C13.2657 14.647 13.3643 14.4047 13.3643 14.152V9.2382C13.3643 9.20599 13.358 9.17411 13.3455 9.14448C13.3331 9.11486 13.3149 9.0881 13.292 9.06584L7.90731 3.83022Z" fill="white"/>
    <path d="M14.6185 8.08373L12.4299 5.9534V2.7207C12.4299 2.59437 12.3806 2.47322 12.2928 2.38389C12.205 2.29457 12.0859 2.24438 11.9617 2.24438H10.5573C10.4331 2.24438 10.314 2.29457 10.2262 2.38389C10.1384 2.47322 10.0891 2.59437 10.0891 2.7207V3.67333L8.39435 2.02468C8.23576 1.86154 7.99993 1.76807 7.74507 1.76807C7.49109 1.76807 7.25584 1.86154 7.09725 2.02498L0.873649 8.08314C0.691652 8.26175 0.668829 8.55558 0.834441 8.74909C0.876028 8.79793 0.926949 8.83765 0.984105 8.86584C1.04126 8.89402 1.10346 8.91008 1.1669 8.91303C1.23035 8.91598 1.29373 8.90577 1.35317 8.88301C1.41262 8.86025 1.46689 8.82542 1.51269 8.78064L7.58414 2.87788C7.6277 2.83549 7.68566 2.81182 7.74595 2.81182C7.80623 2.81182 7.86419 2.83549 7.90776 2.87788L13.9798 8.78064C14.0692 8.86791 14.189 8.91554 14.3129 8.91308C14.4368 8.91063 14.5547 8.85829 14.6408 8.76754C14.8204 8.57821 14.8055 8.26562 14.6185 8.08373Z" fill="white"/>
  </g>
  <defs>
    <clipPath id="clip0_4_5108">
      <rect width="14.9811" height="15.2421" fill="white" transform="translate(0.25415 0.814697)"/>
    </clipPath>
  </defs>
</svg>