<svg 
width="15" 
height="17" 
viewBox="0 0 15 17" 
fill="none" 
xmlns="http://www.w3.org/2000/svg">
<rect width="15" height="15.838" transform="translate(0 0.589111)" fill="f0f0f0"/>
<path d="M7.66289 3.72245C7.61927 3.6784 7.56124 3.65381 7.50088 3.65381C7.44052 3.65381 7.38249 3.6784 7.33887 3.72245L1.94531 9.16274C1.92241 9.18588 1.90418 9.21368 1.89175 9.24446C1.87931 9.27525 1.87291 9.30838 1.87295 9.34185L1.87207 14.4477C1.87207 14.7103 1.97084 14.9621 2.14666 15.1477C2.32247 15.3333 2.56093 15.4376 2.80957 15.4376H5.625C5.74932 15.4376 5.86855 15.3855 5.95646 15.2927C6.04436 15.1998 6.09375 15.0739 6.09375 14.9427V10.7357C6.09375 10.6701 6.11844 10.6071 6.1624 10.5607C6.20635 10.5143 6.26597 10.4882 6.32813 10.4882H8.67188C8.73404 10.4882 8.79365 10.5143 8.83761 10.5607C8.88156 10.6071 8.90625 10.6701 8.90625 10.7357V14.9427C8.90625 15.0739 8.95564 15.1998 9.04355 15.2927C9.13145 15.3855 9.25068 15.4376 9.375 15.4376H12.1893C12.4379 15.4376 12.6764 15.3333 12.8522 15.1477C13.028 14.9621 13.1268 14.7103 13.1268 14.4477V9.34185C13.1268 9.30838 13.1204 9.27525 13.108 9.24446C13.0955 9.21368 13.0773 9.18588 13.0544 9.16274L7.66289 3.72245Z" fill="#009ED4"/>
<path d="M14.3826 8.14264L12.1912 5.92903V2.56995C12.1912 2.43869 12.1418 2.3128 12.0539 2.21998C11.966 2.12716 11.8468 2.07502 11.7225 2.07502H10.3162C10.1919 2.07502 10.0727 2.12716 9.98477 2.21998C9.89686 2.3128 9.84747 2.43869 9.84747 2.56995V3.55983L8.1506 1.84673C7.99181 1.67721 7.75568 1.58008 7.5005 1.58008C7.2462 1.58008 7.01066 1.67721 6.85187 1.84704L0.620421 8.14202C0.438195 8.32762 0.415343 8.63294 0.581163 8.834C0.622803 8.88476 0.673789 8.92603 0.731017 8.95532C0.788244 8.9846 0.850518 9.00129 0.914046 9.00436C0.977575 9.00742 1.04103 8.99681 1.10055 8.97316C1.16007 8.94951 1.21441 8.91332 1.26027 8.86679L7.33937 2.73328C7.38299 2.68923 7.44102 2.66464 7.50138 2.66464C7.56174 2.66464 7.61977 2.68923 7.66339 2.73328L13.7431 8.86679C13.8326 8.95748 13.9526 9.00696 14.0767 9.00441C14.2007 9.00186 14.3188 8.94748 14.4049 8.85318C14.5848 8.65645 14.5698 8.33164 14.3826 8.14264Z" fill="#009ED4"/>
</svg>
