<svg width="72" height="94" viewBox="0 0 72 94" fill="none" xmlns="http://www.w3.org/2000/svg">
<path d="M66.7505 33.7233L65.2505 79.1246C65.1227 83.0129 63.4847 86.6984 60.6841 89.3989C57.8836 92.0993 54.1409 93.6021 50.2505 93.5883H21.7505C17.8626 93.6022 14.122 92.1015 11.3219 89.4043C8.52172 86.707 6.88205 83.0253 6.75047 79.1396L5.25047 33.7233C5.21765 32.7288 5.58126 31.7619 6.26131 31.0354C6.94137 30.309 7.88216 29.8824 8.87672 29.8496C9.87128 29.8167 10.8381 30.1804 11.5646 30.8604C12.2911 31.5405 12.7176 32.4813 12.7505 33.4758L14.2505 78.8883C14.3252 80.827 15.1482 82.6613 16.5467 84.0059C17.9452 85.3506 19.8104 86.101 21.7505 86.0996H50.2505C52.1931 86.1009 54.0604 85.3484 55.4593 84.0005C56.8582 82.6527 57.6796 80.8146 57.7505 78.8733L59.2505 33.4758C59.2833 32.4813 59.7098 31.5405 60.4363 30.8604C61.1628 30.1804 62.1296 29.8167 63.1242 29.8496C64.1188 29.8824 65.0596 30.309 65.7396 31.0354C66.4197 31.7619 66.7833 32.7288 66.7505 33.7233ZM71.7117 18.6146C71.7117 19.6091 71.3166 20.563 70.6134 21.2662C69.9101 21.9695 68.9563 22.3646 67.9617 22.3646H4.04297C3.04841 22.3646 2.09458 21.9695 1.39132 21.2662C0.688056 20.563 0.292969 19.6091 0.292969 18.6146C0.292969 17.62 0.688056 16.6662 1.39132 15.9629C2.09458 15.2597 3.04841 14.8646 4.04297 14.8646H15.668C16.8561 14.8678 18.003 14.4288 18.8854 13.6331C19.7678 12.8373 20.3225 11.7418 20.4417 10.5596C20.7184 7.78639 22.0177 5.21556 24.0863 3.34797C26.1549 1.48038 28.8448 0.449819 31.6317 0.457069H40.3692C43.1562 0.449819 45.846 1.48038 47.9146 3.34797C49.9832 5.21556 51.2825 7.78639 51.5592 10.5596C51.6784 11.7418 52.2332 12.8373 53.1155 13.6331C53.9979 14.4288 55.1448 14.8678 56.333 14.8646H67.958C68.9525 14.8646 69.9064 15.2597 70.6096 15.9629C71.3129 16.6662 71.708 17.62 71.708 18.6146H71.7117ZM26.9517 14.8646H45.0567C44.5639 13.7386 44.2417 12.5455 44.1005 11.3246C44.0076 10.4002 43.5749 9.54327 42.8862 8.91974C42.1976 8.2962 41.302 7.95049 40.373 7.94957H31.6355C30.7065 7.95049 29.8109 8.2962 29.1222 8.91974C28.4336 9.54327 28.0009 10.4002 27.908 11.3246C27.7656 12.5457 27.4458 13.7388 26.9517 14.8646ZM30.728 71.6808V39.7496C30.728 38.755 30.3329 37.8012 29.6296 37.0979C28.9264 36.3947 27.9725 35.9996 26.978 35.9996C25.9834 35.9996 25.0296 36.3947 24.3263 37.0979C23.6231 37.8012 23.228 38.755 23.228 39.7496V71.6958C23.228 72.6904 23.6231 73.6442 24.3263 74.3475C25.0296 75.0507 25.9834 75.4458 26.978 75.4458C27.9725 75.4458 28.9264 75.0507 29.6296 74.3475C30.3329 73.6442 30.728 72.6904 30.728 71.6958V71.6808ZM48.7805 71.6808V39.7496C48.7805 38.755 48.3854 37.8012 47.6821 37.0979C46.9789 36.3947 46.025 35.9996 45.0305 35.9996C44.0359 35.9996 43.0821 36.3947 42.3788 37.0979C41.6756 37.8012 41.2805 38.755 41.2805 39.7496V71.6958C41.2805 72.6904 41.6756 73.6442 42.3788 74.3475C43.0821 75.0507 44.0359 75.4458 45.0305 75.4458C46.025 75.4458 46.9789 75.0507 47.6821 74.3475C48.3854 73.6442 48.7805 72.6904 48.7805 71.6958V71.6808Z" fill="#5C5C5C"/>
</svg>
