<svg width="138" height="138" viewBox="0 0 138 138" fill="none" xmlns="http://www.w3.org/2000/svg">
<circle cx="69" cy="69" r="60" fill="#F7931A"/>
<path d="M95.0871 57.5758L93.7986 96.5755C93.6888 99.9156 92.2818 103.081 89.8761 105.401C87.4704 107.721 84.2554 109.012 80.9136 109H56.432C53.0923 109.012 49.8792 107.723 47.4739 105.406C45.0685 103.089 43.66 99.9263 43.547 96.5884L42.2585 57.5758C42.2303 56.7215 42.5427 55.8909 43.1268 55.2669C43.711 54.6428 44.5191 54.2764 45.3735 54.2482C46.2278 54.22 47.0583 54.5324 47.6824 55.1166C48.3064 55.7007 48.6728 56.5089 48.701 57.3632L49.9895 96.3726C50.0537 98.0379 50.7607 99.6136 51.962 100.769C53.1633 101.924 54.7655 102.568 56.432 102.567H80.9136C82.5822 102.568 84.1863 101.922 85.3879 100.764C86.5896 99.6062 87.2952 98.0273 87.3561 96.3597L88.6446 57.3632C88.6728 56.5089 89.0392 55.7007 89.6632 55.1166C90.2873 54.5324 91.1178 54.22 91.9721 54.2482C92.8265 54.2764 93.6346 54.6428 94.2188 55.2669C94.8029 55.8909 95.1153 56.7215 95.0871 57.5758ZM99.3488 44.5974C99.3488 45.4517 99.0094 46.271 98.4053 46.8751C97.8012 47.4792 96.9819 47.8186 96.1276 47.8186H41.2213C40.3669 47.8186 39.5476 47.4792 38.9435 46.8751C38.3394 46.271 38 45.4517 38 44.5974C38 43.743 38.3394 42.9237 38.9435 42.3196C39.5476 41.7155 40.3669 41.3761 41.2213 41.3761H51.2071C52.2278 41.3788 53.213 41.0018 53.9709 40.3182C54.7289 39.6347 55.2054 38.6936 55.3078 37.6781C55.5455 35.2959 56.6616 33.0876 58.4385 31.4833C60.2155 29.8791 62.526 28.9938 64.92 29H72.4256C74.8195 28.9938 77.1301 29.8791 78.9071 31.4833C80.684 33.0876 81.8001 35.2959 82.0378 37.6781C82.1402 38.6936 82.6167 39.6347 83.3747 40.3182C84.1326 41.0018 85.1178 41.3788 86.1384 41.3761H96.1243C96.9787 41.3761 97.798 41.7155 98.4021 42.3196C99.0062 42.9237 99.3456 43.743 99.3456 44.5974H99.3488ZM60.8999 41.3761H76.4521C76.0288 40.4089 75.752 39.384 75.6307 38.3352C75.5509 37.5412 75.1792 36.8051 74.5877 36.2695C73.9961 35.7339 73.2268 35.4369 72.4288 35.4361H64.9233C64.1252 35.4369 63.3559 35.7339 62.7644 36.2695C62.1728 36.8051 61.8011 37.5412 61.7213 38.3352C61.599 39.3842 61.3243 40.4091 60.8999 41.3761ZM64.1437 90.1813V62.7524C64.1437 61.898 63.8043 61.0787 63.2002 60.4746C62.5961 59.8705 61.7768 59.5311 60.9225 59.5311C60.0681 59.5311 59.2488 59.8705 58.6447 60.4746C58.0406 61.0787 57.7012 61.898 57.7012 62.7524V90.1942C57.7012 91.0486 58.0406 91.8679 58.6447 92.472C59.2488 93.0761 60.0681 93.4155 60.9225 93.4155C61.7768 93.4155 62.5961 93.0761 63.2002 92.472C63.8043 91.8679 64.1437 91.0486 64.1437 90.1942V90.1813ZM79.6508 90.1813V62.7524C79.6508 61.898 79.3114 61.0787 78.7073 60.4746C78.1032 59.8705 77.2839 59.5311 76.4296 59.5311C75.5752 59.5311 74.7559 59.8705 74.1518 60.4746C73.5477 61.0787 73.2083 61.898 73.2083 62.7524V90.1942C73.2083 91.0486 73.5477 91.8679 74.1518 92.472C74.7559 93.0761 75.5752 93.4155 76.4296 93.4155C77.2839 93.4155 78.1032 93.0761 78.7073 92.472C79.3114 91.8679 79.6508 91.0486 79.6508 90.1942V90.1813Z" fill="#F7F7F7"/>
</svg>
