<svg width="138" height="138" viewBox="0 0 138 138" fill="none" xmlns="http://www.w3.org/2000/svg">
<circle cx="69" cy="69" r="60" fill="#F7931A"/>
<path d="M90.6659 29.0019C87.8363 29.0403 85.1322 30.176 83.1236 32.1694L32.1966 83.0964C30.1617 85.1411 29.0223 87.9104 29.0291 90.7951L29 105.349C28.9981 105.829 29.0912 106.304 29.274 106.748C29.4568 107.192 29.7257 107.595 30.0651 107.935C30.4046 108.274 30.8078 108.543 31.2517 108.726C31.6955 108.909 32.1712 109.002 32.6512 109L47.2049 108.971C48.6333 108.974 50.0484 108.697 51.3694 108.153C52.6903 107.61 53.8913 106.811 54.9036 105.803L105.831 54.8764C107.86 52.8209 108.999 50.0484 108.999 47.1595C108.999 44.2707 107.86 41.4982 105.831 39.4426L98.5574 32.1694C97.5213 31.1397 96.2888 30.3287 94.9332 29.7846C93.5776 29.2405 92.1264 28.9743 90.6659 29.0019ZM90.775 36.2461C91.7569 36.2315 92.7024 36.6243 93.4007 37.3189L100.681 44.5993C101.025 44.932 101.298 45.3304 101.485 45.7708C101.672 46.2113 101.768 46.6848 101.768 47.1632C101.768 47.6415 101.672 48.115 101.485 48.5555C101.298 48.9959 101.025 49.3943 100.681 49.727L95.9717 54.4291L83.5709 42.0283L88.273 37.3189C88.9349 36.6504 89.8345 36.2657 90.775 36.2461ZM78.4288 47.1704L90.8296 59.5712L52.3252 98.0756L39.9244 85.6748L78.4288 47.1704ZM36.2732 92.308L45.6848 101.719H36.2732V92.308Z" fill="#FEFEFE"/>
</svg>
