<svg xmlns="http://www.w3.org/2000/svg" width="19" height="19" viewBox="0 0 19 19" fill="none">
  <path d="M10.3 5.70938H9.73819C9.58919 5.70938 9.4463 5.65143 9.34094 5.5483C9.23559 5.44516 9.1764 5.30528 9.1764 5.15942C9.1764 5.08649 9.1468 5.01655 9.09413 4.96498C9.04145 4.91341 8.97 4.88444 8.8955 4.88444C8.821 4.88444 8.74956 4.91341 8.69688 4.96498C8.6442 5.01655 8.61461 5.08649 8.61461 5.15942C8.61461 5.45113 8.73298 5.7309 8.9437 5.93717C9.15441 6.14345 9.4402 6.25933 9.73819 6.25933V6.53431C9.73819 6.60724 9.76779 6.67718 9.82046 6.72875C9.87314 6.78032 9.94459 6.80929 10.0191 6.80929C10.0936 6.80929 10.165 6.78032 10.2177 6.72875C10.2704 6.67718 10.3 6.60724 10.3 6.53431V6.25933C10.598 6.25933 10.8838 6.14345 11.0945 5.93717C11.3052 5.7309 11.4236 5.45113 11.4236 5.15942C11.4236 4.8677 11.3052 4.58794 11.0945 4.38166C10.8838 4.17539 10.598 4.05951 10.3 4.05951H9.73819C9.58919 4.05951 9.4463 4.00156 9.34094 3.89843C9.23559 3.79529 9.1764 3.65541 9.1764 3.50955C9.1764 3.36369 9.23559 3.22381 9.34094 3.12067C9.4463 3.01753 9.58919 2.95959 9.73819 2.95959H10.3C10.449 2.95959 10.5919 3.01753 10.6972 3.12067C10.8026 3.22381 10.8618 3.36369 10.8618 3.50955C10.8618 3.58248 10.8914 3.65242 10.944 3.70399C10.9967 3.75556 11.0682 3.78453 11.1427 3.78453C11.2172 3.78453 11.2886 3.75556 11.3413 3.70399C11.394 3.65242 11.4236 3.58248 11.4236 3.50955C11.4236 3.21783 11.3052 2.93807 11.0945 2.73179C10.8838 2.52552 10.598 2.40964 10.3 2.40964V2.13466C10.3 2.06173 10.2704 1.99179 10.2177 1.94022C10.165 1.88865 10.0936 1.85968 10.0191 1.85968C9.94459 1.85968 9.87314 1.88865 9.82046 1.94022C9.76779 1.99179 9.73819 2.06173 9.73819 2.13466V2.40964C9.4402 2.40964 9.15441 2.52552 8.9437 2.73179C8.73298 2.93807 8.61461 3.21783 8.61461 3.50955C8.61461 3.80126 8.73298 4.08103 8.9437 4.28731C9.15441 4.49358 9.4402 4.60946 9.73819 4.60946H10.3C10.449 4.60946 10.5919 4.6674 10.6972 4.77054C10.8026 4.87368 10.8618 5.01356 10.8618 5.15942C10.8618 5.30528 10.8026 5.44516 10.6972 5.5483C10.5919 5.65143 10.449 5.70938 10.3 5.70938ZM10.0191 7.9092C10.7413 7.9092 11.4473 7.69955 12.0478 7.30675C12.6483 6.91396 13.1164 6.35566 13.3928 5.70247C13.6692 5.04928 13.7415 4.33052 13.6006 3.63709C13.4597 2.94366 13.1119 2.30671 12.6012 1.80678C12.0905 1.30684 11.4398 0.966386 10.7315 0.828454C10.0231 0.690523 9.28891 0.761314 8.62166 1.03188C7.95441 1.30244 7.3841 1.76062 6.98285 2.34848C6.5816 2.93634 6.36744 3.62747 6.36744 4.33448C6.36863 5.2822 6.75373 6.19077 7.43829 6.86091C8.12285 7.53104 9.05097 7.90804 10.0191 7.9092ZM10.0191 1.30972C10.6302 1.30972 11.2276 1.48712 11.7357 1.81949C12.2438 2.15185 12.6399 2.62426 12.8737 3.17696C13.1076 3.72966 13.1688 4.33784 13.0496 4.92459C12.9304 5.51133 12.6361 6.05029 12.2039 6.47331C11.7718 6.89633 11.2213 7.18441 10.6219 7.30113C10.0225 7.41784 9.40125 7.35794 8.83665 7.129C8.27205 6.90006 7.78948 6.51237 7.44996 6.01495C7.11045 5.51753 6.92923 4.93273 6.92923 4.33448C6.93012 3.53254 7.25595 2.76368 7.83521 2.19662C8.41448 1.62956 9.19988 1.3106 10.0191 1.30972ZM18.446 8.89912H16.1988C16.0087 8.89952 15.8244 8.96281 15.6757 9.07873C15.527 9.19464 15.4227 9.35636 15.3797 9.53762L12.2208 8.5884C11.8135 8.46683 11.3771 8.47725 10.9764 8.6181L10.5062 8.78308L8.30225 8.30957C7.83672 8.20935 7.35172 8.24024 6.90339 8.39866L4.05454 9.40398C3.99017 9.25431 3.88211 9.12656 3.7439 9.03675C3.60568 8.94695 3.44347 8.89907 3.27758 8.89912H1.03041C0.95591 8.89912 0.884463 8.92809 0.831784 8.97966C0.779106 9.03123 0.749512 9.10117 0.749512 9.1741V14.6737C0.749512 14.7466 0.779106 14.8165 0.831784 14.8681C0.884463 14.9197 0.95591 14.9486 1.03041 14.9486H3.27758C3.41626 14.9485 3.55276 14.9148 3.67496 14.8506C3.79717 14.7865 3.9013 14.6937 3.97813 14.5807C5.01722 15.8704 6.33733 16.9168 7.84214 17.6434L9.05449 18.2275C9.23869 18.3171 9.44375 18.3576 9.64903 18.3449C9.85431 18.3323 10.0526 18.2669 10.2238 18.1554C10.3951 18.0439 10.5333 17.8902 10.6246 17.7097C10.7159 17.5293 10.757 17.3285 10.7438 17.1276C10.8199 17.1468 10.8979 17.1581 10.9764 17.1611C11.0534 17.161 11.1302 17.1533 11.2056 17.138C11.4516 17.0891 11.6735 16.9604 11.8354 16.7726C11.9973 16.5849 12.0897 16.3491 12.0977 16.1036C12.2574 16.1915 12.437 16.2393 12.6202 16.2427C12.697 16.2426 12.7736 16.2348 12.8488 16.2196C13.1107 16.1675 13.3448 16.0252 13.5086 15.8186C13.6724 15.6119 13.7551 15.3545 13.7415 15.0933C13.959 15.1463 14.1881 15.1297 14.3953 15.046C14.6024 14.9623 14.7767 14.8158 14.8926 14.628C14.977 14.5033 15.0344 14.3629 15.0612 14.2156H15.3657C15.3887 14.4165 15.4862 14.6021 15.6398 14.7372C15.7934 14.8724 15.9923 14.9476 16.1988 14.9486H18.446C18.5205 14.9486 18.5919 14.9197 18.6446 14.8681C18.6973 14.8165 18.7269 14.7466 18.7269 14.6737V9.1741C18.7269 9.10117 18.6973 9.03123 18.6446 8.97966C18.5919 8.92809 18.5205 8.89912 18.446 8.89912ZM3.55847 14.1237C3.55847 14.1966 3.52888 14.2666 3.4762 14.3181C3.42352 14.3697 3.35208 14.3987 3.27758 14.3987H1.3113V9.44908H3.27758C3.35208 9.44908 3.42352 9.47805 3.4762 9.52962C3.52888 9.58119 3.55847 9.65113 3.55847 9.72406V14.1237ZM14.4241 14.3277C14.3836 14.3881 14.3313 14.44 14.2702 14.4806C14.2092 14.5211 14.1406 14.5495 14.0683 14.5641C13.9961 14.5787 13.9216 14.5793 13.8491 14.5657C13.7767 14.5521 13.7077 14.5247 13.646 14.485L11.0376 12.8038L10.9174 12.9826C10.899 12.9947 10.8832 13.0103 10.871 13.0284C10.8587 13.0465 10.8503 13.0668 10.846 13.0881L10.7286 13.263L10.9438 13.4016C10.9466 13.4016 10.9483 13.4066 10.9511 13.4088L12.9314 14.6858C13.0531 14.7671 13.1373 14.892 13.1658 15.0336C13.1943 15.1751 13.1649 15.322 13.0838 15.4425C13.0027 15.563 12.8765 15.6474 12.7324 15.6777C12.5883 15.7079 12.4379 15.6815 12.3134 15.6042L11.6045 15.1472L11.5966 15.1411L9.87302 14.0302H9.86853L9.70504 13.9246C9.64284 13.8859 9.5676 13.8727 9.49555 13.8879C9.42349 13.903 9.3604 13.9452 9.31986 14.0055C9.27933 14.0657 9.2646 14.1392 9.27885 14.2099C9.2931 14.2807 9.3352 14.3432 9.39606 14.3838L11.291 15.6053C11.3822 15.6658 11.4532 15.7513 11.4952 15.851C11.5371 15.9508 11.5482 16.0604 11.527 16.1663C11.5058 16.2721 11.4533 16.3696 11.376 16.4464C11.2986 16.5233 11.1999 16.5762 11.0921 16.5985C10.9462 16.6277 10.7945 16.599 10.6702 16.5188L8.76797 15.2924C8.73719 15.2718 8.70252 15.2574 8.666 15.2501C8.62948 15.2428 8.59184 15.2426 8.55526 15.2497C8.51868 15.2567 8.48391 15.2709 8.45296 15.2912C8.42202 15.3116 8.39552 15.3377 8.37501 15.3682C8.3545 15.3987 8.3404 15.4329 8.33352 15.4687C8.32664 15.5046 8.32712 15.5414 8.33494 15.5771C8.34276 15.6128 8.35775 15.6466 8.37905 15.6766C8.40035 15.7065 8.42752 15.732 8.45899 15.7516L8.55786 15.8154C8.56067 15.8154 8.56236 15.8209 8.56573 15.8231L9.91403 16.6915C10.0518 16.7724 10.1518 16.9029 10.1924 17.0551C10.2331 17.2072 10.2113 17.3689 10.1317 17.5055C10.0521 17.6422 9.92097 17.7428 9.76646 17.786C9.61194 17.8291 9.44632 17.8113 9.30505 17.7364L8.08989 17.1485C6.50948 16.3851 5.14596 15.2516 4.12027 13.8487V9.96494L7.09327 8.91672C7.44212 8.79389 7.8193 8.76987 8.18146 8.84743L9.5146 9.13396L8.55056 9.47438C8.25443 9.57363 8.01071 9.78398 7.87301 10.0592C7.7353 10.3343 7.71491 10.6518 7.8163 10.9417C7.91769 11.2316 8.13257 11.4701 8.41366 11.6049C8.69475 11.7397 9.01903 11.7597 9.31516 11.6605L10.6505 11.2364L14.264 13.5655C14.3308 13.6087 14.3875 13.6654 14.4301 13.7318C14.4728 13.7982 14.5004 13.8728 14.5112 13.9505C14.5117 13.9639 14.513 13.9773 14.5151 13.9906C14.5231 14.1095 14.4911 14.2283 14.4241 14.3277ZM15.3561 13.6672H15.019C14.9389 13.4369 14.7822 13.2394 14.5741 13.1063L10.8483 10.7041C10.8131 10.6814 10.7732 10.6668 10.7315 10.6613C10.6898 10.6558 10.6473 10.6595 10.6073 10.6722L9.14325 11.1374C9.02959 11.1737 8.90763 11.1768 8.79217 11.1466C8.6767 11.1163 8.57267 11.0539 8.4927 10.967C8.42462 10.8933 8.37614 10.8043 8.35153 10.7079C8.32692 10.6115 8.32694 10.5106 8.3516 10.4143C8.37626 10.3179 8.42479 10.2289 8.4929 10.1553C8.56101 10.0816 8.64661 10.0255 8.74213 9.99189L11.1685 9.13505C11.4547 9.03438 11.7665 9.02705 12.0573 9.11416L15.3561 10.1063V13.6672ZM18.1651 14.3987H16.1988C16.1243 14.3987 16.0529 14.3697 16.0002 14.3181C15.9475 14.2666 15.9179 14.1966 15.9179 14.1237V9.72406C15.9179 9.65113 15.9475 9.58119 16.0002 9.52962C16.0529 9.47805 16.1243 9.44908 16.1988 9.44908H18.1651V14.3987Z" fill="white"/>
</svg>