<svg 
width="18" 
height="19" 
viewBox="0 0 18 19" 
fill="none" 
xmlns="http://www.w3.org/2000/svg">
<path d="M9.5625 5.43583H9C8.85082 5.43583 8.70775 5.37562 8.60226 5.26845C8.49677 5.16128 8.4375 5.01593 8.4375 4.86437C8.4375 4.78859 8.40787 4.71592 8.35513 4.66233C8.30238 4.60875 8.23085 4.57865 8.15625 4.57865C8.08166 4.57865 8.01013 4.60875 7.95738 4.66233C7.90464 4.71592 7.875 4.78859 7.875 4.86437C7.875 5.16749 7.99353 5.4582 8.20451 5.67253C8.41549 5.88687 8.70164 6.00728 9 6.00728V6.29301C9 6.36879 9.02964 6.44147 9.08238 6.49505C9.13513 6.54864 9.20666 6.57874 9.28125 6.57874C9.35585 6.57874 9.42738 6.54864 9.48013 6.49505C9.53287 6.44147 9.5625 6.36879 9.5625 6.29301V6.00728C9.86087 6.00728 10.147 5.88687 10.358 5.67253C10.569 5.4582 10.6875 5.16749 10.6875 4.86437C10.6875 4.56125 10.569 4.27055 10.358 4.05621C10.147 3.84187 9.86087 3.72146 9.5625 3.72146H9C8.85082 3.72146 8.70775 3.66125 8.60226 3.55409C8.49677 3.44692 8.4375 3.30156 8.4375 3.15001C8.4375 2.99845 8.49677 2.85309 8.60226 2.74593C8.70775 2.63876 8.85082 2.57855 9 2.57855H9.5625C9.71169 2.57855 9.85476 2.63876 9.96025 2.74593C10.0657 2.85309 10.125 2.99845 10.125 3.15001C10.125 3.22579 10.1546 3.29846 10.2074 3.35205C10.2601 3.40563 10.3317 3.43573 10.4063 3.43573C10.4808 3.43573 10.5524 3.40563 10.6051 3.35205C10.6579 3.29846 10.6875 3.22579 10.6875 3.15001C10.6875 2.84689 10.569 2.55618 10.358 2.34184C10.147 2.12751 9.86087 2.00709 9.5625 2.00709V1.72137C9.5625 1.64559 9.53287 1.57291 9.48013 1.51933C9.42738 1.46574 9.35585 1.43564 9.28125 1.43564C9.20666 1.43564 9.13513 1.46574 9.08238 1.51933C9.02964 1.57291 9 1.64559 9 1.72137V2.00709C8.70164 2.00709 8.41549 2.12751 8.20451 2.34184C7.99353 2.55618 7.875 2.84689 7.875 3.15001C7.875 3.45312 7.99353 3.74383 8.20451 3.95817C8.41549 4.1725 8.70164 4.29292 9 4.29292H9.5625C9.71169 4.29292 9.85476 4.35312 9.96025 4.46029C10.0657 4.56746 10.125 4.71281 10.125 4.86437C10.125 5.01593 10.0657 5.16128 9.96025 5.26845C9.85476 5.37562 9.71169 5.43583 9.5625 5.43583ZM9.28125 7.72165C10.0044 7.72165 10.7113 7.5038 11.3126 7.09565C11.9138 6.6875 12.3825 6.10738 12.6592 5.42865C12.9359 4.74992 13.0083 4.00307 12.8673 3.28253C12.7262 2.562 12.378 1.90014 11.8666 1.38067C11.3553 0.86119 10.7038 0.507422 9.99455 0.364099C9.28531 0.220775 8.55016 0.294334 7.88207 0.575473C7.21398 0.856612 6.64295 1.3327 6.24119 1.94354C5.83944 2.55438 5.625 3.27254 5.625 4.00719C5.62619 4.99195 6.01179 5.93604 6.69721 6.63237C7.38263 7.32871 8.31192 7.72044 9.28125 7.72165ZM9.28125 0.864182C9.89314 0.864182 10.4913 1.04852 11.0001 1.39387C11.5088 1.73923 11.9053 2.2301 12.1395 2.80441C12.3737 3.37872 12.4349 4.01068 12.3156 4.62036C12.1962 5.23004 11.9015 5.79007 11.4689 6.22963C11.0362 6.66919 10.4849 6.96853 9.88482 7.0898C9.28469 7.21108 8.66264 7.14884 8.09733 6.91095C7.53202 6.67306 7.04884 6.27022 6.70889 5.75335C6.36895 5.23649 6.1875 4.62882 6.1875 4.00719C6.1884 3.17389 6.51463 2.37498 7.09463 1.78575C7.67463 1.19652 8.46101 0.86509 9.28125 0.864182ZM17.7188 8.75027H15.4688C15.2784 8.75068 15.0938 8.81645 14.945 8.9369C14.7961 9.05734 14.6916 9.22538 14.6486 9.41373L11.4857 8.4274C11.078 8.30108 10.641 8.31191 10.2398 8.45826L9.76894 8.62969L7.56225 8.13767C7.09614 8.03353 6.61053 8.06563 6.16163 8.23025L3.30919 9.27487C3.24474 9.11935 3.13655 8.9866 2.99816 8.89328C2.85977 8.79996 2.69735 8.75022 2.53125 8.75027H0.28125C0.206658 8.75027 0.135121 8.78038 0.0823763 8.83396C0.0296316 8.88754 0 8.96022 0 9.036L0 14.7506C0 14.8263 0.0296316 14.899 0.0823763 14.9526C0.135121 15.0062 0.206658 15.0363 0.28125 15.0363H2.53125C2.67011 15.0361 2.80678 15.0011 2.92914 14.9345C3.0515 14.8678 3.15576 14.7714 3.23269 14.654C4.27308 15.9941 5.59486 17.0814 7.10157 17.8364L8.31544 18.4433C8.49988 18.5364 8.70519 18.5785 8.91073 18.5653C9.11627 18.5522 9.31476 18.4843 9.48624 18.3684C9.65772 18.2525 9.79612 18.0928 9.88752 17.9053C9.97892 17.7178 10.0201 17.5092 10.0069 17.3004C10.0831 17.3204 10.1611 17.3321 10.2398 17.3353C10.3169 17.3351 10.3937 17.3271 10.4693 17.3113C10.7155 17.2604 10.9377 17.1266 11.0998 16.9316C11.2619 16.7365 11.3545 16.4915 11.3625 16.2363C11.5224 16.3277 11.7022 16.3774 11.8856 16.3809C11.9625 16.3808 12.0393 16.3728 12.1146 16.3569C12.3768 16.3028 12.6112 16.155 12.7752 15.9402C12.9392 15.7255 13.0219 15.458 13.0084 15.1866C13.2261 15.2417 13.4555 15.2244 13.6629 15.1374C13.8703 15.0504 14.0449 14.8982 14.1609 14.7031C14.2454 14.5735 14.3029 14.4276 14.3297 14.2745H14.6346C14.6576 14.4833 14.7553 14.6762 14.909 14.8166C15.0628 14.957 15.262 15.0352 15.4688 15.0363H17.7188C17.7934 15.0363 17.8649 15.0062 17.9176 14.9526C17.9704 14.899 18 14.8263 18 14.7506V9.036C18 8.96022 17.9704 8.88754 17.9176 8.83396C17.8649 8.78038 17.7934 8.75027 17.7188 8.75027ZM2.8125 14.1791C2.8125 14.2549 2.78287 14.3276 2.73013 14.3811C2.67738 14.4347 2.60584 14.4648 2.53125 14.4648H0.5625V9.32173H2.53125C2.60584 9.32173 2.67738 9.35183 2.73013 9.40542C2.78287 9.459 2.8125 9.53168 2.8125 9.60746V14.1791ZM13.6918 14.3911C13.6512 14.4538 13.5989 14.5078 13.5378 14.5499C13.4766 14.5921 13.4079 14.6216 13.3356 14.6368C13.2633 14.6519 13.1887 14.6525 13.1161 14.6384C13.0436 14.6243 12.9745 14.5958 12.9128 14.5546L10.3011 12.8076L10.1807 12.9933C10.1623 13.0059 10.1465 13.0221 10.1342 13.041C10.1219 13.0598 10.1135 13.0809 10.1093 13.1031L9.99169 13.2848L10.2071 13.4288C10.2099 13.4288 10.2116 13.4339 10.2144 13.4362L12.1973 14.7631C12.3191 14.8477 12.4034 14.9775 12.432 15.1246C12.4605 15.2716 12.431 15.4242 12.3498 15.5494C12.2687 15.6746 12.1423 15.7624 11.998 15.7938C11.8537 15.8253 11.7031 15.7978 11.5785 15.7175L10.8686 15.2426L10.8608 15.2363L9.135 14.082H9.1305L8.96682 13.9722C8.90453 13.932 8.8292 13.9183 8.75706 13.934C8.68491 13.9498 8.62174 13.9937 8.58115 14.0563C8.54056 14.1189 8.52581 14.1951 8.54009 14.2687C8.55436 14.3422 8.59651 14.4071 8.65744 14.4494L10.5548 15.7186C10.6461 15.7815 10.7172 15.8703 10.7592 15.974C10.8012 16.0776 10.8123 16.1915 10.7911 16.3015C10.7699 16.4115 10.7173 16.5127 10.6398 16.5926C10.5624 16.6725 10.4636 16.7274 10.3556 16.7507C10.2096 16.781 10.0576 16.7512 9.93319 16.6678L8.02857 15.3934C7.99774 15.3721 7.96303 15.3571 7.92646 15.3495C7.8899 15.3419 7.85221 15.3418 7.81558 15.3491C7.77896 15.3564 7.74414 15.3711 7.71316 15.3922C7.68217 15.4134 7.65564 15.4406 7.63511 15.4723C7.61458 15.5039 7.60045 15.5394 7.59356 15.5767C7.58668 15.614 7.58716 15.6523 7.59499 15.6893C7.60281 15.7264 7.61783 15.7615 7.63915 15.7927C7.66047 15.8238 7.68768 15.8503 7.71919 15.8706L7.81819 15.9369C7.821 15.9369 7.82269 15.9426 7.82607 15.9449L9.17607 16.8472C9.31403 16.9313 9.41409 17.0669 9.45483 17.225C9.49556 17.3832 9.47373 17.5512 9.39401 17.6931C9.31429 17.8351 9.18301 17.9397 9.02831 17.9845C8.8736 18.0294 8.70776 18.0109 8.56632 17.933L7.34963 17.3221C5.76723 16.5289 4.40199 15.3511 3.375 13.8934V9.85775L6.35175 8.76856C6.70105 8.64092 7.07869 8.61597 7.44132 8.69656L8.77613 8.99428L7.81088 9.34801C7.51438 9.45115 7.27034 9.66973 7.13247 9.95565C6.9946 10.2416 6.97417 10.5714 7.07569 10.8727C7.17721 11.1739 7.39236 11.4218 7.6738 11.5619C7.95525 11.7019 8.27994 11.7227 8.57644 11.6196L9.91351 11.179L13.5315 13.5991C13.5985 13.644 13.6552 13.7029 13.6979 13.7719C13.7405 13.8409 13.7682 13.9183 13.779 13.9991C13.7795 14.0131 13.7808 14.027 13.7829 14.0408C13.7909 14.1644 13.7589 14.2877 13.6918 14.3911ZM14.625 13.7048H14.2875C14.2072 13.4654 14.0504 13.2602 13.842 13.1219L10.1115 10.6258C10.0763 10.6023 10.0363 10.587 9.99456 10.5813C9.95279 10.5756 9.91029 10.5794 9.87019 10.5926L8.40432 11.0761C8.29051 11.1137 8.1684 11.117 8.05279 11.0856C7.93718 11.0541 7.83302 10.9893 7.75294 10.8989C7.68478 10.8224 7.63623 10.7299 7.6116 10.6297C7.58696 10.5296 7.58698 10.4248 7.61167 10.3246C7.63636 10.2245 7.68495 10.1321 7.75314 10.0555C7.82134 9.97896 7.90705 9.92066 8.00269 9.88576L10.4321 8.99543C10.7187 8.89082 11.0308 8.8832 11.322 8.97371L14.625 10.0046V13.7048ZM17.4375 14.4648H15.4688C15.3942 14.4648 15.3226 14.4347 15.2699 14.3811C15.2171 14.3276 15.1875 14.2549 15.1875 14.1791V9.60746C15.1875 9.53168 15.2171 9.459 15.2699 9.40542C15.3226 9.35183 15.3942 9.32173 15.4688 9.32173H17.4375V14.4648Z" fill="#009ED4"/>
</svg>
 