<svg width="138" height="138" viewBox="0 0 138 138" fill="none" xmlns="http://www.w3.org/2000/svg">
<circle cx="69" cy="69" r="60" fill="#F7931A"/>
<g clip-path="url(#clip0_1680_10327)">
<path d="M110.125 66.9175C107.458 62.2925 92.7913 39.0842 67.8746 39.8342C44.833 40.4175 31.4996 60.6675 27.8746 66.9175C27.5089 67.5509 27.3164 68.2694 27.3164 69.0008C27.3164 69.7323 27.5089 70.4508 27.8746 71.0842C30.4996 75.6258 44.5413 98.1675 69.083 98.1675H70.1246C93.1663 97.5842 106.541 77.3342 110.125 71.0842C110.49 70.4508 110.683 69.7323 110.683 69.0008C110.683 68.2694 110.49 67.5509 110.125 66.9175ZM69.9163 89.8342C51.958 90.2508 40.2496 74.8758 36.583 69.0008C40.7496 62.2925 51.6246 48.5842 68.2913 48.1675C86.1663 47.7092 97.9163 63.1258 101.625 69.0008C97.333 75.7092 86.583 89.4175 69.9163 89.8342Z" fill="#FDFDFD"/>
<path d="M69.0013 54.418C66.117 54.418 63.2975 55.2733 60.8992 56.8757C58.501 58.4781 56.6318 60.7557 55.5281 63.4205C54.4243 66.0853 54.1355 69.0175 54.6982 71.8464C55.2609 74.6753 56.6498 77.2738 58.6893 79.3133C60.7289 81.3528 63.3274 82.7417 66.1562 83.3044C68.9851 83.8671 71.9174 83.5783 74.5821 82.4745C77.2469 81.3708 79.5245 79.5016 81.1269 77.1034C82.7293 74.7052 83.5846 71.8856 83.5846 69.0013C83.5846 65.1336 82.0482 61.4242 79.3133 58.6893C76.5784 55.9544 72.869 54.418 69.0013 54.418ZM69.0013 75.2513C67.7652 75.2513 66.5568 74.8847 65.529 74.198C64.5012 73.5112 63.7001 72.5351 63.2271 71.3931C62.754 70.251 62.6302 68.9944 62.8714 67.782C63.1126 66.5696 63.7078 65.456 64.5819 64.5819C65.456 63.7078 66.5696 63.1126 67.782 62.8714C68.9944 62.6302 70.251 62.754 71.3931 63.2271C72.5351 63.7001 73.5112 64.5012 74.198 65.529C74.8848 66.5568 75.2513 67.7652 75.2513 69.0013C75.2513 70.6589 74.5928 72.2486 73.4207 73.4207C72.2486 74.5928 70.6589 75.2513 69.0013 75.2513Z" fill="#FDFDFD"/>
</g>
<defs>
<clipPath id="clip0_1680_10327">
<rect width="100" height="100" fill="white" transform="translate(19 19)"/>
</clipPath>
</defs>
</svg>
