<svg xmlns="http://www.w3.org/2000/svg" width="16" height="16" viewBox="0 0 16 16" fill="none">
  <path d="M10.4787 2.60467C9.90927 1.9792 9.11399 1.63477 8.23619 1.63477C7.3537 1.63477 6.55578 1.97712 5.98902 2.59871C5.4161 3.22715 5.13696 4.08125 5.20251 5.00352C5.33242 6.82305 6.6933 8.3032 8.23619 8.3032C9.77907 8.3032 11.1376 6.82334 11.2696 5.00411C11.336 4.09018 11.0551 3.23787 10.4787 2.60467Z" fill="white"/>
  <path d="M13.3859 14.9709H3.08639C2.95158 14.9727 2.81807 14.9439 2.69558 14.8866C2.57309 14.8293 2.4647 14.7449 2.3783 14.6396C2.18811 14.4083 2.11145 14.0924 2.16821 13.773C2.41517 12.3792 3.18587 11.2083 4.39724 10.3864C5.47342 9.65672 6.83665 9.25513 8.23615 9.25513C9.63566 9.25513 10.9989 9.65702 12.0751 10.3864C13.2864 11.208 14.0571 12.3789 14.3041 13.7727C14.3609 14.0921 14.2842 14.408 14.094 14.6393C14.0076 14.7446 13.8993 14.8291 13.7768 14.8864C13.6543 14.9438 13.5207 14.9727 13.3859 14.9709Z" fill="white"/>
</svg>