<svg width="16" height="17" viewBox="0 0 16 17" fill="none" xmlns="http://www.w3.org/2000/svg">
<path d="M10.2453 2.52832C9.67523 1.87841 8.87894 1.52051 8.00003 1.52051C7.11644 1.52051 6.31751 1.87624 5.75003 2.52214C5.1764 3.17515 4.8969 4.06263 4.96253 5.02095C5.09261 6.91161 6.4552 8.44963 8.00003 8.44963C9.54485 8.44963 10.9051 6.91192 11.0372 5.02157C11.1037 4.07191 10.8225 3.18628 10.2453 2.52832Z" fill="#009ED4"/>
<path d="M13.1564 15.3781H2.84392C2.70894 15.3799 2.57526 15.35 2.45262 15.2904C2.32997 15.2309 2.22145 15.1432 2.13493 15.0338C1.9445 14.7934 1.86775 14.4652 1.92458 14.1333C2.17185 12.685 2.94353 11.4684 4.15642 10.6143C5.23396 9.85614 6.5989 9.43884 8.00017 9.43884C9.40144 9.43884 10.7664 9.85645 11.8439 10.6143C13.0568 11.4681 13.8285 12.6847 14.0758 14.133C14.1326 14.4649 14.0558 14.7931 13.8654 15.0335C13.7789 15.143 13.6704 15.2307 13.5478 15.2903C13.4251 15.3499 13.2914 15.3799 13.1564 15.3781Z" fill="#009ED4"/>
</svg>
