<svg width="17" height="20" viewBox="0 0 17 20" fill="none" xmlns="http://www.w3.org/2000/svg">
<path fill-rule="evenodd" clip-rule="evenodd" d="M8.56053 9.20622C8.56053 8.87331 8.42757 8.5542 8.19109 8.31916C7.95461 8.0837 7.63375 7.95154 7.29914 7.95154H2.2526C1.918 7.95154 1.59713 8.0837 1.36065 8.31916C1.12368 8.5542 0.991211 8.87331 0.991211 9.20622C0.991211 11.1648 0.991211 16.0304 0.991211 17.989C0.991211 18.3219 1.12368 18.641 1.36065 18.876C1.59713 19.1115 1.918 19.2437 2.2526 19.2437H8.14007C8.37213 19.2437 8.56053 19.0563 8.56053 18.8254V9.20622ZM7.7196 9.20622V18.4072H2.2526C2.14123 18.4072 2.03427 18.3633 1.95528 18.2847C1.87629 18.2065 1.83214 18.0998 1.83214 17.989V9.20622C1.83214 9.09539 1.87629 8.98874 1.95528 8.91053C2.03427 8.8319 2.14123 8.78799 2.2526 8.78799H7.29914C7.41051 8.78799 7.51747 8.8319 7.59646 8.91053C7.67545 8.98874 7.7196 9.09539 7.7196 9.20622Z" fill="#009ED4"/>
<path fill-rule="evenodd" clip-rule="evenodd" d="M14.8684 7.5333V2.09635C14.8684 1.76345 14.7353 1.44434 14.4991 1.2093C14.2622 0.973833 13.9412 0.841675 13.6068 0.841675C11.9955 0.841675 8.48964 0.841675 6.8783 0.841675C6.54397 0.841675 6.22297 0.973833 5.98607 1.2093C5.74987 1.44434 5.6167 1.76345 5.6167 2.09635C5.6167 3.62121 5.6167 6.69685 5.6167 6.69685C5.6167 6.92771 5.80524 7.11507 6.03723 7.11507C6.26923 7.11507 6.45776 6.92771 6.45776 6.69685C6.45776 6.69685 6.45776 3.62121 6.45776 2.09635C6.45776 1.98552 6.50192 1.87888 6.58112 1.80067C6.65962 1.72204 6.76685 1.67813 6.8783 1.67813H13.6068C13.7183 1.67813 13.8255 1.72204 13.904 1.80067C13.9832 1.87888 14.0274 1.98552 14.0274 2.09635V7.5333C14.0274 7.76416 14.2159 7.95153 14.4479 7.95153C14.6799 7.95153 14.8684 7.76416 14.8684 7.5333Z" fill="#009ED4"/>
<path fill-rule="evenodd" clip-rule="evenodd" d="M7.29861 19.2436H15.7093C16.044 19.2436 16.3649 19.1115 16.6012 18.876C16.838 18.641 16.9709 18.3219 16.9709 17.9889C16.9709 16.168 16.9709 11.8636 16.9709 10.0426C16.9709 9.70974 16.838 9.39063 16.6012 9.15558C16.3649 8.92012 16.044 8.78796 15.7093 8.78796H13.7555C13.2395 8.78796 12.7756 9.10038 12.5843 9.57674L11.3248 12.7072C11.2613 12.8661 11.1065 12.9702 10.9345 12.9702H8.13968C7.90754 12.9702 7.90754 13.8067 8.13968 13.8067C8.13968 13.8067 9.97488 13.8067 10.9345 13.8067C11.4505 13.8067 11.9144 13.4943 12.1057 13.0179L13.3652 9.88748C13.4287 9.72855 13.5835 9.62442 13.7555 9.62442H15.7093C15.8207 9.62442 15.9279 9.66833 16.0066 9.74696C16.0856 9.82517 16.1298 9.93181 16.1298 10.0426V17.9889C16.1298 18.0998 16.0856 18.2064 16.0066 18.2846C15.9279 18.3633 15.8207 18.4072 15.7093 18.4072H7.29861C7.06648 18.4072 7.06648 19.2436 7.29861 19.2436Z" fill="#009ED4"/>
<path fill-rule="evenodd" clip-rule="evenodd" d="M6.45822 15.0614C6.45822 14.7285 6.32531 14.4094 6.08857 14.1744C5.85183 13.9389 5.53096 13.8068 5.19666 13.8068H4.35531C4.02102 13.8068 3.70014 13.9389 3.4634 14.1744C3.22667 14.4094 3.09375 14.7285 3.09375 15.0614C3.09375 16.3881 3.09375 18.8255 3.09375 18.8255C3.09375 19.0563 3.28216 19.2437 3.51442 19.2437H6.03755C6.26981 19.2437 6.45822 19.0563 6.45822 18.8255V15.0614ZM5.61688 15.0614V18.4073H3.93509V15.0614C3.93509 14.9506 3.9794 14.844 4.05816 14.7658C4.13692 14.6871 4.24388 14.6432 4.35531 14.6432H5.19666C5.30809 14.6432 5.41505 14.6871 5.49381 14.7658C5.57257 14.844 5.61688 14.9506 5.61688 15.0614Z" fill="#009ED4"/>
<path fill-rule="evenodd" clip-rule="evenodd" d="M5.19604 9.74974C5.19604 9.71628 5.18259 9.68449 5.15904 9.66107C5.13549 9.63765 5.10353 9.62427 5.06988 9.62427C4.91092 9.62427 4.6401 9.62427 4.48114 9.62427C4.4475 9.62427 4.41554 9.63765 4.39199 9.66107C4.36844 9.68449 4.35498 9.71628 4.35498 9.74974C4.35498 9.90783 4.35498 10.1772 4.35498 10.3353C4.35498 10.3687 4.36844 10.4005 4.39199 10.4239C4.41554 10.4473 4.4475 10.4607 4.48114 10.4607C4.6401 10.4607 4.91092 10.4607 5.06988 10.4607C5.10353 10.4607 5.13549 10.4473 5.15904 10.4239C5.18259 10.4005 5.19604 10.3687 5.19604 10.3353V9.74974Z" fill="#009ED4"/>
<path fill-rule="evenodd" clip-rule="evenodd" d="M10.6628 2.64C10.6628 2.60654 10.6494 2.57475 10.6258 2.55133C10.6023 2.52791 10.5703 2.51453 10.5367 2.51453C10.3777 2.51453 10.1069 2.51453 9.94794 2.51453C9.9143 2.51453 9.88233 2.52791 9.85878 2.55133C9.83523 2.57475 9.82178 2.60654 9.82178 2.64C9.82178 2.79809 9.82178 3.06742 9.82178 3.22551C9.82178 3.25897 9.83523 3.29076 9.85878 3.31418C9.88233 3.3376 9.9143 3.35098 9.94794 3.35098C10.1069 3.35098 10.3777 3.35098 10.5367 3.35098C10.5703 3.35098 10.6023 3.3376 10.6258 3.31418C10.6494 3.29076 10.6628 3.25897 10.6628 3.22551V2.64Z" fill="#009ED4"/>
<path fill-rule="evenodd" clip-rule="evenodd" d="M10.6628 4.31297C10.6628 4.27951 10.6494 4.24772 10.6258 4.2243C10.6023 4.20088 10.5703 4.1875 10.5367 4.1875C10.3777 4.1875 10.1069 4.1875 9.94794 4.1875C9.9143 4.1875 9.88233 4.20088 9.85878 4.2243C9.83523 4.24772 9.82178 4.27951 9.82178 4.31297C9.82178 4.47106 9.82178 4.74039 9.82178 4.89848C9.82178 4.93194 9.83523 4.96373 9.85878 4.98715C9.88233 5.01057 9.9143 5.02395 9.94794 5.02395C10.1069 5.02395 10.3777 5.02395 10.5367 5.02395C10.5703 5.02395 10.6023 5.01057 10.6258 4.98715C10.6494 4.96373 10.6628 4.93194 10.6628 4.89848V4.31297Z" fill="#009ED4"/>
<path fill-rule="evenodd" clip-rule="evenodd" d="M10.6628 5.98582C10.6628 5.95236 10.6494 5.92058 10.6258 5.89715C10.6023 5.87373 10.5703 5.86035 10.5367 5.86035C10.3777 5.86035 10.1069 5.86035 9.94794 5.86035C9.9143 5.86035 9.88233 5.87373 9.85878 5.89715C9.83523 5.92058 9.82178 5.95236 9.82178 5.98582C9.82178 6.14391 9.82178 6.41325 9.82178 6.57134C9.82178 6.60479 9.83523 6.63658 9.85878 6.66C9.88233 6.68342 9.9143 6.6968 9.94794 6.6968C10.1069 6.6968 10.3777 6.6968 10.5367 6.6968C10.5703 6.6968 10.6023 6.68342 10.6258 6.66C10.6494 6.63658 10.6628 6.60479 10.6628 6.57134V5.98582Z" fill="#009ED4"/>
<path fill-rule="evenodd" clip-rule="evenodd" d="M3.51392 9.74974C3.51392 9.71628 3.50046 9.68449 3.47691 9.66107C3.45336 9.63765 3.4214 9.62427 3.38775 9.62427C3.22879 9.62427 2.95797 9.62427 2.79901 9.62427C2.76537 9.62427 2.73341 9.63765 2.70986 9.66107C2.68631 9.68449 2.67285 9.71628 2.67285 9.74974C2.67285 9.90783 2.67285 10.1772 2.67285 10.3353C2.67285 10.3687 2.68631 10.4005 2.70986 10.4239C2.73341 10.4473 2.76537 10.4607 2.79901 10.4607C2.95797 10.4607 3.22879 10.4607 3.38775 10.4607C3.4214 10.4607 3.45336 10.4473 3.47691 10.4239C3.50046 10.4005 3.51392 10.3687 3.51392 10.3353V9.74974Z" fill="#009ED4"/>
<path fill-rule="evenodd" clip-rule="evenodd" d="M8.5603 2.64C8.5603 2.60654 8.54685 2.57475 8.5233 2.55133C8.49975 2.52791 8.46778 2.51453 8.43414 2.51453C8.27518 2.51453 8.00436 2.51453 7.8454 2.51453C7.81176 2.51453 7.77979 2.52791 7.75624 2.55133C7.73269 2.57475 7.71924 2.60654 7.71924 2.64C7.71924 2.79809 7.71924 3.06742 7.71924 3.22551C7.71924 3.25897 7.73269 3.29076 7.75624 3.31418C7.77979 3.3376 7.81176 3.35098 7.8454 3.35098C8.00436 3.35098 8.27518 3.35098 8.43414 3.35098C8.46778 3.35098 8.49975 3.3376 8.5233 3.31418C8.54685 3.29076 8.5603 3.25897 8.5603 3.22551V2.64Z" fill="#009ED4"/>
<path fill-rule="evenodd" clip-rule="evenodd" d="M8.5603 4.31297C8.5603 4.27951 8.54685 4.24772 8.5233 4.2243C8.49975 4.20088 8.46778 4.1875 8.43414 4.1875C8.27518 4.1875 8.00436 4.1875 7.8454 4.1875C7.81176 4.1875 7.77979 4.20088 7.75624 4.2243C7.73269 4.24772 7.71924 4.27951 7.71924 4.31297C7.71924 4.47106 7.71924 4.74039 7.71924 4.89848C7.71924 4.93194 7.73269 4.96373 7.75624 4.98715C7.77979 5.01057 7.81176 5.02395 7.8454 5.02395C8.00436 5.02395 8.27518 5.02395 8.43414 5.02395C8.46778 5.02395 8.49975 5.01057 8.5233 4.98715C8.54685 4.96373 8.5603 4.93194 8.5603 4.89848V4.31297Z" fill="#009ED4"/>
<path fill-rule="evenodd" clip-rule="evenodd" d="M8.5603 5.98582C8.5603 5.95236 8.54685 5.92058 8.5233 5.89715C8.49975 5.87373 8.46778 5.86035 8.43414 5.86035C8.27518 5.86035 8.00436 5.86035 7.8454 5.86035C7.81176 5.86035 7.77979 5.87373 7.75624 5.89715C7.73269 5.92058 7.71924 5.95236 7.71924 5.98582C7.71924 6.14391 7.71924 6.41325 7.71924 6.57134C7.71924 6.60479 7.73269 6.63658 7.75624 6.66C7.77979 6.68342 7.81176 6.6968 7.8454 6.6968C8.00436 6.6968 8.27518 6.6968 8.43414 6.6968C8.46778 6.6968 8.49975 6.68342 8.5233 6.66C8.54685 6.63658 8.5603 6.60479 8.5603 6.57134V5.98582Z" fill="#009ED4"/>
<path fill-rule="evenodd" clip-rule="evenodd" d="M5.19604 11.4228C5.19604 11.3894 5.18259 11.3576 5.15904 11.3342C5.13549 11.3107 5.10353 11.2974 5.06988 11.2974C4.91092 11.2974 4.6401 11.2974 4.48114 11.2974C4.4475 11.2974 4.41554 11.3107 4.39199 11.3342C4.36844 11.3576 4.35498 11.3894 4.35498 11.4228C4.35498 11.5809 4.35498 11.8503 4.35498 12.0083C4.35498 12.0418 4.36844 12.0736 4.39199 12.097C4.41554 12.1204 4.4475 12.1338 4.48114 12.1338C4.6401 12.1338 4.91092 12.1338 5.06988 12.1338C5.10353 12.1338 5.13549 12.1204 5.15904 12.097C5.18259 12.0736 5.19604 12.0418 5.19604 12.0083V11.4228Z" fill="#009ED4"/>
<path fill-rule="evenodd" clip-rule="evenodd" d="M3.51392 11.4228C3.51392 11.3894 3.50046 11.3576 3.47691 11.3342C3.45336 11.3107 3.4214 11.2974 3.38775 11.2974C3.22879 11.2974 2.95797 11.2974 2.79901 11.2974C2.76537 11.2974 2.73341 11.3107 2.70986 11.3342C2.68631 11.3576 2.67285 11.3894 2.67285 11.4228C2.67285 11.5809 2.67285 11.8503 2.67285 12.0083C2.67285 12.0418 2.68631 12.0736 2.70986 12.097C2.73341 12.1204 2.76537 12.1338 2.79901 12.1338C2.95797 12.1338 3.22879 12.1338 3.38775 12.1338C3.4214 12.1338 3.45336 12.1204 3.47691 12.097C3.50046 12.0736 3.51392 12.0418 3.51392 12.0083V11.4228Z" fill="#009ED4"/>
<path fill-rule="evenodd" clip-rule="evenodd" d="M6.87817 9.74974C6.87817 9.71628 6.86472 9.68449 6.84117 9.66107C6.81762 9.63765 6.78566 9.62427 6.75201 9.62427C6.59305 9.62427 6.32223 9.62427 6.16327 9.62427C6.12963 9.62427 6.09766 9.63765 6.07412 9.66107C6.05057 9.68449 6.03711 9.71628 6.03711 9.74974C6.03711 9.90783 6.03711 10.1772 6.03711 10.3353C6.03711 10.3687 6.05057 10.4005 6.07412 10.4239C6.09766 10.4473 6.12963 10.4607 6.16327 10.4607C6.32223 10.4607 6.59305 10.4607 6.75201 10.4607C6.78566 10.4607 6.81762 10.4473 6.84117 10.4239C6.86472 10.4005 6.87817 10.3687 6.87817 10.3353V9.74974Z" fill="#009ED4"/>
<path fill-rule="evenodd" clip-rule="evenodd" d="M12.7659 2.64C12.7659 2.60654 12.7524 2.57475 12.7289 2.55133C12.7053 2.52791 12.6734 2.51453 12.6397 2.51453C12.4807 2.51453 12.2099 2.51453 12.051 2.51453C12.0173 2.51453 11.9854 2.52791 11.9618 2.55133C11.9383 2.57475 11.9248 2.60654 11.9248 2.64C11.9248 2.79809 11.9248 3.06742 11.9248 3.22551C11.9248 3.25897 11.9383 3.29076 11.9618 3.31418C11.9854 3.3376 12.0173 3.35098 12.051 3.35098C12.2099 3.35098 12.4807 3.35098 12.6397 3.35098C12.6734 3.35098 12.7053 3.3376 12.7289 3.31418C12.7524 3.29076 12.7659 3.25897 12.7659 3.22551V2.64Z" fill="#009ED4"/>
<path fill-rule="evenodd" clip-rule="evenodd" d="M12.7659 4.31297C12.7659 4.27951 12.7524 4.24772 12.7289 4.2243C12.7053 4.20088 12.6734 4.1875 12.6397 4.1875C12.4807 4.1875 12.2099 4.1875 12.051 4.1875C12.0173 4.1875 11.9854 4.20088 11.9618 4.2243C11.9383 4.24772 11.9248 4.27951 11.9248 4.31297C11.9248 4.47106 11.9248 4.74039 11.9248 4.89848C11.9248 4.93194 11.9383 4.96373 11.9618 4.98715C11.9854 5.01057 12.0173 5.02395 12.051 5.02395C12.2099 5.02395 12.4807 5.02395 12.6397 5.02395C12.6734 5.02395 12.7053 5.01057 12.7289 4.98715C12.7524 4.96373 12.7659 4.93194 12.7659 4.89848V4.31297Z" fill="#009ED4"/>
<path fill-rule="evenodd" clip-rule="evenodd" d="M12.7659 5.98582C12.7659 5.95236 12.7524 5.92058 12.7289 5.89715C12.7053 5.87373 12.6734 5.86035 12.6397 5.86035C12.4807 5.86035 12.2099 5.86035 12.051 5.86035C12.0173 5.86035 11.9854 5.87373 11.9618 5.89715C11.9383 5.92058 11.9248 5.95236 11.9248 5.98582C11.9248 6.14391 11.9248 6.41325 11.9248 6.57134C11.9248 6.60479 11.9383 6.63658 11.9618 6.66C11.9854 6.68342 12.0173 6.6968 12.051 6.6968C12.2099 6.6968 12.4807 6.6968 12.6397 6.6968C12.6734 6.6968 12.7053 6.68342 12.7289 6.66C12.7524 6.63658 12.7659 6.60479 12.7659 6.57134V5.98582Z" fill="#009ED4"/>
<path fill-rule="evenodd" clip-rule="evenodd" d="M15.2888 11.4228C15.2888 11.3894 15.2754 11.3576 15.2518 11.3342C15.2283 11.3107 15.1963 11.2974 15.1627 11.2974C15.0037 11.2974 14.7329 11.2974 14.5739 11.2974C14.5403 11.2974 14.5083 11.3107 14.4848 11.3342C14.4612 11.3576 14.4478 11.3894 14.4478 11.4228C14.4478 11.5809 14.4478 11.8503 14.4478 12.0083C14.4478 12.0418 14.4612 12.0736 14.4848 12.097C14.5083 12.1204 14.5403 12.1338 14.5739 12.1338C14.7329 12.1338 15.0037 12.1338 15.1627 12.1338C15.1963 12.1338 15.2283 12.1204 15.2518 12.097C15.2754 12.0736 15.2888 12.0418 15.2888 12.0083V11.4228Z" fill="#009ED4"/>
<path fill-rule="evenodd" clip-rule="evenodd" d="M6.87817 11.4228C6.87817 11.3894 6.86472 11.3576 6.84117 11.3342C6.81762 11.3107 6.78566 11.2974 6.75201 11.2974C6.59305 11.2974 6.32223 11.2974 6.16327 11.2974C6.12963 11.2974 6.09766 11.3107 6.07412 11.3342C6.05057 11.3576 6.03711 11.3894 6.03711 11.4228C6.03711 11.5809 6.03711 11.8503 6.03711 12.0083C6.03711 12.0418 6.05057 12.0736 6.07412 12.097C6.09766 12.1204 6.12963 12.1338 6.16327 12.1338C6.32223 12.1338 6.59305 12.1338 6.75201 12.1338C6.78566 12.1338 6.81762 12.1204 6.84117 12.097C6.86472 12.0736 6.87817 12.0418 6.87817 12.0083V11.4228Z" fill="#009ED4"/>
<path fill-rule="evenodd" clip-rule="evenodd" d="M15.2888 13.0957C15.2888 13.0622 15.2754 13.0304 15.2518 13.007C15.2283 12.9836 15.1963 12.9702 15.1627 12.9702C15.0037 12.9702 14.7329 12.9702 14.5739 12.9702C14.5403 12.9702 14.5083 12.9836 14.4848 13.007C14.4612 13.0304 14.4478 13.0622 14.4478 13.0957C14.4478 13.2538 14.4478 13.5231 14.4478 13.6812C14.4478 13.7147 14.4612 13.7464 14.4848 13.7699C14.5083 13.7933 14.5403 13.8067 14.5739 13.8067C14.7329 13.8067 15.0037 13.8067 15.1627 13.8067C15.1963 13.8067 15.2283 13.7933 15.2518 13.7699C15.2754 13.7464 15.2888 13.7147 15.2888 13.6812V13.0957Z" fill="#009ED4"/>
<path fill-rule="evenodd" clip-rule="evenodd" d="M13.6067 13.0957C13.6067 13.0622 13.5932 13.0304 13.5697 13.007C13.5461 12.9836 13.5142 12.9702 13.4805 12.9702C13.3216 12.9702 13.0507 12.9702 12.8918 12.9702C12.8581 12.9702 12.8262 12.9836 12.8026 13.007C12.7791 13.0304 12.7656 13.0622 12.7656 13.0957C12.7656 13.2538 12.7656 13.5231 12.7656 13.6812C12.7656 13.7147 12.7791 13.7464 12.8026 13.7699C12.8262 13.7933 12.8581 13.8067 12.8918 13.8067C13.0507 13.8067 13.3216 13.8067 13.4805 13.8067C13.5142 13.8067 13.5461 13.7933 13.5697 13.7699C13.5932 13.7464 13.6067 13.7147 13.6067 13.6812V13.0957Z" fill="#009ED4"/>
<path fill-rule="evenodd" clip-rule="evenodd" d="M15.2888 14.7685C15.2888 14.7351 15.2754 14.7033 15.2518 14.6799C15.2283 14.6564 15.1963 14.6431 15.1627 14.6431C15.0037 14.6431 14.7329 14.6431 14.5739 14.6431C14.5403 14.6431 14.5083 14.6564 14.4848 14.6799C14.4612 14.7033 14.4478 14.7351 14.4478 14.7685C14.4478 14.9266 14.4478 15.196 14.4478 15.3541C14.4478 15.3875 14.4612 15.4193 14.4848 15.4427C14.5083 15.4661 14.5403 15.4795 14.5739 15.4795C14.7329 15.4795 15.0037 15.4795 15.1627 15.4795C15.1963 15.4795 15.2283 15.4661 15.2518 15.4427C15.2754 15.4193 15.2888 15.3875 15.2888 15.3541V14.7685Z" fill="#009ED4"/>
<path fill-rule="evenodd" clip-rule="evenodd" d="M15.2888 16.4415C15.2888 16.4081 15.2754 16.3763 15.2518 16.3528C15.2283 16.3294 15.1963 16.316 15.1627 16.316C15.0037 16.316 14.7329 16.316 14.5739 16.316C14.5403 16.316 14.5083 16.3294 14.4848 16.3528C14.4612 16.3763 14.4478 16.4081 14.4478 16.4415C14.4478 16.5996 14.4478 16.8689 14.4478 17.027C14.4478 17.0605 14.4612 17.0923 14.4848 17.1157C14.5083 17.1391 14.5403 17.1525 14.5739 17.1525C14.7329 17.1525 15.0037 17.1525 15.1627 17.1525C15.1963 17.1525 15.2283 17.1391 15.2518 17.1157C15.2754 17.0923 15.2888 17.0605 15.2888 17.027V16.4415Z" fill="#009ED4"/>
<path fill-rule="evenodd" clip-rule="evenodd" d="M13.6067 14.7685C13.6067 14.7351 13.5932 14.7033 13.5697 14.6799C13.5461 14.6564 13.5142 14.6431 13.4805 14.6431C13.3216 14.6431 13.0507 14.6431 12.8918 14.6431C12.8581 14.6431 12.8262 14.6564 12.8026 14.6799C12.7791 14.7033 12.7656 14.7351 12.7656 14.7685C12.7656 14.9266 12.7656 15.196 12.7656 15.3541C12.7656 15.3875 12.7791 15.4193 12.8026 15.4427C12.8262 15.4661 12.8581 15.4795 12.8918 15.4795C13.0507 15.4795 13.3216 15.4795 13.4805 15.4795C13.5142 15.4795 13.5461 15.4661 13.5697 15.4427C13.5932 15.4193 13.6067 15.3875 13.6067 15.3541V14.7685Z" fill="#009ED4"/>
<path fill-rule="evenodd" clip-rule="evenodd" d="M13.6067 16.4415C13.6067 16.4081 13.5932 16.3763 13.5697 16.3528C13.5461 16.3294 13.5142 16.316 13.4805 16.316C13.3216 16.316 13.0507 16.316 12.8918 16.316C12.8581 16.316 12.8262 16.3294 12.8026 16.3528C12.7791 16.3763 12.7656 16.4081 12.7656 16.4415C12.7656 16.5996 12.7656 16.8689 12.7656 17.027C12.7656 17.0605 12.7791 17.0923 12.8026 17.1157C12.8262 17.1391 12.8581 17.1525 12.8918 17.1525C13.0507 17.1525 13.3216 17.1525 13.4805 17.1525C13.5142 17.1525 13.5461 17.1391 13.5697 17.1157C13.5932 17.0923 13.6067 17.0605 13.6067 17.027V16.4415Z" fill="#009ED4"/>
<path fill-rule="evenodd" clip-rule="evenodd" d="M11.9246 14.7685C11.9246 14.7351 11.9111 14.7033 11.8876 14.6799C11.864 14.6564 11.832 14.6431 11.7984 14.6431C11.6394 14.6431 11.3686 14.6431 11.2097 14.6431C11.176 14.6431 11.1441 14.6564 11.1205 14.6799C11.097 14.7033 11.0835 14.7351 11.0835 14.7685C11.0835 14.9266 11.0835 15.196 11.0835 15.3541C11.0835 15.3875 11.097 15.4193 11.1205 15.4427C11.1441 15.4661 11.176 15.4795 11.2097 15.4795C11.3686 15.4795 11.6394 15.4795 11.7984 15.4795C11.832 15.4795 11.864 15.4661 11.8876 15.4427C11.9111 15.4193 11.9246 15.3875 11.9246 15.3541V14.7685Z" fill="#009ED4"/>
<path fill-rule="evenodd" clip-rule="evenodd" d="M11.9246 16.4415C11.9246 16.4081 11.9111 16.3763 11.8876 16.3528C11.864 16.3294 11.832 16.316 11.7984 16.316C11.6394 16.316 11.3686 16.316 11.2097 16.316C11.176 16.316 11.1441 16.3294 11.1205 16.3528C11.097 16.3763 11.0835 16.4081 11.0835 16.4415C11.0835 16.5996 11.0835 16.8689 11.0835 17.027C11.0835 17.0605 11.097 17.0923 11.1205 17.1157C11.1441 17.1391 11.176 17.1525 11.2097 17.1525C11.3686 17.1525 11.6394 17.1525 11.7984 17.1525C11.832 17.1525 11.864 17.1391 11.8876 17.1157C11.9111 17.0923 11.9246 17.0605 11.9246 17.027V16.4415Z" fill="#009ED4"/>
<path fill-rule="evenodd" clip-rule="evenodd" d="M10.2424 14.7685C10.2424 14.7351 10.229 14.7033 10.2054 14.6799C10.1819 14.6564 10.1499 14.6431 10.1163 14.6431C9.95731 14.6431 9.68649 14.6431 9.52753 14.6431C9.49389 14.6431 9.46192 14.6564 9.43837 14.6799C9.41482 14.7033 9.40137 14.7351 9.40137 14.7685C9.40137 14.9266 9.40137 15.196 9.40137 15.3541C9.40137 15.3875 9.41482 15.4193 9.43837 15.4427C9.46192 15.4661 9.49389 15.4795 9.52753 15.4795C9.68649 15.4795 9.95731 15.4795 10.1163 15.4795C10.1499 15.4795 10.1819 15.4661 10.2054 15.4427C10.229 15.4193 10.2424 15.3875 10.2424 15.3541V14.7685Z" fill="#009ED4"/>
<path fill-rule="evenodd" clip-rule="evenodd" d="M10.2424 16.4415C10.2424 16.4081 10.229 16.3763 10.2054 16.3528C10.1819 16.3294 10.1499 16.316 10.1163 16.316C9.95731 16.316 9.68649 16.316 9.52753 16.316C9.49389 16.316 9.46192 16.3294 9.43837 16.3528C9.41482 16.3763 9.40137 16.4081 9.40137 16.4415C9.40137 16.5996 9.40137 16.8689 9.40137 17.027C9.40137 17.0605 9.41482 17.0923 9.43837 17.1157C9.46192 17.1391 9.49389 17.1525 9.52753 17.1525C9.68649 17.1525 9.95731 17.1525 10.1163 17.1525C10.1499 17.1525 10.1819 17.1391 10.2054 17.1157C10.229 17.0923 10.2424 17.0605 10.2424 17.027V16.4415Z" fill="#009ED4"/>
</svg>
