<svg width="17" height="19" viewBox="0 0 17 19" fill="none" xmlns="http://www.w3.org/2000/svg">
<path fill-rule="evenodd" clip-rule="evenodd" d="M8.3242 8.66544C8.3242 8.33775 8.19124 8.02364 7.95476 7.79228C7.71828 7.56051 7.39742 7.43042 7.06281 7.43042H2.01627C1.68167 7.43042 1.3608 7.56051 1.12432 7.79228C0.88735 8.02364 0.754883 8.33775 0.754883 8.66544C0.754883 10.5933 0.754883 15.3827 0.754883 17.3105C0.754883 17.6382 0.88735 17.9523 1.12432 18.1837C1.3608 18.4155 1.68167 18.5456 2.01627 18.5456H7.90374C8.1358 18.5456 8.3242 18.3611 8.3242 18.1339V8.66544ZM7.48327 8.66544V17.7222H2.01627C1.9049 17.7222 1.79794 17.679 1.71895 17.6016C1.63996 17.5246 1.59581 17.4196 1.59581 17.3105V8.66544C1.59581 8.55634 1.63996 8.45137 1.71895 8.37438C1.79794 8.29699 1.9049 8.25376 2.01627 8.25376H7.06281C7.17418 8.25376 7.28114 8.29699 7.36013 8.37438C7.43912 8.45137 7.48327 8.55634 7.48327 8.66544Z" fill="white"/>
<path fill-rule="evenodd" clip-rule="evenodd" d="M14.6321 7.01888V1.66715C14.6321 1.33945 14.4989 1.02535 14.2627 0.793988C14.0258 0.562216 13.7048 0.432129 13.3705 0.432129C11.7592 0.432129 8.25331 0.432129 6.64197 0.432129C6.30764 0.432129 5.98664 0.562216 5.74974 0.793988C5.51354 1.02535 5.38037 1.33945 5.38037 1.66715C5.38037 3.1681 5.38037 6.19554 5.38037 6.19554C5.38037 6.42278 5.56891 6.60721 5.8009 6.60721C6.0329 6.60721 6.22143 6.42278 6.22143 6.19554C6.22143 6.19554 6.22143 3.1681 6.22143 1.66715C6.22143 1.55805 6.26559 1.45308 6.34479 1.37609C6.42329 1.2987 6.53053 1.25547 6.64197 1.25547H13.3705C13.4819 1.25547 13.5892 1.2987 13.6677 1.37609C13.7469 1.45308 13.791 1.55805 13.791 1.66715V7.01888C13.791 7.24613 13.9796 7.43055 14.2116 7.43055C14.4436 7.43055 14.6321 7.24613 14.6321 7.01888Z" fill="white"/>
<path fill-rule="evenodd" clip-rule="evenodd" d="M7.06228 18.5457H15.4729C15.8077 18.5457 16.1285 18.4156 16.3649 18.1838C16.6016 17.9525 16.7345 17.6384 16.7345 17.3107C16.7345 15.5183 16.7345 11.2813 16.7345 9.48892C16.7345 9.16123 16.6016 8.84712 16.3649 8.61577C16.1285 8.38399 15.8077 8.25391 15.4729 8.25391H13.5191C13.0031 8.25391 12.5393 8.56143 12.3479 9.03032L11.0885 12.1117C11.025 12.2681 10.8702 12.3706 10.6982 12.3706H7.90335C7.67121 12.3706 7.67121 13.194 7.90335 13.194C7.90335 13.194 9.73855 13.194 10.6982 13.194C11.2142 13.194 11.678 12.8865 11.8694 12.4176L13.1289 9.33619C13.1924 9.17976 13.3471 9.07725 13.5191 9.07725H15.4729C15.5844 9.07725 15.6916 9.12048 15.7702 9.19787C15.8493 9.27485 15.8935 9.37983 15.8935 9.48892V17.3107C15.8935 17.4198 15.8493 17.5248 15.7702 17.6017C15.6916 17.6791 15.5844 17.7224 15.4729 17.7224H7.06228C6.83015 17.7224 6.83015 18.5457 7.06228 18.5457Z" fill="white"/>
<path fill-rule="evenodd" clip-rule="evenodd" d="M6.22189 14.4291C6.22189 14.1014 6.08898 13.7873 5.85224 13.556C5.6155 13.3242 5.29463 13.1941 4.96033 13.1941H4.11899C3.78469 13.1941 3.46382 13.3242 3.22708 13.556C2.99034 13.7873 2.85742 14.1014 2.85742 14.4291C2.85742 15.7349 2.85742 18.1342 2.85742 18.1342C2.85742 18.3614 3.04583 18.5458 3.27809 18.5458H5.80122C6.03348 18.5458 6.22189 18.3614 6.22189 18.1342V14.4291ZM5.38055 14.4291V17.7225H3.69876V14.4291C3.69876 14.32 3.74307 14.215 3.82183 14.1381C3.90059 14.0607 4.00755 14.0174 4.11899 14.0174H4.96033C5.07176 14.0174 5.17872 14.0607 5.25748 14.1381C5.33624 14.215 5.38055 14.32 5.38055 14.4291Z" fill="white"/>
<path fill-rule="evenodd" clip-rule="evenodd" d="M4.95972 9.20065C4.95972 9.16772 4.94626 9.13643 4.92271 9.11337C4.89916 9.09032 4.8672 9.07715 4.83356 9.07715C4.67459 9.07715 4.40377 9.07715 4.24481 9.07715C4.21117 9.07715 4.17921 9.09032 4.15566 9.11337C4.13211 9.13643 4.11865 9.16772 4.11865 9.20065C4.11865 9.35626 4.11865 9.62138 4.11865 9.77699C4.11865 9.80992 4.13211 9.84121 4.15566 9.86427C4.17921 9.88732 4.21117 9.90049 4.24481 9.90049C4.40377 9.90049 4.67459 9.90049 4.83356 9.90049C4.8672 9.90049 4.89916 9.88732 4.92271 9.86427C4.94626 9.84121 4.95972 9.80992 4.95972 9.77699V9.20065Z" fill="white"/>
<path fill-rule="evenodd" clip-rule="evenodd" d="M10.4265 2.20236C10.4265 2.16943 10.4131 2.13814 10.3895 2.11508C10.366 2.09203 10.334 2.07886 10.3004 2.07886C10.1414 2.07886 9.87057 2.07886 9.71161 2.07886C9.67797 2.07886 9.646 2.09203 9.62245 2.11508C9.59891 2.13814 9.58545 2.16943 9.58545 2.20236C9.58545 2.35797 9.58545 2.62309 9.58545 2.7787C9.58545 2.81163 9.59891 2.84292 9.62245 2.86598C9.646 2.88903 9.67797 2.9022 9.71161 2.9022C9.87057 2.9022 10.1414 2.9022 10.3004 2.9022C10.334 2.9022 10.366 2.88903 10.3895 2.86598C10.4131 2.84292 10.4265 2.81163 10.4265 2.7787V2.20236Z" fill="white"/>
<path fill-rule="evenodd" clip-rule="evenodd" d="M10.4265 3.84909C10.4265 3.81616 10.4131 3.78487 10.3895 3.76181C10.366 3.73876 10.334 3.72559 10.3004 3.72559C10.1414 3.72559 9.87057 3.72559 9.71161 3.72559C9.67797 3.72559 9.646 3.73876 9.62245 3.76181C9.59891 3.78487 9.58545 3.81616 9.58545 3.84909C9.58545 4.0047 9.58545 4.26982 9.58545 4.42543C9.58545 4.45836 9.59891 4.48965 9.62245 4.5127C9.646 4.53576 9.67797 4.54893 9.71161 4.54893C9.87057 4.54893 10.1414 4.54893 10.3004 4.54893C10.334 4.54893 10.366 4.53576 10.3895 4.5127C10.4131 4.48965 10.4265 4.45836 10.4265 4.42543V3.84909Z" fill="white"/>
<path fill-rule="evenodd" clip-rule="evenodd" d="M10.4265 5.49557C10.4265 5.46264 10.4131 5.43135 10.3895 5.4083C10.366 5.38524 10.334 5.37207 10.3004 5.37207C10.1414 5.37207 9.87057 5.37207 9.71161 5.37207C9.67797 5.37207 9.646 5.38524 9.62245 5.4083C9.59891 5.43135 9.58545 5.46264 9.58545 5.49557C9.58545 5.65119 9.58545 5.9163 9.58545 6.07191C9.58545 6.10485 9.59891 6.13613 9.62245 6.15919C9.646 6.18224 9.67797 6.19541 9.71161 6.19541C9.87057 6.19541 10.1414 6.19541 10.3004 6.19541C10.334 6.19541 10.366 6.18224 10.3895 6.15919C10.4131 6.13613 10.4265 6.10485 10.4265 6.07191V5.49557Z" fill="white"/>
<path fill-rule="evenodd" clip-rule="evenodd" d="M3.27783 9.20065C3.27783 9.16772 3.26438 9.13643 3.24083 9.11337C3.21728 9.09032 3.18531 9.07715 3.15167 9.07715C2.99271 9.07715 2.72189 9.07715 2.56293 9.07715C2.52929 9.07715 2.49732 9.09032 2.47377 9.11337C2.45022 9.13643 2.43677 9.16772 2.43677 9.20065C2.43677 9.35626 2.43677 9.62138 2.43677 9.77699C2.43677 9.80992 2.45022 9.84121 2.47377 9.86427C2.49732 9.88732 2.52929 9.90049 2.56293 9.90049C2.72189 9.90049 2.99271 9.90049 3.15167 9.90049C3.18531 9.90049 3.21728 9.88732 3.24083 9.86427C3.26438 9.84121 3.27783 9.80992 3.27783 9.77699V9.20065Z" fill="white"/>
<path fill-rule="evenodd" clip-rule="evenodd" d="M8.32422 2.20236C8.32422 2.16943 8.31076 2.13814 8.28721 2.11508C8.26366 2.09203 8.2317 2.07886 8.19806 2.07886C8.0391 2.07886 7.76828 2.07886 7.60932 2.07886C7.57567 2.07886 7.54371 2.09203 7.52016 2.11508C7.49661 2.13814 7.48315 2.16943 7.48315 2.20236C7.48315 2.35797 7.48315 2.62309 7.48315 2.7787C7.48315 2.81163 7.49661 2.84292 7.52016 2.86598C7.54371 2.88903 7.57567 2.9022 7.60932 2.9022C7.76828 2.9022 8.0391 2.9022 8.19806 2.9022C8.2317 2.9022 8.26366 2.88903 8.28721 2.86598C8.31076 2.84292 8.32422 2.81163 8.32422 2.7787V2.20236Z" fill="white"/>
<path fill-rule="evenodd" clip-rule="evenodd" d="M8.32422 3.84909C8.32422 3.81616 8.31076 3.78487 8.28721 3.76181C8.26366 3.73876 8.2317 3.72559 8.19806 3.72559C8.0391 3.72559 7.76828 3.72559 7.60932 3.72559C7.57567 3.72559 7.54371 3.73876 7.52016 3.76181C7.49661 3.78487 7.48315 3.81616 7.48315 3.84909C7.48315 4.0047 7.48315 4.26982 7.48315 4.42543C7.48315 4.45836 7.49661 4.48965 7.52016 4.5127C7.54371 4.53576 7.57567 4.54893 7.60932 4.54893C7.76828 4.54893 8.0391 4.54893 8.19806 4.54893C8.2317 4.54893 8.26366 4.53576 8.28721 4.5127C8.31076 4.48965 8.32422 4.45836 8.32422 4.42543V3.84909Z" fill="white"/>
<path fill-rule="evenodd" clip-rule="evenodd" d="M8.32422 5.49557C8.32422 5.46264 8.31076 5.43135 8.28721 5.4083C8.26366 5.38524 8.2317 5.37207 8.19806 5.37207C8.0391 5.37207 7.76828 5.37207 7.60932 5.37207C7.57567 5.37207 7.54371 5.38524 7.52016 5.4083C7.49661 5.43135 7.48315 5.46264 7.48315 5.49557C7.48315 5.65119 7.48315 5.9163 7.48315 6.07191C7.48315 6.10485 7.49661 6.13613 7.52016 6.15919C7.54371 6.18224 7.57567 6.19541 7.60932 6.19541C7.76828 6.19541 8.0391 6.19541 8.19806 6.19541C8.2317 6.19541 8.26366 6.18224 8.28721 6.15919C8.31076 6.13613 8.32422 6.10485 8.32422 6.07191V5.49557Z" fill="white"/>
<path fill-rule="evenodd" clip-rule="evenodd" d="M4.95972 10.8474C4.95972 10.8144 4.94626 10.7832 4.92271 10.7601C4.89916 10.737 4.8672 10.7239 4.83356 10.7239C4.67459 10.7239 4.40377 10.7239 4.24481 10.7239C4.21117 10.7239 4.17921 10.737 4.15566 10.7601C4.13211 10.7832 4.11865 10.8144 4.11865 10.8474C4.11865 11.003 4.11865 11.2681 4.11865 11.4237C4.11865 11.4567 4.13211 11.4879 4.15566 11.511C4.17921 11.534 4.21117 11.5472 4.24481 11.5472C4.40377 11.5472 4.67459 11.5472 4.83356 11.5472C4.8672 11.5472 4.89916 11.534 4.92271 11.511C4.94626 11.4879 4.95972 11.4567 4.95972 11.4237V10.8474Z" fill="white"/>
<path fill-rule="evenodd" clip-rule="evenodd" d="M3.27783 10.8474C3.27783 10.8144 3.26438 10.7832 3.24083 10.7601C3.21728 10.737 3.18531 10.7239 3.15167 10.7239C2.99271 10.7239 2.72189 10.7239 2.56293 10.7239C2.52929 10.7239 2.49732 10.737 2.47377 10.7601C2.45022 10.7832 2.43677 10.8144 2.43677 10.8474C2.43677 11.003 2.43677 11.2681 2.43677 11.4237C2.43677 11.4567 2.45022 11.4879 2.47377 11.511C2.49732 11.534 2.52929 11.5472 2.56293 11.5472C2.72189 11.5472 2.99271 11.5472 3.15167 11.5472C3.18531 11.5472 3.21728 11.534 3.24083 11.511C3.26438 11.4879 3.27783 11.4567 3.27783 11.4237V10.8474Z" fill="white"/>
<path fill-rule="evenodd" clip-rule="evenodd" d="M6.64185 9.20065C6.64185 9.16772 6.62839 9.13643 6.60484 9.11337C6.58129 9.09032 6.54933 9.07715 6.51568 9.07715C6.35672 9.07715 6.0859 9.07715 5.92694 9.07715C5.8933 9.07715 5.86134 9.09032 5.83779 9.11337C5.81424 9.13643 5.80078 9.16772 5.80078 9.20065C5.80078 9.35626 5.80078 9.62138 5.80078 9.77699C5.80078 9.80992 5.81424 9.84121 5.83779 9.86427C5.86134 9.88732 5.8933 9.90049 5.92694 9.90049C6.0859 9.90049 6.35672 9.90049 6.51568 9.90049C6.54933 9.90049 6.58129 9.88732 6.60484 9.86427C6.62839 9.84121 6.64185 9.80992 6.64185 9.77699V9.20065Z" fill="white"/>
<path fill-rule="evenodd" clip-rule="evenodd" d="M12.5295 2.20236C12.5295 2.16943 12.5161 2.13814 12.4925 2.11508C12.469 2.09203 12.437 2.07886 12.4034 2.07886C12.2444 2.07886 11.9736 2.07886 11.8146 2.07886C11.781 2.07886 11.749 2.09203 11.7255 2.11508C11.7019 2.13814 11.6885 2.16943 11.6885 2.20236C11.6885 2.35797 11.6885 2.62309 11.6885 2.7787C11.6885 2.81163 11.7019 2.84292 11.7255 2.86598C11.749 2.88903 11.781 2.9022 11.8146 2.9022C11.9736 2.9022 12.2444 2.9022 12.4034 2.9022C12.437 2.9022 12.469 2.88903 12.4925 2.86598C12.5161 2.84292 12.5295 2.81163 12.5295 2.7787V2.20236Z" fill="white"/>
<path fill-rule="evenodd" clip-rule="evenodd" d="M12.5295 3.84909C12.5295 3.81616 12.5161 3.78487 12.4925 3.76181C12.469 3.73876 12.437 3.72559 12.4034 3.72559C12.2444 3.72559 11.9736 3.72559 11.8146 3.72559C11.781 3.72559 11.749 3.73876 11.7255 3.76181C11.7019 3.78487 11.6885 3.81616 11.6885 3.84909C11.6885 4.0047 11.6885 4.26982 11.6885 4.42543C11.6885 4.45836 11.7019 4.48965 11.7255 4.5127C11.749 4.53576 11.781 4.54893 11.8146 4.54893C11.9736 4.54893 12.2444 4.54893 12.4034 4.54893C12.437 4.54893 12.469 4.53576 12.4925 4.5127C12.5161 4.48965 12.5295 4.45836 12.5295 4.42543V3.84909Z" fill="white"/>
<path fill-rule="evenodd" clip-rule="evenodd" d="M12.5295 5.49557C12.5295 5.46264 12.5161 5.43135 12.4925 5.4083C12.469 5.38524 12.437 5.37207 12.4034 5.37207C12.2444 5.37207 11.9736 5.37207 11.8146 5.37207C11.781 5.37207 11.749 5.38524 11.7255 5.4083C11.7019 5.43135 11.6885 5.46264 11.6885 5.49557C11.6885 5.65119 11.6885 5.9163 11.6885 6.07191C11.6885 6.10485 11.7019 6.13613 11.7255 6.15919C11.749 6.18224 11.781 6.19541 11.8146 6.19541C11.9736 6.19541 12.2444 6.19541 12.4034 6.19541C12.437 6.19541 12.469 6.18224 12.4925 6.15919C12.5161 6.13613 12.5295 6.10485 12.5295 6.07191V5.49557Z" fill="white"/>
<path fill-rule="evenodd" clip-rule="evenodd" d="M15.0525 10.8474C15.0525 10.8144 15.039 10.7832 15.0155 10.7601C14.9919 10.737 14.96 10.7239 14.9263 10.7239C14.7674 10.7239 14.4965 10.7239 14.3376 10.7239C14.3039 10.7239 14.272 10.737 14.2484 10.7601C14.2249 10.7832 14.2114 10.8144 14.2114 10.8474C14.2114 11.003 14.2114 11.2681 14.2114 11.4237C14.2114 11.4567 14.2249 11.4879 14.2484 11.511C14.272 11.534 14.3039 11.5472 14.3376 11.5472C14.4965 11.5472 14.7674 11.5472 14.9263 11.5472C14.96 11.5472 14.9919 11.534 15.0155 11.511C15.039 11.4879 15.0525 11.4567 15.0525 11.4237V10.8474Z" fill="white"/>
<path fill-rule="evenodd" clip-rule="evenodd" d="M6.64185 10.8474C6.64185 10.8144 6.62839 10.7832 6.60484 10.7601C6.58129 10.737 6.54933 10.7239 6.51568 10.7239C6.35672 10.7239 6.0859 10.7239 5.92694 10.7239C5.8933 10.7239 5.86134 10.737 5.83779 10.7601C5.81424 10.7832 5.80078 10.8144 5.80078 10.8474C5.80078 11.003 5.80078 11.2681 5.80078 11.4237C5.80078 11.4567 5.81424 11.4879 5.83779 11.511C5.86134 11.534 5.8933 11.5472 5.92694 11.5472C6.0859 11.5472 6.35672 11.5472 6.51568 11.5472C6.54933 11.5472 6.58129 11.534 6.60484 11.511C6.62839 11.4879 6.64185 11.4567 6.64185 11.4237V10.8474Z" fill="white"/>
<path fill-rule="evenodd" clip-rule="evenodd" d="M15.0525 12.4941C15.0525 12.4612 15.039 12.4299 15.0155 12.4068C14.9919 12.3838 14.96 12.3706 14.9263 12.3706C14.7674 12.3706 14.4965 12.3706 14.3376 12.3706C14.3039 12.3706 14.272 12.3838 14.2484 12.4068C14.2249 12.4299 14.2114 12.4612 14.2114 12.4941C14.2114 12.6497 14.2114 12.9148 14.2114 13.0704C14.2114 13.1034 14.2249 13.1347 14.2484 13.1577C14.272 13.1808 14.3039 13.1939 14.3376 13.1939C14.4965 13.1939 14.7674 13.1939 14.9263 13.1939C14.96 13.1939 14.9919 13.1808 15.0155 13.1577C15.039 13.1347 15.0525 13.1034 15.0525 13.0704V12.4941Z" fill="white"/>
<path fill-rule="evenodd" clip-rule="evenodd" d="M13.3706 12.4941C13.3706 12.4612 13.3571 12.4299 13.3336 12.4068C13.31 12.3838 13.2781 12.3706 13.2444 12.3706C13.0855 12.3706 12.8147 12.3706 12.6557 12.3706C12.6221 12.3706 12.5901 12.3838 12.5665 12.4068C12.543 12.4299 12.5295 12.4612 12.5295 12.4941C12.5295 12.6497 12.5295 12.9148 12.5295 13.0704C12.5295 13.1034 12.543 13.1347 12.5665 13.1577C12.5901 13.1808 12.6221 13.1939 12.6557 13.1939C12.8147 13.1939 13.0855 13.1939 13.2444 13.1939C13.2781 13.1939 13.31 13.1808 13.3336 13.1577C13.3571 13.1347 13.3706 13.1034 13.3706 13.0704V12.4941Z" fill="white"/>
<path fill-rule="evenodd" clip-rule="evenodd" d="M15.0525 14.1406C15.0525 14.1077 15.039 14.0764 15.0155 14.0533C14.9919 14.0303 14.96 14.0171 14.9263 14.0171C14.7674 14.0171 14.4965 14.0171 14.3376 14.0171C14.3039 14.0171 14.272 14.0303 14.2484 14.0533C14.2249 14.0764 14.2114 14.1077 14.2114 14.1406C14.2114 14.2962 14.2114 14.5613 14.2114 14.7169C14.2114 14.7499 14.2249 14.7812 14.2484 14.8042C14.272 14.8273 14.3039 14.8404 14.3376 14.8404C14.4965 14.8404 14.7674 14.8404 14.9263 14.8404C14.96 14.8404 14.9919 14.8273 15.0155 14.8042C15.039 14.7812 15.0525 14.7499 15.0525 14.7169V14.1406Z" fill="white"/>
<path fill-rule="evenodd" clip-rule="evenodd" d="M15.0525 15.7876C15.0525 15.7546 15.039 15.7233 15.0155 15.7003C14.9919 15.6772 14.96 15.6641 14.9263 15.6641C14.7674 15.6641 14.4965 15.6641 14.3376 15.6641C14.3039 15.6641 14.272 15.6772 14.2484 15.7003C14.2249 15.7233 14.2114 15.7546 14.2114 15.7876C14.2114 15.9432 14.2114 16.2083 14.2114 16.3639C14.2114 16.3968 14.2249 16.4281 14.2484 16.4512C14.272 16.4742 14.3039 16.4874 14.3376 16.4874C14.4965 16.4874 14.7674 16.4874 14.9263 16.4874C14.96 16.4874 14.9919 16.4742 15.0155 16.4512C15.039 16.4281 15.0525 16.3968 15.0525 16.3639V15.7876Z" fill="white"/>
<path fill-rule="evenodd" clip-rule="evenodd" d="M13.3706 14.1406C13.3706 14.1077 13.3571 14.0764 13.3336 14.0533C13.31 14.0303 13.2781 14.0171 13.2444 14.0171C13.0855 14.0171 12.8147 14.0171 12.6557 14.0171C12.6221 14.0171 12.5901 14.0303 12.5665 14.0533C12.543 14.0764 12.5295 14.1077 12.5295 14.1406C12.5295 14.2962 12.5295 14.5613 12.5295 14.7169C12.5295 14.7499 12.543 14.7812 12.5665 14.8042C12.5901 14.8273 12.6221 14.8404 12.6557 14.8404C12.8147 14.8404 13.0855 14.8404 13.2444 14.8404C13.2781 14.8404 13.31 14.8273 13.3336 14.8042C13.3571 14.7812 13.3706 14.7499 13.3706 14.7169V14.1406Z" fill="white"/>
<path fill-rule="evenodd" clip-rule="evenodd" d="M13.3706 15.7876C13.3706 15.7546 13.3571 15.7233 13.3336 15.7003C13.31 15.6772 13.2781 15.6641 13.2444 15.6641C13.0855 15.6641 12.8147 15.6641 12.6557 15.6641C12.6221 15.6641 12.5901 15.6772 12.5665 15.7003C12.543 15.7233 12.5295 15.7546 12.5295 15.7876C12.5295 15.9432 12.5295 16.2083 12.5295 16.3639C12.5295 16.3968 12.543 16.4281 12.5665 16.4512C12.5901 16.4742 12.6221 16.4874 12.6557 16.4874C12.8147 16.4874 13.0855 16.4874 13.2444 16.4874C13.2781 16.4874 13.31 16.4742 13.3336 16.4512C13.3571 16.4281 13.3706 16.3968 13.3706 16.3639V15.7876Z" fill="white"/>
<path fill-rule="evenodd" clip-rule="evenodd" d="M11.6882 14.1406C11.6882 14.1077 11.6748 14.0764 11.6512 14.0533C11.6277 14.0303 11.5957 14.0171 11.5621 14.0171C11.4031 14.0171 11.1323 14.0171 10.9733 14.0171C10.9397 14.0171 10.9077 14.0303 10.8842 14.0533C10.8606 14.0764 10.8472 14.1077 10.8472 14.1406C10.8472 14.2962 10.8472 14.5613 10.8472 14.7169C10.8472 14.7499 10.8606 14.7812 10.8842 14.8042C10.9077 14.8273 10.9397 14.8404 10.9733 14.8404C11.1323 14.8404 11.4031 14.8404 11.5621 14.8404C11.5957 14.8404 11.6277 14.8273 11.6512 14.8042C11.6748 14.7812 11.6882 14.7499 11.6882 14.7169V14.1406Z" fill="white"/>
<path fill-rule="evenodd" clip-rule="evenodd" d="M11.6882 15.7876C11.6882 15.7546 11.6748 15.7233 11.6512 15.7003C11.6277 15.6772 11.5957 15.6641 11.5621 15.6641C11.4031 15.6641 11.1323 15.6641 10.9733 15.6641C10.9397 15.6641 10.9077 15.6772 10.8842 15.7003C10.8606 15.7233 10.8472 15.7546 10.8472 15.7876C10.8472 15.9432 10.8472 16.2083 10.8472 16.3639C10.8472 16.3968 10.8606 16.4281 10.8842 16.4512C10.9077 16.4742 10.9397 16.4874 10.9733 16.4874C11.1323 16.4874 11.4031 16.4874 11.5621 16.4874C11.5957 16.4874 11.6277 16.4742 11.6512 16.4512C11.6748 16.4281 11.6882 16.3968 11.6882 16.3639V15.7876Z" fill="white"/>
<path fill-rule="evenodd" clip-rule="evenodd" d="M10.0061 14.1406C10.0061 14.1077 9.99265 14.0764 9.9691 14.0533C9.94555 14.0303 9.91358 14.0171 9.87994 14.0171C9.72098 14.0171 9.45016 14.0171 9.2912 14.0171C9.25756 14.0171 9.22559 14.0303 9.20204 14.0533C9.1785 14.0764 9.16504 14.1077 9.16504 14.1406C9.16504 14.2962 9.16504 14.5613 9.16504 14.7169C9.16504 14.7499 9.1785 14.7812 9.20204 14.8042C9.22559 14.8273 9.25756 14.8404 9.2912 14.8404C9.45016 14.8404 9.72098 14.8404 9.87994 14.8404C9.91358 14.8404 9.94555 14.8273 9.9691 14.8042C9.99265 14.7812 10.0061 14.7499 10.0061 14.7169V14.1406Z" fill="white"/>
<path fill-rule="evenodd" clip-rule="evenodd" d="M10.0061 15.7876C10.0061 15.7546 9.99265 15.7233 9.9691 15.7003C9.94555 15.6772 9.91358 15.6641 9.87994 15.6641C9.72098 15.6641 9.45016 15.6641 9.2912 15.6641C9.25756 15.6641 9.22559 15.6772 9.20204 15.7003C9.1785 15.7233 9.16504 15.7546 9.16504 15.7876C9.16504 15.9432 9.16504 16.2083 9.16504 16.3639C9.16504 16.3968 9.1785 16.4281 9.20204 16.4512C9.22559 16.4742 9.25756 16.4874 9.2912 16.4874C9.45016 16.4874 9.72098 16.4874 9.87994 16.4874C9.91358 16.4874 9.94555 16.4742 9.9691 16.4512C9.99265 16.4281 10.0061 16.3968 10.0061 16.3639V15.7876Z" fill="white"/>
</svg>
