<svg xmlns="http://www.w3.org/2000/svg" width="13" height="15" viewBox="0 0 13 15" fill="none">
  <path d="M11.6419 0.176514C11.7855 0.176514 11.9228 0.204012 12.0539 0.259007C12.2599 0.338445 12.4238 0.463713 12.5455 0.634811C12.6672 0.805908 12.7281 0.995338 12.7281 1.2031V13.018C12.7281 13.2258 12.6672 13.4152 12.5455 13.5863C12.4238 13.7574 12.2599 13.8827 12.0539 13.9621C11.9353 14.011 11.798 14.0354 11.6419 14.0354C11.3423 14.0354 11.0833 13.9376 10.8648 13.7421L6.73562 9.85575L2.60644 13.7421C2.38173 13.9438 2.12268 14.0446 1.8293 14.0446C1.68573 14.0446 1.5484 14.0171 1.41732 13.9621C1.21132 13.8827 1.04747 13.7574 0.925747 13.5863C0.804025 13.4152 0.743164 13.2258 0.743164 13.018V1.2031C0.743164 0.995338 0.804025 0.805908 0.925747 0.634811C1.04747 0.463713 1.21132 0.338445 1.41732 0.259007C1.5484 0.204012 1.68573 0.176514 1.8293 0.176514H11.6419Z" fill="white"/>
</svg>