<svg width="12" height="15" viewBox="0 0 12 15" fill="none" xmlns="http://www.w3.org/2000/svg">
<path d="M10.9125 0.349365C11.0563 0.349365 11.1938 0.377938 11.325 0.435084C11.5313 0.517627 11.6953 0.647792 11.8172 0.825578C11.9391 1.00336 12 1.2002 12 1.41608V13.6929C12 13.9087 11.9391 14.1056 11.8172 14.2834C11.6953 14.4612 11.5313 14.5913 11.325 14.6739C11.2063 14.7247 11.0688 14.7501 10.9125 14.7501C10.6125 14.7501 10.3531 14.6485 10.1344 14.4453L6 10.407L1.86563 14.4453C1.64063 14.6548 1.38125 14.7596 1.0875 14.7596C0.943751 14.7596 0.80625 14.731 0.675 14.6739C0.46875 14.5913 0.304688 14.4612 0.182813 14.2834C0.0609375 14.1056 0 13.9087 0 13.6929V1.41608C0 1.2002 0.0609375 1.00336 0.182813 0.825578C0.304688 0.647792 0.46875 0.517627 0.675 0.435084C0.80625 0.377938 0.943751 0.349365 1.0875 0.349365H10.9125Z" fill="#009ED4"/>
</svg>
