<svg width="36" height="36" viewBox="0 0 36 36" fill="none" xmlns="http://www.w3.org/2000/svg">
<path d="M1.55584 20.4788L1.55617 20.4789L6.05617 21.9612L6.05617 21.9613L6.05805 21.9618C6.74485 22.1732 7.4911 21.9379 7.86123 21.3802L15.3384 27.341C15.3494 27.352 15.3601 27.3626 15.3696 27.3712C15.3805 27.381 15.3949 27.3928 15.4133 27.402C15.4414 27.4161 15.4702 27.4188 15.4911 27.4192C16.7379 27.9351 18.1709 28.1607 19.2613 27.3463L19.7815 27.8664L19.7814 27.8665L19.7849 27.8697C20.1022 28.1581 20.6607 28.306 21.2022 28.306C21.7432 28.306 22.307 28.1582 22.6259 27.8103L22.626 27.8105L22.6303 27.8052C22.8305 27.5549 22.9413 27.3035 23.0021 27.053C23.3566 27.0655 23.6923 27.0009 23.9501 26.9255C24.0898 26.8846 24.2079 26.8402 24.2953 26.8021C24.339 26.7831 24.3757 26.7653 24.404 26.75C24.4208 26.741 24.4404 26.7299 24.457 26.7176C25.0939 26.4453 25.3718 25.8275 25.4905 25.3076C26.1018 25.3454 26.6095 25.2369 27.0088 25.0106C27.4276 24.7733 27.7201 24.4103 27.8866 23.9671C28.0975 23.439 28.0587 22.8139 27.8177 22.3232L28.465 21.8917C28.7927 22.2415 29.2202 22.4427 29.6992 22.4427C29.9233 22.4427 30.1452 22.3873 30.3529 22.3353L30.3588 22.3339L30.3668 22.3319L30.3745 22.3285L34.5039 20.5285L34.5039 20.5286L34.5062 20.5275C35.3462 20.1355 35.7421 19.1806 35.4038 18.335L35.4036 18.3345L31.8568 9.59972C31.5171 8.75047 30.5056 8.36265 29.6676 8.64199L29.6676 8.64192L29.664 8.64327L25.1641 10.3373C24.7398 10.4965 24.3687 10.8527 24.1855 11.3556C22.33 10.5837 19.9368 10.2234 17.5141 10.1127C15.0801 10.0015 12.6084 10.1419 10.6069 10.3747C10.4669 9.95094 10.0918 9.59488 9.67924 9.38859L9.67959 9.3879L9.66786 9.38375L5.32757 7.84877C4.42406 7.51052 3.46692 8.02026 3.18613 8.91879L3.18609 8.91878L3.18533 8.9215L0.485327 18.5039L0.485317 18.5039L0.484956 18.5052C0.259529 19.3506 0.711736 20.1974 1.55584 20.4788ZM16.0931 26.2805L8.26396 20.1328C8.26939 20.1089 8.27341 20.0906 8.27624 20.0769C8.27861 20.0654 8.28056 20.0553 8.2817 20.0474L8.28173 20.0472C8.28207 20.0448 8.28307 20.0379 8.28318 20.0297C8.28684 20.0164 8.29075 20.0021 8.29494 19.9868C8.44666 19.4327 8.95956 17.5389 10.5074 11.7413C11.034 11.689 12.0353 11.5945 13.2692 11.498C12.9161 12.1484 12.5142 13.0124 12.3163 13.8966C12.1018 14.8552 12.1229 15.8582 12.7324 16.6339L12.7323 16.6339L12.7333 16.6351C13.1474 17.1459 13.6389 17.3776 14.1599 17.4221C14.6766 17.4662 15.2151 17.3258 15.7288 17.1076C16.2431 16.889 16.7403 16.5891 17.176 16.3061C17.3366 16.2018 17.4876 16.1006 17.6282 16.0065C17.8622 15.8498 18.067 15.7126 18.2372 15.6137C18.6612 15.624 22.1122 15.9146 26.3327 22.5026L26.3517 22.5323L26.3853 22.5435C26.4396 22.5616 26.5795 22.6503 26.6742 22.8159C26.7651 22.975 26.8158 23.2083 26.6941 23.5245C26.5746 23.8353 26.3646 23.9859 26.1035 24.0452C25.8432 24.1044 25.5291 24.0729 25.2008 23.9996L21.5165 19.6837L21.5167 19.6835L21.5111 19.6779C21.2742 19.441 20.8919 19.3615 20.6285 19.625C20.3925 19.861 20.3127 20.2413 20.5727 20.5047L24.2516 24.8143C24.2488 24.9166 24.2333 25.0698 24.1845 25.2163C24.1305 25.3782 24.0415 25.5158 23.9002 25.5812C23.8943 25.5825 23.8895 25.5838 23.8866 25.5846C23.8768 25.5873 23.8659 25.5908 23.8551 25.5945C23.8428 25.5987 23.8274 25.6042 23.8105 25.6102C23.7986 25.6144 23.786 25.6189 23.7732 25.6234C23.7083 25.646 23.6222 25.6747 23.5206 25.7001C23.3255 25.7489 23.0771 25.7846 22.818 25.7446L18.9252 20.9048C18.8262 20.7738 18.6677 20.6979 18.5097 20.6754C18.3511 20.6527 18.177 20.6815 18.0451 20.7804C17.9132 20.8793 17.8369 21.0384 17.8142 21.197C17.7915 21.3556 17.8203 21.5297 17.9192 21.6616L17.9192 21.6616L17.9213 21.6642L21.8141 26.5039C21.7989 26.6698 21.7612 26.7768 21.7179 26.846C21.6727 26.9183 21.6184 26.9543 21.5651 26.9738C21.5091 26.9941 21.4506 26.9975 21.3957 26.9975C21.3883 26.9975 21.3801 26.9974 21.3717 26.9974C21.353 26.9972 21.333 26.997 21.3177 26.9976C21.3057 26.9981 21.2902 26.9993 21.2746 27.0028C21.2703 27.0038 21.2648 27.0052 21.2585 27.0074C21.0229 27.0064 20.868 26.9899 20.7542 26.9582C20.6407 26.9266 20.5651 26.8791 20.4891 26.809C20.4348 26.7588 20.3836 26.7007 20.3193 26.6277C20.2866 26.5906 20.2505 26.5497 20.209 26.5041C20.0904 26.3738 19.9369 26.2169 19.7116 26.0306L16.5942 22.2264L16.5946 22.2261L16.5876 22.2191C16.3507 21.9822 15.9684 21.9027 15.705 22.1661C15.4691 22.402 15.3893 22.782 15.6487 23.0453L18.4335 26.3974C17.7513 26.8151 16.8454 26.6294 16.0931 26.2805ZM30.105 9.88927L30.1051 9.88929L30.107 9.88853C30.3139 9.80573 30.5772 9.93035 30.6652 10.1505L30.6657 10.1516L34.2652 18.8328C34.2653 18.833 34.2654 18.8332 34.2654 18.8334C34.3541 19.056 34.2606 19.3093 34.0562 19.3911L34.0562 19.391L34.0527 19.3925L33.2388 19.7543C33.4396 19.4899 33.558 19.1625 33.558 18.7957C33.558 17.8934 32.825 17.1604 31.9228 17.1604C31.0205 17.1604 30.2875 17.8934 30.2875 18.7957C30.2875 19.6406 30.9196 20.3115 31.7125 20.3916L29.8725 21.1916C29.6515 21.2792 29.4005 21.1874 29.3172 20.986C29.3076 20.9547 29.2851 20.8972 29.2544 20.8222C29.2208 20.7398 29.1747 20.6303 29.118 20.4979C29.0047 20.2331 28.8486 19.8751 28.6641 19.456C28.295 18.6178 27.8118 17.5339 27.3287 16.4584C26.8455 15.3829 26.3623 14.3155 25.9933 13.5104C25.8087 13.1078 25.6526 12.7705 25.5393 12.5304C25.4826 12.4105 25.4364 12.3143 25.4026 12.2462C25.3857 12.2123 25.3716 12.1846 25.3606 12.1642C25.3551 12.1541 25.3499 12.1448 25.3453 12.1371L25.345 12.1366C25.3444 12.1357 25.3437 12.1344 25.3427 12.1329C25.3028 12.0031 25.3161 11.8899 25.3615 11.7992C25.4087 11.7047 25.4943 11.6279 25.6061 11.583C25.6064 11.5829 25.6067 11.5828 25.607 11.5826L30.105 9.88927ZM17.9735 14.3579L17.9734 14.3577L17.9676 14.3596C17.7914 14.4184 17.6193 14.5349 17.2532 14.7964C16.5378 15.2998 15.8196 15.7689 15.1979 16.002C14.8874 16.1185 14.6095 16.1727 14.373 16.1484C14.1408 16.1246 13.9448 16.025 13.7904 15.8232L13.7905 15.8231L13.7887 15.821C13.5829 15.5667 13.4968 15.2347 13.5 14.8524C13.5031 14.4697 13.5959 14.0439 13.7397 13.6126C14.0193 12.7737 14.4857 11.9318 14.8262 11.3771C16.2682 11.3526 17.9879 11.394 19.6741 11.6088C21.3697 11.8249 23.0246 12.2155 24.3285 12.8863L27.9312 20.7704L27.1864 21.2523C24.9765 17.9594 22.8954 16.1823 21.2581 15.2543C20.4328 14.7865 19.7203 14.5345 19.1612 14.413C18.6052 14.2923 18.1937 14.2992 17.9735 14.3579ZM4.43651 9.29388L4.43684 9.29397L4.43846 9.28588C4.4798 9.0792 4.68203 8.96003 4.88562 9.04147L4.88701 9.04201L9.17045 10.6814C9.3422 10.7693 9.41841 10.9348 9.37884 11.0943C7.65829 17.6059 7.08941 19.7359 6.91755 20.3573C6.91614 20.3623 6.91476 20.3673 6.91341 20.3722C6.90329 20.3808 6.89752 20.3892 6.89584 20.3916L6.89576 20.3917C6.89012 20.3999 6.88681 20.4073 6.88595 20.4092L6.88589 20.4094C6.88494 20.4115 6.88412 20.4135 6.88345 20.4152C6.88315 20.416 6.88287 20.4167 6.88263 20.4174C6.87983 20.4248 6.87661 20.435 6.87319 20.4462C6.86596 20.47 6.85473 20.5093 6.83817 20.5689L6.83791 20.5688L6.83646 20.5761C6.81644 20.6762 6.75816 20.7441 6.67803 20.7842C6.59683 20.8248 6.49001 20.8378 6.37749 20.8164L1.89722 19.3405C1.83751 19.2973 1.77378 19.2227 1.72985 19.1348C1.68338 19.0419 1.66608 18.9487 1.6841 18.8744L4.43651 9.29388ZM32.2992 18.7427C32.2992 18.9522 32.1322 19.1192 31.9228 19.1192C31.7133 19.1192 31.5463 18.9522 31.5463 18.7427C31.5463 18.5333 31.7133 18.3663 31.9228 18.3663C32.1322 18.3663 32.2992 18.5333 32.2992 18.7427Z" fill="white" stroke="white" stroke-width="0.2"/>
<path d="M4.23451 19.9011C5.1368 19.9011 5.86981 19.168 5.86981 18.2658C5.86981 17.3635 5.1368 16.6305 4.23451 16.6305C3.33223 16.6305 2.59922 17.3635 2.59922 18.2658C2.59922 19.168 3.33223 19.9011 4.23451 19.9011ZM4.23451 17.8893C4.44399 17.8893 4.61098 18.0563 4.61098 18.2658C4.61098 18.3639 4.56162 18.458 4.48411 18.53C4.40557 18.6029 4.30974 18.6422 4.23451 18.6422C4.15928 18.6422 4.06345 18.6029 3.98491 18.53C3.90741 18.458 3.85804 18.3639 3.85804 18.2658C3.85804 18.0563 4.02504 17.8893 4.23451 17.8893Z" fill="white" stroke="white" stroke-width="0.2"/>
</svg>
