<svg width="30" height="30" viewBox="0 0 30 30" fill="none" xmlns="http://www.w3.org/2000/svg">
<path d="M29.92 0.62C29.8185 0.375651 29.6243 0.181475 29.38 0.08C29.2598 0.0287591 29.1307 0.00157999 29 0H25C24.7348 0 24.4804 0.105357 24.2929 0.292893C24.1054 0.48043 24 0.734784 24 1C24 1.26522 24.1054 1.51957 24.2929 1.70711C24.4804 1.89464 24.7348 2 25 2H26.59L25.23 3.36L20.74 8.75L15.45 6.11C15.2614 6.01514 15.0475 5.98244 14.8391 6.01657C14.6308 6.0507 14.4385 6.14992 14.29 6.3L8.9 11.74L4.51 9.14C4.35107 9.04067 4.16742 8.988 3.98 8.988C3.79258 8.988 3.60893 9.04067 3.45 9.14L0.45 11.14C0.255959 11.2963 0.127257 11.5194 0.0890999 11.7656C0.0509429 12.0119 0.10608 12.2635 0.243712 12.4712C0.381344 12.6789 0.591557 12.8277 0.833181 12.8885C1.0748 12.9493 1.33043 12.9178 1.55 12.8L4 11.18L8.52 13.86C8.67544 13.949 8.8509 13.9972 9.03 14C9.16231 13.9995 9.29319 13.9727 9.41507 13.9212C9.53694 13.8697 9.64739 13.7945 9.74 13.7L15.2 8.22L20.55 10.89C20.7517 10.9924 20.9821 11.0235 21.2037 10.9781C21.4252 10.9327 21.6249 10.8135 21.77 10.64L26.71 4.71L28 3.41V5C28 5.26522 28.1054 5.51957 28.2929 5.70711C28.4804 5.89464 28.7348 6 29 6C29.2652 6 29.5196 5.89464 29.7071 5.70711C29.8946 5.51957 30 5.26522 30 5V1C29.9984 0.869323 29.9712 0.740222 29.92 0.62ZM7 20H1C0.734784 20 0.48043 20.1054 0.292893 20.2929C0.105357 20.4804 0 20.7348 0 21V24H8V21C8 20.7348 7.89464 20.4804 7.70711 20.2929C7.51957 20.1054 7.26522 20 7 20ZM0 29C0 29.2652 0.105357 29.5196 0.292893 29.7071C0.48043 29.8946 0.734784 30 1 30H7C7.26522 30 7.51957 29.8946 7.70711 29.7071C7.89464 29.5196 8 29.2652 8 29V26H0V29ZM18 16H12C11.7348 16 11.4804 16.1054 11.2929 16.2929C11.1054 16.4804 11 16.7348 11 17V20H19V17C19 16.7348 18.8946 16.4804 18.7071 16.2929C18.5196 16.1054 18.2652 16 18 16ZM11 29C11 29.2652 11.1054 29.5196 11.2929 29.7071C11.4804 29.8946 11.7348 30 12 30H18C18.2652 30 18.5196 29.8946 18.7071 29.7071C18.8946 29.5196 19 29.2652 19 29V26H11V29Z" fill="white"/>
<path d="M19 22H11V24H19V22Z" fill="white"/>
<path d="M30 22H22V24H30V22Z" fill="white"/>
<path d="M30 18H22V20H30V18Z" fill="white"/>
<path d="M22 29C22 29.2652 22.1054 29.5196 22.2929 29.7071C22.4804 29.8946 22.7348 30 23 30H29C29.2652 30 29.5196 29.8946 29.7071 29.7071C29.8946 29.5196 30 29.2652 30 29V26H22V29ZM29 12H23C22.7348 12 22.4804 12.1054 22.2929 12.2929C22.1054 12.4804 22 12.7348 22 13V16H30V13C30 12.7348 29.8946 12.4804 29.7071 12.2929C29.5196 12.1054 29.2652 12 29 12Z" fill="white"/>
</svg>
