<svg width="22" height="19" viewBox="0 0 22 19" fill="none" xmlns="http://www.w3.org/2000/svg">
<path d="M5.5 7.19434C5.53242 6.84681 5.60621 6.50371 5.72 6.17132C5.82609 5.81486 5.97749 5.47143 6.171 5.1483C5.83483 5.15418 5.50429 5.0675 5.22095 4.89915C4.93761 4.7308 4.71412 4.48829 4.57857 4.20213C4.44303 3.91596 4.40149 3.59891 4.45917 3.29085C4.51686 2.98279 4.67119 2.69746 4.90277 2.47076C5.13435 2.24405 5.43283 2.08608 5.76068 2.01672C6.08853 1.94735 6.43112 1.96969 6.74536 2.08091C7.0596 2.19214 7.33146 2.38729 7.52676 2.64183C7.72207 2.89637 7.83209 3.19893 7.84299 3.51146C8.1603 3.30588 8.4994 3.13105 8.85499 2.98972C9.1936 2.86331 9.54321 2.76406 9.89999 2.69304C9.72051 2.06371 9.36191 1.49101 8.86195 1.03524C8.36199 0.57947 7.73915 0.257484 7.05901 0.103175C6.37886 -0.0511331 5.66657 -0.0320559 4.9971 0.158399C4.32763 0.348853 3.72575 0.703641 3.25482 1.18541C2.78389 1.66719 2.46132 2.25813 2.32108 2.89603C2.18083 3.53393 2.2281 4.19519 2.45789 4.81022C2.68769 5.42524 3.09152 5.97127 3.62688 6.39083C4.16223 6.8104 4.80931 7.08797 5.5 7.19434Z" fill="#009ED4"/>
<path d="M5.5 7.19434C5.53242 6.84681 5.60621 6.50371 5.72 6.17132C5.82609 5.81486 5.97749 5.47143 6.171 5.1483C5.83483 5.15418 5.50429 5.0675 5.22095 4.89915C4.93761 4.7308 4.71412 4.48829 4.57857 4.20213C4.44303 3.91596 4.40149 3.59891 4.45917 3.29085C4.51686 2.98279 4.67119 2.69746 4.90277 2.47076C5.13435 2.24405 5.43283 2.08608 5.76068 2.01672C6.08853 1.94735 6.43112 1.96969 6.74536 2.08091C7.0596 2.19214 7.33146 2.38729 7.52676 2.64183C7.72207 2.89637 7.83209 3.19893 7.84299 3.51146C8.1603 3.30588 8.4994 3.13105 8.85499 2.98972C9.1936 2.86331 9.54321 2.76406 9.89999 2.69304C9.72051 2.06371 9.36191 1.49101 8.86195 1.03524C8.36199 0.57947 7.73915 0.257484 7.05901 0.103175C6.37886 -0.0511331 5.66657 -0.0320559 4.9971 0.158399C4.32763 0.348853 3.72575 0.703641 3.25482 1.18541C2.78389 1.66719 2.46132 2.25813 2.32108 2.89603C2.18083 3.53393 2.2281 4.19519 2.45789 4.81022C2.68769 5.42524 3.09152 5.97127 3.62688 6.39083C4.16223 6.8104 4.80931 7.08797 5.5 7.19434Z" fill="black" fill-opacity="0.2"/>
<path d="M14.179 3.53192C14.2068 3.22689 14.3295 2.936 14.5322 2.6948C14.7349 2.4536 15.0087 2.27254 15.3203 2.17375C15.6318 2.07497 15.9676 2.06273 16.2865 2.13855C16.6054 2.21437 16.8936 2.37495 17.116 2.60066C17.3383 2.82638 17.4852 3.10745 17.5385 3.40953C17.5919 3.7116 17.5495 4.02159 17.4164 4.3016C17.2834 4.58161 17.0656 4.81952 16.7895 4.98624C16.5135 5.15295 16.1911 5.24126 15.862 5.24037C16.0555 5.5635 16.2069 5.90693 16.313 6.26339C16.4268 6.59578 16.5006 6.93888 16.533 7.28641C17.2142 7.17062 17.8499 6.88798 18.3745 6.46763C18.8991 6.04728 19.2938 5.50441 19.5177 4.89499C19.7416 4.28556 19.7867 3.63163 19.6484 3.00058C19.5101 2.36954 19.1934 1.78421 18.7308 1.30492C18.2683 0.82564 17.6766 0.469743 17.017 0.273913C16.3573 0.0780828 15.6533 0.049404 14.9778 0.190833C14.3022 0.332261 13.6794 0.638681 13.1735 1.07851C12.6677 1.51834 12.2971 2.07566 12.1 2.69304C12.4767 2.76104 12.8452 2.86385 13.2 2.99995C13.5433 3.14875 13.871 3.32684 14.179 3.53192Z" fill="#009ED4"/>
<path d="M14.179 3.53192C14.2068 3.22689 14.3295 2.936 14.5322 2.6948C14.7349 2.4536 15.0087 2.27254 15.3203 2.17375C15.6318 2.07497 15.9676 2.06273 16.2865 2.13855C16.6054 2.21437 16.8936 2.37495 17.116 2.60066C17.3383 2.82638 17.4852 3.10745 17.5385 3.40953C17.5919 3.7116 17.5495 4.02159 17.4164 4.3016C17.2834 4.58161 17.0656 4.81952 16.7895 4.98624C16.5135 5.15295 16.1911 5.24126 15.862 5.24037C16.0555 5.5635 16.2069 5.90693 16.313 6.26339C16.4268 6.59578 16.5006 6.93888 16.533 7.28641C17.2142 7.17062 17.8499 6.88798 18.3745 6.46763C18.8991 6.04728 19.2938 5.50441 19.5177 4.89499C19.7416 4.28556 19.7867 3.63163 19.6484 3.00058C19.5101 2.36954 19.1934 1.78421 18.7308 1.30492C18.2683 0.82564 17.6766 0.469743 17.017 0.273913C16.3573 0.0780828 15.6533 0.049404 14.9778 0.190833C14.3022 0.332261 13.6794 0.638681 13.1735 1.07851C12.6677 1.51834 12.2971 2.07566 12.1 2.69304C12.4767 2.76104 12.8452 2.86385 13.2 2.99995C13.5433 3.14875 13.871 3.32684 14.179 3.53192Z" fill="black" fill-opacity="0.2"/>
<path d="M16.28 9.24038C16.1636 9.59504 16.0088 9.9378 15.818 10.2634C15.5761 10.6825 15.2725 11.0681 14.916 11.4092C15.2246 11.3319 15.5424 11.2907 15.862 11.2864C16.7146 11.2875 17.5438 11.5452 18.2259 12.0209C18.9079 12.4967 19.4061 13.1649 19.646 13.9258H17.446C17.6825 14.2516 17.8921 14.5936 18.073 14.9488C18.2398 15.2796 18.3796 15.6215 18.491 15.9719H20.9C21.1917 15.9719 21.4715 15.8641 21.6778 15.6722C21.8841 15.4804 22 15.2202 22 14.9488C22.0036 13.4999 21.4146 12.1038 20.3524 11.0438C19.2902 9.98376 17.8344 9.33905 16.28 9.24038Z" fill="#009ED4"/>
<path d="M16.28 9.24038C16.1636 9.59504 16.0088 9.9378 15.818 10.2634C15.5761 10.6825 15.2725 11.0681 14.916 11.4092C15.2246 11.3319 15.5424 11.2907 15.862 11.2864C16.7146 11.2875 17.5438 11.5452 18.2259 12.0209C18.9079 12.4967 19.4061 13.1649 19.646 13.9258H17.446C17.6825 14.2516 17.8921 14.5936 18.073 14.9488C18.2398 15.2796 18.3796 15.6215 18.491 15.9719H20.9C21.1917 15.9719 21.4715 15.8641 21.6778 15.6722C21.8841 15.4804 22 15.2202 22 14.9488C22.0036 13.4999 21.4146 12.1038 20.3524 11.0438C19.2902 9.98376 17.8344 9.33905 16.28 9.24038Z" fill="black" fill-opacity="0.2"/>
<path d="M6.16 11.2864C6.46788 11.2923 6.7741 11.33 7.073 11.399C6.72398 11.0582 6.42443 10.6765 6.182 10.2634C5.9912 9.9378 5.83641 9.59504 5.72 9.24038C4.16655 9.34142 2.71218 9.98685 1.65052 11.0464C0.588864 12.1059 -0.00100748 13.5006 1.29173e-06 14.9488C1.29173e-06 15.2202 0.115894 15.4804 0.322183 15.6722C0.528473 15.8641 0.808262 15.9719 1.1 15.9719H3.531C3.64243 15.6215 3.78216 15.2796 3.949 14.9488C4.12985 14.5936 4.33946 14.2516 4.576 13.9258H2.376C2.61427 13.1641 3.11204 12.4949 3.79445 12.0189C4.47685 11.5429 5.30699 11.2859 6.16 11.2864Z" fill="#009ED4"/>
<path d="M6.16 11.2864C6.46788 11.2923 6.7741 11.33 7.073 11.399C6.72398 11.0582 6.42443 10.6765 6.182 10.2634C5.9912 9.9378 5.83641 9.59504 5.72 9.24038C4.16655 9.34142 2.71218 9.98685 1.65052 11.0464C0.588864 12.1059 -0.00100748 13.5006 1.29173e-06 14.9488C1.29173e-06 15.2202 0.115894 15.4804 0.322183 15.6722C0.528473 15.8641 0.808262 15.9719 1.1 15.9719H3.531C3.64243 15.6215 3.78216 15.2796 3.949 14.9488C4.12985 14.5936 4.33946 14.2516 4.576 13.9258H2.376C2.61427 13.1641 3.11204 12.4949 3.79445 12.0189C4.47685 11.5429 5.30699 11.2859 6.16 11.2864Z" fill="black" fill-opacity="0.2"/>
<path fill-rule="evenodd" clip-rule="evenodd" d="M7.69999 5.83372C7.41895 6.24673 7.23524 6.71047 7.161 7.19434C7.12157 7.39355 7.0995 7.5954 7.095 7.79792C7.10507 8.36765 7.2556 8.92764 7.535 9.43475C7.9111 10.1135 8.5077 10.6648 9.23999 11.0102C9.76325 11.2661 10.343 11.4061 10.934 11.4194C10.9652 11.4417 10.9914 11.4695 11.011 11.5013L11.088 11.4092C11.6712 11.3996 12.2439 11.263 12.76 11.0102C13.4891 10.6642 14.082 10.1128 14.454 9.43475C14.7442 8.931 14.8989 8.36939 14.905 7.79792C14.9005 7.59202 14.8784 7.38677 14.839 7.18411C14.7572 6.69883 14.5741 6.23313 14.3 5.81326C14.0754 5.48205 13.7929 5.18814 13.464 4.94369C12.7615 4.42678 11.8956 4.13919 11 4.12527C10.6618 4.13217 10.3257 4.17682 9.99899 4.25827C9.49136 4.38846 9.01653 4.611 8.60199 4.913C8.24287 5.16557 7.93706 5.47772 7.69999 5.83372ZM11.9472 6.43855C11.6669 6.26431 11.3372 6.17132 11 6.17132C10.5478 6.17132 10.1141 6.33838 9.79438 6.63575C9.47463 6.93312 9.29499 7.33645 9.29499 7.757C9.29499 8.07062 9.39499 8.37719 9.58234 8.63796C9.76968 8.89872 10.036 9.10196 10.3475 9.22198C10.6591 9.34199 11.0019 9.3734 11.3326 9.31221C11.6634 9.25103 11.9672 9.10001 12.2056 8.87824C12.4441 8.65648 12.6064 8.37394 12.6722 8.06635C12.738 7.75876 12.7043 7.43993 12.5752 7.15018C12.4462 6.86044 12.2276 6.61279 11.9472 6.43855Z" fill="#009ED4"/>
<path fill-rule="evenodd" clip-rule="evenodd" d="M7.69999 5.83372C7.41895 6.24673 7.23524 6.71047 7.161 7.19434C7.12157 7.39355 7.0995 7.5954 7.095 7.79792C7.10507 8.36765 7.2556 8.92764 7.535 9.43475C7.9111 10.1135 8.5077 10.6648 9.23999 11.0102C9.76325 11.2661 10.343 11.4061 10.934 11.4194C10.9652 11.4417 10.9914 11.4695 11.011 11.5013L11.088 11.4092C11.6712 11.3996 12.2439 11.263 12.76 11.0102C13.4891 10.6642 14.082 10.1128 14.454 9.43475C14.7442 8.931 14.8989 8.36939 14.905 7.79792C14.9005 7.59202 14.8784 7.38677 14.839 7.18411C14.7572 6.69883 14.5741 6.23313 14.3 5.81326C14.0754 5.48205 13.7929 5.18814 13.464 4.94369C12.7615 4.42678 11.8956 4.13919 11 4.12527C10.6618 4.13217 10.3257 4.17682 9.99899 4.25827C9.49136 4.38846 9.01653 4.611 8.60199 4.913C8.24287 5.16557 7.93706 5.47772 7.69999 5.83372ZM11.9472 6.43855C11.6669 6.26431 11.3372 6.17132 11 6.17132C10.5478 6.17132 10.1141 6.33838 9.79438 6.63575C9.47463 6.93312 9.29499 7.33645 9.29499 7.757C9.29499 8.07062 9.39499 8.37719 9.58234 8.63796C9.76968 8.89872 10.036 9.10196 10.3475 9.22198C10.6591 9.34199 11.0019 9.3734 11.3326 9.31221C11.6634 9.25103 11.9672 9.10001 12.2056 8.87824C12.4441 8.65648 12.6064 8.37394 12.6722 8.06635C12.738 7.75876 12.7043 7.43993 12.5752 7.15018C12.4462 6.86044 12.2276 6.61279 11.9472 6.43855Z" fill="#F39200"/>
<path fill-rule="evenodd" clip-rule="evenodd" d="M16.17 14.9488C15.9133 14.5791 15.6146 14.2361 15.279 13.9258C14.5998 13.3151 13.7796 12.8568 12.881 12.5857C12.4905 12.4505 12.0844 12.3578 11.671 12.3094C11.4475 12.2973 11.2235 12.2973 11 12.3094H10.406H10.351C9.94025 12.3503 9.53492 12.4291 9.14099 12.5447C8.24237 12.8158 7.42219 13.2742 6.743 13.8849C6.40742 14.1952 6.1087 14.5382 5.852 14.9079C5.63248 15.2326 5.44473 15.575 5.291 15.9309C5.02097 16.5838 4.88298 17.2775 4.884 17.977C4.884 18.2483 4.99989 18.5085 5.20618 18.7004C5.41247 18.8922 5.69226 19 5.984 19H16.06C16.3517 19 16.6315 18.8922 16.8378 18.7004C17.0441 18.5085 17.16 18.2483 17.16 17.977C17.161 17.2775 17.023 16.5838 16.753 15.9309C16.5899 15.5884 16.3948 15.2597 16.17 14.9488ZM8.79999 14.9488C8.36548 15.2203 7.99188 15.5678 7.69999 15.9719C7.48454 16.2884 7.32139 16.6333 7.216 16.9949H14.63C14.3668 16.1456 13.7752 15.4168 12.969 14.9488C12.703 14.7878 12.419 14.654 12.122 14.5499C11.7669 14.4389 11.3964 14.3769 11.022 14.3657H10.769C10.3946 14.3767 10.024 14.4388 9.66899 14.5499C9.36015 14.6432 9.06745 14.7776 8.79999 14.9488Z" fill="#009ED4"/>
<path fill-rule="evenodd" clip-rule="evenodd" d="M16.17 14.9488C15.9133 14.5791 15.6146 14.2361 15.279 13.9258C14.5998 13.3151 13.7796 12.8568 12.881 12.5857C12.4905 12.4505 12.0844 12.3578 11.671 12.3094C11.4475 12.2973 11.2235 12.2973 11 12.3094H10.406H10.351C9.94025 12.3503 9.53492 12.4291 9.14099 12.5447C8.24237 12.8158 7.42219 13.2742 6.743 13.8849C6.40742 14.1952 6.1087 14.5382 5.852 14.9079C5.63248 15.2326 5.44473 15.575 5.291 15.9309C5.02097 16.5838 4.88298 17.2775 4.884 17.977C4.884 18.2483 4.99989 18.5085 5.20618 18.7004C5.41247 18.8922 5.69226 19 5.984 19H16.06C16.3517 19 16.6315 18.8922 16.8378 18.7004C17.0441 18.5085 17.16 18.2483 17.16 17.977C17.161 17.2775 17.023 16.5838 16.753 15.9309C16.5899 15.5884 16.3948 15.2597 16.17 14.9488ZM8.79999 14.9488C8.36548 15.2203 7.99188 15.5678 7.69999 15.9719C7.48454 16.2884 7.32139 16.6333 7.216 16.9949H14.63C14.3668 16.1456 13.7752 15.4168 12.969 14.9488C12.703 14.7878 12.419 14.654 12.122 14.5499C11.7669 14.4389 11.3964 14.3769 11.022 14.3657H10.769C10.3946 14.3767 10.024 14.4388 9.66899 14.5499C9.36015 14.6432 9.06745 14.7776 8.79999 14.9488Z" fill="#F39200"/>
</svg>
