<svg width="326" height="261" viewBox="0 0 326 261" fill="none" xmlns="http://www.w3.org/2000/svg">
<path d="M201.94 153.681C199.318 157.088 196.229 160.136 192.758 162.741H194.36C201.596 162.749 208.534 165.528 213.651 170.469C218.768 175.41 221.646 182.109 221.654 189.097V251.002H104.86V189.097C104.868 182.109 107.746 175.41 112.863 170.469C117.98 165.528 124.918 162.749 132.154 162.741H133.757C130.285 160.136 127.196 157.088 124.574 153.681C116.141 155.375 108.569 159.82 103.13 166.27C97.6902 172.719 94.715 180.779 94.7039 189.097V252.78C94.7065 254.909 95.5833 256.95 97.1421 258.455C98.7009 259.96 100.814 260.807 103.019 260.809H223.495C225.7 260.807 227.813 259.96 229.372 258.455C230.931 256.95 231.808 254.909 231.81 252.78V189.097C231.799 180.779 228.824 172.719 223.385 166.27C217.945 159.82 210.373 155.375 201.94 153.681Z" fill="#009ED4"/>
<path d="M125.172 125.962C125.172 133.235 127.406 140.345 131.591 146.393C135.775 152.441 141.724 157.154 148.683 159.938C155.642 162.721 163.299 163.449 170.687 162.03C178.075 160.611 184.861 157.109 190.188 151.966C195.514 146.823 199.141 140.27 200.611 133.136C202.08 126.002 201.326 118.608 198.443 111.888C195.561 105.168 190.679 99.4248 184.416 95.3838C178.153 91.3429 170.79 89.186 163.257 89.186C153.16 89.1971 143.479 93.0752 136.34 99.9695C129.2 106.864 125.183 116.211 125.172 125.962ZM163.257 98.9928C168.781 98.9928 174.181 100.575 178.774 103.538C183.367 106.501 186.946 110.713 189.06 115.641C191.174 120.569 191.727 125.991 190.65 131.223C189.572 136.454 186.912 141.26 183.006 145.031C179.1 148.803 174.124 151.371 168.706 152.412C163.288 153.453 157.673 152.919 152.569 150.877C147.466 148.836 143.104 145.38 140.035 140.945C136.966 136.51 135.328 131.295 135.328 125.962C135.336 118.811 138.282 111.957 143.518 106.901C148.754 101.845 155.853 99.0009 163.257 98.9928ZM10.9165 133.317C10.9302 121.617 15.7496 110.399 24.3175 102.126C32.8854 93.8529 44.502 89.1992 56.6188 89.186H61.9864C56.8611 86.863 52.1505 83.7684 48.0308 80.0179C34.8702 82.0126 22.8786 88.4765 14.2132 98.2469C5.54787 108.017 0.777587 120.453 0.760498 133.317L0.760498 192.157C0.763576 194.757 1.83457 197.25 3.73853 199.089C5.6425 200.927 8.22394 201.961 10.9165 201.964H84.5479V192.157H10.9165V133.317ZM107.109 89.186H112.477C118.414 89.186 124.293 90.3098 129.782 92.4938C132.541 89.927 135.605 87.685 138.911 85.8147C133.339 82.9194 127.295 80.9661 121.041 80.0392C116.927 83.78 112.225 86.8673 107.109 89.186ZM127.711 42.6037C127.711 34.3604 125.18 26.3022 120.437 19.4482C115.694 12.5941 108.953 7.25202 101.066 4.09744C93.1787 0.942863 84.5 0.117482 76.1272 1.72567C67.7543 3.33386 60.0634 7.30339 54.0269 13.1323C47.9904 18.9612 43.8795 26.3877 42.2141 34.4726C40.5486 42.5575 41.4034 50.9377 44.6703 58.5536C47.9372 66.1694 53.4695 72.6787 60.5677 77.2585C67.6658 81.8382 76.011 84.2826 84.5479 84.2826C95.9916 84.2703 106.963 79.8752 115.055 72.0616C123.147 64.2479 127.698 53.6539 127.711 42.6037ZM84.5479 74.4758C78.0197 74.4758 71.6381 72.6066 66.2101 69.1044C60.7821 65.6023 56.5515 60.6245 54.0532 54.8007C51.555 48.9768 50.9014 42.5684 52.175 36.3858C53.4485 30.2032 56.5922 24.5241 61.2083 20.0667C65.8244 15.6094 71.7057 12.5738 78.1085 11.344C84.5113 10.1142 91.1479 10.7454 97.1792 13.1577C103.21 15.5701 108.365 19.6552 111.992 24.8965C115.619 30.1379 117.555 36.3 117.555 42.6037C117.545 51.0539 114.065 59.1552 107.877 65.1304C101.689 71.1055 93.2989 74.4665 84.5479 74.4758ZM214.037 89.186H219.405C214.29 86.8673 209.588 83.78 205.474 80.0392C199.219 80.9661 193.176 82.9194 187.604 85.8147C190.909 87.685 193.974 89.927 196.733 92.4938C202.222 90.3098 208.101 89.186 214.037 89.186ZM278.484 80.0179C274.364 83.7684 269.653 86.863 264.528 89.186H269.896C282.013 89.1992 293.629 93.8529 302.197 102.126C310.765 110.399 315.584 121.617 315.598 133.317L315.604 192.157H241.967V201.964H315.598C318.291 201.961 320.872 200.927 322.776 199.089C324.68 197.25 325.751 194.757 325.754 192.157V133.317C325.737 120.453 320.967 108.017 312.301 98.2469C303.636 88.4765 291.644 82.0126 278.484 80.0179ZM241.967 84.2826C250.503 84.2826 258.849 81.8382 265.947 77.2585C273.045 72.6787 278.577 66.1694 281.844 58.5536C285.111 50.9377 285.966 42.5575 284.3 34.4726C282.635 26.3877 278.524 18.9612 272.488 13.1323C266.451 7.30339 258.76 3.33386 250.387 1.72567C242.014 0.117482 233.336 0.942863 225.449 4.09744C217.562 7.25202 210.821 12.5941 206.078 19.4482C201.335 26.3022 198.803 34.3604 198.803 42.6037C198.816 53.6539 203.368 64.2479 211.46 72.0616C219.552 79.8752 230.523 84.2703 241.967 84.2826ZM241.967 10.7316C248.495 10.7316 254.876 12.6009 260.304 16.103C265.732 19.6052 269.963 24.5829 272.461 30.4068C274.959 36.2307 275.613 42.6391 274.34 48.8217C273.066 55.0043 269.922 60.6833 265.306 65.1407C260.69 69.5981 254.809 72.6336 248.406 73.8634C242.003 75.0932 235.367 74.462 229.335 72.0497C223.304 69.6374 218.149 65.5523 214.522 60.3109C210.895 55.0696 208.959 48.9074 208.959 42.6037C208.969 34.1536 212.45 26.0522 218.638 20.0771C224.826 14.1019 233.216 10.741 241.967 10.7316Z" fill="#F39200"/>
<circle cx="163.5" cy="125.5" r="38.5" fill="#009ED4"/>
<ellipse cx="163" cy="126.31" rx="29" ry="28.3095" fill="#FFFEFE"/>
</svg>
