<svg width="20" height="20" viewBox="0 0 20 20" fill="none" xmlns="http://www.w3.org/2000/svg">
<g clip-path="url(#clip0_197_545)">
<path d="M4.2857 0.596191C2.34258 0.596191 0.759766 2.1765 0.759766 4.12213C0.759766 6.06494 2.34258 7.64807 4.2857 7.64807C6.23164 7.64807 7.81133 6.06494 7.81133 4.12213C7.81133 2.1765 6.23133 0.596191 4.2857 0.596191ZM5.45039 5.27838C5.39195 5.41088 5.30914 5.52432 5.20133 5.61963C5.09383 5.71494 4.96164 5.79182 4.81102 5.85025C4.66039 5.90869 4.49133 5.94557 4.30695 5.96088L4.24852 6.57619C4.24539 6.5915 4.24195 6.60369 4.23289 6.61588C4.22664 6.62807 4.21445 6.63713 4.19602 6.6465C4.17758 6.65275 4.15289 6.65932 4.12258 6.66557C4.09164 6.66869 4.05164 6.67182 4.00258 6.67182C3.94102 6.67182 3.89195 6.66869 3.85477 6.66275C3.81789 6.65619 3.78727 6.64994 3.7657 6.63775C3.74445 6.62869 3.73195 6.61338 3.7257 6.59807C3.71664 6.57963 3.71664 6.56088 3.71945 6.53932L3.78102 5.95525C3.69789 5.94307 3.62102 5.92775 3.54727 5.90963C3.47352 5.89057 3.40914 5.87244 3.34727 5.85088C3.28883 5.8265 3.23664 5.80463 3.19383 5.78307C3.15039 5.75869 3.12008 5.73744 3.09539 5.71525C3.07414 5.69088 3.05852 5.66025 3.04945 5.61713C3.04039 5.57432 3.03414 5.50963 3.03414 5.42369C3.03414 5.359 3.03727 5.3065 3.04039 5.26369C3.04352 5.22025 3.05258 5.18994 3.06164 5.16557C3.07102 5.14369 3.0832 5.12838 3.09539 5.11932C3.11102 5.11025 3.12914 5.10713 3.14758 5.10713C3.17227 5.10713 3.20914 5.11932 3.25539 5.15057C3.30445 5.17807 3.36602 5.20869 3.43977 5.24588C3.51664 5.27932 3.6057 5.30994 3.71352 5.33807C3.81789 5.36869 3.94383 5.38088 4.08852 5.38088C4.31289 5.38088 4.47883 5.34119 4.58977 5.25807C4.70039 5.17494 4.75258 5.06463 4.75258 4.92588C4.75258 4.83369 4.73102 4.75682 4.68164 4.69807C4.6357 4.6365 4.57383 4.58463 4.49383 4.54119C4.41727 4.49557 4.3282 4.45525 4.22664 4.41838C4.12852 4.38432 4.02664 4.34463 3.92539 4.30494C3.8207 4.26463 3.71945 4.21838 3.62102 4.16338C3.52258 4.11088 3.4332 4.04307 3.35352 3.96619C3.27695 3.88682 3.21227 3.79088 3.16602 3.67744C3.12008 3.56682 3.09508 3.4315 3.09508 3.2715C3.09508 3.12744 3.11977 2.99494 3.16602 2.87838C3.21508 2.76119 3.28289 2.65682 3.37508 2.56775C3.46414 2.48182 3.57508 2.40775 3.70727 2.35525C3.83945 2.30025 3.98695 2.26307 4.15602 2.24463L4.21164 1.66369C4.21477 1.64838 4.21789 1.63619 4.22695 1.62713C4.2332 1.61432 4.2457 1.60525 4.26383 1.59588C4.28258 1.58682 4.30695 1.58057 4.33758 1.57744C4.3682 1.57432 4.4082 1.57119 4.45758 1.57119C4.51602 1.57119 4.56508 1.57432 4.60508 1.58025C4.64508 1.58619 4.67602 1.59557 4.69727 1.60463C4.71883 1.61744 4.73102 1.62963 4.73727 1.64807C4.74352 1.66338 4.74664 1.68463 4.74664 1.70369L4.68789 2.24744C4.74008 2.2565 4.79852 2.26588 4.85695 2.28088C4.9157 2.29369 4.97383 2.309 5.02289 2.32713C5.07508 2.34557 5.12445 2.36369 5.16414 2.38588C5.20727 2.40432 5.23789 2.42244 5.2532 2.44088C5.26883 2.45682 5.28102 2.47213 5.29008 2.49025C5.29945 2.50557 5.3057 2.52682 5.31164 2.549C5.31477 2.57338 5.31789 2.604 5.3207 2.63494C5.32383 2.66838 5.32383 2.70869 5.32383 2.7515C5.32383 2.81307 5.3207 2.86213 5.31758 2.89932C5.31758 2.939 5.31133 2.96713 5.30226 2.98838C5.29601 3.00682 5.28664 3.02182 5.27758 3.02807C5.26852 3.03432 5.25633 3.03713 5.24383 3.03713C5.21945 3.03713 5.18258 3.02494 5.1332 3.00057C5.08383 2.97619 5.02539 2.94807 4.95508 2.92057C4.88727 2.88994 4.80445 2.86494 4.71508 2.83744C4.62289 2.81307 4.52133 2.80088 4.41383 2.80088C4.31227 2.80088 4.22914 2.80994 4.15852 2.8315C4.08508 2.84994 4.02945 2.87775 3.9832 2.9115C3.94008 2.94494 3.90664 2.98838 3.88789 3.03432C3.86664 3.08369 3.85414 3.13619 3.85414 3.19432C3.85414 3.28338 3.87883 3.36025 3.92789 3.42213C3.97383 3.48369 4.03852 3.53557 4.11852 3.579C4.1982 3.62463 4.28758 3.66494 4.38883 3.69869C4.49008 3.73588 4.59164 3.77557 4.69602 3.81588C4.8007 3.85557 4.90508 3.90182 5.00352 3.95369C5.10477 4.00932 5.19383 4.074 5.27383 4.15088C5.35383 4.22775 5.41508 4.32307 5.46445 4.43338C5.51039 4.544 5.53508 4.67619 5.53508 4.83307C5.53664 4.99557 5.50914 5.1465 5.45039 5.27838Z" fill="#F39200"/>
<path fill-rule="evenodd" clip-rule="evenodd" d="M18.4601 12.1763L19.7173 13.12C19.8217 13.1969 19.8617 13.3294 19.8217 13.4522C19.7817 13.5754 19.6682 13.6553 19.5389 13.6553H18.8873V19.7022C18.8873 19.865 18.7551 20 18.5892 20H10.3598C10.1939 20 10.0617 19.865 10.0617 19.7022V13.6553H9.40668C9.28074 13.6553 9.1673 13.5757 9.12418 13.4522C9.08418 13.3294 9.1273 13.1969 9.23168 13.12L14.3192 9.34566C14.4239 9.26566 14.5682 9.26566 14.6761 9.34566L16.1639 10.4613V10.2275C16.1639 10.0616 16.2992 9.9291 16.462 9.9291H18.162C18.3279 9.9291 18.4601 10.0616 18.4601 10.2275V12.1763ZM17.8636 10.5263H16.7598V10.9069L17.8636 11.731V10.5263ZM13.2614 16.0163V19.4038H15.687V16.0163H13.2614ZM16.2832 19.4038H18.2907V13.6553H14.4742H10.6576V19.4038H12.6651V15.7179C12.6651 15.555 12.7973 15.42 12.9632 15.42H15.9851C16.1511 15.42 16.2832 15.555 16.2832 15.7179V19.4038ZM14.4942 9.95723L10.3104 13.0622H18.6442L14.4942 9.95723Z" fill="#4BA4C2"/>
<path fill-rule="evenodd" clip-rule="evenodd" d="M18.4601 12.1763L19.7173 13.12C19.8217 13.1969 19.8617 13.3294 19.8217 13.4522C19.7817 13.5754 19.6682 13.6553 19.5389 13.6553H18.8873V19.7022C18.8873 19.865 18.7551 20 18.5892 20H10.3598C10.1939 20 10.0617 19.865 10.0617 19.7022V13.6553H9.40668C9.28074 13.6553 9.1673 13.5757 9.12418 13.4522C9.08418 13.3294 9.1273 13.1969 9.23168 13.12L14.3192 9.34566C14.4239 9.26566 14.5682 9.26566 14.6761 9.34566L16.1639 10.4613V10.2275C16.1639 10.0616 16.2992 9.9291 16.462 9.9291H18.162C18.3279 9.9291 18.4601 10.0616 18.4601 10.2275V12.1763ZM17.8636 10.5263H16.7598V10.9069L17.8636 11.731V10.5263ZM13.2614 16.0163V19.4038H15.687V16.0163H13.2614ZM16.2832 19.4038H18.2907V13.6553H14.4742H10.6576V19.4038H12.6651V15.7179C12.6651 15.555 12.7973 15.42 12.9632 15.42H15.9851C16.1511 15.42 16.2832 15.555 16.2832 15.7179V19.4038ZM14.4942 9.95723L10.3104 13.0622H18.6442L14.4942 9.95723Z" fill="#009ED4"/>
<path d="M17.8635 10.5262V11.7309L16.7598 10.9069V10.5262H17.8635Z" fill="#E0E1E0"/>
<path d="M18.6443 13.0622H10.3105L14.4943 9.95715L18.6443 13.0622Z" fill="#EAEAEA"/>
<path d="M15.6873 16.0162H13.2617V19.4037H15.6873V16.0162Z" fill="#F39200"/>
<path d="M11.3135 1.44593H14.7647C14.8975 1.44655 16.061 1.49062 16.061 2.68812H16.0641C16.0288 2.95968 16.0244 3.64562 16.0507 5.56655L15.296 4.8078C15.1797 4.69124 14.9907 4.69062 14.8744 4.80655C14.7575 4.92312 14.7569 5.11187 14.8732 5.22843L16.1479 6.5103C16.1479 6.5103 16.1485 6.5103 16.1488 6.51093C16.2029 6.56468 16.2769 6.59811 16.3591 6.59811C16.3604 6.59811 16.3613 6.59811 16.3622 6.59811C16.3629 6.59811 16.3632 6.59811 16.3638 6.59811C16.3835 6.59749 16.4007 6.58968 16.4194 6.58593C16.4391 6.58155 16.46 6.58093 16.4785 6.57249C16.5147 6.55718 16.5469 6.53405 16.5738 6.50655C16.5741 6.50593 16.5747 6.50593 16.575 6.5053L17.7966 5.22405C17.91 5.10436 17.906 4.91593 17.7866 4.80218C17.6679 4.68937 17.4791 4.6928 17.365 4.81187L16.6475 5.56499C16.6335 4.38811 16.625 2.99062 16.6469 2.7653C16.6535 2.7403 16.6572 2.71405 16.6572 2.6878C16.6572 1.23343 15.42 0.849365 14.7657 0.849365H11.3135C11.1491 0.849365 11.0157 0.98249 11.0157 1.14718C11.0157 1.31187 11.1491 1.44593 11.3135 1.44593ZM7.73817 16.2187H4.28723C4.15411 16.2175 2.99067 16.1741 2.99067 14.9766H2.98754C3.02317 14.7044 3.02723 14.0184 3.00129 12.0975L3.75598 12.8562C3.87192 12.9728 4.06098 12.9734 4.17754 12.8575C4.29442 12.7416 4.29504 12.5522 4.17879 12.4356L2.90411 11.1544C2.84786 11.0981 2.77192 11.0666 2.69254 11.0666C2.69161 11.0666 2.69036 11.0666 2.68942 11.0666H2.68817C2.66848 11.0666 2.65161 11.0744 2.63286 11.0781C2.61286 11.0825 2.59161 11.0831 2.57317 11.0916C2.53723 11.1075 2.50504 11.13 2.47786 11.1581C2.47786 11.1581 2.47723 11.1581 2.47692 11.1587L1.25536 12.44C1.14161 12.5597 1.14598 12.7481 1.26536 12.8619C1.32286 12.9169 1.39692 12.9444 1.47098 12.9444C1.54942 12.9444 1.62817 12.9131 1.68629 12.8522L2.40411 12.0997C2.41786 13.2766 2.42661 14.6741 2.40473 14.8987C2.39786 14.9237 2.39442 14.95 2.39442 14.9769C2.39442 16.4306 3.63161 16.8147 4.28598 16.8147H7.73817C7.90286 16.8147 8.03629 16.6816 8.03629 16.5169C8.03629 16.3522 7.90286 16.2187 7.73817 16.2187Z" fill="#7E7E7D"/>
</g>
<defs>
<clipPath id="clip0_197_545">
<rect width="20" height="20" fill="white"/>
</clipPath>
</defs>
</svg>
