<svg width="28" height="34" viewBox="0 0 28 34" fill="none" xmlns="http://www.w3.org/2000/svg">
<path d="M14 16.0884C12.409 16.0886 10.8536 15.617 9.53059 14.7332C8.20759 13.8494 7.17637 12.5932 6.56736 11.1233C5.95834 9.65346 5.79889 8.03601 6.10915 6.47552C6.41941 4.91503 7.18546 3.48159 8.31042 2.35648C9.43537 1.23137 10.8687 0.465126 12.4292 0.154651C13.9896 -0.155825 15.6071 0.00341307 17.077 0.612226C18.547 1.22104 19.8034 2.25208 20.6873 3.57497C21.5713 4.89785 22.0431 6.45315 22.0431 8.04419C22.0411 10.1768 21.193 12.2215 19.6851 13.7297C18.1772 15.2378 16.1326 16.0861 14 16.0884ZM14 2.31981C12.8675 2.31959 11.7604 2.65523 10.8187 3.28427C9.87696 3.91331 9.14294 4.80749 8.70946 5.85373C8.27598 6.89997 8.1625 8.05127 8.38339 9.162C8.60427 10.2727 9.14959 11.293 9.95038 12.0938C10.7512 12.8946 11.7714 13.4399 12.8822 13.6608C13.9929 13.8817 15.1442 13.7682 16.1905 13.3347C17.2367 12.9012 18.1309 12.1672 18.7599 11.2255C19.389 10.2838 19.7246 9.17668 19.7244 8.04419C19.7226 6.52652 19.119 5.07152 18.0458 3.99837C16.9727 2.92521 15.5177 2.32155 14 2.31981ZM26.8406 33.3164H1.15935L0 32.157C-2.73959e-08 30.3185 0.362121 28.498 1.06569 26.7994C1.76925 25.1009 2.80048 23.5575 4.1005 22.2575C5.40052 20.9575 6.94387 19.9263 8.64243 19.2227C10.341 18.5191 12.1615 18.157 14 18.157C15.8385 18.157 17.659 18.5191 19.3576 19.2227C21.0561 19.9263 22.5995 20.9575 23.8995 22.2575C25.1995 23.5575 26.2307 25.1009 26.9343 26.7994C27.6379 28.498 28 30.3185 28 32.157L26.8406 33.3164ZM2.37355 30.9977H25.6264C25.3429 28.1109 23.9956 25.4328 21.8466 23.4845C19.6976 21.5362 16.9007 20.4571 14 20.4571C11.0993 20.4571 8.30238 21.5362 6.15339 23.4845C4.0044 25.4328 2.65707 28.1109 2.37355 30.9977Z" fill="white"/>
</svg>
