<svg width="20" height="20" viewBox="0 0 20 20" fill="none" xmlns="http://www.w3.org/2000/svg">
<g clip-path="url(#clip0_197_554)">
<path d="M7.10944 5.57979C7.73361 2.84145 10.1863 0.79541 13.113 0.79541C16.5113 0.79541 19.2705 3.55437 19.2705 6.95291C19.2705 9.62895 17.5597 11.9085 15.173 12.7569C15.0105 12.8146 14.9255 12.9933 14.9832 13.1558C15.0411 13.3183 15.2199 13.4035 15.3824 13.3456C18.0111 12.4115 19.8955 9.90041 19.8955 6.95291C19.8955 3.20937 16.8563 0.17041 13.113 0.17041C9.88924 0.17041 7.18778 2.42458 6.50007 5.44083C6.46174 5.60916 6.56694 5.77666 6.73528 5.81499C6.9034 5.85333 7.07111 5.74791 7.10944 5.57979Z" fill="#F39200"/>
<path fill-rule="evenodd" clip-rule="evenodd" d="M11.606 17.9632L15.6639 19.8019C15.7853 19.8569 15.9284 19.8288 16.0199 19.7319C16.1116 19.635 16.1316 19.4907 16.0699 19.3725L13.8243 15.0738C14.1795 14.2265 14.3759 13.2961 14.3759 12.32C14.3759 8.3817 11.1785 5.1842 7.24012 5.1842C3.30199 5.1842 0.104492 8.3817 0.104492 12.32C0.104492 16.2584 3.30199 19.4557 7.24012 19.4557C8.88408 19.4557 10.3989 18.8986 11.606 17.9632ZM11.6897 17.3148C11.5814 17.2659 11.4547 17.2825 11.3626 17.3577C10.2397 18.2782 8.80387 18.8307 7.24012 18.8307C3.64678 18.8307 0.729492 15.9134 0.729492 12.32C0.729492 8.7267 3.64678 5.8092 7.24012 5.8092C10.8337 5.8092 13.7509 8.7267 13.7509 12.32C13.7509 13.2596 13.5516 14.153 13.1928 14.9596C13.1541 15.0467 13.1572 15.1467 13.2014 15.2313L15.0962 18.8584L11.6897 17.3148Z" fill="#009ED4"/>
</g>
<defs>
<clipPath id="clip0_197_554">
<rect width="20" height="20" fill="white"/>
</clipPath>
</defs>
</svg>
