<svg width="25" height="24" viewBox="0 0 25 24" fill="none" xmlns="http://www.w3.org/2000/svg">
<g clip-path="url(#clip0_1015_11286)">
<path d="M15.4016 1.36011H4.76167C3.69768 1.36011 2.82715 2.23064 2.82715 3.29463V15.869C2.82715 16.401 3.26242 16.8363 3.79441 16.8363C4.3264 16.8363 4.76167 16.401 4.76167 15.869V4.26189C4.76167 3.7299 5.19694 3.29463 5.72893 3.29463H15.4016C15.9335 3.29463 16.3688 2.85936 16.3688 2.32737C16.3688 1.79538 15.9335 1.36011 15.4016 1.36011ZM15.9722 5.79984L20.6441 10.4717C21.002 10.8296 21.2051 11.3229 21.2051 11.8356V20.7053C21.2051 21.7693 20.3346 22.6399 19.2706 22.6399H8.62105C7.55706 22.6399 6.6962 21.7693 6.6962 20.7053L6.70587 7.16368C6.70587 6.09969 7.56673 5.22916 8.63072 5.22916H14.5987C15.1114 5.22916 15.6047 5.43228 15.9722 5.79984ZM15.4016 12H19.7542L14.4343 6.68005V11.0327C14.4343 11.5647 14.8696 12 15.4016 12Z" fill="white"/>
</g>
<defs>
<clipPath id="clip0_1015_11286">
<rect width="23.2143" height="23.2143" fill="white" transform="translate(0.892578 0.392822)"/>
</clipPath>
</defs>
</svg>
