<svg width="18" height="18" viewBox="0 0 18 18" fill="none" xmlns="http://www.w3.org/2000/svg">
<path d="M15.3748 10.4166C15.187 10.4166 15.0068 10.4913 14.874 10.6241C14.7411 10.7569 14.6665 10.9371 14.6665 11.125V13.9583C14.6665 14.1462 14.5919 14.3263 14.459 14.4592C14.3262 14.592 14.146 14.6666 13.9582 14.6666H4.0415C3.85364 14.6666 3.67347 14.592 3.54064 14.4592C3.4078 14.3263 3.33317 14.1462 3.33317 13.9583V11.125C3.33317 10.9371 3.25854 10.7569 3.1257 10.6241C2.99287 10.4913 2.8127 10.4166 2.62484 10.4166C2.43698 10.4166 2.25681 10.4913 2.12397 10.6241C1.99113 10.7569 1.9165 10.9371 1.9165 11.125V13.9583C1.9165 14.5219 2.14039 15.0624 2.5389 15.4609C2.93742 15.8594 3.47792 16.0833 4.0415 16.0833H13.9582C14.5218 16.0833 15.0623 15.8594 15.4608 15.4609C15.8593 15.0624 16.0832 14.5219 16.0832 13.9583V11.125C16.0832 10.9371 16.0085 10.7569 15.8757 10.6241C15.7429 10.4913 15.5627 10.4166 15.3748 10.4166ZM8.49692 11.6279C8.56429 11.6924 8.64372 11.7429 8.73067 11.7766C8.81546 11.8141 8.90714 11.8335 8.99984 11.8335C9.09254 11.8335 9.18422 11.8141 9.269 11.7766C9.35595 11.7429 9.43539 11.6924 9.50275 11.6279L12.3361 8.79454C12.4695 8.66116 12.5444 8.48026 12.5444 8.29163C12.5444 8.103 12.4695 7.92209 12.3361 7.78871C12.2027 7.65533 12.0218 7.58039 11.8332 7.58039C11.6445 7.58039 11.4636 7.65533 11.3303 7.78871L9.70817 9.41788V2.62496C9.70817 2.4371 9.63354 2.25693 9.5007 2.12409C9.36787 1.99125 9.1877 1.91663 8.99984 1.91663C8.81198 1.91663 8.63181 1.99125 8.49897 2.12409C8.36613 2.25693 8.2915 2.4371 8.2915 2.62496V9.41788L6.66942 7.78871C6.60338 7.72267 6.52497 7.67028 6.43868 7.63453C6.35239 7.59879 6.2599 7.58039 6.1665 7.58039C6.0731 7.58039 5.98062 7.59879 5.89433 7.63453C5.80804 7.67028 5.72963 7.72267 5.66359 7.78871C5.59754 7.85475 5.54515 7.93316 5.50941 8.01945C5.47367 8.10574 5.45527 8.19823 5.45527 8.29163C5.45527 8.38503 5.47367 8.47751 5.50941 8.5638C5.54515 8.65009 5.59754 8.7285 5.66359 8.79454L8.49692 11.6279Z" fill="#00B3B5"/>
</svg>
