<svg width="32" height="32" viewBox="0 0 32 32" fill="none" xmlns="http://www.w3.org/2000/svg">
<rect x="0.5" y="0.5" width="31" height="31" rx="15.5" fill="white"/>
<rect x="0.5" y="0.5" width="31" height="31" rx="15.5" stroke="black"/>
<path d="M20.8772 12.16C20.6812 12.16 20.4933 12.2379 20.3547 12.3765C20.2161 12.5151 20.1382 12.7031 20.1382 12.8991V19.107C20.1382 19.3031 20.2161 19.491 20.3547 19.6296C20.4933 19.7682 20.6812 19.8461 20.8772 19.8461C21.0732 19.8461 21.2612 19.7682 21.3998 19.6296C21.5384 19.491 21.6163 19.3031 21.6163 19.107V12.8991C21.6163 12.7031 21.5384 12.5151 21.3998 12.3765C21.2612 12.2379 21.0732 12.16 20.8772 12.16ZM22.7988 13.3425C22.6421 13.343 22.492 13.4054 22.3812 13.5162C22.2704 13.627 22.208 13.7771 22.2075 13.9337V18.0724C22.2075 18.2292 22.2698 18.3796 22.3807 18.4905C22.4916 18.6013 22.642 18.6636 22.7988 18.6636C22.9556 18.6636 23.1059 18.6013 23.2168 18.4905C23.3277 18.3796 23.39 18.2292 23.39 18.0724V13.9337C23.3894 13.7771 23.327 13.627 23.2162 13.5163C23.1055 13.4055 22.9554 13.3431 22.7988 13.3425ZM11.1219 12.16C10.9259 12.16 10.7379 12.2379 10.5993 12.3765C10.4607 12.5151 10.3828 12.7031 10.3828 12.8991V19.107C10.3828 19.3031 10.4607 19.491 10.5993 19.6296C10.7379 19.7682 10.9259 19.8461 11.1219 19.8461C11.3179 19.8461 11.5058 19.7682 11.6444 19.6296C11.783 19.491 11.8609 19.3031 11.8609 19.107V12.8991C11.8609 12.7031 11.783 12.5151 11.6444 12.3765C11.5058 12.2379 11.3179 12.16 11.1219 12.16Z" fill="black"/>
<path d="M19.547 15.412H12.4521V16.5945H19.547V15.412Z" fill="black"/>
<path d="M9.19963 13.3423C9.04283 13.3423 8.89245 13.4046 8.78157 13.5155C8.67069 13.6263 8.6084 13.7767 8.6084 13.9335V18.0722C8.6084 18.229 8.67069 18.3794 8.78157 18.4902C8.89245 18.6011 9.04283 18.6634 9.19963 18.6634C9.35644 18.6634 9.50682 18.6011 9.6177 18.4902C9.72858 18.3794 9.79087 18.229 9.79087 18.0722V13.9335C9.7904 13.7769 9.72796 13.6267 9.61718 13.516C9.50641 13.4052 9.3563 13.3428 9.19963 13.3423Z" fill="black"/>
<path d="M8.01799 15.1171H7.42676V16.8908H8.01799V15.1171Z" fill="black"/>
<path d="M24.5717 15.1156H23.9805V16.8893H24.5717V15.1156Z" fill="black"/>
</svg>
