<svg width="18" height="20" viewBox="0 0 18 20" fill="none" xmlns="http://www.w3.org/2000/svg">
<path d="M11.38 5.84996C11.38 5.98257 11.3352 6.10975 11.2555 6.20351C11.1758 6.29728 11.0677 6.34996 10.955 6.34996H8.20946C8.09674 6.34996 7.98864 6.29728 7.90894 6.20351C7.82924 6.10975 7.78446 5.98257 7.78446 5.84996C7.78446 5.71735 7.82924 5.59018 7.90894 5.49641C7.98864 5.40264 8.09674 5.34996 8.20946 5.34996H10.955C11.0677 5.34996 11.1758 5.40264 11.2555 5.49641C11.3352 5.59018 11.38 5.71735 11.38 5.84996ZM6.72026 5.34996H6.28251C6.16979 5.34996 6.06169 5.40264 5.98199 5.49641C5.90229 5.59018 5.85751 5.71735 5.85751 5.84996C5.85751 5.98257 5.90229 6.10975 5.98199 6.20351C6.06169 6.29728 6.16979 6.34996 6.28251 6.34996H6.72026C6.83298 6.34996 6.94108 6.29728 7.02078 6.20351C7.10048 6.10975 7.14526 5.98257 7.14526 5.84996C7.14526 5.71735 7.10048 5.59018 7.02078 5.49641C6.94108 5.40264 6.83298 5.34996 6.72026 5.34996ZM10.955 7.34996H8.20946C8.09674 7.34996 7.98864 7.40264 7.90894 7.49641C7.82924 7.59018 7.78446 7.71735 7.78446 7.84996C7.78446 7.98257 7.82924 8.10975 7.90894 8.20351C7.98864 8.29728 8.09674 8.34996 8.20946 8.34996H10.955C11.0677 8.34996 11.1758 8.29728 11.2555 8.20351C11.3352 8.10975 11.38 7.98257 11.38 7.84996C11.38 7.71735 11.3352 7.59018 11.2555 7.49641C11.1758 7.40264 11.0677 7.34996 10.955 7.34996ZM6.72026 7.34996H6.28251C6.16979 7.34996 6.06169 7.40264 5.98199 7.49641C5.90229 7.59018 5.85751 7.71735 5.85751 7.84996C5.85751 7.98257 5.90229 8.10975 5.98199 8.20351C6.06169 8.29728 6.16979 8.34996 6.28251 8.34996H6.72026C6.83298 8.34996 6.94108 8.29728 7.02078 8.20351C7.10048 8.10975 7.14526 7.98257 7.14526 7.84996C7.14526 7.71735 7.10048 7.59018 7.02078 7.49641C6.94108 7.40264 6.83298 7.34996 6.72026 7.34996ZM10.955 9.34996H8.20946C8.09674 9.34996 7.98864 9.40264 7.90894 9.49641C7.82924 9.59018 7.78446 9.71735 7.78446 9.84996C7.78446 9.98257 7.82924 10.1097 7.90894 10.2035C7.98864 10.2973 8.09674 10.35 8.20946 10.35H10.955C11.0677 10.35 11.1758 10.2973 11.2555 10.2035C11.3352 10.1097 11.38 9.98257 11.38 9.84996C11.38 9.71735 11.3352 9.59018 11.2555 9.49641C11.1758 9.40264 11.0677 9.34996 10.955 9.34996ZM6.72026 9.34996H6.28251C6.16979 9.34996 6.06169 9.40264 5.98199 9.49641C5.90229 9.59018 5.85751 9.71735 5.85751 9.84996C5.85751 9.98257 5.90229 10.1097 5.98199 10.2035C6.06169 10.2973 6.16979 10.35 6.28251 10.35H6.72026C6.83298 10.35 6.94108 10.2973 7.02078 10.2035C7.10048 10.1097 7.14526 9.98257 7.14526 9.84996C7.14526 9.71735 7.10048 9.59018 7.02078 9.49641C6.94108 9.40264 6.83298 9.34996 6.72026 9.34996ZM14.2266 14.309C14.2264 14.874 14.0839 15.4263 13.8169 15.8961C13.5499 16.3658 13.1705 16.7318 12.7267 16.9479C12.2829 17.1639 11.7946 17.2203 11.3236 17.1099C10.8525 16.9994 10.4199 16.7272 10.0804 16.3275C9.74088 15.9278 9.50974 15.4186 9.41621 14.8644C9.32267 14.3101 9.37093 13.7357 9.55489 13.2137C9.73885 12.6917 10.0502 12.2457 10.4497 11.9319C10.8491 11.6181 11.3187 11.4508 11.799 11.451C12.4429 11.452 13.0601 11.7535 13.5152 12.2893C13.9703 12.8251 14.2262 13.5515 14.2266 14.309ZM13.3766 14.309C13.3766 13.9416 13.284 13.5826 13.1105 13.2772C12.9371 12.9718 12.6905 12.7337 12.402 12.5932C12.1135 12.4527 11.7961 12.416 11.4899 12.4877C11.1837 12.5594 10.9024 12.7364 10.6817 12.9962C10.461 13.256 10.3107 13.587 10.2499 13.9473C10.1891 14.3076 10.2205 14.681 10.3401 15.0203C10.4597 15.3596 10.6622 15.6496 10.9218 15.8535C11.1815 16.0574 11.4868 16.1662 11.799 16.166C12.2174 16.1652 12.6184 15.9692 12.9141 15.6211C13.2098 15.273 13.3762 14.8011 13.3766 14.309ZM8.21796 12.745H5.04746C4.93474 12.745 4.82664 12.6923 4.74694 12.5985C4.66724 12.5047 4.62246 12.3776 4.62246 12.245V4.33496C4.62246 4.20235 4.66724 4.07518 4.74694 3.98141C4.82664 3.88764 4.93474 3.83496 5.04746 3.83496H12.2045C12.3172 3.83496 12.4253 3.88764 12.505 3.98141C12.5847 4.07518 12.6295 4.20235 12.6295 4.33496V10.225C12.6295 10.3576 12.6742 10.4847 12.7539 10.5785C12.8336 10.6723 12.9417 10.725 13.0545 10.725C13.1672 10.725 13.2753 10.6723 13.355 10.5785C13.4347 10.4847 13.4795 10.3576 13.4795 10.225V4.33496C13.479 3.9373 13.3445 3.55608 13.1055 3.27489C12.8665 2.9937 12.5425 2.83549 12.2045 2.83496H5.04746C4.70945 2.83549 4.38541 2.9937 4.1464 3.27489C3.90739 3.55608 3.77291 3.9373 3.77246 4.33496V12.245C3.77291 12.6426 3.90739 13.0238 4.1464 13.305C4.38541 13.5862 4.70945 13.7444 5.04746 13.745H8.21796C8.33068 13.745 8.43878 13.6923 8.51848 13.5985C8.59818 13.5047 8.64296 13.3776 8.64296 13.245C8.64296 13.1124 8.59818 12.9852 8.51848 12.8914C8.43878 12.7976 8.33068 12.745 8.21796 12.745ZM11.799 12.745C11.6863 12.745 11.5782 12.7976 11.4985 12.8914C11.4188 12.9852 11.374 13.1124 11.374 13.245V13.809H11.1488C11.036 13.809 10.9279 13.8616 10.8482 13.9554C10.7685 14.0492 10.7238 14.1764 10.7238 14.309C10.7238 14.4416 10.7685 14.5687 10.8482 14.6625C10.9279 14.7563 11.036 14.809 11.1488 14.809H11.799C11.9117 14.809 12.0198 14.7563 12.0995 14.6625C12.1792 14.5687 12.224 14.4416 12.224 14.309V13.245C12.224 13.1124 12.1792 12.9852 12.0995 12.8914C12.0198 12.7976 11.9117 12.745 11.799 12.745Z" fill="black"/>
</svg>
