<svg width="23" height="24" viewBox="0 0 23 24" fill="none" xmlns="http://www.w3.org/2000/svg">
<g clip-path="url(#clip0_1015_11263)">
<path d="M8.53194 10.058C7.69712 10.058 6.86007 10.058 6.02524 10.058C4.82435 10.058 3.62346 10.058 2.4248 10.058C2.29756 10.058 2.17033 10.058 2.04533 10.058C2.02748 10.058 2.01185 10.058 1.99399 10.058C1.98283 10.058 1.9739 10.058 1.96274 10.058C1.9114 10.0536 1.92033 10.0558 1.98953 10.0647C1.98506 10.0692 1.9248 10.0513 1.91587 10.0491C1.90694 10.0469 1.84444 10.0335 1.84444 10.0268C1.8623 10.0335 1.88015 10.0424 1.89578 10.0491C1.87792 10.0402 1.86006 10.0312 1.84444 10.0223C1.83551 10.0179 1.77078 9.98438 1.77078 9.97545C1.7864 9.98661 1.7998 9.99777 1.81542 10.0089C1.7998 9.99554 1.7864 9.98214 1.77301 9.96875C1.77524 9.97098 1.73283 9.92857 1.73283 9.92634C1.77078 9.97991 1.77748 9.98661 1.74846 9.94643C1.7373 9.9308 1.72614 9.91295 1.71721 9.89732C1.71274 9.88839 1.70828 9.87946 1.70381 9.87054C1.68373 9.82589 1.68596 9.83482 1.71274 9.89732C1.70605 9.89732 1.68819 9.8192 1.68596 9.8125C1.68596 9.81696 1.67033 9.75446 1.6748 9.75223C1.67703 9.77232 1.68149 9.79018 1.68373 9.81027C1.68149 9.79018 1.68149 9.76786 1.68149 9.74777C1.68149 9.7433 1.68149 9.73884 1.68149 9.73438C1.68149 9.70089 1.68149 9.66518 1.68149 9.6317C1.68149 9.47098 1.68149 9.3125 1.68149 9.15179C1.68149 7.91741 1.68149 6.6808 1.68149 5.44643C1.68149 4.89509 1.68149 4.34375 1.68149 3.79241C1.68149 3.63616 1.68149 3.47991 1.68149 3.32366C1.68149 3.29018 1.68149 3.25446 1.68149 3.22098C1.68149 3.21652 1.68149 3.21205 1.68149 3.20982C1.68149 3.19866 1.68149 3.18973 1.68149 3.17857C1.68596 3.13839 1.68373 3.13839 1.67926 3.17634C1.67703 3.18527 1.67703 3.19643 1.6748 3.20536C1.67703 3.18527 1.68149 3.16518 1.68596 3.14509C1.68819 3.13616 1.70605 3.06027 1.71274 3.06027C1.68596 3.12054 1.68373 3.12946 1.70381 3.08705C1.71274 3.0692 1.72167 3.05357 1.73283 3.03571C1.7373 3.02679 1.74399 3.02009 1.74846 3.01116C1.77078 2.97991 1.77078 2.97991 1.74846 3.00893C1.74176 3.01562 1.7373 3.02455 1.7306 3.03125C1.74399 3.01562 1.75739 3.00223 1.77078 2.98884C1.77748 2.98214 1.78417 2.97545 1.79087 2.96875C1.82658 2.9375 1.81989 2.94196 1.76855 2.98214C1.76855 2.97321 1.83328 2.93973 1.84221 2.93527C1.85114 2.9308 1.86006 2.92634 1.86899 2.92188C1.91364 2.90179 1.90471 2.90402 1.84221 2.9308C1.8556 2.9308 1.88239 2.91741 1.89801 2.91295C1.90694 2.91071 1.98283 2.88616 1.9873 2.89286C1.9181 2.90179 1.90917 2.90402 1.96051 2.89955C1.97167 2.89955 1.9806 2.89955 1.99176 2.89955C2.00962 2.89955 2.02971 2.89955 2.04756 2.89955C2.17703 2.89955 2.30649 2.89955 2.43596 2.89955C2.96498 2.89955 3.49176 2.89955 4.02078 2.89955C5.27971 2.89955 6.5364 2.89955 7.79533 2.89955C8.04087 2.89955 8.28864 2.89509 8.53417 2.89955C8.54533 2.89955 8.55426 2.89955 8.56542 2.89955C8.61676 2.90402 8.60783 2.90179 8.53864 2.89286C8.5431 2.88616 8.61899 2.91071 8.62792 2.91295C8.63685 2.91518 8.64801 2.91964 8.65694 2.92188C8.70158 2.93973 8.69489 2.93527 8.63239 2.91071C8.63685 2.90625 8.69042 2.94196 8.69712 2.9442C8.70605 2.94866 8.75739 2.97545 8.75739 2.98438C8.74176 2.97321 8.72837 2.96205 8.71274 2.95089C8.72837 2.96429 8.74176 2.97768 8.75515 2.99107C8.76185 2.99777 8.76855 3.00446 8.77524 3.01116C8.80649 3.04688 8.80203 3.04018 8.76185 2.98884C8.77748 2.98884 8.81542 3.07589 8.82435 3.08929C8.8623 3.14955 8.80649 3.0625 8.81542 3.0625C8.82212 3.0625 8.83998 3.14063 8.84221 3.14732C8.84444 3.15625 8.84667 3.16741 8.8489 3.17634C8.85783 3.22545 8.8556 3.21652 8.84667 3.14732C8.8489 3.14732 8.8489 3.20982 8.8489 3.20982C8.8489 3.21429 8.8489 3.22098 8.8489 3.22545C8.8489 3.32589 8.8489 3.42857 8.8489 3.52902C8.8489 4.68973 8.8489 5.85045 8.8489 7.01116C8.8489 7.91964 8.86007 8.82813 8.8489 9.73661C8.8489 9.74107 8.8489 9.74554 8.8489 9.74777C8.8489 9.75893 8.8489 9.76786 8.8489 9.77902C8.84444 9.83036 8.84667 9.82143 8.8556 9.75223C8.8623 9.7567 8.83774 9.83259 8.83551 9.84152C8.83328 9.85268 8.79533 9.93973 8.82658 9.87277C8.85783 9.80357 8.81542 9.89062 8.81096 9.89955C8.80649 9.90848 8.77301 9.97321 8.76408 9.97321C8.77524 9.95759 8.7864 9.9442 8.79756 9.92857C8.78417 9.9442 8.77078 9.95759 8.75739 9.97098C8.75069 9.97768 8.74399 9.98438 8.7373 9.99107C8.70158 10.0223 8.70828 10.0179 8.75962 9.97768C8.75962 9.98214 8.71944 10.0067 8.71051 10.0112C8.70381 10.0156 8.63685 10.058 8.63239 10.0536C8.65024 10.0469 8.6681 10.0379 8.68373 10.0312C8.66587 10.0379 8.64578 10.0446 8.62792 10.0491C8.61899 10.0513 8.5431 10.0759 8.53864 10.0692C8.55873 10.067 8.57658 10.0625 8.59667 10.0603C8.57435 10.058 8.55426 10.058 8.53194 10.058C8.29756 10.0625 8.07435 10.2589 8.08551 10.5045C8.09667 10.7433 8.28194 10.9554 8.53194 10.9509C9.19712 10.9375 9.72614 10.4107 9.7373 9.74554C9.73953 9.66964 9.7373 9.59598 9.7373 9.52009C9.7373 9.04688 9.7373 8.57589 9.7373 8.10268C9.7373 6.78795 9.7373 5.47545 9.7373 4.16071C9.7373 3.84598 9.74176 3.53125 9.7373 3.21652C9.7306 2.69196 9.4114 2.24107 8.9181 2.06473C8.74846 2.00446 8.56989 2 8.39355 2C7.29756 2 6.20158 2 5.1056 2C4.08551 2 3.06319 2 2.0431 2C1.68819 2 1.33774 2.12277 1.0989 2.39509C0.880154 2.64286 0.786404 2.9442 0.786404 3.27009C0.786404 3.65179 0.786404 4.03348 0.786404 4.41518C0.786404 5.73884 0.786404 7.0625 0.786404 8.38616C0.786404 8.80134 0.786404 9.21652 0.786404 9.6317C0.786404 9.86161 0.815422 10.0804 0.918101 10.2902C1.11899 10.7031 1.55873 10.9442 2.00962 10.9487C2.9739 10.9554 3.94042 10.9487 4.90471 10.9487C6.04756 10.9487 7.19042 10.9487 8.33105 10.9487C8.39801 10.9487 8.46498 10.9487 8.52971 10.9487C8.76408 10.9487 8.9873 10.7433 8.97614 10.5022C8.96721 10.2634 8.78194 10.058 8.53194 10.058ZM8.53194 12.9375C7.66364 12.9375 6.79533 12.9375 5.92703 12.9375C4.72614 12.9375 3.52524 12.9375 2.32435 12.9375C2.21944 12.9375 2.11453 12.9375 2.00962 12.9375C1.49176 12.942 1.0498 13.25 0.862297 13.7277C0.741761 14.0379 0.786404 14.4375 0.786404 14.7656C0.786404 16.0335 0.786404 17.3013 0.786404 18.5714C0.786404 19.1183 0.786404 19.6674 0.786404 20.2143C0.786404 20.3527 0.786404 20.4888 0.786404 20.6272C0.786404 20.9665 0.895779 21.2924 1.13908 21.5357C1.38462 21.7812 1.71051 21.8884 2.05203 21.8884C2.18819 21.8884 2.32435 21.8884 2.45828 21.8884C3.00515 21.8884 3.55426 21.8884 4.10114 21.8884C5.37346 21.8884 6.64801 21.8884 7.92033 21.8884C8.29756 21.8884 8.69935 21.9286 9.05203 21.7679C9.47837 21.5737 9.73283 21.1272 9.7373 20.6674C9.7373 20.5625 9.7373 20.4576 9.7373 20.3527C9.7373 19.1518 9.7373 17.9509 9.7373 16.75C9.7373 15.8817 9.75292 15.0134 9.7373 14.1451C9.72614 13.4777 9.19712 12.9509 8.53194 12.9375C8.29756 12.933 8.07435 13.1473 8.08551 13.3839C8.09667 13.6295 8.28194 13.8259 8.53194 13.8304C8.5431 13.8304 8.55203 13.8304 8.56319 13.8304C8.61453 13.8348 8.6056 13.8326 8.5364 13.8237C8.54087 13.817 8.61676 13.8415 8.62569 13.8438C8.63462 13.846 8.64578 13.8504 8.65471 13.8527C8.69935 13.8705 8.69265 13.8661 8.63015 13.8415C8.63462 13.8371 8.68819 13.8728 8.69489 13.875C8.70381 13.8795 8.75515 13.9062 8.75515 13.9152C8.73953 13.904 8.72614 13.8929 8.71051 13.8817C8.72614 13.8951 8.73953 13.9085 8.75292 13.9219C8.75962 13.9286 8.76631 13.9353 8.77301 13.942C8.80426 13.9777 8.7998 13.971 8.75962 13.9196C8.77524 13.9196 8.81319 14.0067 8.82212 14.0201C8.86006 14.0804 8.80426 13.9933 8.81319 13.9933C8.81989 13.9933 8.83774 14.0714 8.83998 14.0781C8.84221 14.0871 8.84444 14.0982 8.84667 14.1071C8.8556 14.1563 8.85337 14.1473 8.84444 14.0781C8.84667 14.0781 8.84667 14.1406 8.84667 14.1406C8.84667 14.1451 8.84667 14.1518 8.84667 14.1562C8.84667 14.2567 8.84667 14.3594 8.84667 14.4598C8.84667 14.9509 8.84667 15.4397 8.84667 15.9308C8.84667 17.2121 8.84667 18.4911 8.84667 19.7723C8.84667 20.0714 8.85114 20.3683 8.84667 20.6674C8.84667 20.6719 8.84667 20.6763 8.84667 20.6786C8.84667 20.6897 8.84667 20.6987 8.84667 20.7098C8.84221 20.7612 8.84444 20.7522 8.85337 20.683C8.86006 20.6875 8.83551 20.7634 8.83328 20.7723C8.83105 20.7835 8.7931 20.8705 8.82435 20.8036C8.8556 20.7344 8.7998 20.8438 8.7931 20.8549C8.78864 20.8638 8.78194 20.8705 8.77748 20.8795C8.75069 20.9174 8.75515 20.9107 8.7931 20.8594C8.79533 20.8638 8.7373 20.9174 8.73283 20.9219C8.6681 20.9933 8.81542 20.875 8.73283 20.9241C8.71498 20.933 8.69935 20.9442 8.68373 20.9554C8.6748 20.9598 8.66587 20.9643 8.65694 20.9688C8.6123 20.9888 8.62123 20.9866 8.68373 20.9598C8.68373 20.9665 8.6056 20.9844 8.5989 20.9866C8.58998 20.9888 8.57882 20.9911 8.56989 20.9933C8.52078 21.0022 8.52971 21 8.5989 20.9911C8.58998 20.9866 8.5498 20.9933 8.5364 20.9933C8.46498 20.9955 8.39131 20.9933 8.31989 20.9933C7.20605 20.9933 6.08998 20.9933 4.97614 20.9933C3.99846 20.9933 3.02078 20.9933 2.0431 20.9933C2.01631 20.9933 1.98953 20.9933 1.96498 20.9933C1.86006 20.9955 2.06096 21.0179 1.96274 20.9955C1.94265 20.9911 1.92256 20.9866 1.90471 20.9821C1.89578 20.9799 1.88462 20.9754 1.87569 20.9732C1.83105 20.9554 1.83774 20.9598 1.90024 20.9844C1.89578 20.9888 1.82881 20.9464 1.82212 20.942C1.81319 20.9375 1.80649 20.9308 1.79756 20.9263C1.75962 20.8996 1.76631 20.904 1.81765 20.942C1.81319 20.9442 1.75962 20.8862 1.75515 20.8817C1.70381 20.8348 1.77971 20.904 1.76855 20.904C1.75292 20.904 1.71498 20.817 1.70605 20.8036C1.65471 20.721 1.72837 20.8973 1.70605 20.8013C1.69935 20.7723 1.69042 20.7433 1.68373 20.7143C1.66364 20.6451 1.69489 20.7455 1.68596 20.7433C1.68373 20.7433 1.68373 20.6808 1.68373 20.6808C1.68373 20.6763 1.68373 20.6696 1.68373 20.6652C1.68373 20.6295 1.68373 20.5938 1.68373 20.558C1.68373 20.1473 1.68373 19.7366 1.68373 19.3259C1.68373 18.0312 1.68373 16.7388 1.68373 15.4442C1.68373 15.0469 1.68373 14.6496 1.68373 14.2545C1.68373 14.221 1.68373 14.1875 1.68373 14.154C1.68373 14.1406 1.68373 14.125 1.68373 14.1138C1.68149 14.0223 1.68373 14.1451 1.67703 14.1406C1.67033 14.1362 1.69489 14.0603 1.69712 14.0513C1.69935 14.0424 1.70381 14.0312 1.70605 14.0223C1.7239 13.9777 1.71944 13.9844 1.69489 14.0469C1.68819 14.0402 1.74623 13.9554 1.75292 13.9442C1.79756 13.8705 1.73953 13.9688 1.7373 13.9643C1.73506 13.9598 1.7931 13.9063 1.79756 13.9018C1.8623 13.8304 1.71498 13.9487 1.79756 13.8996C1.82212 13.8839 1.8489 13.8705 1.87346 13.8549C1.95605 13.8036 1.77971 13.8772 1.87569 13.8549C1.89578 13.8504 1.91364 13.8438 1.93373 13.8393C1.94265 13.8371 1.95381 13.8348 1.96274 13.8326C2.01185 13.8237 2.00292 13.8259 1.93373 13.8348C1.93373 13.8326 1.99623 13.8326 1.99623 13.8326C2.01631 13.8326 2.0364 13.8326 2.05649 13.8326C3.05203 13.8326 4.04756 13.8326 5.0431 13.8326C6.14355 13.8326 7.24399 13.8326 8.34444 13.8326C8.40917 13.8326 8.47167 13.8326 8.5364 13.8326C8.77078 13.8326 8.99399 13.6272 8.98283 13.3862C8.96721 13.1429 8.78194 12.9375 8.53194 12.9375ZM11.6435 4.86384C11.9672 4.86384 12.2886 4.86384 12.6123 4.86384C13.3824 4.86384 14.1547 4.86384 14.9248 4.86384C15.8601 4.86384 16.7976 4.86384 17.7328 4.86384C18.5386 4.86384 19.3444 4.86384 20.1502 4.86384C20.5431 4.86384 20.936 4.875 21.3288 4.86384C21.3355 4.86384 21.34 4.86384 21.3467 4.86384C21.581 4.86384 21.8043 4.65848 21.7931 4.41741C21.7819 4.17634 21.5967 3.97098 21.3467 3.97098C21.023 3.97098 20.7016 3.97098 20.3779 3.97098C19.6078 3.97098 18.8355 3.97098 18.0654 3.97098C17.1302 3.97098 16.1927 3.97098 15.2574 3.97098C14.4516 3.97098 13.6458 3.97098 12.84 3.97098C12.4471 3.97098 12.0543 3.95982 11.6614 3.97098C11.6547 3.97098 11.6502 3.97098 11.6435 3.97098C11.4092 3.97098 11.186 4.17634 11.1971 4.41741C11.2083 4.65848 11.3935 4.86384 11.6435 4.86384ZM17.84 8.08705C17.1391 8.08705 16.4404 8.08705 15.7395 8.08705C14.6279 8.08705 13.5185 8.08705 12.4069 8.08705C12.1525 8.08705 11.898 8.08705 11.6435 8.08705C11.4092 8.08705 11.186 8.29241 11.1971 8.53348C11.2083 8.77455 11.3935 8.97991 11.6435 8.97991C12.3444 8.97991 13.0431 8.97991 13.744 8.97991C14.8556 8.97991 15.965 8.97991 17.0766 8.97991C17.331 8.97991 17.5855 8.97991 17.84 8.97991C18.0744 8.97991 18.2976 8.77455 18.2864 8.53348C18.2752 8.29241 18.09 8.08705 17.84 8.08705ZM11.6435 15.8013C11.9672 15.8013 12.2886 15.8013 12.6123 15.8013C13.3824 15.8013 14.1547 15.8013 14.9248 15.8013C15.8601 15.8013 16.7976 15.8013 17.7328 15.8013C18.5386 15.8013 19.3444 15.8013 20.1502 15.8013C20.5431 15.8013 20.936 15.8125 21.3288 15.8013C21.3355 15.8013 21.34 15.8013 21.3467 15.8013C21.581 15.8013 21.8043 15.596 21.7931 15.3549C21.7819 15.1138 21.5967 14.9085 21.3467 14.9085C21.023 14.9085 20.7016 14.9085 20.3779 14.9085C19.6078 14.9085 18.8355 14.9085 18.0654 14.9085C17.1302 14.9085 16.1927 14.9085 15.2574 14.9085C14.4516 14.9085 13.6458 14.9085 12.84 14.9085C12.4471 14.9085 12.0543 14.8973 11.6614 14.9085C11.6547 14.9085 11.6502 14.9085 11.6435 14.9085C11.4092 14.9085 11.186 15.1138 11.1971 15.3549C11.2083 15.596 11.3935 15.8013 11.6435 15.8013ZM17.84 19.0246C17.1391 19.0246 16.4404 19.0246 15.7395 19.0246C14.6279 19.0246 13.5185 19.0246 12.4069 19.0246C12.1525 19.0246 11.898 19.0246 11.6435 19.0246C11.4092 19.0246 11.186 19.2299 11.1971 19.471C11.2083 19.7121 11.3935 19.9174 11.6435 19.9174C12.3444 19.9174 13.0431 19.9174 13.744 19.9174C14.8556 19.9174 15.965 19.9174 17.0766 19.9174C17.331 19.9174 17.5855 19.9174 17.84 19.9174C18.0744 19.9174 18.2976 19.7121 18.2864 19.471C18.2752 19.2299 18.09 19.0246 17.84 19.0246Z" fill="white"/>
<path d="M8.53194 10.058C7.69712 10.058 6.86007 10.058 6.02524 10.058C4.82435 10.058 3.62346 10.058 2.4248 10.058C2.29756 10.058 2.17033 10.058 2.04533 10.058C2.02748 10.058 2.01185 10.058 1.99399 10.058C1.98283 10.058 1.9739 10.058 1.96274 10.058C1.9114 10.0536 1.92033 10.0558 1.98953 10.0647C1.98506 10.0692 1.9248 10.0513 1.91587 10.0491C1.90694 10.0469 1.84444 10.0335 1.84444 10.0268C1.8623 10.0335 1.88015 10.0424 1.89578 10.0491C1.87792 10.0402 1.86006 10.0313 1.84444 10.0223C1.83551 10.0179 1.77078 9.98437 1.77078 9.97545C1.7864 9.98661 1.7998 9.99777 1.81542 10.0089C1.7998 9.99554 1.7864 9.98214 1.77301 9.96875C1.77524 9.97098 1.73283 9.92857 1.73283 9.92634C1.77078 9.97991 1.77748 9.98661 1.74846 9.94643C1.7373 9.9308 1.72614 9.91295 1.71721 9.89732C1.71274 9.88839 1.70828 9.87946 1.70381 9.87054C1.68373 9.82589 1.68596 9.83482 1.71274 9.89732C1.70605 9.89732 1.68819 9.8192 1.68596 9.8125C1.68596 9.81696 1.67033 9.75446 1.6748 9.75223C1.67703 9.77232 1.68149 9.79018 1.68373 9.81027C1.68149 9.79018 1.68149 9.76786 1.68149 9.74777C1.68149 9.7433 1.68149 9.73884 1.68149 9.73438C1.68149 9.70089 1.68149 9.66518 1.68149 9.6317C1.68149 9.47098 1.68149 9.3125 1.68149 9.15179C1.68149 7.91741 1.68149 6.6808 1.68149 5.44643C1.68149 4.89509 1.68149 4.34375 1.68149 3.79241C1.68149 3.63616 1.68149 3.47991 1.68149 3.32366C1.68149 3.29018 1.68149 3.25446 1.68149 3.22098C1.68149 3.21652 1.68149 3.21205 1.68149 3.20982C1.68149 3.19866 1.68149 3.18973 1.68149 3.17857C1.68596 3.13839 1.68373 3.13839 1.67926 3.17634C1.67703 3.18527 1.67703 3.19643 1.6748 3.20536C1.67703 3.18527 1.68149 3.16518 1.68596 3.14509C1.68819 3.13616 1.70605 3.06027 1.71274 3.06027C1.68596 3.12054 1.68373 3.12946 1.70381 3.08705C1.71274 3.0692 1.72167 3.05357 1.73283 3.03571C1.7373 3.02679 1.74399 3.02009 1.74846 3.01116C1.77078 2.97991 1.77078 2.97991 1.74846 3.00893C1.74176 3.01562 1.7373 3.02455 1.7306 3.03125C1.74399 3.01562 1.75739 3.00223 1.77078 2.98884C1.77748 2.98214 1.78417 2.97545 1.79087 2.96875C1.82658 2.9375 1.81989 2.94196 1.76855 2.98214C1.76855 2.97321 1.83328 2.93973 1.84221 2.93527C1.85114 2.9308 1.86006 2.92634 1.86899 2.92188C1.91364 2.90179 1.90471 2.90402 1.84221 2.9308C1.8556 2.9308 1.88239 2.91741 1.89801 2.91295C1.90694 2.91071 1.98283 2.88616 1.9873 2.89286C1.9181 2.90179 1.90917 2.90402 1.96051 2.89955C1.97167 2.89955 1.9806 2.89955 1.99176 2.89955C2.00962 2.89955 2.02971 2.89955 2.04756 2.89955C2.17703 2.89955 2.30649 2.89955 2.43596 2.89955C2.96498 2.89955 3.49176 2.89955 4.02078 2.89955C5.27971 2.89955 6.5364 2.89955 7.79533 2.89955C8.04087 2.89955 8.28864 2.89509 8.53417 2.89955C8.54533 2.89955 8.55426 2.89955 8.56542 2.89955C8.61676 2.90402 8.60783 2.90179 8.53864 2.89286C8.5431 2.88616 8.61899 2.91071 8.62792 2.91295C8.63685 2.91518 8.64801 2.91964 8.65694 2.92188C8.70158 2.93973 8.69489 2.93527 8.63239 2.91071C8.63685 2.90625 8.69042 2.94196 8.69712 2.9442C8.70605 2.94866 8.75739 2.97545 8.75739 2.98437C8.74176 2.97321 8.72837 2.96205 8.71274 2.95089C8.72837 2.96429 8.74176 2.97768 8.75515 2.99107C8.76185 2.99777 8.76855 3.00446 8.77524 3.01116C8.80649 3.04688 8.80203 3.04018 8.76185 2.98884C8.77748 2.98884 8.81542 3.07589 8.82435 3.08929C8.8623 3.14955 8.80649 3.0625 8.81542 3.0625C8.82212 3.0625 8.83998 3.14063 8.84221 3.14732C8.84444 3.15625 8.84667 3.16741 8.8489 3.17634C8.85783 3.22545 8.8556 3.21652 8.84667 3.14732C8.8489 3.14732 8.8489 3.20982 8.8489 3.20982C8.8489 3.21429 8.8489 3.22098 8.8489 3.22545C8.8489 3.32589 8.8489 3.42857 8.8489 3.52902C8.8489 4.68973 8.8489 5.85045 8.8489 7.01116C8.8489 7.91964 8.86007 8.82813 8.8489 9.73661C8.8489 9.74107 8.8489 9.74554 8.8489 9.74777C8.8489 9.75893 8.8489 9.76786 8.8489 9.77902C8.84444 9.83036 8.84667 9.82143 8.8556 9.75223C8.8623 9.7567 8.83774 9.83259 8.83551 9.84152C8.83328 9.85268 8.79533 9.93973 8.82658 9.87277C8.85783 9.80357 8.81542 9.89063 8.81096 9.89955C8.80649 9.90848 8.77301 9.97321 8.76408 9.97321C8.77524 9.95759 8.7864 9.9442 8.79756 9.92857C8.78417 9.9442 8.77078 9.95759 8.75739 9.97098C8.75069 9.97768 8.74399 9.98438 8.7373 9.99107C8.70158 10.0223 8.70828 10.0179 8.75962 9.97768C8.75962 9.98214 8.71944 10.0067 8.71051 10.0112C8.70381 10.0156 8.63685 10.058 8.63239 10.0536C8.65024 10.0469 8.6681 10.0379 8.68373 10.0312C8.66587 10.0379 8.64578 10.0446 8.62792 10.0491C8.61899 10.0513 8.5431 10.0759 8.53864 10.0692C8.55873 10.067 8.57658 10.0625 8.59667 10.0603C8.57435 10.058 8.55426 10.058 8.53194 10.058ZM8.53194 10.058C8.29756 10.0625 8.07435 10.2589 8.08551 10.5045C8.09667 10.7433 8.28194 10.9554 8.53194 10.9509C9.19712 10.9375 9.72614 10.4107 9.7373 9.74554C9.73953 9.66964 9.7373 9.59598 9.7373 9.52009C9.7373 9.04688 9.7373 8.57589 9.7373 8.10268C9.7373 6.78795 9.7373 5.47545 9.7373 4.16071C9.7373 3.84598 9.74176 3.53125 9.7373 3.21652C9.7306 2.69196 9.4114 2.24107 8.9181 2.06473C8.74846 2.00446 8.56989 2 8.39355 2C7.29756 2 6.20158 2 5.1056 2C4.08551 2 3.06319 2 2.0431 2C1.68819 2 1.33774 2.12277 1.0989 2.39509C0.880154 2.64286 0.786404 2.9442 0.786404 3.27009C0.786404 3.65179 0.786404 4.03348 0.786404 4.41518C0.786404 5.73884 0.786404 7.0625 0.786404 8.38616C0.786404 8.80134 0.786404 9.21652 0.786404 9.6317C0.786404 9.86161 0.815422 10.0804 0.918101 10.2902C1.11899 10.7031 1.55873 10.9442 2.00962 10.9487C2.9739 10.9554 3.94042 10.9487 4.90471 10.9487C6.04756 10.9487 7.19042 10.9487 8.33105 10.9487C8.39801 10.9487 8.46498 10.9487 8.52971 10.9487C8.76408 10.9487 8.9873 10.7433 8.97614 10.5022C8.96721 10.2634 8.78194 10.058 8.53194 10.058ZM8.53194 12.9375C7.66364 12.9375 6.79533 12.9375 5.92703 12.9375C4.72614 12.9375 3.52524 12.9375 2.32435 12.9375C2.21944 12.9375 2.11453 12.9375 2.00962 12.9375C1.49176 12.942 1.0498 13.25 0.862297 13.7277C0.741761 14.0379 0.786404 14.4375 0.786404 14.7656C0.786404 16.0335 0.786404 17.3013 0.786404 18.5714C0.786404 19.1183 0.786404 19.6674 0.786404 20.2143C0.786404 20.3527 0.786404 20.4888 0.786404 20.6272C0.786404 20.9665 0.895779 21.2924 1.13908 21.5357C1.38462 21.7813 1.71051 21.8884 2.05203 21.8884C2.18819 21.8884 2.32435 21.8884 2.45828 21.8884C3.00515 21.8884 3.55426 21.8884 4.10114 21.8884C5.37346 21.8884 6.64801 21.8884 7.92033 21.8884C8.29757 21.8884 8.69935 21.9286 9.05203 21.7679C9.47837 21.5737 9.73283 21.1272 9.7373 20.6674C9.7373 20.5625 9.7373 20.4576 9.7373 20.3527C9.7373 19.1518 9.7373 17.9509 9.7373 16.75C9.7373 15.8817 9.75292 15.0134 9.7373 14.1451C9.72614 13.4777 9.19712 12.9509 8.53194 12.9375ZM8.53194 12.9375C8.29756 12.933 8.07435 13.1473 8.08551 13.3839C8.09667 13.6295 8.28194 13.8259 8.53194 13.8304C8.5431 13.8304 8.55203 13.8304 8.56319 13.8304C8.61453 13.8348 8.6056 13.8326 8.5364 13.8237C8.54087 13.817 8.61676 13.8415 8.62569 13.8437C8.63462 13.846 8.64578 13.8504 8.65471 13.8527C8.69935 13.8705 8.69265 13.8661 8.63015 13.8415C8.63462 13.8371 8.68819 13.8728 8.69489 13.875C8.70381 13.8795 8.75515 13.9063 8.75515 13.9152C8.73953 13.904 8.72614 13.8929 8.71051 13.8817C8.72614 13.8951 8.73953 13.9085 8.75292 13.9219C8.75962 13.9286 8.76631 13.9353 8.77301 13.942C8.80426 13.9777 8.7998 13.971 8.75962 13.9196C8.77524 13.9196 8.81319 14.0067 8.82212 14.0201C8.86006 14.0804 8.80426 13.9933 8.81319 13.9933C8.81989 13.9933 8.83774 14.0714 8.83998 14.0781C8.84221 14.0871 8.84444 14.0982 8.84667 14.1071C8.8556 14.1563 8.85337 14.1473 8.84444 14.0781C8.84667 14.0781 8.84667 14.1406 8.84667 14.1406C8.84667 14.1451 8.84667 14.1518 8.84667 14.1562C8.84667 14.2567 8.84667 14.3594 8.84667 14.4598C8.84667 14.9509 8.84667 15.4397 8.84667 15.9308C8.84667 17.2121 8.84667 18.4911 8.84667 19.7723C8.84667 20.0714 8.85114 20.3683 8.84667 20.6674C8.84667 20.6719 8.84667 20.6763 8.84667 20.6786C8.84667 20.6897 8.84667 20.6987 8.84667 20.7098C8.84221 20.7612 8.84444 20.7522 8.85337 20.683C8.86006 20.6875 8.83551 20.7634 8.83328 20.7723C8.83105 20.7835 8.7931 20.8705 8.82435 20.8036C8.8556 20.7344 8.7998 20.8438 8.7931 20.8549C8.78864 20.8638 8.78194 20.8705 8.77748 20.8795C8.75069 20.9174 8.75515 20.9107 8.7931 20.8594C8.79533 20.8638 8.7373 20.9174 8.73283 20.9219C8.6681 20.9933 8.81542 20.875 8.73283 20.9241C8.71498 20.933 8.69935 20.9442 8.68373 20.9554C8.6748 20.9598 8.66587 20.9643 8.65694 20.9688C8.6123 20.9888 8.62123 20.9866 8.68373 20.9598C8.68373 20.9665 8.6056 20.9844 8.5989 20.9866C8.58998 20.9888 8.57882 20.9911 8.56989 20.9933C8.52078 21.0022 8.52971 21 8.5989 20.9911C8.58998 20.9866 8.5498 20.9933 8.5364 20.9933C8.46498 20.9955 8.39131 20.9933 8.31989 20.9933C7.20605 20.9933 6.08998 20.9933 4.97614 20.9933C3.99846 20.9933 3.02078 20.9933 2.0431 20.9933C2.01631 20.9933 1.98953 20.9933 1.96498 20.9933C1.86006 20.9955 2.06096 21.0179 1.96274 20.9955C1.94265 20.9911 1.92256 20.9866 1.90471 20.9821C1.89578 20.9799 1.88462 20.9754 1.87569 20.9732C1.83105 20.9554 1.83774 20.9598 1.90024 20.9844C1.89578 20.9888 1.82881 20.9464 1.82212 20.942C1.81319 20.9375 1.80649 20.9308 1.79756 20.9263C1.75962 20.8996 1.76631 20.904 1.81765 20.942C1.81319 20.9442 1.75962 20.8862 1.75515 20.8817C1.70381 20.8348 1.77971 20.904 1.76855 20.904C1.75292 20.904 1.71498 20.817 1.70605 20.8036C1.65471 20.721 1.72837 20.8973 1.70605 20.8013C1.69935 20.7723 1.69042 20.7433 1.68373 20.7143C1.66364 20.6451 1.69489 20.7455 1.68596 20.7433C1.68373 20.7433 1.68373 20.6808 1.68373 20.6808C1.68373 20.6763 1.68373 20.6696 1.68373 20.6652C1.68373 20.6295 1.68373 20.5938 1.68373 20.558C1.68373 20.1473 1.68373 19.7366 1.68373 19.3259C1.68373 18.0313 1.68373 16.7388 1.68373 15.4442C1.68373 15.0469 1.68373 14.6496 1.68373 14.2545C1.68373 14.221 1.68373 14.1875 1.68373 14.154C1.68373 14.1406 1.68373 14.125 1.68373 14.1138C1.68149 14.0223 1.68373 14.1451 1.67703 14.1406C1.67033 14.1362 1.69489 14.0603 1.69712 14.0513C1.69935 14.0424 1.70381 14.0312 1.70605 14.0223C1.7239 13.9777 1.71944 13.9844 1.69489 14.0469C1.68819 14.0402 1.74623 13.9554 1.75292 13.9442C1.79756 13.8705 1.73953 13.9688 1.7373 13.9643C1.73506 13.9598 1.7931 13.9063 1.79756 13.9018C1.8623 13.8304 1.71498 13.9487 1.79756 13.8996C1.82212 13.8839 1.8489 13.8705 1.87346 13.8549C1.95605 13.8036 1.77971 13.8772 1.87569 13.8549C1.89578 13.8504 1.91364 13.8438 1.93373 13.8393C1.94265 13.8371 1.95381 13.8348 1.96274 13.8326C2.01185 13.8237 2.00292 13.8259 1.93373 13.8348C1.93373 13.8326 1.99623 13.8326 1.99623 13.8326C2.01631 13.8326 2.0364 13.8326 2.05649 13.8326C3.05203 13.8326 4.04756 13.8326 5.0431 13.8326C6.14355 13.8326 7.24399 13.8326 8.34444 13.8326C8.40917 13.8326 8.47167 13.8326 8.5364 13.8326C8.77078 13.8326 8.99399 13.6272 8.98283 13.3862C8.96721 13.1429 8.78194 12.9375 8.53194 12.9375ZM11.6435 4.86384C11.9672 4.86384 12.2886 4.86384 12.6123 4.86384C13.3824 4.86384 14.1547 4.86384 14.9248 4.86384C15.8601 4.86384 16.7976 4.86384 17.7328 4.86384C18.5386 4.86384 19.3444 4.86384 20.1502 4.86384C20.5431 4.86384 20.936 4.875 21.3288 4.86384C21.3355 4.86384 21.34 4.86384 21.3467 4.86384C21.581 4.86384 21.8043 4.65848 21.7931 4.41741C21.7819 4.17634 21.5967 3.97098 21.3467 3.97098C21.023 3.97098 20.7016 3.97098 20.3779 3.97098C19.6078 3.97098 18.8355 3.97098 18.0654 3.97098C17.1302 3.97098 16.1927 3.97098 15.2574 3.97098C14.4516 3.97098 13.6458 3.97098 12.84 3.97098C12.4471 3.97098 12.0543 3.95982 11.6614 3.97098C11.6547 3.97098 11.6502 3.97098 11.6435 3.97098C11.4092 3.97098 11.186 4.17634 11.1971 4.41741C11.2083 4.65848 11.3935 4.86384 11.6435 4.86384ZM17.84 8.08705C17.1391 8.08705 16.4404 8.08705 15.7395 8.08705C14.6279 8.08705 13.5185 8.08705 12.4069 8.08705C12.1525 8.08705 11.898 8.08705 11.6435 8.08705C11.4092 8.08705 11.186 8.29241 11.1971 8.53348C11.2083 8.77455 11.3935 8.97991 11.6435 8.97991C12.3444 8.97991 13.0431 8.97991 13.744 8.97991C14.8556 8.97991 15.965 8.97991 17.0766 8.97991C17.331 8.97991 17.5855 8.97991 17.84 8.97991C18.0744 8.97991 18.2976 8.77455 18.2864 8.53348C18.2752 8.29241 18.09 8.08705 17.84 8.08705ZM11.6435 15.8013C11.9672 15.8013 12.2886 15.8013 12.6123 15.8013C13.3824 15.8013 14.1547 15.8013 14.9248 15.8013C15.8601 15.8013 16.7976 15.8013 17.7328 15.8013C18.5386 15.8013 19.3444 15.8013 20.1502 15.8013C20.5431 15.8013 20.936 15.8125 21.3288 15.8013C21.3355 15.8013 21.34 15.8013 21.3467 15.8013C21.581 15.8013 21.8043 15.596 21.7931 15.3549C21.7819 15.1138 21.5967 14.9085 21.3467 14.9085C21.023 14.9085 20.7016 14.9085 20.3779 14.9085C19.6078 14.9085 18.8355 14.9085 18.0654 14.9085C17.1302 14.9085 16.1927 14.9085 15.2574 14.9085C14.4516 14.9085 13.6458 14.9085 12.84 14.9085C12.4471 14.9085 12.0543 14.8973 11.6614 14.9085C11.6547 14.9085 11.6502 14.9085 11.6435 14.9085C11.4092 14.9085 11.186 15.1138 11.1971 15.3549C11.2083 15.596 11.3935 15.8013 11.6435 15.8013ZM17.84 19.0246C17.1391 19.0246 16.4404 19.0246 15.7395 19.0246C14.6279 19.0246 13.5185 19.0246 12.4069 19.0246C12.1525 19.0246 11.898 19.0246 11.6435 19.0246C11.4092 19.0246 11.186 19.2299 11.1971 19.471C11.2083 19.7121 11.3935 19.9174 11.6435 19.9174C12.3444 19.9174 13.0431 19.9174 13.744 19.9174C14.8556 19.9174 15.965 19.9174 17.0766 19.9174C17.331 19.9174 17.5855 19.9174 17.84 19.9174C18.0744 19.9174 18.2976 19.7121 18.2864 19.471C18.2752 19.2299 18.09 19.0246 17.84 19.0246Z" stroke="white"/>
</g>
<defs>
<clipPath id="clip0_1015_11263">
<rect width="22.8571" height="22.8571" fill="white" transform="translate(0.0644531 0.571411)"/>
</clipPath>
</defs>
</svg>
