<svg width="31" height="30" viewBox="0 0 31 30" fill="none" xmlns="http://www.w3.org/2000/svg">
<g clip-path="url(#clip0_1015_11269)">
<path d="M8.65093 11.579H8.89529C9.83607 11.579 10.6058 12.3487 10.6058 13.2895V21.842C10.6058 22.7828 9.83607 23.5525 8.89529 23.5525H8.65093C7.71016 23.5525 6.94043 22.7828 6.94043 21.842V13.2895C6.94043 12.3487 7.71016 11.579 8.65093 11.579ZM15.4929 6.44751C16.4337 6.44751 17.2035 7.21724 17.2035 8.15801V21.842C17.2035 22.7828 16.4337 23.5525 15.4929 23.5525C14.5522 23.5525 13.7824 22.7828 13.7824 21.842V8.15801C13.7824 7.21724 14.5522 6.44751 15.4929 6.44751ZM22.335 16.2218C23.2757 16.2218 24.0455 16.9915 24.0455 17.9323V21.842C24.0455 22.7828 23.2757 23.5525 22.335 23.5525C21.3942 23.5525 20.6245 22.7828 20.6245 21.842V17.9323C20.6245 16.9915 21.3942 16.2218 22.335 16.2218Z" fill="white"/>
</g>
<defs>
<clipPath id="clip0_1015_11269">
<rect width="29.3229" height="29.3229" fill="white" transform="translate(0.832031 0.338501)"/>
</clipPath>
</defs>
</svg>
