<svg width="23" height="22" viewBox="0 0 23 22" fill="none" xmlns="http://www.w3.org/2000/svg">
<path d="M12.1341 9.73304C6.84228 9.73304 2.69434 7.59564 2.69434 4.86652C2.69434 2.1374 6.84228 0 12.1341 0C17.4259 0 21.5716 2.13813 21.5716 4.86652C21.5716 7.59491 17.4266 9.73304 12.1341 9.73304ZM12.1341 1.46648C7.4362 1.46648 4.16082 3.25852 4.16082 4.86652C4.16082 6.47452 7.434 8.26656 12.1319 8.26656C16.8298 8.26656 20.1051 6.47525 20.1051 4.86652C20.1051 3.25779 16.8312 1.46648 12.1341 1.46648Z" fill="white"/>
<path d="M12.1355 12.6337C6.84448 12.6337 2.69874 10.497 2.69434 7.76789V4.86646H4.16082V7.76569C4.16082 9.37442 7.43547 11.1679 12.1341 11.1679C16.7454 11.1679 19.9856 9.44114 20.1037 7.85514V4.86646H21.5702V7.76569C21.5753 10.4955 17.4325 12.6337 12.1355 12.6337Z" fill="white"/>
<path d="M12.8218 19.0973C7.82989 19.0973 3.78386 17.1754 3.41211 14.6245L4.86319 14.4126C5.0905 15.9656 8.34315 17.6279 12.8225 17.6279C17.5211 17.6279 20.7958 15.8351 20.7958 14.2256C20.7958 13.4088 19.9841 12.5722 18.5682 11.9291L19.1753 10.5939C21.1661 11.498 22.2623 12.7885 22.2623 14.2256C22.2615 16.9591 18.1143 19.0973 12.8218 19.0973Z" fill="white"/>
<path d="M12.8221 21.9972C7.52884 21.9972 3.38236 19.8583 3.38236 17.1285V14.5079H4.84884V17.1285C4.84884 18.7379 8.12056 20.5307 12.8221 20.5307C14.8291 20.5733 16.8217 20.1834 18.6646 19.3876C20.0196 18.7497 20.7954 17.927 20.7954 17.1285V14.2292H22.2618V17.1285C22.2618 18.5378 21.2074 19.8114 19.2908 20.7133C17.2519 21.6014 15.0456 22.0393 12.8221 21.9972ZM17.036 11.1797V10.4464L16.6005 10.7053L16.2955 10.7603C14.3784 11.6552 12.2806 12.095 10.1656 12.0456C5.46696 12.0456 2.19231 10.2529 2.19231 8.64341C2.19231 7.96076 2.76204 7.25538 3.79664 6.65706L3.0634 5.38782C1.55586 6.25891 0.726562 7.41523 0.726562 8.64341C0.726562 11.3733 4.87304 13.5121 10.1663 13.5121C12.6885 13.5895 15.1868 13.0034 17.4115 11.8125L17.7627 11.5984V11.1863L17.036 11.1797Z" fill="white"/>
<path d="M10.1644 16.4121C4.87109 16.4121 0.724609 14.2733 0.724609 11.5434V8.64417H2.19109V11.5441C2.19109 13.1529 5.46574 14.9464 10.1644 14.9464C14.863 14.9464 18.1369 13.1536 18.1369 11.5441V10.3937H19.6034V11.5434C19.6041 14.2733 15.4576 16.4121 10.1644 16.4121Z" fill="white"/>
</svg>
