<svg width="800" height="600" viewBox="0 0 800 600" fill="none" xmlns="http://www.w3.org/2000/svg">
<path d="M558.824 381.584C643.973 381.584 713 316.18 713 235.499C713 154.819 643.973 89.4141 558.824 89.4141C473.675 89.4141 404.648 154.819 404.648 235.499C404.648 316.18 473.675 381.584 558.824 381.584Z" fill="url(#paint0_radial_1871_11144)"/>
<path d="M558.994 277.343C581.839 277.343 600.359 258.824 600.359 235.978C600.359 213.133 581.839 194.613 558.994 194.613C536.149 194.613 517.629 213.133 517.629 235.978C517.629 258.824 536.149 277.343 558.994 277.343Z" fill="white"/>
<path d="M634.025 217.551H630.18V275.27H634.025V217.551Z" fill="#EEEEEE"/>
<path d="M630.18 217.551V262.764H598.434L630.18 217.551Z" fill="#EEEEEE"/>
<path d="M509.935 207.934H505.125V277.196H509.935V207.934Z" fill="#EEEEEE"/>
<path d="M505.123 207.891V260.842H467.605L505.123 207.891Z" fill="#EEEEEE"/>
<path d="M173.256 175.001C173.256 175.001 167.273 127.28 213.145 132.356C213.145 132.356 220.126 94.7877 265 101.895C265 101.895 227.106 107.987 225.111 135.402C225.111 135.402 219.128 147.586 207.161 154.694L209.155 142.51C209.155 142.51 183.228 142.51 173.256 175.001Z" fill="#F5F5F5"/>
<path d="M653 105.114C653 105.114 678.44 102.062 677.456 127.496C677.456 127.496 697.129 128.513 692.211 157C692.211 157 686.869 134.751 673.522 133.601C673.522 133.601 668.562 131.347 664.669 124.445L670.571 125.462C670.571 125.462 670.797 110.866 653 105.114Z" fill="#F5F5F5"/>
<path d="M349 375L338 476L323 488L308 492L289 499L266 501L234 502H137V454L240.52 441.66H240.53L268.48 422.43L294.85 421.83L313 404L332 408L349 375Z" fill="#A1887F"/>
<path d="M166 382L192 379L211 373L285 363L311 373L349 375L332 408L313 404L295 422L268 423L241 442L137 454L166 382Z" fill="#D7CCC8"/>
<path d="M349 375L338 476L323 488L332 408L349 375Z" fill="#A1887F"/>
<path d="M332 408L323 488L308 492L313 404L332 408Z" fill="#8D6E63"/>
<path d="M234 502H137V454L241 442L234 502Z" fill="#8D6E63"/>
<path d="M313 404L308 492L289 499L295 422L313 404Z" fill="#A1887F"/>
<path d="M295 422L289 499L266 501L268 423L295 422Z" fill="#8D6E63"/>
<path d="M268 423L266 501L234 502L241 442L268 423Z" fill="#A1887F"/>
<path d="M326.651 174.684C326.648 174.684 326.645 174.689 326.641 174.689V174.685L317.57 175.313L318.377 186.975L327.448 186.347V186.343C327.451 186.343 327.455 186.347 327.458 186.347C328.168 186.298 328.563 183.647 328.34 180.427C328.117 177.206 327.361 174.635 326.651 174.684Z" fill="#616161"/>
<path d="M318.377 186.963C319.093 186.913 319.492 184.262 319.269 181.042C319.046 177.822 318.285 175.251 317.569 175.301C316.854 175.35 316.454 178.001 316.677 181.222C316.9 184.442 317.661 187.012 318.377 186.963Z" fill="#424242"/>
<path d="M318.602 181.101C318.443 178.804 318.076 176.942 317.748 176.664C317.694 176.608 317.66 176.609 317.66 176.609L295.316 178.156L295.944 187.227L318.288 185.68C318.288 185.68 318.321 185.675 318.367 185.613C318.653 185.295 318.761 183.399 318.602 181.101Z" fill="#616161"/>
<path d="M295.945 187.217C296.458 187.181 296.734 185.122 296.56 182.617C296.387 180.113 295.83 178.111 295.316 178.147C294.803 178.182 294.527 180.241 294.701 182.746C294.874 185.251 295.431 187.252 295.945 187.217Z" fill="#424242"/>
<path d="M295.245 179.461L276.137 180.784L276.586 187.263L295.694 185.94C296.018 185.918 296.18 184.449 296.056 182.66C295.932 180.871 295.569 179.439 295.245 179.461Z" fill="#616161"/>
<path opacity="0.2" d="M292.511 401.659C292.511 401.659 233.392 439.38 209.5 442.156C206.041 442.558 193.751 442.502 193 439.101C192.275 435.817 201.742 432.24 205 431.406C225.5 426.156 267.5 398.156 267.5 398.156L292.511 401.659Z" fill="url(#paint1_linear_1871_11144)"/>
<path opacity="0.2" d="M249.17 392.334C249.17 392.334 158.668 432.948 165.001 427.691C178.749 416.279 225.401 390.133 225.401 390.133L249.17 392.334Z" fill="url(#paint2_linear_1871_11144)"/>
<path d="M275.29 196.255C274.524 198.015 272.58 199.816 268.064 202.488C268.064 202.488 266.257 203.378 267.161 207.831H250.903C250.903 207.831 253.478 206.308 255.129 202.493C256.061 200.341 255.658 197.869 254.231 195.999C252.39 193.587 250 189.549 250 180.226C250 169.541 257.854 166.01 264.342 166C273.64 165.985 278 172.212 278 183.788C278 187.945 277.47 191.254 275.29 196.255Z" fill="#FFCCBC"/>
<path d="M253.5 196.435C251.854 193.899 250 190.566 250 181.156C250 170.371 256.125 165.025 265.644 165C273.625 164.979 276.983 170.607 277.858 176C277.858 176 276.194 175.679 274.968 176.938C273.218 178.736 274.567 181.036 274.43 183.06C274.31 184.835 273.406 185.561 272.718 185.938C271.28 180.219 268.069 180.555 266.906 181.75C265.156 183.548 266.212 188.613 267.999 189.972C267.999 193.567 267.43 196.541 264.805 198.339C260.111 201.552 255.25 199.131 253.5 196.435Z" fill="#6D4C41"/>
<path d="M302.827 206.089C293.299 193.57 290.935 182.168 290.521 179.772C290.475 179.505 290.268 179.296 289.999 179.242C284.063 178.389 280.653 180.068 280.653 180.068C279.664 180.626 279.592 182.24 279.699 183.358C280.021 186.727 279.004 187 279.004 187C279.004 188.492 280.412 189.08 281.622 189.975L284.146 191.184C284.146 191.184 287.704 194.69 294.821 209.592C295.879 211.813 304.319 208.05 302.827 206.089Z" fill="#FFCCBC"/>
<path d="M234.279 213.781L234 263.999L230.934 259.233C229.658 256.689 229 253.842 229 250.999V228.999C229 225.31 229.807 221.863 231.33 218.597C232.122 216.889 233.108 215.278 234.279 213.781Z" fill="#78909C"/>
<path d="M267 391V397.877C267 397.877 267 402 271 402C278.923 402 292 402 292 402C292 402 293.046 396.65 286.099 395.457C276 394 276 391 276 391H267Z" fill="#607D8B"/>
<path d="M248.921 392.18L227.793 394.821C226.334 394.821 225.152 393.639 225.152 392.18L226.032 386.898L234.835 385.137C235.893 387.253 239.918 388.485 242.269 388.224L242.438 388.209C245.24 387.954 247.876 389.569 248.921 392.18Z" fill="#607D8B"/>
<path d="M226.031 386.899L234.834 385.138L236 378H227L226.031 386.899Z" fill="#FFCCBC"/>
<path d="M235.103 278.164C235.103 278.164 231.389 310.191 232.5 331.725C228.377 345.704 225 378.999 225 378.999H237C237 378.999 251.119 332.528 255.917 313.335C257.678 306.292 257.642 280.417 257.642 280.417L235.103 278.164Z" fill="#01579B"/>
<path d="M266 380.691L267 390.999H276V379.691L266 380.691Z" fill="#FFCCBC"/>
<path d="M280.061 281.998L278.465 380.414L266.853 381.243L263.333 381.494C263.333 381.494 259.997 359.857 257.645 336.941C251.503 319.191 248.794 296.718 245.727 274.941L280.061 281.998Z" fill="#1A68A5"/>
<path d="M280.059 237.602V281.999L255.625 279.693L280.059 237.602Z" fill="#90CAF9"/>
<path d="M280.937 231.567L303.292 228.875C309.613 228.085 313.026 221.044 309.733 215.587L302.587 204L293.262 208.665L295.01 211.82C295.474 212.608 294.578 213.495 293.795 213.021L286.829 208.799C282.934 206.965 278.735 205.861 274.442 205.542L255.924 204.167C247.431 203.514 239.499 206.64 234.278 213.74C234.15 213.914 232.518 242.613 232.518 260.801C232.518 268.151 230.859 271.249 226.897 274.201C224.14 276.254 223 277 223 277C223 277 224.312 280.43 230.5 285.812C234.374 289.182 244.277 289.939 252.375 289.939C260.473 289.939 268 294 268 294C268 294 277.801 268.256 279.369 255.405C280.937 242.554 280.937 231.567 280.937 231.567Z" fill="#90A4AE"/>
<path d="M226.896 274.211C224.14 276.264 223 277 223 277C223 277 224.312 280.438 230.5 285.817C234.374 289.185 244.277 289.942 252.375 289.942C260.473 289.942 268 294 268 294C268 294 268.937 291.992 270.136 288.572C259 278.858 237.333 289.692 226.896 274.211Z" fill="#78909C"/>
<path d="M293.262 208.709L302.587 204.047L305.356 208.924L295.01 211.862L293.262 208.709Z" fill="#78909C"/>
<defs>
<radialGradient id="paint0_radial_1871_11144" cx="0" cy="0" r="1" gradientUnits="userSpaceOnUse" gradientTransform="translate(558.825 235.499) scale(121.242 121.657)">
<stop stop-color="#F5F5F5"/>
<stop offset="1" stop-color="#EEEEEE" stop-opacity="0"/>
</radialGradient>
<linearGradient id="paint1_linear_1871_11144" x1="242.736" y1="442.327" x2="242.736" y2="398.156" gradientUnits="userSpaceOnUse">
<stop stop-color="white" stop-opacity="0"/>
<stop offset="0.1417" stop-color="#E6E2E0" stop-opacity="0.1511"/>
<stop offset="0.9379" stop-color="#5D4037"/>
<stop offset="0.9428" stop-color="#553A32"/>
<stop offset="0.9545" stop-color="#482F29"/>
<stop offset="0.9696" stop-color="#402924"/>
<stop offset="1" stop-color="#3E2723"/>
</linearGradient>
<linearGradient id="paint2_linear_1871_11144" x1="206.927" y1="428.16" x2="206.927" y2="390.133" gradientUnits="userSpaceOnUse">
<stop stop-color="white" stop-opacity="0"/>
<stop offset="0.2276" stop-color="#D2CDCC" stop-opacity="0.2276"/>
<stop offset="1" stop-color="#3E2723"/>
</linearGradient>
</defs>
</svg>
