<svg width="141" height="18" viewBox="0 0 141 18" fill="none" xmlns="http://www.w3.org/2000/svg">
<path d="M15.3662 18.0001H6.63086L10.9992 12H15.3662V18.0001Z" fill="#F9861E"/>
<path d="M15.366 12H10.999V18.0001H15.366V12Z" fill="#FFA143"/>
<path d="M4.36695 0L0 5.99997V11.9999V17.9999H8.7339V11.9999V5.99997V0H4.36695Z" fill="#F9861E"/>
<path d="M8.73414 0H4.36719V17.9999H8.73414V0Z" fill="#FFA143"/>
<path d="M26.2139 6.23071H28.1352V15.9727H35.1234V17.6472H26.2139V6.23071Z" fill="white"/>
<path d="M40.1904 17.6457V6.22913H42.1117V17.6457H40.1904Z" fill="white"/>
<path d="M47.666 6.23071H54.2395C56.7807 6.23071 58.4645 7.46356 58.4645 9.32077C58.4645 10.6902 57.4591 11.68 55.968 11.7865C57.712 11.8166 58.8793 12.8827 58.8793 14.465C58.8793 16.3683 57.2988 17.6457 54.9195 17.6457H47.666V6.22913V6.23071ZM54.3443 11.0255C55.6149 11.0255 56.4568 10.4313 56.4568 9.54955C56.4568 8.55977 55.7182 7.89092 54.241 7.89092H49.6027V11.0271H54.3443V11.0255ZM54.921 15.987C56.133 15.987 56.9302 15.3325 56.9302 14.3586C56.9302 13.3847 55.8956 12.6698 54.3443 12.6698H49.6027V15.9886H54.921V15.987Z" fill="white"/>
<path d="M64.168 6.23071H73.5494V7.90522H66.0893V11.0414H72.7522V12.7159H66.0893V15.9727H73.6681V17.6472H64.168V6.23071Z" fill="white"/>
<path d="M79.0742 17.6457V6.22913H85.5305C88.1303 6.22913 89.8742 7.73682 89.8742 10.0039C89.8742 11.6324 88.7656 12.835 86.9784 13.2163L90.3029 17.6457H87.9098L84.7919 13.3529H81.0094V17.6457H79.0742ZM81.0094 11.6641H85.6477C87.0062 11.6641 87.9082 10.9937 87.9082 9.98962C87.9082 8.74089 86.963 7.91952 85.5289 7.91952H81.0079V11.6641H81.0094Z" fill="white"/>
<path d="M94.3658 6.23071H105.934V7.90522H101.058V17.6472H99.1367V7.90522H94.3643V6.23071H94.3658Z" fill="white"/>
<path d="M110.292 6.23071H112.213V13.0797C112.213 14.9067 113.749 16.0331 116.039 16.0331C118.329 16.0331 119.777 14.9067 119.777 13.0797V6.23071H121.698V13.0797C121.698 15.9711 119.424 17.9046 116.01 17.9046C112.596 17.9046 110.292 15.9711 110.292 13.0797V6.23071Z" fill="white"/>
<path d="M129.409 6.24501L129.425 6.22913L133.946 14.9512L138.393 6.22913H140.727V17.6457H138.806V9.09199L134.64 17.6457H133.176L128.907 8.98396V17.6457H126.985V6.22913L129.408 6.24501H129.409Z" fill="white"/>
</svg>
