<svg width="1014" height="692" viewBox="0 0 1014 692" fill="none" xmlns="http://www.w3.org/2000/svg">
<path d="M60.7999 548.8C60.7999 548.8 -7.70006 654.4 155.3 667.3C318.3 680.1 362 664.1 389.8 660.9C417.6 657.7 498.6 598.4 635.7 672.1C728.5 722 827 664.1 872.7 628.8C918.4 593.5 946.2 555.1 924.4 548.7C902.6 542.3 60.7999 548.8 60.7999 548.8Z" fill="#F5F5FC"/>
<path d="M58.0003 551.9C58.0003 551.9 -39.1997 408.5 18.2003 352.9C76.3003 296.6 -0.199703 226.2 25.5003 144.1C47.1003 74.7 179.7 -39.2 301.3 13.5C469.2 86.2 468.4 102.2 571.8 84.3C675.2 66.4 795 -31 853.2 91.5C887.7 164.1 982.5 180 1005.7 247.6C1028.9 315.2 994 399.7 974.8 418.2C906.9 483.8 930.1 554.6 930.1 554.6L58.0003 551.9Z" fill="#F8F8FF"/>
<path d="M521.3 222.5C537.261 222.5 550.2 209.561 550.2 193.6C550.2 177.639 537.261 164.7 521.3 164.7C505.339 164.7 492.4 177.639 492.4 193.6C492.4 209.561 505.339 222.5 521.3 222.5Z" fill="white"/>
<path d="M552.8 218.5C564.619 218.5 574.2 208.919 574.2 197.1C574.2 185.281 564.619 175.7 552.8 175.7C540.981 175.7 531.4 185.281 531.4 197.1C531.4 208.919 540.981 218.5 552.8 218.5Z" fill="white"/>
<path d="M760 209.2C774.636 209.2 786.5 197.336 786.5 182.7C786.5 168.064 774.636 156.2 760 156.2C745.364 156.2 733.5 168.064 733.5 182.7C733.5 197.336 745.364 209.2 760 209.2Z" fill="white"/>
<path d="M730.401 205.1C741.226 205.1 750.001 196.325 750.001 185.5C750.001 174.675 741.226 165.9 730.401 165.9C719.576 165.9 710.801 174.675 710.801 185.5C710.801 196.325 719.576 205.1 730.401 205.1Z" fill="white"/>
<path d="M794.8 207.6C805.625 207.6 814.4 198.825 814.4 188C814.4 177.175 805.625 168.4 794.8 168.4C783.975 168.4 775.2 177.175 775.2 188C775.2 198.825 783.975 207.6 794.8 207.6Z" fill="white"/>
<path d="M118.601 224.4C133.236 224.4 145.101 212.536 145.101 197.9C145.101 183.264 133.236 171.4 118.601 171.4C103.965 171.4 92.1006 183.264 92.1006 197.9C92.1006 212.536 103.965 224.4 118.601 224.4Z" fill="white"/>
<path d="M89.8002 214.3C100.625 214.3 109.4 205.525 109.4 194.7C109.4 183.875 100.625 175.1 89.8002 175.1C78.9754 175.1 70.2002 183.875 70.2002 194.7C70.2002 205.525 78.9754 214.3 89.8002 214.3Z" fill="white"/>
</svg>
