<svg width="1014" height="692" viewBox="0 0 1014 692" fill="none" xmlns="http://www.w3.org/2000/svg">
<g clip-path="url(#clip0_181_2762)">
<path d="M58.0003 551.9C58.0003 551.9 -39.1997 408.5 18.2003 352.9C76.3003 296.6 -0.199703 226.2 25.5003 144.1C47.1003 74.7 179.7 -39.2 301.3 13.5C469.2 86.2 468.4 102.2 571.8 84.3C675.2 66.4 795 -31 853.2 91.5C887.7 164.1 982.5 180 1005.7 247.6C1028.9 315.2 994 399.7 974.8 418.2C906.9 483.8 930.1 554.6 930.1 554.6L58.0003 551.9Z" fill="#C4C4C4" fill-opacity="0.07"/>
<path d="M521.3 222.5C537.261 222.5 550.2 209.561 550.2 193.6C550.2 177.639 537.261 164.7 521.3 164.7C505.339 164.7 492.4 177.639 492.4 193.6C492.4 209.561 505.339 222.5 521.3 222.5Z" fill="white"/>
<path d="M552.8 218.5C564.619 218.5 574.2 208.919 574.2 197.1C574.2 185.281 564.619 175.7 552.8 175.7C540.981 175.7 531.4 185.281 531.4 197.1C531.4 208.919 540.981 218.5 552.8 218.5Z" fill="white"/>
<path d="M760 209.2C774.636 209.2 786.5 197.336 786.5 182.7C786.5 168.064 774.636 156.2 760 156.2C745.364 156.2 733.5 168.064 733.5 182.7C733.5 197.336 745.364 209.2 760 209.2Z" fill="white"/>
<path d="M730.401 205.1C741.226 205.1 750.001 196.325 750.001 185.5C750.001 174.675 741.226 165.9 730.401 165.9C719.576 165.9 710.801 174.675 710.801 185.5C710.801 196.325 719.576 205.1 730.401 205.1Z" fill="white"/>
<path d="M794.8 207.6C805.625 207.6 814.4 198.825 814.4 188C814.4 177.175 805.625 168.4 794.8 168.4C783.975 168.4 775.2 177.175 775.2 188C775.2 198.825 783.975 207.6 794.8 207.6Z" fill="white"/>
<path d="M118.601 224.4C133.236 224.4 145.101 212.536 145.101 197.9C145.101 183.264 133.236 171.4 118.601 171.4C103.965 171.4 92.1006 183.264 92.1006 197.9C92.1006 212.536 103.965 224.4 118.601 224.4Z" fill="white"/>
<path d="M89.8002 214.3C100.625 214.3 109.4 205.525 109.4 194.7C109.4 183.875 100.625 175.1 89.8002 175.1C78.9754 175.1 70.2002 183.875 70.2002 194.7C70.2002 205.525 78.9754 214.3 89.8002 214.3Z" fill="white"/>
<path d="M126.8 147.4L127.8 549.2H446.8L445.8 148.4L126.8 147.4Z" fill="#E9EDFA"/>
<path d="M112.8 110.3L455.8 111.3L456.8 148.4H112.8V110.3ZM112.8 222.4H455.8V233.4H112.8V222.4Z" fill="#58CAEA"/>
<path d="M127.8 232.4H444.8V243.4H127.8V232.4ZM126.8 145.4H443.8V156.4H126.8V145.4ZM114.8 548.3H457.8V559.3H114.8V548.3ZM158.8 169.4L147.8 181.4V198.4L157.8 208.4L414.8 209.4L424.8 200.4V181.4L412.8 169.4H158.8Z" fill="#58CAEA"/>
<path d="M126.8 268.4H146.8V281.4H127.8L126.8 268.4ZM126.8 398.4H138.8V411.4H127.8L126.8 398.4ZM234.8 379.4H266.8V391.4H234.8V379.4ZM215.8 399.4H247.8V411.4H215.8V399.4ZM200.3 325.7H232.3V337.7H200.3V325.7ZM273.8 400.4H305.8V412.4H273.8V400.4ZM217.1 256.6H249.1V268.6H217.1V256.6ZM396.8 393.4H428.8V405.4H396.8V393.4ZM401.8 246.4H433.8V258.4H401.8V246.4Z" fill="#92E3FA"/>
<path d="M367.299 433.3H425.399C427.299 433.3 428.799 434.8 428.799 436.7V548C428.799 549.9 427.299 551.4 425.399 551.4H367.299C365.399 551.4 363.899 549.9 363.899 548V436.8C363.899 434.9 365.399 433.3 367.299 433.3Z" fill="#58CAEA"/>
<path d="M373.5 446.6H419.3C421.2 446.6 422.7 448.1 422.7 450V462.1C422.7 464 421.2 465.5 419.3 465.5H373.5C371.6 465.5 370.1 464 370.1 462.1V450C370.1 448.2 371.6 446.6 373.5 446.6Z" fill="white"/>
<path d="M145.299 308.4H151.799L224.699 308.3C224.699 308.3 228.699 286.3 212.699 273.3C196.699 260.3 180.099 260.3 168.099 266.3C156.099 272.3 144.899 281.4 145.299 308.4Z" fill="#58CAEA"/>
<path d="M151.8 308.4L151.3 361.7H219.1V307.1L150.8 306L151.8 308.4Z" fill="#58CAEA"/>
<path d="M151.3 361.7L146.8 361.4V370.4H223.5L223.2 361.4L151.3 361.7Z" fill="#58CAEA"/>
<path d="M159.699 311.4H183.399V333.2H159.699V311.4ZM188.199 311.1H210.799V332.9H188.199V311.1ZM188.099 338.6H211.199V360.4H188.099V338.6ZM159.999 338.6H183.699V360.4H159.999V338.6Z" fill="white"/>
<path d="M154.9 275.9L152.1 308.6L165.7 308.1L168.4 266.3L159.9 271.3L155.9 274.8M216.4 276.6L218.9 308.6L206.5 308.1L204.1 267.5L211.7 272.5L215.4 275.5M172.8 275.3L170.9 308.3L182.8 308.5L185.4 262.5L180.3 262.7L174.1 263.8M200.6 275.2L202.2 308.1L191.6 308.3L189.4 262.7L194.9 263.9L199.6 265.4" fill="#92E3FA"/>
<path d="M246.6 309.1H253.1L326 309C326 309 330 287 314 274C298 261 281.4 261 269.4 267C257.4 273 246.2 282.1 246.6 309.1Z" fill="#58CAEA"/>
<path d="M253.201 309.1L252.601 362.4H320.501V307.8L252.101 306.7L253.201 309.1Z" fill="#58CAEA"/>
<path d="M252.601 362.4L248.101 362.1V371.1H324.901L324.501 362.1L252.601 362.4Z" fill="#58CAEA"/>
<path d="M261.101 312.1H284.801V333.9H261.101V312.1ZM289.601 311.8H312.201V333.6H289.601V311.8ZM289.401 339.3H312.501V361.1H289.401V339.3ZM261.301 339.3H285.001V361.1H261.301V339.3Z" fill="white"/>
<path d="M256.2 276.6L253.4 309.3L267 308.8L269.7 267L261.2 272L257.2 275.5M317.7 277.3L320.2 309.3L307.8 308.9L305.4 268.2L313 273.2L316.7 276.2M274.1 276L272.2 309L284.1 309.1L286.7 263.2L281.6 263.4L275.4 264.5M301.9 275.9L303.5 308.8L292.9 309L290.7 263.4L296.2 264.6L300.9 266.1" fill="#92E3FA"/>
<path d="M346.6 309.1H353.1L426 309C426 309 430 287 414 274C398 261 381.4 261 369.4 267C357.4 273 346.1 282.1 346.6 309.1Z" fill="#58CAEA"/>
<path d="M353.1 309.1L352.5 362.4H420.4V307.8L352 306.7L353.1 309.1Z" fill="#58CAEA"/>
<path d="M352.5 362.4L348.1 362.1V371.1H424.8L424.4 362.1L352.5 362.4Z" fill="#58CAEA"/>
<path d="M361 312.1H384.7V333.9H361V312.1ZM389.5 311.8H412.1V333.6H389.5V311.8ZM389.4 339.3H412.5V361.1H389.4V339.3ZM361.2 339.3H384.9V361.1H361.2V339.3Z" fill="white"/>
<path d="M356.1 276.6L353.4 309.3L366.9 308.8L369.7 267L361.1 272L357.2 275.5M417.6 277.3L420.1 309.3L407.7 308.9L405.3 268.2L413 273.2L416.6 276.2M374 276L372.2 309L384 309.1L386.6 263.2L381.5 263.4L375.3 264.5M401.8 275.9L403.5 308.8L392.8 309L390.6 263.4L396.2 264.6L400.8 266.1" fill="#92E3FA"/>
<path d="M145.6 460.9H162.9L355.9 460.8C355.9 460.8 371.6 436.5 329.2 423.2C286.8 409.9 217.2 413.7 185.5 419.8C153.8 425.9 144.4 433.3 145.6 460.9Z" fill="#58CAEA"/>
<path d="M148.1 461.4L146.4 548.5H355.3V459.2L144.7 457.4L148.1 461.4Z" fill="#58CAEA"/>
<path d="M158.2 462.6H342.3V507H158.2V462.6ZM223.1 514.1H276.1V535.9H223.1V514.1ZM159.5 514.5H212.5V536.3H159.5V514.5ZM287.5 514.5H340.5V536.3H287.5V514.5Z" fill="white"/>
<path d="M165.1 426.8L161.3 458.3L179.3 457.9L182.5 419.7L172 422.2L166.1 424.6M194.8 427.1L191.8 458L209.9 457.7L213.1 415.9L204.3 416.9L196.4 417.7M329.4 426.5L332.3 458L318.2 457.6L315.7 419.5L324 422L328.5 424.4M305.9 426.9L308.4 457.7L293.3 457.5L290.6 415.7L297.9 416.7L304.6 417.4M278.2 426.6L280.8 457.5L265.7 457.3L262.9 414.4L270 414.8L276.8 415.1M245.5 427.8L248 458.6L233 458.4L230.2 415.6L237.7 415.3L244.7 415.2" fill="#92E3FA"/>
<path d="M471.5 356.5L470.6 556.7L808.9 557.6V354.7L471.5 356.5Z" fill="#E9EDFA"/>
<path d="M468.7 547.4H811.7V558.4H468.7V547.4ZM452.8 356.4H827.9V369.7H452.8V356.4Z" fill="#58CAEA"/>
<path d="M458.8 358.5C458.8 358.5 462.8 298.9 501.8 297.8C533.9 296.9 698.6 297.7 755.3 298.2C788.7 298.5 817.3 323.2 821.4 356.4C821.5 357.1 821.6 357.9 821.6 358.6L458.8 358.5Z" fill="#58CAEA"/>
<path d="M788.199 446.6H808.199V459.6H789.199L788.199 446.6ZM796.499 392.3H808.499V405.3H797.499L796.499 392.3ZM486.199 489.4H518.199V501.4H486.199V489.4ZM474.899 436.6H506.899V448.6H474.899V436.6ZM494.699 394H526.699V406H494.699V394ZM608.499 383.4H640.499V395.4H608.499V383.4ZM769.999 423.3H801.999V435.3H769.999V423.3ZM752.699 516H784.699V528H752.699V516ZM676.699 373.8H708.699V385.8H676.699V373.8Z" fill="#92E3FA"/>
<path d="M532.999 459.6H550.299L743.299 459.5C743.299 459.5 758.999 435.2 716.599 421.9C674.199 408.6 604.599 412.4 572.899 418.5C541.199 424.6 531.799 432 532.999 459.6Z" fill="#58CAEA"/>
<path d="M535.5 460.1L533.8 547.2H742.7V457.9L532.1 456.1L535.5 460.1Z" fill="#58CAEA"/>
<path d="M610.499 461.3H729.699V505.7H610.499V461.3ZM610.499 512.8H663.499V534.6H610.499V512.8ZM546.899 462.1H599.899V535H546.899V462.1ZM674.899 513.2H727.899V535H674.899V513.2Z" fill="white"/>
<path d="M552.499 425.5L548.699 457L566.699 456.6L569.899 418.4L559.399 420.9L553.499 423.3M582.199 425.8L579.199 456.7L597.299 456.5L600.499 414.6L591.699 415.6L583.799 416.4M716.799 425.2L719.699 456.8L705.599 456.4L703.099 418.2L711.399 420.7L715.999 423.1M693.299 425.6L695.799 456.5L680.699 456.2L677.999 414.4L685.299 415.4L691.999 416.2M665.599 425.3L668.199 456.2L653.099 456L650.299 413.2L657.399 413.5L664.199 413.9M632.899 426.5L635.399 457.4L620.399 457.1L617.599 414.3L625.099 414.1L632.099 413.9" fill="#92E3FA"/>
<path d="M842.3 545.4C844.9 545.4 847 547.5 847 550.1V559.8C847 562.4 844.9 564.5 842.3 564.5C839.7 564.5 837.6 562.4 837.6 559.8V550C837.7 547.5 839.8 545.4 842.3 545.4ZM872.3 545.4C874.9 545.4 877 547.5 877 550.1V559.8C877 562.4 874.9 564.5 872.3 564.5C869.7 564.5 867.6 562.4 867.6 559.8V550C867.7 547.5 869.8 545.4 872.3 545.4Z" fill="white"/>
<path d="M834.1 476.1C834.1 476.1 826.9 551.2 828.2 552.3C829.6 553.3 884.7 554 886.1 553C887.5 552 882 476.8 880.9 476.5C879.8 476.2 835.8 475.1 834.1 476.1Z" fill="#58CAEA"/>
<path d="M843.2 495H873.5C874.5 495 875.4 495.8 875.4 496.9C875.4 497.9 874.5 498.8 873.5 498.8H843.2C842.2 498.8 841.3 498 841.3 496.9C841.3 495.9 842.1 495 843.2 495ZM839.1 507.1H877C878 507.1 878.9 507.9 878.9 509C878.9 510 878 510.9 877 510.9H839.1C838.1 510.9 837.2 510.1 837.2 509C837.2 508 838 507.1 839.1 507.1Z" fill="white"/>
<path d="M767.199 610.3C767.099 607.5 766.699 604.7 766.199 602L755.199 602.2C755.199 602.2 754.899 608.2 749.899 609.2L747.799 609.8C745.199 610.3 742.099 611.2 740.299 612.5C740.199 612 740.199 611.6 740.199 611.2C739.999 608.2 739.399 605.2 738.499 602.3L726.199 602.8C726.199 602.8 726.799 608.6 721.899 609.6L719.799 610.2C715.099 611.1 708.899 613.3 711.499 616.5C713.499 618.9 734.599 620 738.299 619.3C739.699 619.1 740.299 618 740.399 616.7C744.899 618.7 762.499 619.1 765.899 618.4C768.499 617.7 767.299 613.5 767.199 610.3Z" fill="#009ED4"/>
<path d="M715.3 523C714.8 527.3 718.1 549.6 718.1 553.8C718.1 558 726 603.5 726 603.5L738.6 602.9C738.6 602.9 736.1 536 736.3 532.8C736.5 529.6 750.3 490.7 750.3 490.7C750.3 490.7 751.3 501 751.3 504.3C751.3 507.6 755.1 602.2 755.1 602.2H766L781.6 462.9L781.3 460.2L723.8 452.2C723.9 452.1 715.8 518.8 715.3 523Z" fill="url(#paint0_linear_181_2762)"/>
<path d="M792.8 433.6L781.4 464.4L779.4 479.5L789 471.1C789.5 470.6 790.6 468.3 791.1 467L796.8 451L801 425.4C801 425.4 794.6 413.8 787 400.2L792.8 433.6ZM787.2 400.2L786.7 397.5L785.5 397.3L787.2 400.2ZM748.6 322.5C746.8 322.3 745 322.3 743.2 322.6C742.7 322.7 741 326.1 739.8 328.6C738.3 331.7 738 336.7 738 339.9C738 343.9 742 348.4 747 351.6C749.2 353 747.8 360.3 746.7 361C745.6 361.7 724.5 377.3 724.5 377.3L709.3 369L667.8 333.4L665.7 330.8C665.7 330.8 661.1 311.1 659.3 310.2C656.3 308.8 654.1 313.8 651.3 318C649.7 320.4 649.7 327.4 651.6 329.5L659.7 339.3L704.1 375.7L716.4 379.6L730.4 387.2L785.4 397C775.6 379.3 764.6 359.4 763.6 357.3C762.7 355.6 762.6 353.7 763 351.9C763.7 349.4 764.7 347 765.9 344.7C766.8 343.5 767.2 341.2 767.5 339.8C767.7 338.5 767.7 338.9 766.6 340C766.3 340.3 765.3 340.3 764.8 338.3C764.3 336.3 758.3 333.4 755.3 330.8C755.3 330.8 752.2 330 749 328.9" fill="url(#paint1_linear_181_2762)"/>
<path d="M729.199 362.6C725.699 362.9 723.599 362.3 719.399 361.4C715.999 360.6 709.799 359.3 707.699 358.4C698.499 354.8 667.199 332.9 665.899 330.8C665.199 329.6 659.799 336.2 659.399 339.2C659.299 340 668.799 350.2 672.699 354.7C673.399 355.5 679.299 361.7 681.399 363.3C686.099 366.9 697.699 374.2 700.899 376.2C703.299 377.8 711.099 381.8 719.899 384.5C725.799 386.3 727.399 387.7 729.199 391.8C731.199 396.1 722.499 446.2 722.499 446.2C722.499 446.2 722.299 455.4 724.099 456.3C725.699 457.1 744.099 462.5 748.599 464.2C751.799 464.7 755.099 465 758.399 465.2L781.699 462C781.699 462 781.399 417.9 781.799 410.6C782.199 403.4 781.299 399.4 782.599 401.3C783.999 403.5 790.099 423.3 790.099 426.7C790.099 430.1 783.399 459.3 783.399 459.3L792.299 464.2C792.299 464.2 804.299 432.1 804.999 427.8C805.699 423.5 805.899 421.3 803.899 417.1C801.899 412.9 790.899 374.4 790.899 374.4C790.899 374.4 789.799 369.7 781.699 367.3C773.599 364.9 765.799 358.2 756.799 363.4C747.499 368.7 743.699 363.2 743.699 363.2C743.699 363.2 734.499 363.7 729.299 362.9" fill="url(#paint2_linear_181_2762)"/>
<path d="M765.3 313.3C766.3 314.1 769.5 317 770.6 317.9C771.9 318.9 772.6 320.3 773.7 322.1C774.3 323 775.1 325.6 775.6 326.7C777.9 332.6 775.7 335.2 773.9 339.4C771.4 345.2 765.8 346.1 765.3 346.9C760.8 345.5 760.3 346 758.3 346.6C755.8 344.9 754.7 342.7 753.4 341.5C754.2 340.3 751.8 329.6 750 335.2C749.2 332.7 746.9 327.3 745.9 326.6C744.9 325.9 743.8 325 743.9 324.6C744.4 322.2 740.5 322.6 744 320.1C746.8 318.1 747.9 313.4 751.5 313C753.8 312.8 756.7 312.5 759 312.2C760.6 312 762 312.7 763.3 312.9C764.1 313 764.7 313.2 765.4 313.6" fill="url(#paint3_linear_181_2762)"/>
<g opacity="0.07">
<mask id="mask0_181_2762" style="mask-type:luminance" maskUnits="userSpaceOnUse" x="725" y="483" width="28" height="137">
<path d="M725.699 483.2H752.699V619.2H725.699V483.2Z" fill="white"/>
</mask>
<g mask="url(#mask0_181_2762)">
<path d="M752.299 483.8C750.699 488.3 744.699 497.2 740.799 502.4C736.899 507.6 724.699 518.8 725.499 532.5C726.299 546.2 734.499 581.1 734.499 584.3C734.499 587.5 731.399 602.3 729.099 606.9C726.799 611.5 727.199 616.2 728.299 616.2C728.799 616.2 730.7 616.9 733.4 616.2C735.4 615.7 738.099 617.8 739.199 617.3C739.999 617 740.199 614.3 740.199 614.3C740.299 613.2 740.099 612.1 739.799 611.1C739.199 609.4 738.799 607.7 738.499 605.9C737.999 593.1 736.899 563.4 737.199 561.4C737.599 557.5 734.499 537.9 737.299 528.3C740.099 518.7 752.199 483.8 752.299 483.8Z" fill="black"/>
</g>
</g>
<g opacity="0.07">
<mask id="mask1_181_2762" style="mask-type:luminance" maskUnits="userSpaceOnUse" x="752" y="391" width="41" height="78">
<path d="M752.496 465.204L760.659 391.655L792.563 395.196L784.4 468.744L752.496 465.204Z" fill="white"/>
</mask>
<g mask="url(#mask1_181_2762)">
<path d="M781.5 405.4L781.4 450.8C781.4 450.8 782.6 460.4 780.9 461.5C779.3 462.5 772.8 463.4 770.9 463.4C769.6 463.4 751.6 465.5 758 462.3C760.8 460.9 778.8 450.8 773.1 440.9C767.4 431 770 418.4 774.2 409.8C778.4 401.2 781.6 395.5 781.6 395.5L781.5 405.4Z" fill="black"/>
</g>
</g>
<path d="M665.999 330.8L659.999 335.1C659.599 335.4 659.099 335.3 658.799 334.9C658.699 334.8 658.599 334.6 658.599 334.4L657.999 325.7L659.599 323C659.799 322.7 659.899 322.2 659.799 321.9L659.299 317.6C659.299 317.4 659.199 317.3 659.199 317.1L657.099 308.9C656.999 308.4 657.399 308 657.899 308L664.399 307.2C664.899 307.1 665.299 307.5 665.399 308V308.1L666.499 330C666.399 330.4 666.299 330.6 665.999 330.8Z" fill="#FAFAFA"/>
<path opacity="0.07" d="M747 350.7C747 350.7 751.2 349.9 753.3 348.3C755.4 346.7 750.7 351.4 749.2 353.2C747.7 355 747 350.7 747 350.7ZM774.3 479.6C774.3 479.6 770.1 496.5 766.4 501.5C762.4 506.8 766.8 531.3 763.1 542.1C759.6 552.3 764.4 574.4 763.5 581.5C762.8 587.3 762.7 599.7 759.6 606.7C758.6 609.1 756.4 610.8 756.4 611.9C756.4 618.1 764.8 614.1 764.8 614.1L765.3 608.6L771 559.9L781.6 463.4L774.3 479.6Z" fill="black"/>
<path d="M129.1 537.2V552.3H372.4L372.3 537.5L129.1 537.2Z" fill="url(#paint4_linear_181_2762)"/>
<path d="M155.4 486L155 537.9H162.3L162.2 486H155.4Z" fill="#F39200"/>
<path d="M339.3 485.4L339.8 537.9H346.8L346.7 485.4H339.3Z" fill="url(#paint5_linear_181_2762)"/>
<path d="M142.4 486C142.4 486 144.3 479.1 149.3 479.1H351.5C352.2 479.1 352.8 479.3 353.4 479.6C355.1 480.5 358.5 482.7 359.4 485.9H142.4V486Z" fill="url(#paint6_linear_181_2762)"/>
<path d="M141 493.2V499.1L358.9 499.3L358.8 493.5L141 493.2Z" fill="url(#paint7_linear_181_2762)"/>
<path d="M141 505.7V511.6L358.9 511.8L358.8 506L141 505.7Z" fill="url(#paint8_linear_181_2762)"/>
<path d="M141 520V526L358.9 526.2L358.8 520.4L141 520Z" fill="url(#paint9_linear_181_2762)"/>
<path d="M141 531.3V537.2L358.9 537.4L358.8 531.6L141 531.3Z" fill="url(#paint10_linear_181_2762)"/>
<path d="M151 551.7L151.2 589.8H168.5L169 551.7H151Z" fill="url(#paint11_linear_181_2762)"/>
<path d="M333.6 551.8L334 590.4H351.8L351.4 551.7L333.6 551.8Z" fill="url(#paint12_linear_181_2762)"/>
</g>
<defs>
<linearGradient id="paint0_linear_181_2762" x1="715.23" y1="527.855" x2="781.659" y2="527.855" gradientUnits="userSpaceOnUse">
<stop stop-color="#C4C4C4"/>
<stop offset="1" stop-color="#5B5B5B"/>
</linearGradient>
<linearGradient id="paint1_linear_181_2762" x1="650.265" y1="394.788" x2="801.119" y2="394.788" gradientUnits="userSpaceOnUse">
<stop stop-color="#F87B58"/>
<stop offset="0.63" stop-color="#F89453"/>
<stop offset="0.81" stop-color="#F8C548"/>
<stop offset="0.94" stop-color="#F89952"/>
<stop offset="1" stop-color="#F89C51"/>
</linearGradient>
<linearGradient id="paint2_linear_181_2762" x1="659.453" y1="397.88" x2="805.594" y2="397.88" gradientUnits="userSpaceOnUse">
<stop stop-color="#F5EFE5"/>
<stop offset="1" stop-color="#F39200"/>
</linearGradient>
<linearGradient id="paint3_linear_181_2762" x1="742.391" y1="329.438" x2="776.447" y2="329.438" gradientUnits="userSpaceOnUse">
<stop stop-color="#F39200"/>
<stop offset="1" stop-color="#4B44BE"/>
</linearGradient>
<linearGradient id="paint4_linear_181_2762" x1="129.132" y1="544.756" x2="372.408" y2="544.756" gradientUnits="userSpaceOnUse">
<stop stop-color="#F39200"/>
<stop offset="1" stop-color="#FBCC85"/>
</linearGradient>
<linearGradient id="paint5_linear_181_2762" x1="304.793" y1="511.631" x2="353.985" y2="511.631" gradientUnits="userSpaceOnUse">
<stop stop-color="#F39200"/>
<stop offset="1" stop-color="#FFDBA5"/>
</linearGradient>
<linearGradient id="paint6_linear_181_2762" x1="142.39" y1="482.541" x2="359.403" y2="482.541" gradientUnits="userSpaceOnUse">
<stop stop-color="#F39200"/>
<stop offset="1" stop-color="#F2D2A3"/>
</linearGradient>
<linearGradient id="paint7_linear_181_2762" x1="141.021" y1="496.213" x2="358.934" y2="496.213" gradientUnits="userSpaceOnUse">
<stop stop-color="#F39200"/>
<stop offset="1" stop-color="#F9D196"/>
</linearGradient>
<linearGradient id="paint8_linear_181_2762" x1="141.021" y1="508.731" x2="358.934" y2="508.731" gradientUnits="userSpaceOnUse">
<stop stop-color="#F39200"/>
<stop offset="1" stop-color="#F8C67C"/>
</linearGradient>
<linearGradient id="paint9_linear_181_2762" x1="141.021" y1="523.105" x2="358.934" y2="523.105" gradientUnits="userSpaceOnUse">
<stop stop-color="#F39200"/>
<stop offset="1" stop-color="#FAD398"/>
</linearGradient>
<linearGradient id="paint10_linear_181_2762" x1="141.021" y1="534.345" x2="358.934" y2="534.345" gradientUnits="userSpaceOnUse">
<stop stop-color="#F39200"/>
<stop offset="1" stop-color="#F7DBB2"/>
</linearGradient>
<linearGradient id="paint11_linear_181_2762" x1="142.155" y1="570.73" x2="211.28" y2="570.73" gradientUnits="userSpaceOnUse">
<stop stop-color="#F39200"/>
<stop offset="1" stop-color="#F9C77C"/>
</linearGradient>
<linearGradient id="paint12_linear_181_2762" x1="248.371" y1="571.036" x2="362.454" y2="571.036" gradientUnits="userSpaceOnUse">
<stop stop-color="#F39200"/>
<stop offset="1" stop-color="#FFD493"/>
</linearGradient>
<clipPath id="clip0_181_2762">
<rect width="1013.3" height="691.5" fill="white"/>
</clipPath>
</defs>
</svg>
