<svg width="29" height="29" viewBox="0 0 29 29" fill="none" xmlns="http://www.w3.org/2000/svg">
<g id="68-setting-1">
<path id="Vector" d="M13.5938 9.36462H4.53125" stroke="white" stroke-width="1.8125" stroke-linecap="round"/>
<path id="Vector_2" d="M21.1452 12.0833C22.8135 12.0833 24.166 10.7308 24.166 9.06246C24.166 7.3941 22.8135 6.04163 21.1452 6.04163C19.4768 6.04163 18.1243 7.3941 18.1243 9.06246C18.1243 10.7308 19.4768 12.0833 21.1452 12.0833Z" fill="white" stroke="white"/>
<path id="Vector_3" d="M24.4681 20.2396H14.1973" stroke="white" stroke-width="1.8125" stroke-linecap="round"/>
<path id="Vector_4" d="M6.64518 22.9583C8.31354 22.9583 9.66602 21.6058 9.66602 19.9375C9.66602 18.2691 8.31354 16.9166 6.64518 16.9166C4.97682 16.9166 3.62435 18.2691 3.62435 19.9375C3.62435 21.6058 4.97682 22.9583 6.64518 22.9583Z" fill="white" stroke="white"/>
</g>
</svg>
