<svg width="24" height="21" viewBox="0 0 24 21" fill="none" xmlns="http://www.w3.org/2000/svg">
<path id="Vector" d="M10.4257 0C16.0017 0 20.5272 4.032 20.5272 9C20.5272 13.968 16.0017 18 10.4257 18C4.84969 18 0.324219 13.968 0.324219 9C0.324219 4.032 4.84969 0 10.4257 0ZM10.4257 16C14.766 16 18.2824 12.867 18.2824 9C18.2824 5.132 14.766 2 10.4257 2C6.08431 2 2.56899 5.132 2.56899 9C2.56899 12.867 6.08431 16 10.4257 16ZM19.9492 16.071L23.1244 18.899L21.5362 20.314L18.3621 17.485L19.9492 16.071Z" fill="#808080"/>
</svg>
