<svg width="35" height="36" viewBox="0 0 35 36" fill="none" xmlns="http://www.w3.org/2000/svg">
  <path d="M34.425 32.423L27.816 25.6756C29.9484 22.894 31.1054 19.4591 31.1011 15.9229C31.1011 12.7736 30.1891 9.69511 28.4804 7.07661C26.7716 4.4581 24.343 2.41723 21.5015 1.21206C18.66 0.00689908 15.5333 -0.308427 12.5168 0.305961C9.50028 0.920348 6.72944 2.43686 4.55466 4.66371C2.37987 6.89056 0.898827 9.72775 0.298806 12.8165C-0.301215 15.9052 0.00673776 19.1068 1.18372 22.0163C2.36071 24.9258 4.35386 27.4126 6.91113 29.1623C9.4684 30.9119 12.4749 31.8458 15.5506 31.8458C19.004 31.8502 22.3587 30.6654 25.0753 28.482L31.6648 35.2493C31.8455 35.4358 32.0605 35.5839 32.2974 35.6849C32.5342 35.786 32.7883 35.838 33.0449 35.838C33.3015 35.838 33.5556 35.786 33.7925 35.6849C34.0293 35.5839 34.2443 35.4358 34.425 35.2493C34.6072 35.0642 34.7518 34.8441 34.8505 34.6016C34.9492 34.359 35 34.0989 35 33.8361C35 33.5734 34.9492 33.3132 34.8505 33.0707C34.7518 32.8281 34.6072 32.608 34.425 32.423ZM3.88764 15.9229C3.88764 13.5609 4.57166 11.2521 5.8532 9.28818C7.13473 7.3243 8.95623 5.79364 11.0873 4.88977C13.2185 3.98589 15.5635 3.7494 17.8259 4.21019C20.0883 4.67098 22.1664 5.80836 23.7975 7.4785C25.4286 9.14864 26.5393 11.2765 26.9894 13.5931C27.4394 15.9096 27.2084 18.3108 26.3257 20.4929C25.4429 22.6751 23.9481 24.5402 22.0301 25.8524C20.1122 27.1646 17.8573 27.865 15.5506 27.865C12.4574 27.865 9.49085 26.6068 7.30363 24.3673C5.11641 22.1277 3.88764 19.0901 3.88764 15.9229Z" fill="#FFFEFE"/>
</svg>
