<svg width="360" height="360" viewBox="0 0 360 360" fill="none" xmlns="http://www.w3.org/2000/svg">
<rect width="360" height="360" rx="180" fill="#009ED4"/>
<path d="M99.4545 179.548V180.548H100.455H293.636C296.385 180.548 299.021 181.64 300.965 183.583C302.908 185.527 304 188.163 304 190.911C304 193.66 302.908 196.296 300.965 198.24C299.021 200.183 296.385 201.275 293.636 201.275H282.273H281.273V202.275V236.363C281.252 243.184 279.121 249.832 275.171 255.393C271.222 260.954 265.647 265.157 259.213 267.423L258.545 267.658V268.366V281.82C258.545 284.569 257.454 287.205 255.51 289.149C253.566 291.092 250.93 292.184 248.182 292.184C245.433 292.184 242.797 291.092 240.854 289.149C238.91 287.205 237.818 284.569 237.818 281.82V270.457V269.457H236.818H123.182H122.182V270.457V281.82C122.182 284.569 121.09 287.205 119.146 289.149C117.203 291.092 114.567 292.184 111.818 292.184C109.07 292.184 106.434 291.092 104.49 289.149C102.546 287.205 101.455 284.569 101.455 281.82V268.366V267.658L100.787 267.423C94.353 265.157 88.7785 260.954 84.8287 255.393C80.8791 249.832 78.7478 243.185 78.7273 236.364V202.275V201.275H77.7273H66.3636C63.615 201.275 60.979 200.183 59.0354 198.24C57.0919 196.296 56 193.66 56 190.911C56 188.163 57.0919 185.527 59.0354 183.583C60.979 181.64 63.615 180.548 66.3636 180.548H77.7273H78.7273V179.548L78.7273 116.025L78.7273 116.023C78.7113 108.795 80.4618 101.672 83.8264 95.2744C87.191 88.8769 92.0678 83.3985 98.0326 79.3157C103.997 75.2329 110.869 72.6694 118.051 71.8483C125.232 71.0271 132.506 71.9732 139.238 74.6041L139.75 74.8041L140.193 74.4795C147.637 69.0272 156.784 66.4139 165.985 67.1105C175.186 67.8072 183.836 71.7681 190.374 78.279L202.418 90.3229C202.418 90.323 202.418 90.323 202.418 90.323C204.361 92.2665 205.452 94.902 205.452 97.65C205.452 100.398 204.361 103.034 202.418 104.977C202.418 104.977 202.418 104.977 202.418 104.977L162.247 145.147L162.247 145.148C161.285 146.111 160.142 146.876 158.883 147.397C157.625 147.919 156.277 148.187 154.915 148.187C153.553 148.187 152.204 147.919 150.946 147.397C149.688 146.876 148.545 146.111 147.582 145.148L147.582 145.147L135.539 133.105C135.539 133.104 135.538 133.103 135.537 133.103C130.51 128.036 126.983 121.677 125.346 114.729C123.71 107.781 124.029 100.515 126.268 93.7364L126.659 92.5523L125.418 92.4277C120.707 91.9547 115.963 92.9051 111.798 95.1564C108.033 97.1802 104.892 100.195 102.717 103.874C100.542 107.553 99.4137 111.756 99.4545 116.03V179.548ZM162.955 87.663C158.509 87.663 154.231 89.3016 150.93 92.245L150.898 92.2125L150.19 92.9204C146.807 96.3064 144.906 100.897 144.906 105.684C144.906 110.471 146.807 115.062 150.19 118.448L150.192 118.449L154.214 122.46L154.921 123.165L155.628 122.459L179.73 98.3571L180.438 97.649L179.729 96.9419L175.706 92.9305L175.706 92.9302C172.319 89.557 167.734 87.663 162.955 87.663ZM100.455 201.275H99.4545V202.275V236.366C99.4545 239.645 100.757 242.79 103.076 245.108C105.394 247.427 108.539 248.73 111.818 248.73H248.182C251.461 248.73 254.606 247.427 256.924 245.108C259.243 242.79 260.545 239.645 260.545 236.366V202.275V201.275H259.545H100.455Z" fill="white" stroke="#009ED4" stroke-width="2"/>
</svg>
