<svg width="360" height="360" viewBox="0 0 360 360" fill="none" xmlns="http://www.w3.org/2000/svg">
<rect width="360" height="360" rx="180" fill="#009ED4"/>
<path d="M130.182 194.909C136.924 194.909 143.515 192.91 149.122 189.164C154.728 185.418 159.097 180.094 161.678 173.864C164.258 167.635 164.933 160.78 163.618 154.167C162.302 147.554 159.055 141.48 154.288 136.712C149.52 131.945 143.446 128.698 136.833 127.382C130.22 126.067 123.365 126.742 117.136 129.322C110.906 131.903 105.582 136.272 101.836 141.878C98.0903 147.485 96.0909 154.076 96.0909 160.818C96.0909 169.86 99.6826 178.531 106.076 184.924C112.469 191.317 121.14 194.909 130.182 194.909ZM130.182 149.455C132.429 149.455 134.626 150.121 136.495 151.37C138.364 152.618 139.82 154.393 140.68 156.47C141.541 158.546 141.766 160.831 141.327 163.035C140.889 165.239 139.806 167.264 138.217 168.853C136.628 170.443 134.603 171.525 132.399 171.963C130.194 172.402 127.91 172.177 125.833 171.317C123.757 170.457 121.982 169 120.733 167.131C119.485 165.263 118.818 163.066 118.818 160.818C118.818 157.804 120.015 154.914 122.147 152.783C124.278 150.652 127.168 149.455 130.182 149.455ZM277.909 126.727H187C183.986 126.727 181.096 127.925 178.965 130.056C176.834 132.187 175.636 135.077 175.636 138.091V206.273H84.7273V115.364C84.7273 112.35 83.53 109.459 81.3989 107.328C79.2678 105.197 76.3775 104 73.3636 104C70.3498 104 67.4594 105.197 65.3283 107.328C63.1972 109.459 62 112.35 62 115.364V263.091C62 266.105 63.1972 268.995 65.3283 271.126C67.4594 273.257 70.3498 274.455 73.3636 274.455C76.3775 274.455 79.2678 273.257 81.3989 271.126C83.53 268.995 84.7273 266.105 84.7273 263.091V229H289.273V263.091C289.273 266.105 290.47 268.995 292.601 271.126C294.732 273.257 297.623 274.455 300.636 274.455C303.65 274.455 306.541 273.257 308.672 271.126C310.803 268.995 312 266.105 312 263.091V160.818C312 151.777 308.408 143.106 302.015 136.712C295.622 130.319 286.951 126.727 277.909 126.727ZM289.273 206.273H198.364V149.455H277.909C280.923 149.455 283.813 150.652 285.944 152.783C288.076 154.914 289.273 157.804 289.273 160.818V206.273Z" fill="white"/>
</svg>
