<svg width="360" height="360" viewBox="0 0 360 360" fill="none" xmlns="http://www.w3.org/2000/svg">
<rect width="360" height="360" rx="180" fill="#009ED4"/>
<path d="M295.024 98.9586L294.884 98.8186L294.719 98.7087C293.115 97.6397 291.263 96.9821 288.867 97.5811L288.796 97.599L288.726 97.622L248.724 110.814C248.722 110.815 248.719 110.816 248.717 110.817C225.57 118.243 208.086 135.29 199.785 157.134L199.782 157.142L199.779 157.15L187.054 191.509C184.316 196.693 182.011 201.868 180.139 206.58C177.157 197.327 172.91 186.379 166.916 175.407L156.336 134.778L156.331 134.759L156.326 134.741C149.366 109.946 132.808 90.2877 110.931 80.6621L110.931 80.6618L72.232 63.6514C69.7218 62.4206 67.2658 63.1108 65.5935 64.2257C63.4396 65.6617 63 68.2846 63 70.147V70.3016L63.0238 70.4544L68.9838 108.769L68.9845 108.773C74.2027 141.822 95.9833 167.613 125.735 176.365C125.736 176.365 125.738 176.366 125.739 176.366L157.701 185.913C165.553 201.094 170.005 216.526 171.969 225.363C133.732 227.746 101.179 246.988 89.5394 275.872L89.5375 275.877C87.5973 280.727 88.077 286.105 91.0075 290.5L91.0382 290.546L91.0716 290.591C93.961 294.443 98.3601 296.925 103.314 296.925H256.572C261.527 296.925 265.926 294.443 268.815 290.591L268.849 290.546L268.879 290.5C271.81 286.105 272.289 280.727 270.349 275.877L270.347 275.872C258.717 247.011 225.792 227.361 187.56 224.942C188.909 219.582 191.259 211.842 195.351 203.459L228.016 196.843C228.017 196.843 228.017 196.843 228.018 196.843C258.558 190.734 282.178 168.029 288.747 138.711C288.748 138.707 288.749 138.703 288.75 138.699L296.816 104.738C297.188 103.52 296.937 102.304 296.594 101.411C296.231 100.468 295.655 99.5895 295.024 98.9586ZM143.96 138.373L146.942 149.058C138.715 141.326 128.748 135.268 117.038 132.075L116.971 132.057L116.904 132.043C115.335 131.73 113.684 132.046 112.348 132.788C111.007 133.533 109.796 134.821 109.442 136.592C109.128 138.161 109.444 139.812 110.187 141.149C110.924 142.476 112.194 143.676 113.938 144.043C128.525 147.703 139.966 157.576 148.495 169.768L129.849 164.441C129.846 164.44 129.843 164.439 129.84 164.438C104.684 157.011 86.0238 135.128 81.4501 106.448C81.4499 106.447 81.4496 106.445 81.4494 106.444L77.33 79.8546L105.48 92.408L105.482 92.409C124.062 100.667 138.147 117.2 143.957 138.365L143.96 138.373ZM258.553 280.358L258.581 280.427L258.615 280.494C259.012 281.288 258.955 282.175 258.331 283.52C258.155 283.684 257.938 283.868 257.68 284.032C257.291 284.28 256.918 284.411 256.572 284.411H103.314C102.977 284.411 102.635 284.285 102.309 284.048C101.965 283.798 101.757 283.507 101.698 283.388L101.642 283.276L101.573 283.173C101.021 282.345 100.814 280.985 101.272 280.068L101.303 280.006L101.329 279.943C111.562 255.383 143.42 237.325 179.943 237.325C216.463 237.325 248.316 255.379 258.553 280.358ZM276.771 136.066L276.766 136.085L276.762 136.104C270.987 160.854 251.608 179.451 225.517 184.834L225.51 184.836L203.92 189.363C212.577 177.109 224.776 166.013 242.942 161.929C244.632 161.582 245.994 160.448 246.848 159.167C247.707 157.879 248.231 156.174 247.891 154.472C247.55 152.77 246.411 151.398 245.123 150.54C243.835 149.681 242.131 149.157 240.429 149.498L240.417 149.5L240.406 149.502C229.166 151.886 219.782 156.655 212.055 162.558L212.452 161.567L212.466 161.531L212.479 161.495C219.066 142.969 234.318 128.918 253.361 122.709L253.371 122.705L253.381 122.702L282.678 112.81L276.771 136.066Z" fill="white"/>
<path d="M295.024 98.9586L294.884 98.8186L294.719 98.7087C293.115 97.6397 291.263 96.9821 288.867 97.5811L288.796 97.599L288.726 97.622L248.724 110.814C248.722 110.815 248.719 110.816 248.717 110.817C225.57 118.243 208.086 135.29 199.785 157.134L199.782 157.142L199.779 157.15L187.054 191.509C184.316 196.693 182.011 201.868 180.139 206.58C177.157 197.327 172.91 186.379 166.916 175.407L156.336 134.778L156.331 134.759L156.326 134.741C149.366 109.946 132.808 90.2877 110.931 80.6621L110.931 80.6618L72.232 63.6514C69.7218 62.4206 67.2658 63.1108 65.5935 64.2257C63.4396 65.6617 63 68.2846 63 70.147V70.3016L63.0238 70.4544L68.9838 108.769L68.9845 108.773C74.2027 141.822 95.9833 167.613 125.735 176.365C125.736 176.365 125.738 176.366 125.739 176.366L157.701 185.913C165.553 201.094 170.005 216.526 171.969 225.363C133.732 227.746 101.179 246.988 89.5394 275.872L89.5375 275.877C87.5973 280.727 88.077 286.105 91.0075 290.5L91.0382 290.546L91.0716 290.591C93.961 294.443 98.3601 296.925 103.314 296.925H256.572C261.527 296.925 265.926 294.443 268.815 290.591L268.849 290.546L268.879 290.5C271.81 286.105 272.289 280.727 270.349 275.877L270.347 275.872C258.717 247.011 225.792 227.361 187.56 224.942C188.909 219.582 191.259 211.842 195.351 203.459L228.016 196.843C228.017 196.843 228.017 196.843 228.018 196.843C258.558 190.734 282.178 168.029 288.747 138.711C288.748 138.707 288.749 138.703 288.75 138.699L296.816 104.738C297.188 103.52 296.937 102.304 296.594 101.411C296.231 100.468 295.655 99.5895 295.024 98.9586ZM143.96 138.373L146.942 149.058C138.715 141.326 128.748 135.268 117.038 132.075L116.971 132.057L116.904 132.043C115.335 131.73 113.684 132.046 112.348 132.788C111.007 133.533 109.796 134.821 109.442 136.592C109.128 138.161 109.444 139.812 110.187 141.149C110.924 142.476 112.194 143.676 113.938 144.043C128.525 147.703 139.966 157.576 148.495 169.768L129.849 164.441C129.846 164.44 129.843 164.439 129.84 164.438C104.684 157.011 86.0238 135.128 81.4501 106.448C81.4499 106.447 81.4496 106.445 81.4494 106.444L77.33 79.8546L105.48 92.408L105.482 92.409C124.062 100.667 138.147 117.2 143.957 138.365L143.96 138.373ZM258.553 280.358L258.581 280.427L258.615 280.494C259.012 281.288 258.955 282.175 258.331 283.52C258.155 283.684 257.938 283.868 257.68 284.032C257.291 284.28 256.918 284.411 256.572 284.411H103.314C102.977 284.411 102.635 284.285 102.309 284.048C101.965 283.798 101.757 283.507 101.698 283.388L101.642 283.276L101.573 283.173C101.021 282.345 100.814 280.985 101.272 280.068L101.303 280.006L101.329 279.943C111.562 255.383 143.42 237.325 179.943 237.325C216.463 237.325 248.316 255.379 258.553 280.358ZM276.771 136.066L276.766 136.085L276.762 136.104C270.987 160.854 251.608 179.451 225.517 184.834L225.51 184.836L203.92 189.363C212.577 177.109 224.776 166.013 242.942 161.929C244.632 161.582 245.994 160.448 246.848 159.167C247.707 157.879 248.231 156.174 247.891 154.472C247.55 152.77 246.411 151.398 245.123 150.54C243.835 149.681 242.131 149.157 240.429 149.498L240.417 149.5L240.406 149.502C229.166 151.886 219.782 156.655 212.055 162.558L212.452 161.567L212.466 161.531L212.479 161.495C219.066 142.969 234.318 128.918 253.361 122.709L253.371 122.705L253.381 122.702L282.678 112.81L276.771 136.066Z" fill="white"/>
<path d="M295.024 98.9586L294.884 98.8186L294.719 98.7087C293.115 97.6397 291.263 96.9821 288.867 97.5811L288.796 97.599L288.726 97.622L248.724 110.814C248.722 110.815 248.719 110.816 248.717 110.817C225.57 118.243 208.086 135.29 199.785 157.134L199.782 157.142L199.779 157.15L187.054 191.509C184.316 196.693 182.011 201.868 180.139 206.58C177.157 197.327 172.91 186.379 166.916 175.407L156.336 134.778L156.331 134.759L156.326 134.741C149.366 109.946 132.808 90.2877 110.931 80.6621L110.931 80.6618L72.232 63.6514C69.7218 62.4206 67.2658 63.1108 65.5935 64.2257C63.4396 65.6617 63 68.2846 63 70.147V70.3016L63.0238 70.4544L68.9838 108.769L68.9845 108.773C74.2027 141.822 95.9833 167.613 125.735 176.365C125.736 176.365 125.738 176.366 125.739 176.366L157.701 185.913C165.553 201.094 170.005 216.526 171.969 225.363C133.732 227.746 101.179 246.988 89.5394 275.872L89.5375 275.877C87.5973 280.727 88.077 286.105 91.0075 290.5L91.0382 290.546L91.0716 290.591C93.961 294.443 98.3601 296.925 103.314 296.925H256.572C261.527 296.925 265.926 294.443 268.815 290.591L268.849 290.546L268.879 290.5C271.81 286.105 272.289 280.727 270.349 275.877L270.347 275.872C258.717 247.011 225.792 227.361 187.56 224.942C188.909 219.582 191.259 211.842 195.351 203.459L228.016 196.843C228.017 196.843 228.017 196.843 228.018 196.843C258.558 190.734 282.178 168.029 288.747 138.711C288.748 138.707 288.749 138.703 288.75 138.699L296.816 104.738C297.188 103.52 296.937 102.304 296.594 101.411C296.231 100.468 295.655 99.5895 295.024 98.9586ZM143.96 138.373L146.942 149.058C138.715 141.326 128.748 135.268 117.038 132.075L116.971 132.057L116.904 132.043C115.335 131.73 113.684 132.046 112.348 132.788C111.007 133.533 109.796 134.821 109.442 136.592C109.128 138.161 109.444 139.812 110.187 141.149C110.924 142.476 112.194 143.676 113.938 144.043C128.525 147.703 139.966 157.576 148.495 169.768L129.849 164.441C129.846 164.44 129.843 164.439 129.84 164.438C104.684 157.011 86.0238 135.128 81.4501 106.448C81.4499 106.447 81.4496 106.445 81.4494 106.444L77.33 79.8546L105.48 92.408L105.482 92.409C124.062 100.667 138.147 117.2 143.957 138.365L143.96 138.373ZM258.553 280.358L258.581 280.427L258.615 280.494C259.012 281.288 258.955 282.175 258.331 283.52C258.155 283.684 257.938 283.868 257.68 284.032C257.291 284.28 256.918 284.411 256.572 284.411H103.314C102.977 284.411 102.635 284.285 102.309 284.048C101.965 283.798 101.757 283.507 101.698 283.388L101.642 283.276L101.573 283.173C101.021 282.345 100.814 280.985 101.272 280.068L101.303 280.006L101.329 279.943C111.562 255.383 143.42 237.325 179.943 237.325C216.463 237.325 248.316 255.379 258.553 280.358ZM276.771 136.066L276.766 136.085L276.762 136.104C270.987 160.854 251.608 179.451 225.517 184.834L225.51 184.836L203.92 189.363C212.577 177.109 224.776 166.013 242.942 161.929C244.632 161.582 245.994 160.448 246.848 159.167C247.707 157.879 248.231 156.174 247.891 154.472C247.55 152.77 246.411 151.398 245.123 150.54C243.835 149.681 242.131 149.157 240.429 149.498L240.417 149.5L240.406 149.502C229.166 151.886 219.782 156.655 212.055 162.558L212.452 161.567L212.466 161.531L212.479 161.495C219.066 142.969 234.318 128.918 253.361 122.709L253.371 122.705L253.381 122.702L282.678 112.81L276.771 136.066Z" stroke="white" stroke-width="4"/>
</svg>
