<svg width="360" height="360" viewBox="0 0 360 360" fill="none" xmlns="http://www.w3.org/2000/svg">
<rect width="360" height="360" rx="180" fill="#009ED4"/>
<path d="M251.115 124C248.257 124 245.516 125.135 243.495 127.156C241.474 129.177 240.339 131.918 240.339 134.776V225.293C240.339 228.151 241.474 230.892 243.495 232.913C245.516 234.934 248.257 236.069 251.115 236.069C253.973 236.069 256.714 234.934 258.735 232.913C260.755 230.892 261.891 228.151 261.891 225.293V134.776C261.891 131.918 260.755 129.177 258.735 127.156C256.714 125.135 253.973 124 251.115 124ZM279.132 141.241C276.848 141.248 274.659 142.159 273.044 143.774C271.429 145.389 270.518 147.578 270.511 149.862V210.207C270.511 212.493 271.42 214.686 273.036 216.303C274.653 217.919 276.846 218.828 279.132 218.828C281.418 218.828 283.611 217.919 285.228 216.303C286.845 214.686 287.753 212.493 287.753 210.207V149.862C287.745 147.578 286.834 145.39 285.219 143.775C283.604 142.16 281.416 141.249 279.132 141.241ZM108.874 124C106.016 124 103.275 125.135 101.254 127.156C99.233 129.177 98.0977 131.918 98.0977 134.776V225.293C98.0977 228.151 99.233 230.892 101.254 232.913C103.275 234.934 106.016 236.069 108.874 236.069C111.731 236.069 114.472 234.934 116.493 232.913C118.514 230.892 119.649 228.151 119.649 225.293V134.776C119.649 131.918 118.514 129.177 116.493 127.156C114.472 125.135 111.731 124 108.874 124Z" fill="white"/>
<path d="M231.726 171.414H128.277V188.655H231.726V171.414Z" fill="white"/>
<path d="M80.859 141.242C78.5726 141.242 76.3799 142.15 74.7632 143.767C73.1465 145.384 72.2383 147.577 72.2383 149.863V210.208C72.2383 212.494 73.1465 214.687 74.7632 216.303C76.3799 217.92 78.5726 218.828 80.859 218.828C83.1453 218.828 85.338 217.92 86.9547 216.303C88.5714 214.687 89.4797 212.494 89.4797 210.208V149.863C89.4728 147.579 88.5624 145.39 86.9472 143.775C85.332 142.159 83.1432 141.249 80.859 141.242Z" fill="white"/>
<path d="M63.6207 167.117H55V192.979H63.6207V167.117Z" fill="white"/>
<path d="M305 167.09H296.379V192.952H305V167.09Z" fill="white"/>
</svg>
