<svg width="360" height="360" viewBox="0 0 360 360" fill="none" xmlns="http://www.w3.org/2000/svg">
<rect width="360" height="360" rx="180" fill="#009ED4"/>
<path d="M192.5 117.5H155C151.685 117.5 148.505 118.817 146.161 121.161C143.817 123.505 142.5 126.685 142.5 130V230C142.5 233.315 143.817 236.495 146.161 238.839C148.505 241.183 151.685 242.5 155 242.5C158.315 242.5 161.495 241.183 163.839 238.839C166.183 236.495 167.5 233.315 167.5 230V205H192.5C202.446 205 211.984 201.049 219.017 194.016C226.049 186.984 230 177.446 230 167.5V155C230 145.054 226.049 135.516 219.017 128.483C211.984 121.451 202.446 117.5 192.5 117.5ZM205 167.5C205 170.815 203.683 173.995 201.339 176.339C198.995 178.683 195.815 180 192.5 180H167.5V142.5H192.5C195.815 142.5 198.995 143.817 201.339 146.161C203.683 148.505 205 151.685 205 155V167.5ZM180 55C155.277 55 131.11 62.3311 110.554 76.0663C89.9976 89.8015 73.9761 109.324 64.5151 132.165C55.0542 155.005 52.5787 180.139 57.4019 204.386C62.225 228.634 74.1301 250.907 91.6117 268.388C109.093 285.87 131.366 297.775 155.614 302.598C179.861 307.421 204.995 304.946 227.835 295.485C250.676 286.024 270.199 270.002 283.934 249.446C297.669 228.89 305 204.723 305 180C305 163.585 301.767 147.33 295.485 132.165C289.203 116.999 279.996 103.219 268.388 91.6116C256.781 80.0043 243.001 70.7969 227.835 64.5151C212.67 58.2332 196.415 55 180 55ZM180 280C160.222 280 140.888 274.135 124.443 263.147C107.998 252.159 95.1809 236.541 87.6121 218.268C80.0433 199.996 78.063 179.889 81.9215 160.491C85.78 141.093 95.3041 123.275 109.289 109.289C123.275 95.3041 141.093 85.78 160.491 81.9215C179.889 78.063 199.996 80.0433 218.268 87.612C236.541 95.1808 252.159 107.998 263.147 124.443C274.135 140.888 280 160.222 280 180C280 206.522 269.464 231.957 250.711 250.711C231.957 269.464 206.522 280 180 280Z" fill="white"/>
</svg>
