<svg width="360" height="360" viewBox="0 0 360 360" fill="none" xmlns="http://www.w3.org/2000/svg">
<rect width="360" height="360" rx="180" fill="#009ED4"/>
<path d="M62.0114 233.898C68.2169 233.898 70.957 235.469 74.7045 237.605C79.0161 240.063 84.3754 243.166 94.2881 243.166C104.201 243.166 109.56 240.103 113.872 237.605C117.619 235.469 120.319 233.898 126.565 233.898C132.77 233.898 135.51 235.469 139.258 237.605C143.57 240.063 148.929 243.166 158.842 243.166C168.754 243.166 174.113 240.103 178.425 237.605C182.173 235.469 184.872 233.898 191.118 233.898C197.324 233.898 200.064 235.469 203.811 237.605C207.72 239.862 212.555 242.561 220.897 243.045C221.017 243.045 221.138 243.085 221.259 243.085H221.42C222.105 243.126 222.71 243.166 223.435 243.166C233.348 243.166 238.747 240.103 243.059 237.605C246.807 235.469 249.547 233.898 255.752 233.898C261.998 233.898 264.698 235.469 268.445 237.605C272.757 240.063 278.116 243.166 288.069 243.166C288.979 243.166 289.881 242.987 290.721 242.638C291.562 242.29 292.326 241.78 292.97 241.136C293.614 240.492 294.124 239.728 294.472 238.887C294.821 238.046 295 237.145 295 236.235C295 235.325 294.821 234.424 294.472 233.583C294.124 232.742 293.614 231.978 292.97 231.334C292.326 230.691 291.562 230.18 290.721 229.832C289.881 229.484 288.979 229.304 288.069 229.304C281.823 229.304 279.124 227.733 275.376 225.597C271.064 223.139 265.705 220.036 255.752 220.036C245.839 220.036 240.44 223.099 236.128 225.597C233.509 227.088 231.373 228.297 228.19 228.901V72.9577C228.19 65.7448 234.073 59.9019 241.246 59.9019C248.459 59.9019 254.302 65.7851 254.302 72.9577V76.7858C254.302 78.6239 255.032 80.3868 256.332 81.6866C257.631 82.9864 259.394 83.7166 261.232 83.7166C263.071 83.7166 264.833 82.9864 266.133 81.6866C267.433 80.3868 268.163 78.6239 268.163 76.7858V72.9577C268.163 58.0887 256.075 46 241.206 46C226.336 46 214.248 58.0887 214.248 72.9577V115.631H137.928V79.405C137.928 72.1921 143.811 66.3492 150.984 66.3492C158.197 66.3492 164.04 72.2324 164.04 79.405V83.233C164.04 85.0712 164.77 86.8341 166.07 88.1339C167.369 89.4337 169.132 90.1639 170.97 90.1639C172.809 90.1639 174.572 89.4337 175.871 88.1339C177.171 86.8341 177.901 85.0712 177.901 83.233V79.405C177.901 64.5359 165.813 52.4473 150.944 52.4473C136.075 52.4473 123.986 64.5359 123.986 79.405V220.157C115.685 220.641 110.85 223.341 106.901 225.597C103.153 227.733 100.453 229.304 94.2075 229.304C87.9617 229.304 85.2619 227.733 81.5144 225.597C77.2028 223.139 71.8435 220.036 61.9308 220.036C58.1028 220.036 55 223.139 55 226.967C55.0403 230.795 58.143 233.898 62.0114 233.898ZM137.928 129.492H214.288V158.707H137.928V129.492ZM137.928 172.608H214.288V200.09H137.928V172.608ZM137.928 213.952H214.288V227.491C213.12 226.927 211.951 226.282 210.702 225.597C206.39 223.139 201.031 220.036 191.118 220.036C181.206 220.036 175.846 223.099 171.535 225.597C167.787 227.733 165.087 229.304 158.842 229.304C152.636 229.304 149.896 227.733 146.148 225.597C143.892 224.308 141.273 222.857 137.928 221.729V213.952ZM287.989 259.647C281.743 259.647 279.043 258.075 275.296 255.94C270.984 253.482 265.625 250.379 255.672 250.379C245.759 250.379 240.359 253.441 236.048 255.94C232.3 258.075 229.56 259.647 223.355 259.647C217.149 259.647 214.409 258.075 210.662 255.94C206.35 253.482 200.991 250.379 191.078 250.379C181.165 250.379 175.806 253.441 171.494 255.94C167.747 258.075 165.047 259.647 158.801 259.647C152.596 259.647 149.856 258.075 146.108 255.94C141.797 253.482 136.437 250.379 126.525 250.379C116.612 250.379 111.253 253.441 106.941 255.94C103.193 258.075 100.494 259.647 94.2478 259.647C88.002 259.647 85.3022 258.075 81.5547 255.94C77.2431 253.482 71.8838 250.379 61.9711 250.379C60.133 250.379 58.3701 251.109 57.0703 252.409C55.7705 253.709 55.0403 255.471 55.0403 257.31C55.0403 259.148 55.7705 260.911 57.0703 262.21C58.3701 263.51 60.133 264.24 61.9711 264.24C68.1766 264.24 70.9167 265.812 74.6642 267.948C78.9758 270.406 84.3351 273.508 94.2478 273.508C104.161 273.508 109.52 270.446 113.831 267.948C117.579 265.812 120.279 264.24 126.525 264.24C132.73 264.24 135.47 265.812 139.218 267.948C143.529 270.406 148.889 273.508 158.801 273.508C168.714 273.508 174.073 270.446 178.385 267.948C182.132 265.812 184.832 264.24 191.078 264.24C197.283 264.24 200.023 265.812 203.771 267.948C208.083 270.406 213.442 273.508 223.355 273.508C233.267 273.508 238.667 270.446 242.979 267.948C246.726 265.812 249.466 264.24 255.672 264.24C261.917 264.24 264.617 265.812 268.365 267.948C272.676 270.406 278.036 273.508 287.989 273.508C291.817 273.508 294.919 270.406 294.919 266.578C294.96 262.75 291.857 259.647 287.989 259.647ZM287.989 290.03C281.743 290.03 279.043 288.458 275.296 286.322C270.984 283.864 265.625 280.762 255.672 280.762C245.759 280.762 240.359 283.824 236.048 286.322C232.3 288.458 229.56 290.03 223.355 290.03C217.149 290.03 214.409 288.458 210.662 286.322C206.35 283.864 200.991 280.762 191.078 280.762C181.165 280.762 175.806 283.824 171.494 286.322C167.747 288.458 165.047 290.03 158.801 290.03C152.596 290.03 149.856 288.458 146.108 286.322C141.797 283.864 136.437 280.762 126.525 280.762C116.612 280.762 111.253 283.824 106.941 286.322C103.193 288.458 100.494 290.03 94.2478 290.03C88.002 290.03 85.3022 288.458 81.5547 286.322C77.2431 283.864 71.8838 280.762 61.9711 280.762C60.133 280.762 58.3701 281.492 57.0703 282.792C55.7705 284.091 55.0403 285.854 55.0403 287.692C55.0403 289.531 55.7705 291.294 57.0703 292.593C58.3701 293.893 60.133 294.623 61.9711 294.623C68.1766 294.623 70.9167 296.195 74.6642 298.33C78.9758 300.829 84.3351 303.891 94.2881 303.891C104.241 303.891 109.56 300.829 113.872 298.33C117.619 296.195 120.319 294.623 126.565 294.623C132.77 294.623 135.51 296.195 139.258 298.33C143.57 300.788 148.929 303.891 158.842 303.891C168.754 303.891 174.113 300.829 178.425 298.33C182.173 296.195 184.872 294.623 191.118 294.623C197.324 294.623 200.064 296.195 203.811 298.33C208.123 300.788 213.482 303.891 223.395 303.891C233.308 303.891 238.707 300.829 243.019 298.33C246.766 296.195 249.506 294.623 255.712 294.623C261.958 294.623 264.657 296.195 268.405 298.33C272.717 300.788 278.076 303.891 288.029 303.891C288.939 303.889 289.84 303.707 290.68 303.356C291.52 303.005 292.282 302.492 292.924 301.847C293.566 301.202 294.074 300.436 294.42 299.594C294.766 298.752 294.942 297.85 294.94 296.94C294.937 296.03 294.755 295.129 294.404 294.289C294.054 293.45 293.541 292.687 292.895 292.045C292.25 291.404 291.484 290.895 290.642 290.549C289.801 290.204 288.899 290.027 287.989 290.03Z" fill="white"/>
</svg>
