<svg width="360" height="360" viewBox="0 0 360 360" fill="none" xmlns="http://www.w3.org/2000/svg">
<rect width="360" height="360" rx="180" fill="#009ED4"/>
<path d="M192.65 221.727C192.375 220.883 191.957 220.092 191.412 219.39L189.762 217.327C188.484 216.039 186.963 215.016 185.288 214.318C183.612 213.619 181.815 213.26 180 213.26C178.185 213.26 176.388 213.619 174.712 214.318C173.037 215.016 171.516 216.039 170.238 217.327C169.582 217.923 169.025 218.619 168.588 219.39C168.043 220.092 167.625 220.883 167.35 221.727C166.952 222.554 166.674 223.434 166.525 224.34C166.458 225.209 166.458 226.083 166.525 226.952C166.477 228.8 166.854 230.635 167.625 232.315C169.024 235.659 171.687 238.315 175.035 239.705C178.382 241.096 182.143 241.108 185.5 239.74C187.171 238.992 188.705 237.97 190.037 236.715C191.274 235.448 192.255 233.954 192.925 232.315C193.647 230.619 194.021 228.795 194.025 226.952C194.092 226.083 194.092 225.209 194.025 224.34C193.704 223.403 193.24 222.522 192.65 221.727ZM180 116.677C176.353 116.677 172.856 118.126 170.277 120.705C167.699 123.283 166.25 126.781 166.25 130.427V171.677C166.25 175.324 167.699 178.821 170.277 181.4C172.856 183.979 176.353 185.427 180 185.427C183.647 185.427 187.144 183.979 189.723 181.4C192.301 178.821 193.75 175.324 193.75 171.677V130.427C193.75 126.781 192.301 123.283 189.723 120.705C187.144 118.126 183.647 116.677 180 116.677ZM284.912 65.6649C283.315 64.3727 281.448 63.4549 279.45 62.979C277.451 62.5031 275.371 62.4812 273.362 62.9149C258.67 65.9941 243.502 66.0333 228.794 63.0301C214.085 60.027 200.147 54.0449 187.837 45.4524C185.536 43.8556 182.801 43 180 43C177.199 43 174.464 43.8556 172.163 45.4524C159.853 54.0449 145.915 60.027 131.206 63.0301C116.498 66.0333 101.33 65.9941 86.6376 62.9149C84.6292 62.4812 82.5492 62.5031 80.5505 62.979C78.5517 63.4549 76.685 64.3727 75.0876 65.6649C73.4923 66.959 72.2072 68.5941 71.3268 70.4501C70.4465 72.306 69.9931 74.3357 70.0001 76.3899V178.827C69.9879 198.541 74.6857 217.973 83.7024 235.504C92.7191 253.035 105.794 268.159 121.838 279.615L172.025 315.365C174.354 317.023 177.141 317.914 180 317.914C182.859 317.914 185.646 317.023 187.975 315.365L238.162 279.615C254.206 268.159 267.281 253.035 276.298 235.504C285.314 217.973 290.012 198.541 290 178.827V76.3899C290.007 74.3357 289.554 72.306 288.673 70.4501C287.793 68.5941 286.508 66.959 284.912 65.6649ZM262.5 178.827C262.51 194.155 258.86 209.264 251.853 222.896C244.845 236.529 234.683 248.29 222.212 257.202L180 287.315L137.788 257.202C125.317 248.29 115.155 236.529 108.147 222.896C101.14 209.264 97.4895 194.155 97.5001 178.827V92.2024C126.326 94.6696 155.196 87.9814 180 73.0899C204.804 87.9814 233.674 94.6696 262.5 92.2024V178.827Z" fill="white"/>
</svg>
