<svg width="360" height="360" viewBox="0 0 360 360" fill="none" xmlns="http://www.w3.org/2000/svg">
<rect width="360" height="360" rx="180" fill="#009ED4"/>
<mask id="path-2-outside-1_1618_11547" maskUnits="userSpaceOnUse" x="57.5781" y="65.2109" width="244" height="231" fill="black">
<rect fill="white" x="57.5781" y="65.2109" width="244" height="231"/>
<path d="M231.953 229.634C233.724 229.634 235.157 228.198 235.157 226.428C235.157 224.658 233.724 223.222 231.953 223.222H175.16V203.263C175.16 200.718 173.608 198.535 171.411 197.619V168.488H223.606C225.298 168.488 226.7 167.171 226.804 165.482C226.869 164.449 226.931 163.415 226.931 162.318C226.931 130.492 201.427 104.522 169.765 103.691C169.647 103.687 169.535 103.674 169.417 103.683C169.013 103.674 168.613 103.652 168.207 103.652C167.784 103.652 167.367 103.675 166.946 103.684C166.817 103.673 166.693 103.688 166.563 103.694C134.94 104.569 109.48 130.521 109.48 162.318C109.48 163.416 109.483 164.449 109.547 165.482C109.651 167.171 111.054 168.488 112.745 168.488H165.002V197.611C162.771 198.522 161.191 200.708 161.191 203.263V223.222H104.461C102.69 223.222 101.256 224.658 101.256 226.428C101.256 228.198 102.69 229.634 104.461 229.634H161.191V289.206C161.191 290.976 162.625 292.412 164.396 292.412C166.167 292.412 167.601 290.977 167.601 289.206V203.567H168.751V289.206C168.751 290.976 170.185 292.412 171.956 292.412C173.727 292.412 175.16 290.977 175.16 289.206V229.634H231.953ZM171.411 113.084C183.008 125.085 195.138 143.473 196.993 162.077H171.411V113.084ZM165.002 162.077H139.299C141.163 143.469 153.361 125.037 165.002 113.017V162.077ZM220.52 162.077H203.424C201.74 142.83 190.416 124.267 178.319 111.052C202.264 115.756 220.404 136.825 220.52 162.077ZM158.018 111.065C145.899 124.298 134.555 142.864 132.867 162.076H115.891C116.007 136.852 134.109 115.799 158.018 111.065ZM276.742 287.161C277.371 288.816 276.54 290.668 274.884 291.296C274.508 291.439 274.125 291.506 273.746 291.506C272.454 291.506 271.235 290.719 270.75 289.437L254.237 245.963H227.268L210.696 289.441C210.209 290.72 208.991 291.506 207.7 291.506C207.321 291.506 206.933 291.439 206.558 291.295C204.904 290.665 204.075 288.812 204.704 287.158L220.405 245.963H209.998C208.226 245.963 206.793 244.527 206.793 242.757C206.793 240.987 208.226 239.551 209.998 239.551H224.936C224.945 239.551 224.952 239.552 224.96 239.551H253.895L266.57 184.401C266.966 182.676 268.693 181.603 270.412 181.995C272.138 182.392 273.215 184.112 272.817 185.837L259.789 242.527L276.742 287.161ZM133.825 287.162C134.454 288.816 133.621 290.668 131.966 291.296C131.591 291.439 131.208 291.507 130.829 291.507C129.537 291.507 128.318 290.718 127.833 289.438L111.322 245.963H84.3528L67.7808 289.442C67.2932 290.72 66.0762 291.507 64.7846 291.507C64.4053 291.507 64.0177 291.439 63.643 291.295C61.9888 290.665 61.1594 288.813 61.7885 287.159L78.8014 242.524L65.7741 185.837C65.3763 184.111 66.4532 182.392 68.1786 181.995C69.9059 181.603 71.6272 182.676 72.0208 184.401L84.6956 239.551H128.531C130.302 239.551 131.736 240.986 131.736 242.757C131.736 244.527 130.302 245.962 128.531 245.962H118.178L133.825 287.162ZM278.461 99.4181C278.461 93.2154 273.417 88.1686 267.214 88.1686C261.044 88.1686 256.025 93.2149 256.025 99.4181C256.025 105.621 261.044 110.668 267.214 110.668C273.417 110.668 278.461 105.621 278.461 99.4181ZM267.214 104.256C264.578 104.256 262.434 102.086 262.434 99.4181C262.434 96.75 264.578 94.58 267.214 94.58C269.881 94.58 272.052 96.75 272.052 99.4181C272.052 102.086 269.881 104.256 267.214 104.256ZM264.009 80.3061V71.4166C264.009 69.6468 265.443 68.2109 267.214 68.2109C268.985 68.2109 270.419 69.6463 270.419 71.4166V80.3065C270.419 82.0764 268.985 83.5122 267.214 83.5122C265.443 83.5118 264.009 82.0764 264.009 80.3061ZM274.05 81.2502L278.465 73.569C279.349 72.0323 281.312 71.5105 282.843 72.3867C284.377 73.2693 284.906 75.2288 284.025 76.7632L279.609 84.4443C279.015 85.4759 277.936 86.0527 276.828 86.0527C276.284 86.0527 275.736 85.9154 275.232 85.6267C273.698 84.7441 273.169 82.7846 274.05 81.2502ZM282.239 87.0894L289.858 82.674C291.383 81.7873 293.353 82.3081 294.238 83.8397C295.126 85.3723 294.603 87.3327 293.071 88.2204L285.452 92.6357C284.945 92.9295 284.393 93.0683 283.847 93.0683C282.743 93.0683 281.666 92.4951 281.072 91.47C280.184 89.9375 280.707 87.9771 282.239 87.0894ZM298.42 99.4181C298.42 101.188 296.987 102.624 295.215 102.624H286.385C284.614 102.624 283.18 101.188 283.18 99.4181C283.18 97.6478 284.614 96.2124 286.385 96.2124H295.215C296.987 96.2124 298.42 97.6483 298.42 99.4181ZM294.238 115.058C293.644 116.083 292.567 116.656 291.463 116.656C290.917 116.656 290.364 116.517 289.858 116.223L282.239 111.808C280.707 110.92 280.184 108.96 281.072 107.427C281.96 105.897 283.922 105.375 285.452 106.262L293.071 110.677C294.603 111.565 295.126 113.525 294.238 115.058ZM284.024 122.074C284.905 123.609 284.376 125.569 282.843 126.451C282.339 126.74 281.789 126.877 281.247 126.877C280.139 126.877 279.059 126.3 278.465 125.269L274.05 117.587C273.169 116.053 273.698 114.093 275.231 113.211C276.767 112.331 278.726 112.858 279.609 114.393L284.024 122.074ZM267.214 115.385C268.985 115.385 270.419 116.82 270.419 118.591V127.421C270.419 129.191 268.985 130.627 267.214 130.627C265.443 130.627 264.009 129.191 264.009 127.421V118.591C264.009 116.82 265.443 115.385 267.214 115.385ZM250.462 122.074L254.877 114.393C255.76 112.856 257.721 112.333 259.255 113.211C260.788 114.094 261.317 116.053 260.436 117.587L256.021 125.269C255.427 126.3 254.348 126.877 253.239 126.877C252.695 126.877 252.148 126.74 251.643 126.451C250.109 125.568 249.58 123.609 250.462 122.074ZM252.239 111.813L244.559 116.229C244.054 116.518 243.504 116.656 242.963 116.656C241.854 116.656 240.775 116.079 240.181 115.047C239.3 113.513 239.829 111.553 241.363 110.672L249.043 106.256C250.579 105.374 252.537 105.901 253.421 107.438C254.301 108.973 253.772 110.932 252.239 111.813ZM236.005 99.4181C236.005 97.6483 237.439 96.2124 239.21 96.2124H248.101C249.872 96.2124 251.306 97.6478 251.306 99.4181C251.306 101.188 249.872 102.624 248.101 102.624H239.21C237.439 102.624 236.005 101.188 236.005 99.4181ZM240.181 83.8504C241.066 82.3128 243.027 81.7877 244.559 82.669L252.239 87.0843C253.773 87.9655 254.302 89.9255 253.421 91.4599C252.827 92.4914 251.748 93.0683 250.639 93.0683C250.095 93.0683 249.547 92.9309 249.043 92.6413L241.363 88.226C239.829 87.3447 239.299 85.3852 240.181 83.8504ZM250.462 76.7632C249.58 75.2288 250.109 73.2688 251.643 72.3867C253.179 71.5064 255.137 72.0337 256.021 73.569L260.436 81.2502C261.317 82.7846 260.788 84.7446 259.255 85.6267C258.751 85.9154 258.201 86.0527 257.659 86.0527C256.55 86.0527 255.471 85.4754 254.877 84.4443L250.462 76.7632Z"/>
</mask>
<path d="M231.953 229.634C233.724 229.634 235.157 228.198 235.157 226.428C235.157 224.658 233.724 223.222 231.953 223.222H175.16V203.263C175.16 200.718 173.608 198.535 171.411 197.619V168.488H223.606C225.298 168.488 226.7 167.171 226.804 165.482C226.869 164.449 226.931 163.415 226.931 162.318C226.931 130.492 201.427 104.522 169.765 103.691C169.647 103.687 169.535 103.674 169.417 103.683C169.013 103.674 168.613 103.652 168.207 103.652C167.784 103.652 167.367 103.675 166.946 103.684C166.817 103.673 166.693 103.688 166.563 103.694C134.94 104.569 109.48 130.521 109.48 162.318C109.48 163.416 109.483 164.449 109.547 165.482C109.651 167.171 111.054 168.488 112.745 168.488H165.002V197.611C162.771 198.522 161.191 200.708 161.191 203.263V223.222H104.461C102.69 223.222 101.256 224.658 101.256 226.428C101.256 228.198 102.69 229.634 104.461 229.634H161.191V289.206C161.191 290.976 162.625 292.412 164.396 292.412C166.167 292.412 167.601 290.977 167.601 289.206V203.567H168.751V289.206C168.751 290.976 170.185 292.412 171.956 292.412C173.727 292.412 175.16 290.977 175.16 289.206V229.634H231.953ZM171.411 113.084C183.008 125.085 195.138 143.473 196.993 162.077H171.411V113.084ZM165.002 162.077H139.299C141.163 143.469 153.361 125.037 165.002 113.017V162.077ZM220.52 162.077H203.424C201.74 142.83 190.416 124.267 178.319 111.052C202.264 115.756 220.404 136.825 220.52 162.077ZM158.018 111.065C145.899 124.298 134.555 142.864 132.867 162.076H115.891C116.007 136.852 134.109 115.799 158.018 111.065ZM276.742 287.161C277.371 288.816 276.54 290.668 274.884 291.296C274.508 291.439 274.125 291.506 273.746 291.506C272.454 291.506 271.235 290.719 270.75 289.437L254.237 245.963H227.268L210.696 289.441C210.209 290.72 208.991 291.506 207.7 291.506C207.321 291.506 206.933 291.439 206.558 291.295C204.904 290.665 204.075 288.812 204.704 287.158L220.405 245.963H209.998C208.226 245.963 206.793 244.527 206.793 242.757C206.793 240.987 208.226 239.551 209.998 239.551H224.936C224.945 239.551 224.952 239.552 224.96 239.551H253.895L266.57 184.401C266.966 182.676 268.693 181.603 270.412 181.995C272.138 182.392 273.215 184.112 272.817 185.837L259.789 242.527L276.742 287.161ZM133.825 287.162C134.454 288.816 133.621 290.668 131.966 291.296C131.591 291.439 131.208 291.507 130.829 291.507C129.537 291.507 128.318 290.718 127.833 289.438L111.322 245.963H84.3528L67.7808 289.442C67.2932 290.72 66.0762 291.507 64.7846 291.507C64.4053 291.507 64.0177 291.439 63.643 291.295C61.9888 290.665 61.1594 288.813 61.7885 287.159L78.8014 242.524L65.7741 185.837C65.3763 184.111 66.4532 182.392 68.1786 181.995C69.9059 181.603 71.6272 182.676 72.0208 184.401L84.6956 239.551H128.531C130.302 239.551 131.736 240.986 131.736 242.757C131.736 244.527 130.302 245.962 128.531 245.962H118.178L133.825 287.162ZM278.461 99.4181C278.461 93.2154 273.417 88.1686 267.214 88.1686C261.044 88.1686 256.025 93.2149 256.025 99.4181C256.025 105.621 261.044 110.668 267.214 110.668C273.417 110.668 278.461 105.621 278.461 99.4181ZM267.214 104.256C264.578 104.256 262.434 102.086 262.434 99.4181C262.434 96.75 264.578 94.58 267.214 94.58C269.881 94.58 272.052 96.75 272.052 99.4181C272.052 102.086 269.881 104.256 267.214 104.256ZM264.009 80.3061V71.4166C264.009 69.6468 265.443 68.2109 267.214 68.2109C268.985 68.2109 270.419 69.6463 270.419 71.4166V80.3065C270.419 82.0764 268.985 83.5122 267.214 83.5122C265.443 83.5118 264.009 82.0764 264.009 80.3061ZM274.05 81.2502L278.465 73.569C279.349 72.0323 281.312 71.5105 282.843 72.3867C284.377 73.2693 284.906 75.2288 284.025 76.7632L279.609 84.4443C279.015 85.4759 277.936 86.0527 276.828 86.0527C276.284 86.0527 275.736 85.9154 275.232 85.6267C273.698 84.7441 273.169 82.7846 274.05 81.2502ZM282.239 87.0894L289.858 82.674C291.383 81.7873 293.353 82.3081 294.238 83.8397C295.126 85.3723 294.603 87.3327 293.071 88.2204L285.452 92.6357C284.945 92.9295 284.393 93.0683 283.847 93.0683C282.743 93.0683 281.666 92.4951 281.072 91.47C280.184 89.9375 280.707 87.9771 282.239 87.0894ZM298.42 99.4181C298.42 101.188 296.987 102.624 295.215 102.624H286.385C284.614 102.624 283.18 101.188 283.18 99.4181C283.18 97.6478 284.614 96.2124 286.385 96.2124H295.215C296.987 96.2124 298.42 97.6483 298.42 99.4181ZM294.238 115.058C293.644 116.083 292.567 116.656 291.463 116.656C290.917 116.656 290.364 116.517 289.858 116.223L282.239 111.808C280.707 110.92 280.184 108.96 281.072 107.427C281.96 105.897 283.922 105.375 285.452 106.262L293.071 110.677C294.603 111.565 295.126 113.525 294.238 115.058ZM284.024 122.074C284.905 123.609 284.376 125.569 282.843 126.451C282.339 126.74 281.789 126.877 281.247 126.877C280.139 126.877 279.059 126.3 278.465 125.269L274.05 117.587C273.169 116.053 273.698 114.093 275.231 113.211C276.767 112.331 278.726 112.858 279.609 114.393L284.024 122.074ZM267.214 115.385C268.985 115.385 270.419 116.82 270.419 118.591V127.421C270.419 129.191 268.985 130.627 267.214 130.627C265.443 130.627 264.009 129.191 264.009 127.421V118.591C264.009 116.82 265.443 115.385 267.214 115.385ZM250.462 122.074L254.877 114.393C255.76 112.856 257.721 112.333 259.255 113.211C260.788 114.094 261.317 116.053 260.436 117.587L256.021 125.269C255.427 126.3 254.348 126.877 253.239 126.877C252.695 126.877 252.148 126.74 251.643 126.451C250.109 125.568 249.58 123.609 250.462 122.074ZM252.239 111.813L244.559 116.229C244.054 116.518 243.504 116.656 242.963 116.656C241.854 116.656 240.775 116.079 240.181 115.047C239.3 113.513 239.829 111.553 241.363 110.672L249.043 106.256C250.579 105.374 252.537 105.901 253.421 107.438C254.301 108.973 253.772 110.932 252.239 111.813ZM236.005 99.4181C236.005 97.6483 237.439 96.2124 239.21 96.2124H248.101C249.872 96.2124 251.306 97.6478 251.306 99.4181C251.306 101.188 249.872 102.624 248.101 102.624H239.21C237.439 102.624 236.005 101.188 236.005 99.4181ZM240.181 83.8504C241.066 82.3128 243.027 81.7877 244.559 82.669L252.239 87.0843C253.773 87.9655 254.302 89.9255 253.421 91.4599C252.827 92.4914 251.748 93.0683 250.639 93.0683C250.095 93.0683 249.547 92.9309 249.043 92.6413L241.363 88.226C239.829 87.3447 239.299 85.3852 240.181 83.8504ZM250.462 76.7632C249.58 75.2288 250.109 73.2688 251.643 72.3867C253.179 71.5064 255.137 72.0337 256.021 73.569L260.436 81.2502C261.317 82.7846 260.788 84.7446 259.255 85.6267C258.751 85.9154 258.201 86.0527 257.659 86.0527C256.55 86.0527 255.471 85.4754 254.877 84.4443L250.462 76.7632Z" fill="white"/>
<path d="M231.953 229.634C233.724 229.634 235.157 228.198 235.157 226.428C235.157 224.658 233.724 223.222 231.953 223.222H175.16V203.263C175.16 200.718 173.608 198.535 171.411 197.619V168.488H223.606C225.298 168.488 226.7 167.171 226.804 165.482C226.869 164.449 226.931 163.415 226.931 162.318C226.931 130.492 201.427 104.522 169.765 103.691C169.647 103.687 169.535 103.674 169.417 103.683C169.013 103.674 168.613 103.652 168.207 103.652C167.784 103.652 167.367 103.675 166.946 103.684C166.817 103.673 166.693 103.688 166.563 103.694C134.94 104.569 109.48 130.521 109.48 162.318C109.48 163.416 109.483 164.449 109.547 165.482C109.651 167.171 111.054 168.488 112.745 168.488H165.002V197.611C162.771 198.522 161.191 200.708 161.191 203.263V223.222H104.461C102.69 223.222 101.256 224.658 101.256 226.428C101.256 228.198 102.69 229.634 104.461 229.634H161.191V289.206C161.191 290.976 162.625 292.412 164.396 292.412C166.167 292.412 167.601 290.977 167.601 289.206V203.567H168.751V289.206C168.751 290.976 170.185 292.412 171.956 292.412C173.727 292.412 175.16 290.977 175.16 289.206V229.634H231.953ZM171.411 113.084C183.008 125.085 195.138 143.473 196.993 162.077H171.411V113.084ZM165.002 162.077H139.299C141.163 143.469 153.361 125.037 165.002 113.017V162.077ZM220.52 162.077H203.424C201.74 142.83 190.416 124.267 178.319 111.052C202.264 115.756 220.404 136.825 220.52 162.077ZM158.018 111.065C145.899 124.298 134.555 142.864 132.867 162.076H115.891C116.007 136.852 134.109 115.799 158.018 111.065ZM276.742 287.161C277.371 288.816 276.54 290.668 274.884 291.296C274.508 291.439 274.125 291.506 273.746 291.506C272.454 291.506 271.235 290.719 270.75 289.437L254.237 245.963H227.268L210.696 289.441C210.209 290.72 208.991 291.506 207.7 291.506C207.321 291.506 206.933 291.439 206.558 291.295C204.904 290.665 204.075 288.812 204.704 287.158L220.405 245.963H209.998C208.226 245.963 206.793 244.527 206.793 242.757C206.793 240.987 208.226 239.551 209.998 239.551H224.936C224.945 239.551 224.952 239.552 224.96 239.551H253.895L266.57 184.401C266.966 182.676 268.693 181.603 270.412 181.995C272.138 182.392 273.215 184.112 272.817 185.837L259.789 242.527L276.742 287.161ZM133.825 287.162C134.454 288.816 133.621 290.668 131.966 291.296C131.591 291.439 131.208 291.507 130.829 291.507C129.537 291.507 128.318 290.718 127.833 289.438L111.322 245.963H84.3528L67.7808 289.442C67.2932 290.72 66.0762 291.507 64.7846 291.507C64.4053 291.507 64.0177 291.439 63.643 291.295C61.9888 290.665 61.1594 288.813 61.7885 287.159L78.8014 242.524L65.7741 185.837C65.3763 184.111 66.4532 182.392 68.1786 181.995C69.9059 181.603 71.6272 182.676 72.0208 184.401L84.6956 239.551H128.531C130.302 239.551 131.736 240.986 131.736 242.757C131.736 244.527 130.302 245.962 128.531 245.962H118.178L133.825 287.162ZM278.461 99.4181C278.461 93.2154 273.417 88.1686 267.214 88.1686C261.044 88.1686 256.025 93.2149 256.025 99.4181C256.025 105.621 261.044 110.668 267.214 110.668C273.417 110.668 278.461 105.621 278.461 99.4181ZM267.214 104.256C264.578 104.256 262.434 102.086 262.434 99.4181C262.434 96.75 264.578 94.58 267.214 94.58C269.881 94.58 272.052 96.75 272.052 99.4181C272.052 102.086 269.881 104.256 267.214 104.256ZM264.009 80.3061V71.4166C264.009 69.6468 265.443 68.2109 267.214 68.2109C268.985 68.2109 270.419 69.6463 270.419 71.4166V80.3065C270.419 82.0764 268.985 83.5122 267.214 83.5122C265.443 83.5118 264.009 82.0764 264.009 80.3061ZM274.05 81.2502L278.465 73.569C279.349 72.0323 281.312 71.5105 282.843 72.3867C284.377 73.2693 284.906 75.2288 284.025 76.7632L279.609 84.4443C279.015 85.4759 277.936 86.0527 276.828 86.0527C276.284 86.0527 275.736 85.9154 275.232 85.6267C273.698 84.7441 273.169 82.7846 274.05 81.2502ZM282.239 87.0894L289.858 82.674C291.383 81.7873 293.353 82.3081 294.238 83.8397C295.126 85.3723 294.603 87.3327 293.071 88.2204L285.452 92.6357C284.945 92.9295 284.393 93.0683 283.847 93.0683C282.743 93.0683 281.666 92.4951 281.072 91.47C280.184 89.9375 280.707 87.9771 282.239 87.0894ZM298.42 99.4181C298.42 101.188 296.987 102.624 295.215 102.624H286.385C284.614 102.624 283.18 101.188 283.18 99.4181C283.18 97.6478 284.614 96.2124 286.385 96.2124H295.215C296.987 96.2124 298.42 97.6483 298.42 99.4181ZM294.238 115.058C293.644 116.083 292.567 116.656 291.463 116.656C290.917 116.656 290.364 116.517 289.858 116.223L282.239 111.808C280.707 110.92 280.184 108.96 281.072 107.427C281.96 105.897 283.922 105.375 285.452 106.262L293.071 110.677C294.603 111.565 295.126 113.525 294.238 115.058ZM284.024 122.074C284.905 123.609 284.376 125.569 282.843 126.451C282.339 126.74 281.789 126.877 281.247 126.877C280.139 126.877 279.059 126.3 278.465 125.269L274.05 117.587C273.169 116.053 273.698 114.093 275.231 113.211C276.767 112.331 278.726 112.858 279.609 114.393L284.024 122.074ZM267.214 115.385C268.985 115.385 270.419 116.82 270.419 118.591V127.421C270.419 129.191 268.985 130.627 267.214 130.627C265.443 130.627 264.009 129.191 264.009 127.421V118.591C264.009 116.82 265.443 115.385 267.214 115.385ZM250.462 122.074L254.877 114.393C255.76 112.856 257.721 112.333 259.255 113.211C260.788 114.094 261.317 116.053 260.436 117.587L256.021 125.269C255.427 126.3 254.348 126.877 253.239 126.877C252.695 126.877 252.148 126.74 251.643 126.451C250.109 125.568 249.58 123.609 250.462 122.074ZM252.239 111.813L244.559 116.229C244.054 116.518 243.504 116.656 242.963 116.656C241.854 116.656 240.775 116.079 240.181 115.047C239.3 113.513 239.829 111.553 241.363 110.672L249.043 106.256C250.579 105.374 252.537 105.901 253.421 107.438C254.301 108.973 253.772 110.932 252.239 111.813ZM236.005 99.4181C236.005 97.6483 237.439 96.2124 239.21 96.2124H248.101C249.872 96.2124 251.306 97.6478 251.306 99.4181C251.306 101.188 249.872 102.624 248.101 102.624H239.21C237.439 102.624 236.005 101.188 236.005 99.4181ZM240.181 83.8504C241.066 82.3128 243.027 81.7877 244.559 82.669L252.239 87.0843C253.773 87.9655 254.302 89.9255 253.421 91.4599C252.827 92.4914 251.748 93.0683 250.639 93.0683C250.095 93.0683 249.547 92.9309 249.043 92.6413L241.363 88.226C239.829 87.3447 239.299 85.3852 240.181 83.8504ZM250.462 76.7632C249.58 75.2288 250.109 73.2688 251.643 72.3867C253.179 71.5064 255.137 72.0337 256.021 73.569L260.436 81.2502C261.317 82.7846 260.788 84.7446 259.255 85.6267C258.751 85.9154 258.201 86.0527 257.659 86.0527C256.55 86.0527 255.471 85.4754 254.877 84.4443L250.462 76.7632Z" stroke="white" stroke-width="6" mask="url(#path-2-outside-1_1618_11547)"/>
</svg>
