<svg width="360" height="360" viewBox="0 0 360 360" fill="none" xmlns="http://www.w3.org/2000/svg">
<rect width="360" height="360" rx="180" fill="#009ED4"/>
<path d="M179.99 214.63C173.189 214.63 166.54 216.647 160.885 220.426C155.23 224.204 150.823 229.575 148.22 235.859C145.617 242.142 144.936 249.056 146.263 255.727C147.59 262.398 150.865 268.525 155.674 273.334C160.483 278.144 166.611 281.419 173.281 282.746C179.952 284.072 186.866 283.391 193.15 280.789C199.434 278.186 204.804 273.778 208.583 268.123C212.361 262.468 214.378 255.82 214.378 249.018C214.378 239.898 210.755 231.151 204.306 224.702C197.857 218.253 189.111 214.63 179.99 214.63ZM179.99 260.481C177.723 260.481 175.507 259.809 173.622 258.549C171.737 257.29 170.268 255.499 169.4 253.405C168.533 251.31 168.305 249.006 168.748 246.782C169.19 244.558 170.282 242.516 171.885 240.913C173.488 239.31 175.53 238.218 177.754 237.776C179.978 237.334 182.282 237.561 184.377 238.428C186.471 239.296 188.262 240.765 189.521 242.65C190.781 244.535 191.453 246.751 191.453 249.018C191.453 252.058 190.245 254.974 188.096 257.124C185.946 259.273 183.03 260.481 179.99 260.481ZM179.99 168.779C158.724 168.853 138.341 177.294 123.25 192.278C121.115 194.426 119.917 197.331 119.917 200.359C119.917 203.387 121.115 206.293 123.25 208.44C125.398 210.575 128.303 211.774 131.331 211.774C134.359 211.774 137.265 210.575 139.412 208.44C144.736 203.103 151.061 198.868 158.024 195.979C164.987 193.09 172.452 191.602 179.99 191.602C187.529 191.602 194.994 193.09 201.957 195.979C208.92 198.868 215.244 203.103 220.568 208.44C222.685 210.6 225.569 211.836 228.592 211.879C230.918 212.013 233.229 211.435 235.218 210.222C237.207 209.01 238.779 207.22 239.726 205.091C240.672 202.962 240.947 200.596 240.514 198.306C240.081 196.017 238.962 193.915 237.304 192.278C229.762 184.789 220.818 178.86 210.984 174.828C201.15 170.796 190.619 168.741 179.99 168.779ZM179.99 122.929C146.565 123.018 114.522 136.279 90.8105 159.839C89.7417 160.907 88.8939 162.176 88.3155 163.573C87.7371 164.969 87.4394 166.466 87.4394 167.977C87.4394 171.03 88.652 173.957 90.8105 176.116C92.969 178.274 95.8965 179.487 98.949 179.487C102.002 179.487 104.929 178.274 107.088 176.116C126.431 156.796 152.652 145.945 179.99 145.945C207.329 145.945 233.55 156.796 252.893 176.116C253.964 177.178 255.234 178.018 256.631 178.589C258.027 179.159 259.523 179.448 261.031 179.44C262.54 179.448 264.035 179.159 265.432 178.589C266.829 178.018 268.099 177.178 269.17 176.116C270.244 175.05 271.097 173.782 271.679 172.385C272.261 170.988 272.561 169.49 272.561 167.977C272.561 166.464 272.261 164.966 271.679 163.569C271.097 162.172 270.244 160.904 269.17 159.839C245.458 136.279 213.416 123.018 179.99 122.929ZM301.609 127.399C285.642 111.421 266.682 98.7464 245.814 90.0987C224.946 81.451 202.579 77 179.99 77C157.401 77 135.034 81.451 114.166 90.0987C93.2981 98.7464 74.3387 111.421 58.3711 127.399C56.2126 129.558 55 132.485 55 135.538C55 138.59 56.2126 141.518 58.3711 143.676C60.5295 145.835 63.4571 147.047 66.5096 147.047C69.5621 147.047 72.4896 145.835 74.6481 143.676C102.592 115.747 140.482 100.058 179.99 100.058C219.498 100.058 257.389 115.747 285.332 143.676C286.398 144.751 287.666 145.603 289.063 146.185C290.459 146.767 291.958 147.067 293.471 147.067C294.984 147.067 296.482 146.767 297.879 146.185C299.276 145.603 300.544 144.751 301.609 143.676C302.684 142.611 303.536 141.343 304.118 139.946C304.7 138.549 305 137.051 305 135.538C305 134.024 304.7 132.526 304.118 131.129C303.536 129.733 302.684 128.465 301.609 127.399Z" fill="white"/>
</svg>
