<svg width="14" height="14" viewBox="0 0 14 14" fill="none" xmlns="http://www.w3.org/2000/svg">
<g clip-path="url(#clip0_1531_10662)">
<path d="M7 14C10.866 14 14 10.866 14 7C14 3.13401 10.866 0 7 0C3.13401 0 0 3.13401 0 7C0 10.866 3.13401 14 7 14Z" fill="#FFA40B"/>
<path d="M4.48242 3.91943V10.6484H9.51682V3.91943H4.48242ZM5.04242 4.47943H8.95682V5.60391H5.04242V4.47943ZM5.04242 6.16391H8.95682V10.0884H5.04242V6.16391ZM5.5957 6.72391V7.28391H6.1557V6.72391H5.5957ZM6.7073 6.72391V7.28391H7.2673V6.72391H6.7073ZM7.8441 6.72391V7.28391H8.4041V6.72391H7.8441ZM5.5957 7.84391V8.40391H6.1557V7.84391H5.5957ZM6.7073 7.84391V8.40391H7.2673V7.84391H6.7073ZM7.8441 7.84391V8.40391H8.4041V7.84391H7.8441ZM5.5929 8.96391V9.52391H6.1529V8.96391H5.5929ZM6.7101 8.96391V9.52391H7.2701V8.96391H6.7101ZM7.8357 8.96391V9.52391H8.3957V8.96391H7.8357Z" fill="white"/>
</g>
<defs>
<clipPath id="clip0_1531_10662">
<rect width="14" height="14" fill="white"/>
</clipPath>
</defs>
</svg>
