<svg width="112" height="113" viewBox="0 0 112 113" fill="none" xmlns="http://www.w3.org/2000/svg">
<g clip-path="url(#clip0_585_7615)">
<path fill-rule="evenodd" clip-rule="evenodd" d="M56.5042 15.3412C94.9017 15.3412 79.9367 79.5045 56.5042 79.5045C34.3725 79.5045 18.1067 15.3412 56.5042 15.3412Z" fill="#FFDFBE"/>
<path d="M56.091 112.439C86.8826 112.439 111.844 87.269 111.844 56.2197C111.844 25.1704 86.8826 0 56.091 0C25.2994 0 0.337891 25.1704 0.337891 56.2197C0.337891 87.269 25.2994 112.439 56.091 112.439Z" fill="#00B3B5"/>
<path fill-rule="evenodd" clip-rule="evenodd" d="M30.3743 45.6744C30.3743 45.6744 32.8895 79.5518 26.8017 88.6943C20.714 97.8368 56.5909 88.3486 56.5909 88.3486L56.6017 24.9186L30.3743 45.6744Z" fill="#2E2E33"/>
<path fill-rule="evenodd" clip-rule="evenodd" d="M82.8039 45.6744C82.8039 45.6744 80.2887 79.5518 86.3782 88.6943C92.4678 97.8368 56.5891 88.3486 56.5891 88.3486L56.5782 24.9186L82.8039 45.6744Z" fill="#2E2E33"/>
<path fill-rule="evenodd" clip-rule="evenodd" d="M95.6 95.8846C94.5029 93.2246 94.7086 90.5756 85.9198 86.4473C81.7826 85.4612 71.1065 84.0475 69.0893 80.2614C68.0662 78.3473 68.3134 75.6492 68.3134 70.633L44.9837 70.3747C44.9837 75.4272 45.1804 78.1217 44.0382 80.0139C41.8911 83.5745 27.9167 86.1708 23.581 87.3352C16.196 90.6447 17.0404 92.657 16.066 95.3515C21.2196 100.712 27.3805 104.984 34.1893 107.918C40.998 110.851 48.3181 112.388 55.7221 112.438C63.1262 112.487 70.4659 111.049 77.3127 108.207C84.1595 105.365 90.3762 101.176 95.6 95.8846Z" fill="#F9D0A4"/>
<path opacity="0.11" fill-rule="evenodd" clip-rule="evenodd" d="M68.3188 70.553L68.2918 75.1033C68.1258 76.9862 68.4688 78.8794 69.2842 80.5815C61.2514 86.8039 46.1998 85.3029 44.5363 69.7797L68.3188 70.553Z" fill="#167FFC"/>
<path fill-rule="evenodd" clip-rule="evenodd" d="M34.8182 43.9987C29.4811 46.3457 34.0207 57.4805 37.3803 57.4314C35.9862 53.0759 35.1258 48.5649 34.8182 43.9987ZM78.8379 43.9969C84.1787 46.3476 79.6372 57.4805 76.2776 57.4314C77.6714 53.0753 78.5312 48.5636 78.8379 43.9969Z" fill="#F9D0A4"/>
<path fill-rule="evenodd" clip-rule="evenodd" d="M56.4771 15.767C72.2143 15.767 78.8091 27.0473 79.2132 40.087C79.7672 57.9354 68.9738 79.0769 56.4789 79.0769C44.6427 79.0769 33.5534 57.2113 34.2264 39.1809C34.6955 26.5306 41.108 15.767 56.4771 15.767Z" fill="#FFDFBE"/>
<path fill-rule="evenodd" clip-rule="evenodd" d="M56.6017 24.9204C55.557 29.307 50.6475 43.4183 30.3743 45.6744C28.2632 10.5198 54.7956 11.3822 56.6017 11.4823C58.4096 11.3822 84.942 10.518 82.8291 45.6744C62.5577 43.4183 57.6464 29.307 56.6017 24.9204Z" fill="#010825"/>
<path fill-rule="evenodd" clip-rule="evenodd" d="M95.6 95.8846C68.7699 104.214 33.9503 99.1868 23.581 87.3352C16.196 90.6447 17.0404 92.657 16.066 95.3515C21.2196 100.712 27.3805 104.984 34.1893 107.918C40.998 110.851 48.3181 112.388 55.7221 112.438C63.1262 112.487 70.4659 111.049 77.3127 108.207C84.1595 105.365 90.3762 101.176 95.6 95.8846Z" fill="#FE9526"/>
<path fill-rule="evenodd" clip-rule="evenodd" d="M77.5569 84.6352L79.4893 85.0955L79.4821 99.8655H77.5569V84.6352Z" fill="#FE9526"/>
<path fill-rule="evenodd" clip-rule="evenodd" d="M43.3418 80.8181C43.3454 80.8418 44.926 88.9163 56.9535 88.9163C68.9359 88.9163 69.6666 81.0819 69.6685 81.0601L70.0077 81.3931C70.0077 81.4149 68.99 89.9479 56.9535 89.9479C44.6896 89.9479 42.9593 81.1602 42.9539 81.1329L43.3418 80.8181Z" fill="#010825"/>
<path d="M56.856 93.4339C58.3637 93.4339 59.5859 91.8788 59.5859 89.9606C59.5859 88.0424 58.3637 86.4874 56.856 86.4874C55.3483 86.4874 54.1261 88.0424 54.1261 89.9606C54.1261 91.8788 55.3483 93.4339 56.856 93.4339Z" fill="#010825"/>
</g>
<defs>
<clipPath id="clip0_585_7615">
<rect width="111.506" height="112.439" fill="white" transform="translate(0.337891)"/>
</clipPath>
</defs>
</svg>
