<svg width="16" height="16" viewBox="0 0 16 16" fill="none" xmlns="http://www.w3.org/2000/svg">
<g clip-path="url(#clip0_1033_2081)">
<path d="M11.7769 7.99916L13.3996 6.37629L15.0225 7.99916L13.3996 9.62191L11.7769 7.99916ZM0.978516 8.00004L2.60127 6.37729L4.22402 8.00004L2.60127 9.62279L0.978516 8.00004ZM8.00002 11.7775L5.31002 9.08754L3.68752 10.71L8.00002 15.0225L12.3125 10.71L10.69 9.08754L8.00002 11.7775ZM8.00002 4.22254L10.69 6.91254L12.3125 5.29004L8.00002 0.977539L3.68752 5.29004L5.31002 6.91254L8.00002 4.22254Z" fill="#D8A353"/>
<path d="M6.39648 7.99996L7.99898 6.39746L9.60148 7.99996L7.99898 9.60246L6.39648 7.99996Z" fill="#D8A353"/>
</g>
<defs>
<clipPath id="clip0_1033_2081">
<rect width="16" height="16" fill="white"/>
</clipPath>
</defs>
</svg>
