<svg width="94" height="105" viewBox="0 0 94 105" fill="none" xmlns="http://www.w3.org/2000/svg">
<g filter="url(#filter0_dd_1803_5040)">
<path d="M35.263 55.0728L54.4884 43.9126L54.4816 46.6714L35.2539 57.8316L35.263 55.0728Z" fill="#32BF73"/>
<path d="M35.3021 41.2696L54.5275 30.1094L54.5207 32.8705L35.293 44.0307L35.3021 41.2696Z" fill="#32BF73"/>
<path d="M35.293 44.0303L54.5207 32.8701L59.331 35.6448L40.1033 46.805L35.293 44.0303Z" fill="#43FF99"/>
<path d="M16.0781 24.6552L35.3058 13.495L44.956 8L25.7306 19.1602L16.0781 24.6552Z" fill="#085A2D"/>
<path d="M59.3055 71.7027L78.5332 60.5425L78.4855 77.1045L59.2578 88.2647L59.3055 71.7027Z" fill="#32BF73"/>
<path d="M35.2539 57.8316L54.4816 46.6714L78.5333 60.5427L59.3056 71.7029L35.2539 57.8316Z" fill="#43FF99"/>
<path d="M59.371 49.6187L78.5964 38.4585L78.5418 57.7816L59.3164 68.9418L59.371 49.6187Z" fill="#32BF73"/>
<path d="M25.7305 19.1602L44.9559 8L69.0076 21.8691L49.7799 33.0293L25.7305 19.1602Z" fill="#43FF99"/>
<path d="M59.3157 68.9417L35.2641 55.0726L35.2572 57.8337L59.3089 71.7028L59.2612 88.2648L25.5888 68.8463L16 52.257L16.0773 24.6528L25.7298 19.1602L49.7792 33.0292L59.3703 49.6185L59.3157 68.9417ZM35.3027 41.2694L35.2959 44.0305L40.1062 46.8052L40.113 44.0441L35.3027 41.2694Z" fill="#22804D"/>
<path d="M49.7773 33.0293L69.005 21.8691L78.5939 38.4584L59.3685 49.6186L49.7773 33.0293Z" fill="#72FFB3"/>
</g>
<defs>
<filter id="filter0_dd_1803_5040" x="4" y="0" width="86.5977" height="104.265" filterUnits="userSpaceOnUse" color-interpolation-filters="sRGB">
<feFlood flood-opacity="0" result="BackgroundImageFix"/>
<feColorMatrix in="SourceAlpha" type="matrix" values="0 0 0 0 0 0 0 0 0 0 0 0 0 0 0 0 0 0 127 0" result="hardAlpha"/>
<feOffset dy="4"/>
<feGaussianBlur stdDeviation="6"/>
<feComposite in2="hardAlpha" operator="out"/>
<feColorMatrix type="matrix" values="0 0 0 0 0 0 0 0 0 0 0 0 0 0 0 0 0 0 0.2 0"/>
<feBlend mode="multiply" in2="BackgroundImageFix" result="effect1_dropShadow_1803_5040"/>
<feColorMatrix in="SourceAlpha" type="matrix" values="0 0 0 0 0 0 0 0 0 0 0 0 0 0 0 0 0 0 127 0" result="hardAlpha"/>
<feOffset/>
<feGaussianBlur stdDeviation="2"/>
<feComposite in2="hardAlpha" operator="out"/>
<feColorMatrix type="matrix" values="0 0 0 0 0.262745 0 0 0 0 1 0 0 0 0 0.6 0 0 0 1 0"/>
<feBlend mode="normal" in2="effect1_dropShadow_1803_5040" result="effect2_dropShadow_1803_5040"/>
<feBlend mode="normal" in="SourceGraphic" in2="effect2_dropShadow_1803_5040" result="shape"/>
</filter>
</defs>
</svg>
