<svg xmlns="http://www.w3.org/2000/svg" width="16" height="16" viewBox="0 0 16 16" fill="none">
  <path d="M1.33203 2.67546C1.33203 2.49864 1.40227 2.32908 1.52729 2.20405C1.65232 2.07903 1.82189 2.00879 1.9987 2.00879H13.9987C14.1755 2.00879 14.3451 2.07903 14.4701 2.20405C14.5951 2.32908 14.6654 2.49864 14.6654 2.67546V13.3421C14.6654 13.5189 14.5951 13.6885 14.4701 13.8135C14.3451 13.9386 14.1755 14.0088 13.9987 14.0088H1.9987C1.82189 14.0088 1.65232 13.9386 1.52729 13.8135C1.40227 13.6885 1.33203 13.5189 1.33203 13.3421V2.67546ZM2.66536 3.34212V12.6755H13.332V3.34212H2.66536ZM3.9987 4.67546H7.33203V7.34212H3.9987V4.67546ZM7.33203 8.67546H3.9987V11.3421H7.33203V8.67546ZM8.66536 4.67546H11.9987V7.34212H8.66536V4.67546ZM11.9987 8.67546H8.66536V11.3421H11.9987V8.67546Z" fill="black" fill-opacity="0.8"/>
</svg>