<svg width="94" height="116" viewBox="0 0 94 116" fill="none" xmlns="http://www.w3.org/2000/svg">
<g filter="url(#filter0_d_1803_5039)">
<path d="M16.0391 67.5027L34.8499 56.5845L58.378 70.1529L39.5693 81.0712L16.0391 67.5027Z" fill="#FF72F9"/>
<path d="M34.9297 54.0501L53.7383 43.1318L58.4444 45.8464L39.6358 56.7647L34.9297 54.0501Z" fill="#FF72F9"/>
<path d="M34.9608 43.2493L53.7695 32.3311L53.7383 43.1316L34.9297 54.0499L34.9608 43.2493Z" fill="#FF43F7"/>
<path d="M16.1602 24.2919L34.971 13.3736L44.4121 8L25.6034 18.9183L16.1602 24.2919Z" fill="#80227C"/>
<path d="M25.6034 18.9182L58.5458 37.9158L58.3856 94.6264L48.9424 100L16 81.0024L16.0378 67.5006L39.5659 81.069L39.5814 75.6666L25.4633 67.5251L16.0823 51.2954L16.1579 24.2896L25.6012 18.916L25.6034 18.9182ZM39.637 56.7645L39.6682 45.9618L34.9621 43.2472L34.931 54.05L39.637 56.7645Z" fill="#BF32BA"/>
<path d="M25.6016 18.9183L44.4102 8L77.3526 26.9976L58.5439 37.9158L25.6016 18.9183Z" fill="#FF72F9"/>
<path d="M58.5452 37.9158L77.3538 26.9976L77.1937 83.7081L58.3828 94.6264L58.5452 37.9158Z" fill="#FF43F7"/>
</g>
<defs>
<filter id="filter0_d_1803_5039" x="4" y="0" width="85.3555" height="116" filterUnits="userSpaceOnUse" color-interpolation-filters="sRGB">
<feFlood flood-opacity="0" result="BackgroundImageFix"/>
<feColorMatrix in="SourceAlpha" type="matrix" values="0 0 0 0 0 0 0 0 0 0 0 0 0 0 0 0 0 0 127 0" result="hardAlpha"/>
<feOffset dy="4"/>
<feGaussianBlur stdDeviation="6"/>
<feComposite in2="hardAlpha" operator="out"/>
<feColorMatrix type="matrix" values="0 0 0 0 0 0 0 0 0 0 0 0 0 0 0 0 0 0 0.2 0"/>
<feBlend mode="multiply" in2="BackgroundImageFix" result="effect1_dropShadow_1803_5039"/>
<feBlend mode="normal" in="SourceGraphic" in2="effect1_dropShadow_1803_5039" result="shape"/>
</filter>
</defs>
</svg>
