<svg width="24" height="24" viewBox="0 0 24 24" fill="none" xmlns="http://www.w3.org/2000/svg">
<path fill-rule="evenodd" clip-rule="evenodd" d="M4 4C4 3.4 4.4 3 5 3H19C19.2652 3 19.5196 3.10536 19.7071 3.29289C19.8946 3.48043 20 3.73478 20 4C20 4.26522 19.8946 4.51957 19.7071 4.70711C19.5196 4.89464 19.2652 5 19 5V19C19.2652 19 19.5196 19.1054 19.7071 19.2929C19.8946 19.4804 20 19.7348 20 20C20 20.2652 19.8946 20.5196 19.7071 20.7071C19.5196 20.8946 19.2652 21 19 21H5C4.73478 21 4.48043 20.8946 4.29289 20.7071C4.10536 20.5196 4 20.2652 4 20C4 19.7348 4.10536 19.4804 4.29289 19.2929C4.48043 19.1054 4.73478 19 5 19V5C4.73478 5 4.48043 4.89464 4.29289 4.70711C4.10536 4.51957 4 4.26522 4 4ZM9 6C8.73478 6 8.48043 6.10536 8.29289 6.29289C8.10536 6.48043 8 6.73478 8 7V8C8 8.6 8.4 9 9 9H10C10.6 9 11 8.6 11 8V7C11 6.4 10.6 6 10 6H9ZM14 6C13.7348 6 13.4804 6.10536 13.2929 6.29289C13.1054 6.48043 13 6.73478 13 7V8C13 8.6 13.4 9 14 9H15C15.6 9 16 8.6 16 8V7C16 6.4 15.6 6 15 6H14ZM9 10C8.73478 10 8.48043 10.1054 8.29289 10.2929C8.10536 10.4804 8 10.7348 8 11V12C8 12.6 8.4 13 9 13H10C10.6 13 11 12.6 11 12V11C11 10.4 10.6 10 10 10H9ZM14 10C13.7348 10 13.4804 10.1054 13.2929 10.2929C13.1054 10.4804 13 10.7348 13 11V12C13 12.6 13.4 13 14 13H15C15.6 13 16 12.6 16 12V11C16 10.4 15.6 10 15 10H14ZM11 14C10.4696 14 9.96086 14.2107 9.58579 14.5858C9.21071 14.9609 9 15.4696 9 16V19H11V16H13V19H15V16C15 15.4696 14.7893 14.9609 14.4142 14.5858C14.0391 14.2107 13.5304 14 13 14H11Z" fill="white" fill-opacity="0.7"/>
</svg>
