<svg width="16" height="16" viewBox="0 0 16 16" fill="none" xmlns="http://www.w3.org/2000/svg">
<circle cx="8" cy="8" r="8" fill="#D9D9D9"/>
<path d="M8 8.5C7.84777 8.49822 7.69866 8.54312 7.57272 8.62865C7.44678 8.71418 7.35007 8.83624 7.29561 8.9784C7.24114 9.12056 7.23153 9.276 7.26807 9.42378C7.30462 9.57157 7.38556 9.70461 7.5 9.805V10.5C7.5 10.6326 7.55268 10.7598 7.64645 10.8536C7.74021 10.9473 7.86739 11 8 11C8.13261 11 8.25978 10.9473 8.35355 10.8536C8.44732 10.7598 8.5 10.6326 8.5 10.5V9.805C8.61444 9.70461 8.69538 9.57157 8.73193 9.42378C8.76847 9.276 8.75886 9.12056 8.70439 8.9784C8.64993 8.83624 8.55322 8.71418 8.42728 8.62865C8.30134 8.54312 8.15223 8.49822 8 8.5ZM10.5 6.5V5.5C10.5 4.83696 10.2366 4.20107 9.76777 3.73223C9.29893 3.26339 8.66304 3 8 3C7.33696 3 6.70107 3.26339 6.23223 3.73223C5.76339 4.20107 5.5 4.83696 5.5 5.5V6.5C5.10218 6.5 4.72064 6.65804 4.43934 6.93934C4.15804 7.22064 4 7.60218 4 8V11.5C4 11.8978 4.15804 12.2794 4.43934 12.5607C4.72064 12.842 5.10218 13 5.5 13H10.5C10.8978 13 11.2794 12.842 11.5607 12.5607C11.842 12.2794 12 11.8978 12 11.5V8C12 7.60218 11.842 7.22064 11.5607 6.93934C11.2794 6.65804 10.8978 6.5 10.5 6.5ZM6.5 5.5C6.5 5.10218 6.65803 4.72064 6.93934 4.43934C7.22064 4.15804 7.60217 4 8 4C8.39782 4 8.77936 4.15804 9.06066 4.43934C9.34196 4.72064 9.5 5.10218 9.5 5.5V6.5H6.5V5.5ZM11 11.5C11 11.6326 10.9473 11.7598 10.8536 11.8536C10.7598 11.9473 10.6326 12 10.5 12H5.5C5.36739 12 5.24021 11.9473 5.14645 11.8536C5.05268 11.7598 5 11.6326 5 11.5V8C5 7.86739 5.05268 7.74021 5.14645 7.64645C5.24021 7.55268 5.36739 7.5 5.5 7.5H10.5C10.6326 7.5 10.7598 7.55268 10.8536 7.64645C10.9473 7.74021 11 7.86739 11 8V11.5Z" fill="#00B3B5"/>
</svg>
