<svg width="98" height="109" viewBox="0 0 98 109" fill="none" xmlns="http://www.w3.org/2000/svg">
<g filter="url(#filter0_dd_1803_5041)">
<path d="M28.4722 45.8078L44.8676 36.2915L44.7998 59.8296L28.4062 69.3459L28.4722 45.8078Z" fill="#32A6BF"/>
<path d="M48.9819 57.634L65.3754 48.1177L65.3095 71.6557L48.9141 81.172L48.9819 57.634Z" fill="#32A6BF"/>
<path d="M69.5169 60.0461L85.9104 50.5298L85.8173 83.4835L69.4219 92.9998L69.5169 60.0461Z" fill="#32A6BF"/>
<path d="M61.3395 45.9004L69.5178 60.0461L69.4228 92.9998L53.0158 83.5377L53.0836 59.9997L48.9818 57.6337L48.914 81.1717L32.5089 71.7116L32.5748 48.1735L28.473 45.8075L28.4071 69.3456L12 59.8854L12.1202 17.5161L61.3395 45.9004Z" fill="#226F80"/>
<path d="M61.3398 45.9006L77.7334 36.3843L85.9117 50.53L69.5182 60.0463L61.3398 45.9006Z" fill="#72E6FF"/>
<path d="M12.1211 17.5163L28.5146 8L77.7339 36.3843L61.3404 45.9006L12.1211 17.5163Z" fill="#43DDFF"/>
</g>
<defs>
<filter id="filter0_dd_1803_5041" x="0" y="0" width="97.9102" height="109" filterUnits="userSpaceOnUse" color-interpolation-filters="sRGB">
<feFlood flood-opacity="0" result="BackgroundImageFix"/>
<feColorMatrix in="SourceAlpha" type="matrix" values="0 0 0 0 0 0 0 0 0 0 0 0 0 0 0 0 0 0 127 0" result="hardAlpha"/>
<feOffset dy="4"/>
<feGaussianBlur stdDeviation="6"/>
<feComposite in2="hardAlpha" operator="out"/>
<feColorMatrix type="matrix" values="0 0 0 0 0 0 0 0 0 0 0 0 0 0 0 0 0 0 0.2 0"/>
<feBlend mode="multiply" in2="BackgroundImageFix" result="effect1_dropShadow_1803_5041"/>
<feColorMatrix in="SourceAlpha" type="matrix" values="0 0 0 0 0 0 0 0 0 0 0 0 0 0 0 0 0 0 127 0" result="hardAlpha"/>
<feOffset/>
<feGaussianBlur stdDeviation="2"/>
<feComposite in2="hardAlpha" operator="out"/>
<feColorMatrix type="matrix" values="0 0 0 0 0.447059 0 0 0 0 0.901961 0 0 0 0 1 0 0 0 1 0"/>
<feBlend mode="normal" in2="effect1_dropShadow_1803_5041" result="effect2_dropShadow_1803_5041"/>
<feBlend mode="normal" in="SourceGraphic" in2="effect2_dropShadow_1803_5041" result="shape"/>
</filter>
</defs>
</svg>
