<svg width="49" height="48" viewBox="0 0 49 48" fill="none" xmlns="http://www.w3.org/2000/svg">
<g filter="url(#filter0_b_500_4850)">
<rect x="0.685669" width="48" height="48" rx="24" fill="white" fill-opacity="0.8"/>
<rect x="1.18567" y="0.5" width="47" height="47" rx="23.5" stroke="black" stroke-opacity="0.1"/>
<path d="M35.951 22.4599C35.951 29.7532 25.5115 35.6567 25.0669 35.9005C24.9497 35.9658 24.8187 36 24.6857 36C24.5526 36 24.4216 35.9658 24.3045 35.9005C23.8599 35.6567 13.4204 29.7532 13.4204 22.4599C13.4222 20.7472 14.0798 19.1052 15.2489 17.8942C16.4181 16.6831 18.0032 16.0019 19.6565 16C21.7336 16 23.5521 16.9252 24.6857 18.4891C25.8192 16.9252 27.6378 16 29.7148 16C31.3682 16.0019 32.9533 16.6831 34.1224 17.8942C35.2915 19.1052 35.9491 20.7472 35.951 22.4599Z" fill="black" fill-opacity="0.2"/>
</g>
<defs>
<filter id="filter0_b_500_4850" x="-7.31433" y="-8" width="64" height="64" filterUnits="userSpaceOnUse" color-interpolation-filters="sRGB">
<feFlood flood-opacity="0" result="BackgroundImageFix"/>
<feGaussianBlur in="BackgroundImageFix" stdDeviation="4"/>
<feComposite in2="SourceAlpha" operator="in" result="effect1_backgroundBlur_500_4850"/>
<feBlend mode="normal" in="SourceGraphic" in2="effect1_backgroundBlur_500_4850" result="shape"/>
</filter>
</defs>
</svg>
