<svg width="25" height="25" viewBox="0 0 25 25" fill="none" xmlns="http://www.w3.org/2000/svg">
<path fill-rule="evenodd" clip-rule="evenodd" d="M19.5156 21.1338C19.5156 21.1338 21.0156 21.1338 21.0156 19.6338C21.0156 18.1338 19.5156 13.6338 12.0156 13.6338C4.51562 13.6338 3.01562 18.1338 3.01562 19.6338C3.01562 21.1338 4.51562 21.1338 4.51562 21.1338H19.5156ZM4.52313 19.7178V19.7148V19.7178ZM4.54863 19.6338H19.4826C19.4896 19.633 19.4967 19.632 19.5036 19.6308L19.5156 19.6278C19.5141 19.2588 19.2846 18.1488 18.2676 17.1318C17.2896 16.1538 15.4491 15.1338 12.0156 15.1338C8.58063 15.1338 6.74163 16.1538 5.76363 17.1318C4.74663 18.1488 4.51863 19.2588 4.51562 19.6278C4.5266 19.6299 4.5376 19.6319 4.54863 19.6338ZM19.5096 19.7178V19.7148V19.7178ZM12.0156 10.6338C12.8113 10.6338 13.5743 10.3177 14.1369 9.75511C14.6996 9.1925 15.0156 8.42944 15.0156 7.63379C15.0156 6.83814 14.6996 6.07508 14.1369 5.51247C13.5743 4.94986 12.8113 4.63379 12.0156 4.63379C11.22 4.63379 10.4569 4.94986 9.8943 5.51247C9.3317 6.07508 9.01562 6.83814 9.01562 7.63379C9.01562 8.42944 9.3317 9.1925 9.8943 9.75511C10.4569 10.3177 11.22 10.6338 12.0156 10.6338ZM16.5156 7.63379C16.5156 8.82726 16.0415 9.97186 15.1976 10.8158C14.3537 11.6597 13.2091 12.1338 12.0156 12.1338C10.8222 12.1338 9.67756 11.6597 8.83364 10.8158C7.98973 9.97186 7.51562 8.82726 7.51562 7.63379C7.51562 6.44031 7.98973 5.29572 8.83364 4.45181C9.67756 3.60789 10.8222 3.13379 12.0156 3.13379C13.2091 3.13379 14.3537 3.60789 15.1976 4.45181C16.0415 5.29572 16.5156 6.44031 16.5156 7.63379Z" fill="#999999"/>
</svg>
