<svg width="25" height="25" viewBox="0 0 25 25" fill="none" xmlns="http://www.w3.org/2000/svg">
<path d="M22.0156 12.8008C21.9279 12.8013 21.8409 12.7845 21.7597 12.7513C21.6785 12.7182 21.6046 12.6693 21.5423 12.6075L12.0156 3.07416L2.48898 12.6075C2.36144 12.7167 2.19739 12.7738 2.02961 12.7673C1.86182 12.7608 1.70266 12.6913 1.58393 12.5725C1.4652 12.4538 1.39565 12.2946 1.38917 12.1269C1.38269 11.9591 1.43976 11.795 1.54898 11.6675L11.549 1.66749C11.6739 1.54333 11.8429 1.47363 12.019 1.47363C12.1951 1.47363 12.3641 1.54333 12.489 1.66749L22.489 11.6675C22.5807 11.7611 22.6428 11.8796 22.6676 12.0083C22.6923 12.137 22.6786 12.2702 22.6281 12.3911C22.5775 12.512 22.4925 12.6154 22.3836 12.6883C22.2747 12.7611 22.1467 12.8003 22.0156 12.8008Z" fill="#999999"/>
<path d="M12.0156 5.32715L4.01562 13.3538V21.4671C4.01563 21.8208 4.1561 22.1599 4.40615 22.41C4.6562 22.66 4.99534 22.8005 5.34896 22.8005H10.0156V16.1338H14.0156V22.8005H18.6823C19.0359 22.8005 19.3751 22.66 19.6251 22.41C19.8751 22.1599 20.0156 21.8208 20.0156 21.4671V13.3071L12.0156 5.32715Z" fill="#999999"/>
</svg>
