<svg width="25" height="25" viewBox="0 0 25 25" fill="none" xmlns="http://www.w3.org/2000/svg">
<mask id="mask0_1944_24857" style="mask-type:alpha" maskUnits="userSpaceOnUse" x="3" y="2" width="19" height="21">
<path fill-rule="evenodd" clip-rule="evenodd" d="M4.18719 3.30536C3.01562 4.47694 3.01562 6.36255 3.01562 10.1338V20.7348C3.01562 22.2597 4.65385 23.2237 5.98692 22.4831L11.0443 19.6734C11.6484 19.3378 12.3828 19.3378 12.9869 19.6734L18.0443 22.4831C19.3774 23.2237 21.0156 22.2597 21.0156 20.7348V10.1338C21.0156 6.36255 21.0156 4.47694 19.844 3.30536C18.6725 2.13379 16.7868 2.13379 13.0156 2.13379H11.0156C7.24438 2.13379 5.35877 2.13379 4.18719 3.30536Z" fill="white"/>
</mask>
<g mask="url(#mask0_1944_24857)">
<path d="M19.844 3.30536L20.9047 2.2447L19.844 3.30536ZM11.0443 19.6734L11.7728 20.9846L11.0443 19.6734ZM12.9869 19.6734L12.2584 20.9846L12.9869 19.6734ZM5.98692 22.4831L6.71538 23.7943L5.98692 22.4831ZM4.51563 10.1338C4.51563 8.20577 4.51882 6.91065 4.6487 5.94457C4.77278 5.02165 4.98723 4.62666 5.24786 4.36602L3.12654 2.2447C2.2156 3.15564 1.84426 4.28924 1.67545 5.54483C1.51244 6.75727 1.51563 8.29058 1.51563 10.1338H4.51563ZM4.51563 20.7348V10.1338H1.51563V20.7348H4.51563ZM6.71538 23.7943L11.7728 20.9846L10.3159 18.3622L5.25845 21.1718L6.71538 23.7943ZM12.2584 20.9846L17.3159 23.7943L18.7728 21.1718L13.7154 18.3622L12.2584 20.9846ZM19.5156 10.1338V20.7348H22.5156V10.1338H19.5156ZM18.7834 4.36602C19.044 4.62666 19.2584 5.02165 19.3825 5.94457C19.5124 6.91065 19.5156 8.20577 19.5156 10.1338H22.5156C22.5156 8.29058 22.5188 6.75727 22.3558 5.54483C22.187 4.28924 21.8156 3.15564 20.9047 2.2447L18.7834 4.36602ZM13.0156 3.63379C14.9436 3.63379 16.2387 3.63698 17.2048 3.76686C18.1277 3.89094 18.5227 4.10539 18.7834 4.36602L20.9047 2.2447C19.9937 1.33376 18.8601 0.962426 17.6046 0.793616C16.3921 0.630608 14.8588 0.633794 13.0156 0.633794V3.63379ZM11.0156 3.63379H13.0156V0.633794H11.0156V3.63379ZM5.24786 4.36602C5.5085 4.10539 5.90349 3.89094 6.82641 3.76686C7.79249 3.63698 9.08761 3.63379 11.0156 3.63379V0.633794C9.17242 0.633794 7.63911 0.630608 6.42667 0.793616C5.17108 0.962426 4.03748 1.33376 3.12654 2.2447L5.24786 4.36602ZM17.3159 23.7943C19.6487 25.0904 22.5156 23.4035 22.5156 20.7348H19.5156C19.5156 21.116 19.106 21.357 18.7728 21.1718L17.3159 23.7943ZM11.7728 20.9846C11.9238 20.9007 12.1074 20.9007 12.2584 20.9846L13.7154 18.3622C12.6583 17.7749 11.3729 17.7749 10.3159 18.3622L11.7728 20.9846ZM1.51563 20.7348C1.51563 23.4035 4.38252 25.0904 6.71538 23.7943L5.25845 21.1718C4.92519 21.357 4.51563 21.116 4.51563 20.7348H1.51563Z" fill="#999999"/>
<path d="M9.76562 10.3838H14.2656" stroke="#999999" stroke-width="1.5" stroke-linecap="round"/>
</g>
</svg>
