<svg width="32" height="32" viewBox="0 0 32 32" fill="none" xmlns="http://www.w3.org/2000/svg">
<rect x="0.5" y="0.5" width="31" height="31" rx="15.5" fill="white"/>
<rect x="0.5" y="0.5" width="31" height="31" rx="15.5" stroke="black"/>
<path d="M20.8775 12.1599C20.6815 12.1599 20.4935 12.2378 20.3549 12.3764C20.2163 12.515 20.1384 12.7029 20.1384 12.899V19.1069C20.1384 19.3029 20.2163 19.4909 20.3549 19.6295C20.4935 19.7681 20.6815 19.846 20.8775 19.846C21.0735 19.846 21.2615 19.7681 21.4001 19.6295C21.5387 19.4909 21.6165 19.3029 21.6165 19.1069V12.899C21.6165 12.7029 21.5387 12.515 21.4001 12.3764C21.2615 12.2378 21.0735 12.1599 20.8775 12.1599ZM22.799 13.3424C22.6423 13.3429 22.4922 13.4053 22.3815 13.5161C22.2707 13.6268 22.2082 13.777 22.2078 13.9336V18.0723C22.2078 18.2291 22.2701 18.3795 22.3809 18.4903C22.4918 18.6012 22.6422 18.6635 22.799 18.6635C22.9558 18.6635 23.1062 18.6012 23.2171 18.4903C23.3279 18.3795 23.3902 18.2291 23.3902 18.0723V13.9336C23.3897 13.777 23.3272 13.6269 23.2165 13.5162C23.1057 13.4054 22.9556 13.3429 22.799 13.3424ZM11.1221 12.1599C10.9261 12.1599 10.7381 12.2378 10.5995 12.3764C10.4609 12.515 10.3831 12.7029 10.3831 12.899V19.1069C10.3831 19.3029 10.4609 19.4909 10.5995 19.6295C10.7381 19.7681 10.9261 19.846 11.1221 19.846C11.3181 19.846 11.5061 19.7681 11.6447 19.6295C11.7833 19.4909 11.8611 19.3029 11.8611 19.1069V12.899C11.8611 12.7029 11.7833 12.515 11.6447 12.3764C11.5061 12.2378 11.3181 12.1599 11.1221 12.1599Z" fill="black"/>
<path d="M19.5472 15.4119H12.4524V16.5943H19.5472V15.4119Z" fill="black"/>
<path d="M9.19988 13.3423C9.04307 13.3423 8.89269 13.4046 8.78181 13.5155C8.67093 13.6263 8.60864 13.7767 8.60864 13.9335V18.0722C8.60864 18.229 8.67093 18.3794 8.78181 18.4902C8.89269 18.6011 9.04307 18.6634 9.19988 18.6634C9.35668 18.6634 9.50707 18.6011 9.61794 18.4902C9.72882 18.3794 9.79111 18.229 9.79111 18.0722V13.9335C9.79065 13.7769 9.7282 13.6267 9.61743 13.516C9.50665 13.4052 9.35654 13.3428 9.19988 13.3423Z" fill="black"/>
<path d="M8.01824 15.1169H7.427V16.8906H8.01824V15.1169Z" fill="black"/>
<path d="M24.5719 15.1155H23.9807V16.8892H24.5719V15.1155Z" fill="black"/>
</svg>
