<svg width="32" height="32" viewBox="0 0 32 32" fill="none" xmlns="http://www.w3.org/2000/svg">
<rect x="0.5" y="0.5" width="31" height="31" rx="15.5" fill="white"/>
<rect x="0.5" y="0.5" width="31" height="31" rx="15.5" stroke="black"/>
<path d="M16.704 12.48H14.592C14.4053 12.48 14.2262 12.5541 14.0942 12.6862C13.9621 12.8182 13.888 12.9972 13.888 13.184V18.816C13.888 19.0027 13.9621 19.1817 14.0942 19.3138C14.2262 19.4458 14.4053 19.52 14.592 19.52C14.7787 19.52 14.9577 19.4458 15.0898 19.3138C15.2218 19.1817 15.296 19.0027 15.296 18.816V17.408H16.704C17.2641 17.408 17.8013 17.1854 18.1974 16.7894C18.5934 16.3933 18.816 15.8561 18.816 15.296V14.592C18.816 14.0318 18.5934 13.4946 18.1974 13.0986C17.8013 12.7025 17.2641 12.48 16.704 12.48ZM17.408 15.296C17.408 15.4827 17.3338 15.6617 17.2018 15.7938C17.0697 15.9258 16.8907 16 16.704 16H15.296V13.888H16.704C16.8907 13.888 17.0697 13.9621 17.2018 14.0942C17.3338 14.2262 17.408 14.4052 17.408 14.592V15.296ZM16 8.95996C14.6076 8.95996 13.2465 9.37285 12.0887 10.1464C10.931 10.92 10.0287 12.0195 9.49585 13.3059C8.96301 14.5923 8.8236 16.0078 9.09524 17.3734C9.36688 18.739 10.0374 19.9934 11.0219 20.978C12.0065 21.9626 13.2609 22.633 14.6265 22.9047C15.9922 23.1763 17.4077 23.0369 18.6941 22.5041C19.9804 21.9712 21.0799 21.0689 21.8535 19.9112C22.6271 18.7535 23.04 17.3923 23.04 16C23.04 15.0755 22.8579 14.16 22.5041 13.3059C22.1503 12.4517 21.6317 11.6757 20.978 11.0219C20.3243 10.3682 19.5482 9.84964 18.6941 9.49585C17.8399 9.14206 16.9245 8.95996 16 8.95996ZM16 21.632C14.8861 21.632 13.7972 21.3016 12.871 20.6828C11.9448 20.0639 11.2229 19.1843 10.7967 18.1552C10.3704 17.1261 10.2589 15.9937 10.4762 14.9012C10.6935 13.8087 11.2299 12.8052 12.0175 12.0175C12.8052 11.2299 13.8087 10.6935 14.9012 10.4762C15.9937 10.2589 17.1261 10.3704 18.1552 10.7967C19.1844 11.2229 20.0639 11.9448 20.6828 12.871C21.3017 13.7972 21.632 14.8861 21.632 16C21.632 17.4937 21.0386 18.9262 19.9824 19.9824C18.9262 21.0386 17.4937 21.632 16 21.632Z" fill="black"/>
</svg>
