<svg width="32" height="32" viewBox="0 0 32 32" fill="none" xmlns="http://www.w3.org/2000/svg">
<rect x="0.5" y="0.5" width="31" height="31" rx="15.5" fill="white"/>
<rect x="0.5" y="0.5" width="31" height="31" rx="15.5" stroke="black"/>
<path d="M9.95583 18.7523C10.2702 18.7523 10.4091 18.8342 10.5989 18.9455C10.8174 19.0736 11.0889 19.2353 11.5912 19.2353C12.0934 19.2353 12.365 19.0757 12.5834 18.9455C12.7733 18.8342 12.9101 18.7523 13.2265 18.7523C13.5409 18.7523 13.6798 18.8342 13.8697 18.9455C14.0881 19.0736 14.3596 19.2353 14.8619 19.2353C15.3641 19.2353 15.6357 19.0757 15.8541 18.9455C16.044 18.8342 16.1808 18.7523 16.4972 18.7523C16.8117 18.7523 16.9505 18.8342 17.1404 18.9455C17.3384 19.0631 17.5834 19.2038 18.006 19.229C18.0121 19.229 18.0183 19.2311 18.0244 19.2311H18.0326C18.0673 19.2332 18.0979 19.2353 18.1346 19.2353C18.6369 19.2353 18.9105 19.0757 19.1289 18.9455C19.3188 18.8342 19.4576 18.7523 19.772 18.7523C20.0885 18.7523 20.2253 18.8342 20.4151 18.9455C20.6336 19.0736 20.9051 19.2353 21.4094 19.2353C21.4555 19.2353 21.5012 19.2259 21.5438 19.2078C21.5864 19.1896 21.6251 19.163 21.6577 19.1295C21.6903 19.0959 21.7162 19.0561 21.7339 19.0123C21.7515 18.9685 21.7606 18.9215 21.7606 18.8741C21.7606 18.8266 21.7515 18.7797 21.7339 18.7358C21.7162 18.692 21.6903 18.6522 21.6577 18.6187C21.6251 18.5851 21.5864 18.5585 21.5438 18.5404C21.5012 18.5222 21.4555 18.5129 21.4094 18.5129C21.093 18.5129 20.9562 18.431 20.7663 18.3197C20.5479 18.1916 20.2763 18.0299 19.772 18.0299C19.2698 18.0299 18.9962 18.1895 18.7778 18.3197C18.645 18.3974 18.5368 18.4604 18.3755 18.4919V10.3649C18.3755 9.98896 18.6736 9.68446 19.037 9.68446C19.4025 9.68446 19.6985 9.99106 19.6985 10.3649V10.5644C19.6985 10.6602 19.7355 10.752 19.8014 10.8198C19.8672 10.8875 19.9566 10.9256 20.0497 10.9256C20.1428 10.9256 20.2321 10.8875 20.298 10.8198C20.3639 10.752 20.4009 10.6602 20.4009 10.5644V10.3649C20.4009 9.58996 19.7884 8.95996 19.035 8.95996C18.2816 8.95996 17.6691 9.58996 17.6691 10.3649V12.5888H13.8023V10.7009C13.8023 10.325 14.1004 10.0205 14.4638 10.0205C14.8292 10.0205 15.1253 10.3271 15.1253 10.7009V10.9004C15.1253 10.9962 15.1623 11.088 15.2281 11.1558C15.294 11.2235 15.3833 11.2616 15.4764 11.2616C15.5696 11.2616 15.6589 11.2235 15.7247 11.1558C15.7906 11.088 15.8276 10.9962 15.8276 10.9004V10.7009C15.8276 9.92596 15.2151 9.29596 14.4617 9.29596C13.7084 9.29596 13.0959 9.92596 13.0959 10.7009V18.0362C12.6753 18.0614 12.4303 18.2021 12.2302 18.3197C12.0403 18.431 11.9036 18.5129 11.5871 18.5129C11.2706 18.5129 11.1339 18.431 10.944 18.3197C10.7255 18.1916 10.454 18.0299 9.95175 18.0299C9.75779 18.0299 9.60059 18.1916 9.60059 18.3911C9.60263 18.5906 9.75983 18.7523 9.95583 18.7523ZM13.8023 13.3112H17.6712V14.8337H13.8023V13.3112ZM13.8023 15.5582H17.6712V16.9904H13.8023V15.5582ZM13.8023 17.7128H17.6712V18.4184C17.612 18.389 17.5528 18.3554 17.4895 18.3197C17.271 18.1916 16.9995 18.0299 16.4972 18.0299C15.995 18.0299 15.7235 18.1895 15.505 18.3197C15.3151 18.431 15.1783 18.5129 14.8619 18.5129C14.5475 18.5129 14.4086 18.431 14.2188 18.3197C14.1044 18.2525 13.9717 18.1769 13.8023 18.1181V17.7128ZM21.4053 20.0942C21.0889 20.0942 20.9521 20.0123 20.7622 19.901C20.5438 19.7729 20.2722 19.6112 19.7679 19.6112C19.2657 19.6112 18.9921 19.7708 18.7737 19.901C18.5838 20.0123 18.445 20.0942 18.1306 20.0942C17.8161 20.0942 17.6773 20.0123 17.4874 19.901C17.269 19.7729 16.9974 19.6112 16.4952 19.6112C15.993 19.6112 15.7214 19.7708 15.503 19.901C15.3131 20.0123 15.1763 20.0942 14.8598 20.0942C14.5454 20.0942 14.4066 20.0123 14.2167 19.901C13.9983 19.7729 13.7267 19.6112 13.2245 19.6112C12.7223 19.6112 12.4507 19.7708 12.2323 19.901C12.0424 20.0123 11.9056 20.0942 11.5891 20.0942C11.2727 20.0942 11.1359 20.0123 10.946 19.901C10.7276 19.7729 10.456 19.6112 9.95379 19.6112C9.86066 19.6112 9.77134 19.6492 9.70548 19.717C9.63962 19.7847 9.60263 19.8766 9.60263 19.9724C9.60263 20.0682 9.63962 20.16 9.70548 20.2278C9.77134 20.2955 9.86066 20.3336 9.95379 20.3336C10.2682 20.3336 10.407 20.4155 10.5969 20.5268C10.8154 20.6549 11.0869 20.8166 11.5891 20.8166C12.0914 20.8166 12.3629 20.657 12.5814 20.5268C12.7713 20.4155 12.908 20.3336 13.2245 20.3336C13.5389 20.3336 13.6777 20.4155 13.8676 20.5268C14.0861 20.6549 14.3576 20.8166 14.8598 20.8166C15.3621 20.8166 15.6336 20.657 15.8521 20.5268C16.042 20.4155 16.1787 20.3336 16.4952 20.3336C16.8096 20.3336 16.9484 20.4155 17.1383 20.5268C17.3568 20.6549 17.6283 20.8166 18.1306 20.8166C18.6328 20.8166 18.9064 20.657 19.1248 20.5268C19.3147 20.4155 19.4535 20.3336 19.7679 20.3336C20.0844 20.3336 20.2212 20.4155 20.4111 20.5268C20.6295 20.6549 20.9011 20.8166 21.4053 20.8166C21.5993 20.8166 21.7565 20.6549 21.7565 20.4554C21.7585 20.2559 21.6013 20.0942 21.4053 20.0942ZM21.4053 21.6776C21.0889 21.6776 20.9521 21.5957 20.7622 21.4844C20.5438 21.3563 20.2722 21.1946 19.7679 21.1946C19.2657 21.1946 18.9921 21.3542 18.7737 21.4844C18.5838 21.5957 18.445 21.6776 18.1306 21.6776C17.8161 21.6776 17.6773 21.5957 17.4874 21.4844C17.269 21.3563 16.9974 21.1946 16.4952 21.1946C15.993 21.1946 15.7214 21.3542 15.503 21.4844C15.3131 21.5957 15.1763 21.6776 14.8598 21.6776C14.5454 21.6776 14.4066 21.5957 14.2167 21.4844C13.9983 21.3563 13.7267 21.1946 13.2245 21.1946C12.7223 21.1946 12.4507 21.3542 12.2323 21.4844C12.0424 21.5957 11.9056 21.6776 11.5891 21.6776C11.2727 21.6776 11.1359 21.5957 10.946 21.4844C10.7276 21.3563 10.456 21.1946 9.95379 21.1946C9.86066 21.1946 9.77134 21.2326 9.70548 21.3004C9.63962 21.3681 9.60263 21.46 9.60263 21.5558C9.60263 21.6516 9.63962 21.7434 9.70548 21.8112C9.77134 21.8789 9.86066 21.917 9.95379 21.917C10.2682 21.917 10.407 21.9989 10.5969 22.1102C10.8154 22.2404 11.0869 22.4 11.5912 22.4C12.0955 22.4 12.365 22.2404 12.5834 22.1102C12.7733 21.9989 12.9101 21.917 13.2265 21.917C13.5409 21.917 13.6798 21.9989 13.8697 22.1102C14.0881 22.2383 14.3596 22.4 14.8619 22.4C15.3641 22.4 15.6357 22.2404 15.8541 22.1102C16.044 21.9989 16.1808 21.917 16.4972 21.917C16.8117 21.917 16.9505 21.9989 17.1404 22.1102C17.3588 22.2383 17.6304 22.4 18.1326 22.4C18.6348 22.4 18.9084 22.2404 19.1269 22.1102C19.3167 21.9989 19.4556 21.917 19.77 21.917C20.0864 21.917 20.2232 21.9989 20.4131 22.1102C20.6316 22.2383 20.9031 22.4 21.4074 22.4C21.4535 22.3998 21.4991 22.3903 21.5417 22.3721C21.5842 22.3538 21.6229 22.3271 21.6554 22.2934C21.6879 22.2598 21.7137 22.2199 21.7312 22.176C21.7487 22.1321 21.7577 22.0851 21.7575 22.0377C21.7574 21.9903 21.7482 21.9433 21.7304 21.8996C21.7126 21.8558 21.6867 21.8161 21.6539 21.7826C21.6212 21.7492 21.5825 21.7227 21.5398 21.7047C21.4971 21.6866 21.4515 21.6774 21.4053 21.6776Z" fill="black"/>
</svg>
