<svg width="25" height="24" viewBox="0 0 25 24" fill="none" xmlns="http://www.w3.org/2000/svg">
<path d="M14.7273 2H6.72729C6.19686 2 5.68815 2.21071 5.31308 2.58579C4.93801 2.96086 4.72729 3.46957 4.72729 4V20C4.72729 20.5304 4.93801 21.0391 5.31308 21.4142C5.68815 21.7893 6.19686 22 6.72729 22H18.7273C19.2577 22 19.7664 21.7893 20.1415 21.4142C20.5166 21.0391 20.7273 20.5304 20.7273 20V8L14.7273 2ZM18.7273 20H6.72729V4H13.7273V9H18.7273V20Z" fill="white"/>
<path d="M17.6667 12.8501C17.667 12.7953 17.6565 12.7409 17.6358 12.6901C17.6151 12.6394 17.5845 12.5932 17.5459 12.5543L15.7792 10.7876C15.7403 10.749 15.6941 10.7184 15.6433 10.6977C15.5926 10.6769 15.5382 10.6664 15.4834 10.6668C15.4285 10.6664 15.3742 10.6769 15.3234 10.6977C15.2727 10.7184 15.2265 10.749 15.1875 10.7876L14.0084 11.9668L9.45421 16.5209C9.4156 16.5599 9.38504 16.606 9.36431 16.6568C9.34357 16.7076 9.33306 16.7619 9.33338 16.8168V18.5834C9.33338 18.6939 9.37728 18.7999 9.45542 18.8781C9.53356 18.9562 9.63954 19.0001 9.75005 19.0001H11.5167C11.575 19.0033 11.6333 18.9941 11.6879 18.9733C11.7424 18.9525 11.792 18.9205 11.8334 18.8793L16.3625 14.3251L17.5459 13.1668C17.5839 13.1264 17.6149 13.0799 17.6375 13.0293C17.6416 12.996 17.6416 12.9625 17.6375 12.9293C17.6395 12.9099 17.6395 12.8903 17.6375 12.8709L17.6667 12.8501ZM11.3459 18.1668H10.1667V16.9876L14.3042 12.8501L15.4834 14.0293L11.3459 18.1668ZM16.0709 13.4418L14.8917 12.2626L15.4834 11.6751L16.6584 12.8501L16.0709 13.4418Z" fill="white"/>
</svg>
