<svg width="21" height="20" viewBox="0 0 21 20" fill="none" xmlns="http://www.w3.org/2000/svg">
<g id="solar:hand-money-linear">
<g id="Group">
<path id="Vector" d="M15.239 8.67833C15.7273 8.19 15.7273 7.405 15.7273 5.83333C15.7273 4.26167 15.7273 3.47667 15.239 2.98833M15.239 8.67833C14.7506 9.16667 13.9656 9.16667 12.394 9.16667H9.06063C7.48896 9.16667 6.70396 9.16667 6.21563 8.67833M15.239 2.98833C14.7506 2.5 13.9656 2.5 12.394 2.5H9.06063C7.48896 2.5 6.70396 2.5 6.21563 2.98833M6.21563 2.98833C5.72729 3.47667 5.72729 4.26167 5.72729 5.83333C5.72729 7.405 5.72729 8.19 6.21563 8.67833M11.5606 5.83333C11.5606 6.05435 11.4728 6.26631 11.3166 6.42259C11.1603 6.57887 10.9483 6.66667 10.7273 6.66667C10.5063 6.66667 10.2943 6.57887 10.138 6.42259C9.98176 6.26631 9.89396 6.05435 9.89396 5.83333C9.89396 5.61232 9.98176 5.40036 10.138 5.24408C10.2943 5.0878 10.5063 5 10.7273 5C10.9483 5 11.1603 5.0878 11.3166 5.24408C11.4728 5.40036 11.5606 5.61232 11.5606 5.83333Z" stroke="white" stroke-width="1.5"/>
<path id="Vector_2" d="M15.7274 5C15.0643 5 14.4284 4.73661 13.9596 4.26777C13.4908 3.79893 13.2274 3.16304 13.2274 2.5M15.7274 6.66667C15.0643 6.66667 14.4284 6.93006 13.9596 7.3989C13.4908 7.86774 13.2274 8.50363 13.2274 9.16667M5.72738 5C6.39042 5 7.0263 4.73661 7.49514 4.26777C7.96398 3.79893 8.22738 3.16304 8.22738 2.5M5.72738 6.66667C6.39042 6.66667 7.0263 6.93006 7.49514 7.3989C7.96398 7.86774 8.22738 8.50363 8.22738 9.16667M4.89404 16.99H6.77738C7.61904 16.99 8.47154 17.0783 9.29071 17.2467C10.7532 17.5471 12.258 17.5804 13.7324 17.345C14.4557 17.2283 15.1657 17.0492 15.809 16.7392C16.389 16.4583 17.0999 16.0642 17.5774 15.6217C18.054 15.18 18.5507 14.4575 18.9024 13.8925C19.2057 13.4075 19.059 12.8133 18.5807 12.4525C18.3119 12.257 17.9881 12.1517 17.6557 12.1517C17.3233 12.1517 16.9995 12.257 16.7307 12.4525L15.2249 13.59C14.6415 14.0317 14.004 14.4375 13.2449 14.5583C13.1532 14.5725 13.0574 14.5858 12.9574 14.5975M12.9574 14.5975C12.9268 14.601 12.8963 14.6044 12.8657 14.6075M12.9574 14.5975C13.0908 14.5614 13.2131 14.4927 13.3132 14.3975C13.4388 14.2889 13.5413 14.1562 13.6148 14.0073C13.6882 13.8584 13.7311 13.6962 13.7409 13.5305C13.7507 13.3647 13.7272 13.1987 13.6718 13.0422C13.6163 12.8857 13.5301 12.7418 13.4182 12.6192C13.3096 12.4986 13.1831 12.3955 13.0432 12.3133C10.7124 10.9225 7.08488 11.9817 4.89404 13.5358M12.9574 14.5975C12.9273 14.6041 12.8965 14.6074 12.8657 14.6075M12.8657 14.6075C12.3631 14.658 11.8568 14.6591 11.354 14.6108" stroke="white" stroke-width="1.5" stroke-linecap="round"/>
<path id="Vector_3" d="M4.89404 12.9167C4.89404 12.2263 4.3344 11.6667 3.64404 11.6667C2.95369 11.6667 2.39404 12.2263 2.39404 12.9167V17.0834C2.39404 17.7737 2.95369 18.3334 3.64404 18.3334C4.3344 18.3334 4.89404 17.7737 4.89404 17.0834V12.9167Z" stroke="white" stroke-width="1.5"/>
</g>
</g>
</svg>
