<svg width="21" height="20" viewBox="0 0 21 20" fill="none" xmlns="http://www.w3.org/2000/svg">
<g id="fluent:real-estate-20-regular">
<path id="Vector" d="M2.7273 3.49998C2.72677 3.14574 2.85163 2.80275 3.07976 2.53174C3.30789 2.26074 3.62457 2.07922 3.97371 2.01934C4.32285 1.95945 4.68192 2.02506 4.98732 2.20455C5.29272 2.38403 5.52474 2.66581 5.6423 2.99998H17.2273C17.5818 2.99949 17.925 3.12455 18.196 3.353C18.4671 3.58145 18.6485 3.89851 18.7081 4.24795C18.7676 4.5974 18.7015 4.95665 18.5214 5.26199C18.3413 5.56733 18.0589 5.79902 17.7243 5.91598L17.7273 5.99998V13C17.7273 13.7956 17.4112 14.5587 16.8486 15.1213C16.286 15.6839 15.5229 16 14.7273 16H7.7273C6.98918 16.0009 6.27681 15.7288 5.7273 15.236V17.25C5.7273 17.4489 5.64828 17.6397 5.50763 17.7803C5.36697 17.921 5.17621 18 4.9773 18H3.4773C3.27838 18 3.08762 17.921 2.94697 17.7803C2.80631 17.6397 2.7273 17.4489 2.7273 17.25V3.49998ZM16.7273 13V5.99998H5.7273V13C5.7273 13.5304 5.93801 14.0391 6.31308 14.4142C6.68816 14.7893 7.19686 15 7.7273 15H14.7273C15.2577 15 15.7664 14.7893 16.1415 14.4142C16.5166 14.0391 16.7273 13.5304 16.7273 13ZM4.7273 4.99998H17.2273C17.3599 4.99998 17.4871 4.9473 17.5809 4.85353C17.6746 4.75976 17.7273 4.63259 17.7273 4.49998C17.7273 4.36737 17.6746 4.24019 17.5809 4.14643C17.4871 4.05266 17.3599 3.99998 17.2273 3.99998H4.7273V3.49998C4.7273 3.36737 4.67462 3.24019 4.58085 3.14643C4.48708 3.05266 4.3599 2.99998 4.2273 2.99998C4.09469 2.99998 3.96751 3.05266 3.87374 3.14643C3.77998 3.24019 3.7273 3.36737 3.7273 3.49998V17H4.7273V4.99998ZM8.2273 9.95498V12.505C8.2273 12.6376 8.27997 12.7648 8.37374 12.8585C8.46751 12.9523 8.59469 13.005 8.7273 13.005H9.7273C9.8599 13.005 9.98708 12.9523 10.0809 12.8585C10.1746 12.7648 10.2273 12.6376 10.2273 12.505V11.505C10.2273 11.3724 10.28 11.2452 10.3737 11.1514C10.4675 11.0577 10.5947 11.005 10.7273 11.005H11.7273C11.8599 11.005 11.9871 11.0577 12.0809 11.1514C12.1746 11.2452 12.2273 11.3724 12.2273 11.505V12.505C12.2273 12.6376 12.28 12.7648 12.3737 12.8585C12.4675 12.9523 12.5947 13.005 12.7273 13.005H13.7273C13.8599 13.005 13.9871 12.9523 14.0809 12.8585C14.1746 12.7648 14.2273 12.6376 14.2273 12.505V9.95498C14.2273 9.81364 14.1974 9.67389 14.1395 9.54496C14.0816 9.41602 13.997 9.30083 13.8913 9.20698L11.5593 7.13698C11.4678 7.05572 11.3497 7.01085 11.2273 7.01085C11.1049 7.01085 10.9868 7.05572 10.8953 7.13698L8.5633 9.20698C8.45761 9.30083 8.37302 9.41602 8.3151 9.54496C8.25718 9.67389 8.22726 9.81364 8.2273 9.95498Z" fill="white"/>
</g>
</svg>
