<svg width="24" height="25" viewBox="0 0 24 25" fill="none" xmlns="http://www.w3.org/2000/svg">
<path d="M12 9.5L8.5 6L12 2.5L15.5 6L12 9.5ZM1 20.5V16.5C1 15.9333 1.196 15.4583 1.588 15.075C1.98 14.6917 2.45067 14.5 3 14.5H6.275C6.60833 14.5 6.925 14.5833 7.225 14.75C7.525 14.9167 7.76667 15.1417 7.95 15.425C8.43333 16.075 9.02933 16.5833 9.738 16.95C10.4467 17.3167 11.2007 17.5 12 17.5C12.8167 17.5 13.5793 17.3167 14.288 16.95C14.9967 16.5833 15.584 16.075 16.05 15.425C16.2667 15.1417 16.521 14.9167 16.813 14.75C17.105 14.5833 17.409 14.5 17.725 14.5H21C21.5667 14.5 22.0417 14.6917 22.425 15.075C22.8083 15.4583 23 15.9333 23 16.5V20.5H16V18.225C15.4167 18.6417 14.7873 18.9583 14.112 19.175C13.4367 19.3917 12.7327 19.5 12 19.5C11.2833 19.5 10.5833 19.3877 9.9 19.163C9.21667 18.9383 8.58333 18.6173 8 18.2V20.5H1ZM4 13.5C3.16667 13.5 2.45833 13.2083 1.875 12.625C1.29167 12.0417 1 11.3333 1 10.5C1 9.65 1.29167 8.93767 1.875 8.363C2.45833 7.78833 3.16667 7.50067 4 7.5C4.85 7.5 5.56267 7.78767 6.138 8.363C6.71333 8.93833 7.00067 9.65067 7 10.5C7 11.3333 6.71267 12.0417 6.138 12.625C5.56333 13.2083 4.85067 13.5 4 13.5ZM20 13.5C19.1667 13.5 18.4583 13.2083 17.875 12.625C17.2917 12.0417 17 11.3333 17 10.5C17 9.65 17.2917 8.93767 17.875 8.363C18.4583 7.78833 19.1667 7.50067 20 7.5C20.85 7.5 21.5627 7.78767 22.138 8.363C22.7133 8.93833 23.0007 9.65067 23 10.5C23 11.3333 22.7127 12.0417 22.138 12.625C21.5633 13.2083 20.8507 13.5 20 13.5Z" fill="white"/>
</svg>
