<svg width="21" height="20" viewBox="0 0 21 20" fill="none" xmlns="http://www.w3.org/2000/svg">
<g id="material-symbols:database-outline">
<path id="Vector" d="M10.7273 17.5C8.63007 17.5 6.85591 17.1772 5.40479 16.5317C3.95368 15.8861 3.22785 15.0978 3.22729 14.1667V5.83333C3.22729 4.91667 3.96007 4.13194 5.42563 3.47917C6.89118 2.82639 8.65841 2.5 10.7273 2.5C12.7967 2.5 14.5642 2.82639 16.0298 3.47917C17.4954 4.13194 18.2278 4.91667 18.2273 5.83333V14.1667C18.2273 15.0972 17.5015 15.8856 16.0498 16.5317C14.5981 17.1778 12.824 17.5006 10.7273 17.5ZM10.7273 7.52083C11.9634 7.52083 13.2065 7.34361 14.4565 6.98917C15.7065 6.63472 16.4079 6.25639 16.5606 5.85417C16.4079 5.45139 15.7101 5.06944 14.4673 4.70833C13.2245 4.34722 11.9778 4.16667 10.7273 4.16667C9.46341 4.16667 8.22396 4.34389 7.00896 4.69833C5.79396 5.05278 5.08896 5.43806 4.89396 5.85417C5.08841 6.27083 5.79341 6.65278 7.00896 7C8.22452 7.34722 9.46396 7.52083 10.7273 7.52083ZM10.7273 11.6667C11.3106 11.6667 11.8731 11.6389 12.4148 11.5833C12.9565 11.5278 13.474 11.4478 13.9673 11.3433C14.4601 11.2394 14.9254 11.1111 15.3631 10.9583C15.8009 10.8056 16.2001 10.6319 16.5606 10.4375V7.9375C16.1995 8.13194 15.8004 8.30555 15.3631 8.45833C14.9259 8.61111 14.4606 8.73972 13.9673 8.84417C13.474 8.94806 12.9565 9.02778 12.4148 9.08333C11.8731 9.13889 11.3106 9.16667 10.7273 9.16667C10.144 9.16667 9.57452 9.13889 9.01896 9.08333C8.46341 9.02778 7.93896 8.94778 7.44563 8.84333C6.95285 8.73944 6.49118 8.61111 6.06063 8.45833C5.63007 8.30555 5.24118 8.13194 4.89396 7.9375V10.4375C5.24118 10.6319 5.63007 10.8056 6.06063 10.9583C6.49118 11.1111 6.95313 11.2397 7.44646 11.3442C7.93924 11.4481 8.46341 11.5278 9.01896 11.5833C9.57452 11.6389 10.144 11.6667 10.7273 11.6667ZM10.7273 15.8333C11.3662 15.8333 12.0156 15.7847 12.6756 15.6875C13.3356 15.5903 13.9431 15.4619 14.4981 15.3025C15.0537 15.1425 15.519 14.9619 15.894 14.7608C16.269 14.5597 16.4912 14.3547 16.5606 14.1458V12.1042C16.1995 12.2986 15.8004 12.4722 15.3631 12.625C14.9259 12.7778 14.4606 12.9064 13.9673 13.0108C13.474 13.1147 12.9565 13.1944 12.4148 13.25C11.8731 13.3056 11.3106 13.3333 10.7273 13.3333C10.144 13.3333 9.57452 13.3056 9.01896 13.25C8.46341 13.1944 7.93896 13.1144 7.44563 13.01C6.95285 12.9061 6.49118 12.7778 6.06063 12.625C5.63007 12.4722 5.24118 12.2986 4.89396 12.1042V14.1667C4.96341 14.375 5.18229 14.5764 5.55063 14.7708C5.91896 14.9653 6.38063 15.1425 6.93563 15.3025C7.49118 15.4619 8.10229 15.5903 8.76896 15.6875C9.43563 15.7847 10.0884 15.8333 10.7273 15.8333Z" fill="white"/>
</g>
</svg>
