<svg width="21" height="20" viewBox="0 0 21 20" fill="none" xmlns="http://www.w3.org/2000/svg">
<g id="ph:coin">
<path id="Vector" d="M16.9445 4.9875C15.325 4.17813 13.175 3.75 10.7273 3.75C8.27964 3.75 6.12964 4.17813 4.51011 4.9875C2.89058 5.79688 1.97729 6.93594 1.97729 8.125V11.875C1.97729 13.0641 2.90073 14.207 4.51011 15.0125C6.11948 15.818 8.27964 16.25 10.7273 16.25C13.175 16.25 15.325 15.8219 16.9445 15.0125C18.564 14.2031 19.4773 13.0641 19.4773 11.875V8.125C19.4773 6.93594 18.5539 5.79297 16.9445 4.9875ZM10.7273 5C15.621 5 18.2273 6.81484 18.2273 8.125C18.2273 9.43516 15.621 11.25 10.7273 11.25C5.83354 11.25 3.22729 9.43516 3.22729 8.125C3.22729 6.81484 5.83354 5 10.7273 5ZM10.1023 12.4891V14.9891C8.61792 14.9406 7.36792 14.7219 6.35229 14.4039V11.957C7.57662 12.2832 8.83556 12.4618 10.1023 12.4891ZM11.3523 12.4891C12.619 12.4618 13.878 12.2832 15.1023 11.957V14.4031C14.0867 14.7211 12.8367 14.9398 11.3523 14.9883V12.4891ZM3.22729 11.875V10.432C3.62062 10.7585 4.05122 11.0373 4.51011 11.2625C4.69995 11.357 4.90073 11.4461 5.10229 11.5305V13.9062C3.86558 13.2937 3.22729 12.5227 3.22729 11.875ZM16.3523 13.9062V11.5305C16.5562 11.4461 16.7546 11.357 16.9445 11.2625C17.4034 11.0373 17.834 10.7585 18.2273 10.432V11.875C18.2273 12.5227 17.589 13.2937 16.3523 13.9062Z" fill="white"/>
</g>
</svg>
