<svg width="280" height="323" viewBox="0 0 280 323" fill="none" xmlns="http://www.w3.org/2000/svg">
<g clip-path="url(#clip0_5_7885)">
<path opacity="0.18" d="M100.656 60.6814C95.5861 72.8826 94.5148 86.7341 87.5133 97.9343C76.8921 114.929 55.6766 121.498 40.1748 134.186C24.765 146.809 14.977 166.716 16.5137 186.578C18.0503 206.441 31.8369 225.357 50.9314 231.028C57.5487 232.997 64.7287 233.489 70.6859 236.979C83.9693 244.76 85.9767 263.887 97.8695 273.659C108.507 282.397 124.144 281.315 137.303 277.289C150.462 273.264 163.107 266.728 176.845 265.9C185.036 265.407 193.277 266.982 201.436 266.132C211.836 265.05 221.391 260.105 230.535 255.03C246.437 246.199 263.541 234.393 266.187 216.397C269.217 195.663 251.404 176.861 251.686 155.905C251.816 146.166 255.906 136.789 256.285 127.033C256.826 113.577 249.619 100.088 238.159 93.0213C228.782 87.2319 217.355 85.7385 207.556 80.7011C194.273 73.8728 185.134 61.2225 173.863 51.4399C153.47 33.7414 112.473 32.2209 100.656 60.6814Z" fill="#009ED4"/>
<path d="M187.136 122.688C188.845 120.248 192.444 119.842 195.252 120.854C198.06 121.866 200.311 123.955 202.643 125.81C204.975 127.666 207.659 129.387 210.64 129.436C211.83 129.436 213.037 129.198 214.211 129.403C215.291 129.631 216.259 130.226 216.95 131.087C217.64 131.949 218.011 133.023 217.999 134.127C209.437 133.636 200.858 134.737 192.698 137.373C188.678 138.672 184.041 140.279 180.486 137.974C179.16 137.108 178.138 135.755 176.655 135.209C173.598 134.083 170.162 136.832 167.062 135.799C165.725 135.344 164.73 134.251 163.55 133.467C159.649 130.875 154.233 131.973 150.11 129.749C149.76 129.6 149.446 129.378 149.187 129.098C148.929 128.818 148.733 128.487 148.611 128.126C148.395 127.098 149.304 126.113 150.316 125.816C151.327 125.518 152.404 125.691 153.454 125.767C156.148 125.947 158.842 125.409 161.262 124.209C162.279 123.7 163.334 123.056 164.459 123.219C166.694 123.538 168.339 126.855 170.346 125.837C168.88 126.579 169.426 121.644 169.686 121.168C170.53 119.648 173.279 118.576 174.864 118.17C179.355 117.007 184.587 118.744 187.136 122.688Z" fill="#009ED4"/>
<path d="M187.136 122.688C188.845 120.248 192.444 119.842 195.252 120.854C198.06 121.866 200.311 123.955 202.643 125.81C204.975 127.666 207.659 129.387 210.64 129.436C211.83 129.436 213.037 129.198 214.211 129.403C215.291 129.631 216.259 130.226 216.95 131.087C217.64 131.949 218.011 133.023 217.999 134.127C209.437 133.636 200.858 134.737 192.698 137.373C188.678 138.672 184.041 140.279 180.486 137.974C179.16 137.108 178.138 135.755 176.655 135.209C173.598 134.083 170.162 136.832 167.062 135.799C165.725 135.344 164.73 134.251 163.55 133.467C159.649 130.875 154.233 131.973 150.11 129.749C149.76 129.6 149.446 129.378 149.187 129.098C148.929 128.818 148.733 128.487 148.611 128.126C148.395 127.098 149.304 126.113 150.316 125.816C151.327 125.518 152.404 125.691 153.454 125.767C156.148 125.947 158.842 125.409 161.262 124.209C162.279 123.7 163.334 123.056 164.459 123.219C166.694 123.538 168.339 126.855 170.346 125.837C168.88 126.579 169.426 121.644 169.686 121.168C170.53 119.648 173.279 118.576 174.864 118.17C179.355 117.007 184.587 118.744 187.136 122.688Z" fill="url(#paint0_linear_5_7885)"/>
<path d="M155.964 0L97.9992 61.7527H124.723V122.51H183.57V61.2549H208.925L155.964 0ZM28.2278 118.089L63.9981 78.829L100.948 117.321H78.2554V166.889H46.7541V118.089H28.2278ZM207.28 98.129L243.05 58.8688L280 97.3607H257.307V146.928H225.806V98.129H207.28Z" fill="#009ED4"/>
<path d="M147.426 171.791C147.426 171.791 147.469 220.222 145.316 224.756C143.622 228.322 128.808 233.571 122.558 235.654C120.865 236.222 119.794 236.552 119.794 236.552L120.995 213.437C120.503 216.566 119.732 219.644 118.69 222.635C117.234 226.591 115.043 230.108 111.97 229.128C105.515 227.078 103.697 225.882 103.697 225.882L100.948 216.143C100.948 216.143 111.282 211.479 111.477 205.813C111.672 200.148 114.978 183.191 123.954 179.447L125.805 178.673L132.931 175.703C132.931 175.703 138.883 157.344 137.595 141.934C136.307 126.525 137.595 124.214 137.595 124.214H146.663C146.663 124.214 147.269 139.997 147.426 144.402C147.583 148.806 147.426 171.791 147.426 171.791Z" fill="#004F6A"/>
<path d="M140.722 163.355C139.721 167.365 138.141 171.201 136.567 175.021C135.755 176.644 135.268 180.194 133.613 181.243C131.849 182.363 128.597 179.983 126.936 179.236C126.562 179.063 126.178 178.884 125.805 178.695L132.931 175.724C132.931 175.724 138.883 157.366 137.595 141.956C136.307 126.546 137.595 124.236 137.595 124.236H138.515C138.661 124.307 138.798 124.398 138.92 124.506C139.813 125.269 139.943 126.579 140.003 127.753C140.208 131.129 140.408 134.549 139.754 137.865C139.35 139.416 139.03 140.988 138.796 142.573C138.655 144.169 138.937 145.89 139.997 147.091C140.495 147.632 141.155 148.086 141.512 148.746C141.788 149.331 141.927 149.972 141.918 150.619C142.157 154.9 141.754 159.193 140.722 163.355ZM125.356 230.773C124.909 231.493 124.546 232.26 124.274 233.062C124.2 233.434 124.086 233.797 123.933 234.144C123.771 234.42 123.569 234.67 123.332 234.885L122.553 235.675C120.859 236.243 119.788 236.573 119.788 236.573L120.989 213.459C120.498 216.588 119.726 219.666 118.684 222.657C119.09 218.632 120.459 212.793 120.513 210.429C120.605 207.037 121.194 203.678 122.261 200.457C123.132 201.068 123.419 202.205 123.581 203.249C124.219 207.307 124.003 211.516 125.204 215.445C125.989 218.015 127.369 220.449 127.547 223.139C127.726 225.828 126.654 228.42 125.356 230.773Z" fill="#25233A"/>
<path d="M124.544 217.874L120.145 222.1C119.918 222.319 119.625 222.457 119.312 222.495L92.8372 225.741C92.4983 225.786 92.1546 225.708 91.8673 225.523C91.58 225.338 91.3677 225.056 91.2681 224.729L85.1919 204.953C85.1304 204.749 85.1144 204.533 85.145 204.321C85.1756 204.11 85.2521 203.908 85.3691 203.729C85.4861 203.55 85.6408 203.399 85.8224 203.286C86.0039 203.173 86.2079 203.101 86.4201 203.076L110.985 200.278C111.322 200.24 111.662 200.32 111.945 200.506C112.229 200.692 112.439 200.971 112.538 201.296L116.547 214.341C116.731 214.952 116.883 215.369 116.883 215.369H123.549C123.838 215.371 124.12 215.46 124.358 215.624C124.597 215.787 124.782 216.018 124.889 216.287C124.995 216.556 125.02 216.85 124.958 217.133C124.897 217.416 124.753 217.674 124.544 217.874Z" fill="#009ED4"/>
<path d="M137.27 119.978C137.237 119.803 137.245 119.624 137.295 119.453C137.345 119.283 137.435 119.127 137.557 118.998C137.697 118.911 137.862 118.87 138.027 118.881C138.193 118.893 138.35 118.957 138.477 119.063C138.732 119.276 138.936 119.544 139.072 119.848L139.781 121.13C139.946 121.487 140.188 121.803 140.49 122.055C141.005 122.337 141.597 122.443 142.178 122.358L145.067 122.234C145.191 122.22 145.317 122.241 145.43 122.293C145.506 122.359 145.565 122.443 145.599 122.538C145.633 122.633 145.642 122.735 145.624 122.834C145.614 123.305 145.499 123.767 145.289 124.187L142.042 124.306C141.15 124.339 139.754 124.663 138.904 124.393C137.616 123.965 137.33 121.125 137.27 119.978Z" fill="url(#paint1_linear_5_7885)"/>
<path d="M146.36 278.572C146.057 280.395 143.114 288.82 143.114 288.82L140.896 287.38L137.99 285.497C137.99 285.497 143.276 261.311 142.806 258.839C142.335 256.366 138.656 249.976 138.656 249.976L136.134 308.179L129.641 310.684C129.641 310.684 119.188 247.887 119.777 236.557L145.3 224.762C145.3 224.762 152.875 247.059 153.784 251.772C154.693 256.485 146.669 276.748 146.36 278.572Z" fill="#009ED4"/>
<path d="M136.832 291.969L148.195 299.143C148.195 299.143 149.531 296.946 147.421 294.176C145.311 291.406 143.092 288.819 143.092 288.819L137.958 285.497L136.832 291.969ZM129.657 310.684C129.657 310.684 126.016 317.518 127.38 321.159C128.743 324.801 131.822 320.348 133.607 317.67C135.122 315.386 136.821 310.684 136.821 310.684L136.134 308.179L129.657 310.684Z" fill="#004F6A"/>
<path d="M148.6 255.571L140.896 287.38L137.99 285.497C137.99 285.497 143.276 261.311 142.806 258.839C142.335 256.366 138.655 249.976 138.655 249.976C138.655 249.976 141.653 244.662 142.719 245.799C143.785 246.935 148.6 255.571 148.6 255.571Z" fill="url(#paint2_linear_5_7885)"/>
<path d="M124.171 234.528L130.999 310.165L129.657 310.706C129.657 310.706 119.22 247.622 119.794 236.579L124.171 234.528Z" fill="url(#paint3_linear_5_7885)"/>
<path d="M123.538 215.347L118.414 220.076L116.547 214.341C116.731 214.952 116.883 215.369 116.883 215.369L123.538 215.347Z" fill="url(#paint4_linear_5_7885)"/>
<path d="M85.1919 204.975L109.6 202.307C110.013 202.262 110.43 202.358 110.782 202.58C111.134 202.803 111.4 203.137 111.537 203.53L118.251 222.625L92.821 225.763L85.1919 204.975Z" fill="url(#paint5_linear_5_7885)"/>
<path d="M132.103 170.93C131.475 172.326 132.931 175.724 132.931 175.724C132.931 175.724 134.505 178.738 133.975 181.779C133.975 181.925 133.916 182.077 133.883 182.223C133.093 185.41 122.975 182.039 123.284 177.586C123.592 173.133 118.668 161.781 118.668 161.781C121.558 149.028 131.026 153.07 131.87 153.751C132.714 154.433 135.864 164.513 135.003 166.802C134.759 167.465 134.406 168.083 133.959 168.631C133.256 169.518 132.514 170.016 132.103 170.93Z" fill="url(#paint6_linear_5_7885)"/>
<path d="M131.87 153.762C131.87 153.762 133.288 150.234 131.87 148.979C130.453 147.724 128.083 147.388 125.405 147.275C122.726 147.161 121.888 146.701 119.794 148.979C117.7 151.257 116.996 154.823 115.698 155.434C114.399 156.046 113.263 158.102 113.945 160.131C114.626 162.16 116.336 165.39 116.677 165.498C117.018 165.606 119.355 168.111 119.469 169.594C119.583 171.077 122.596 171.791 122.596 171.791L122.429 165.947C122.429 165.947 122.088 167.484 120.665 166.174C119.242 164.865 121.346 163.328 121.514 163.388C121.682 163.447 119.891 160.39 120.459 158.897C121.027 157.404 124.29 149.336 131.87 153.762Z" fill="#004F6A"/>
<path d="M133.975 181.801C133.885 182.028 133.749 182.234 133.575 182.407C133.304 182.634 132.978 182.784 132.629 182.841C132.281 182.898 131.923 182.86 131.594 182.731C130.943 182.459 130.371 182.025 129.933 181.471C128.942 180.323 128.224 178.964 127.835 177.498C127.446 176.032 127.396 174.497 127.688 173.008C127.78 172.466 127.979 171.947 128.272 171.482C128.986 170.444 130.323 170.07 131.492 169.589C132.66 169.107 133.515 168.323 133.959 168.653C133.256 169.529 132.514 170.027 132.103 170.941C131.475 172.337 132.931 175.735 132.931 175.735C132.931 175.735 134.505 178.738 133.975 181.801Z" fill="url(#paint7_linear_5_7885)"/>
<path d="M187.255 155.559C186.172 160.428 189.116 165.839 193.78 167.543C197.703 168.977 202.042 167.933 206.225 167.938C213.54 167.938 220.493 171.25 227.792 171.726C232.624 172.035 237.456 171.104 241.827 169.021C244.354 167.814 246.784 166.212 249.559 165.861C251.886 165.563 254.315 166.18 256.566 165.509C260.392 164.373 262.302 159.508 260.922 155.77C259.542 152.031 255.598 149.634 251.621 149.277C247.757 148.952 243.764 150.272 240.053 149.158C235.903 147.913 233.056 143.898 228.934 142.557C222.895 140.598 216.786 144.916 211.901 148.974C211.378 147.509 210.429 146.234 209.175 145.314C207.921 144.394 206.421 143.871 204.867 143.812C201.674 143.747 198.52 146.398 195.62 147.599C191.756 149.255 188.283 151.03 187.255 155.559Z" fill="#009ED4"/>
<path d="M187.255 155.559C186.172 160.428 189.116 165.839 193.78 167.543C197.703 168.977 202.042 167.933 206.225 167.938C213.54 167.938 220.493 171.25 227.792 171.726C232.624 172.035 237.456 171.104 241.827 169.021C244.354 167.814 246.784 166.212 249.559 165.861C251.886 165.563 254.315 166.18 256.566 165.509C260.392 164.373 262.302 159.508 260.922 155.77C259.542 152.031 255.598 149.634 251.621 149.277C247.757 148.952 243.764 150.272 240.053 149.158C235.903 147.913 233.057 143.898 228.934 142.557C222.895 140.598 216.786 144.916 211.901 148.974C211.378 147.509 210.429 146.234 209.175 145.314C207.921 144.394 206.421 143.871 204.867 143.812C201.674 143.747 198.52 146.398 195.62 147.599C191.756 149.255 188.283 151.03 187.255 155.559Z" fill="url(#paint8_linear_5_7885)"/>
<path d="M0.216539 163.577C-0.865608 168.447 2.07783 173.858 6.74729 175.562C10.6701 176.996 15.0041 175.946 19.192 175.957C26.5019 175.957 33.4547 179.263 40.7537 179.744C45.5881 180.054 50.4213 179.122 54.7946 177.039C57.3214 175.838 59.7454 174.231 62.5265 173.879C64.8531 173.587 67.2826 174.204 69.5334 173.533C73.3534 172.397 75.2688 167.527 73.8891 163.794C72.5093 160.06 68.5595 157.652 64.588 157.301C60.7248 156.971 56.7316 158.291 53.0199 157.182C48.8644 155.937 46.0184 151.917 41.9008 150.581C35.8624 148.617 29.7537 152.94 24.8678 156.992C24.3446 155.529 23.395 154.255 22.1413 153.336C20.8876 152.417 19.3873 151.894 17.8339 151.836C14.6416 151.771 11.4871 154.417 8.58694 155.623C4.71827 157.274 1.2554 159.075 0.216539 163.577Z" fill="#009ED4"/>
<path d="M0.216539 163.577C-0.865608 168.447 2.07783 173.858 6.7473 175.562C10.6701 176.996 15.0041 175.946 19.192 175.957C26.5019 175.957 33.4547 179.263 40.7537 179.744C45.5881 180.054 50.4213 179.122 54.7946 177.039C57.3214 175.838 59.7454 174.231 62.5265 173.879C64.8531 173.587 67.2826 174.204 69.5334 173.533C73.3534 172.397 75.2688 167.527 73.8891 163.794C72.5093 160.06 68.5595 157.652 64.588 157.301C60.7248 156.971 56.7316 158.291 53.0199 157.182C48.8644 155.937 46.0184 151.917 41.9008 150.581C35.8624 148.617 29.7537 152.94 24.8678 156.992C24.3446 155.529 23.395 154.255 22.1413 153.336C20.8876 152.417 19.3873 151.894 17.8339 151.836C14.6415 151.771 11.4871 154.417 8.58694 155.623C4.71827 157.274 1.2554 159.075 0.216539 163.577Z" fill="url(#paint9_linear_5_7885)"/>
<path d="M101.732 225.709C102.283 225.821 102.848 225.841 103.404 225.768L106.418 225.557C106.807 225.543 107.192 225.479 107.565 225.368C107.896 225.246 108.192 225.046 108.428 224.784C108.664 224.521 108.832 224.206 108.918 223.864C108.948 223.763 108.948 223.656 108.918 223.555C108.815 223.247 108.377 223.269 108.09 223.452C107.803 223.636 107.609 223.923 107.289 223.994C107.118 224.009 106.944 223.988 106.781 223.934L105.076 223.501C104.981 223.469 104.879 223.458 104.779 223.469C104.405 223.528 104.373 224.048 104.432 224.421C104.317 224.268 104.17 224.143 104.001 224.054C103.831 223.965 103.644 223.915 103.453 223.907C103.261 223.908 103.078 223.985 102.942 224.121C102.806 224.257 102.729 224.44 102.728 224.632L102.057 224.091C101.965 224.021 101.841 223.945 101.738 224.004C101.689 224.044 101.654 224.1 101.641 224.161L101.413 224.74C101.473 224.589 100.558 224.199 100.499 224.74C100.466 225.206 101.424 225.628 101.732 225.709Z" fill="url(#paint10_linear_5_7885)"/>
</g>
<defs>
<linearGradient id="paint0_linear_5_7885" x1="187.255" y1="115.963" x2="180.367" y2="141.989" gradientUnits="userSpaceOnUse">
<stop stop-color="white" stop-opacity="0"/>
<stop offset="0.06" stop-color="white" stop-opacity="0.13"/>
<stop offset="0.16" stop-color="white" stop-opacity="0.33"/>
<stop offset="0.26" stop-color="white" stop-opacity="0.51"/>
<stop offset="0.37" stop-color="white" stop-opacity="0.66"/>
<stop offset="0.48" stop-color="white" stop-opacity="0.79"/>
<stop offset="0.59" stop-color="white" stop-opacity="0.88"/>
<stop offset="0.71" stop-color="white" stop-opacity="0.95"/>
<stop offset="0.84" stop-color="white" stop-opacity="0.99"/>
<stop offset="1" stop-color="white"/>
</linearGradient>
<linearGradient id="paint1_linear_5_7885" x1="137.265" y1="121.682" x2="145.624" y2="121.682" gradientUnits="userSpaceOnUse">
<stop stop-color="#ECC4D7"/>
<stop offset="0.42" stop-color="#EFD4D1"/>
<stop offset="1" stop-color="#F2EAC9"/>
</linearGradient>
<linearGradient id="paint2_linear_5_7885" x1="161.197" y1="257.497" x2="57.197" y2="305.1" gradientUnits="userSpaceOnUse">
<stop stop-opacity="0.07"/>
<stop offset="0.08" stop-opacity="0.25"/>
<stop offset="1"/>
</linearGradient>
<linearGradient id="paint3_linear_5_7885" x1="112.57" y1="274.681" x2="217.484" y2="259.52" gradientUnits="userSpaceOnUse">
<stop stop-opacity="0.07"/>
<stop offset="0.08" stop-opacity="0.25"/>
<stop offset="1"/>
</linearGradient>
<linearGradient id="paint4_linear_5_7885" x1="122.65" y1="212.75" x2="97.1443" y2="234.766" gradientUnits="userSpaceOnUse">
<stop stop-opacity="0.07"/>
<stop offset="0.08" stop-opacity="0.25"/>
<stop offset="1"/>
</linearGradient>
<linearGradient id="paint5_linear_5_7885" x1="103.68" y1="222.646" x2="112.424" y2="262.161" gradientUnits="userSpaceOnUse">
<stop stop-opacity="0.07"/>
<stop offset="0.52" stop-opacity="0.83"/>
<stop offset="0.56" stop-opacity="0.87"/>
<stop offset="1"/>
</linearGradient>
<linearGradient id="paint6_linear_5_7885" x1="118.668" y1="168.052" x2="135.149" y2="168.052" gradientUnits="userSpaceOnUse">
<stop stop-color="#ECC4D7"/>
<stop offset="0.42" stop-color="#EFD4D1"/>
<stop offset="1" stop-color="#F2EAC9"/>
</linearGradient>
<linearGradient id="paint7_linear_5_7885" x1="126.952" y1="167.414" x2="151.576" y2="205.527" gradientUnits="userSpaceOnUse">
<stop stop-color="#ECC4D7"/>
<stop offset="0.42" stop-color="#EFD4D1"/>
<stop offset="1" stop-color="#F2EAC9"/>
</linearGradient>
<linearGradient id="paint8_linear_5_7885" x1="227.435" y1="140.712" x2="219.27" y2="184.089" gradientUnits="userSpaceOnUse">
<stop offset="0.02" stop-color="white" stop-opacity="0"/>
<stop offset="0.06" stop-color="white" stop-opacity="0.13"/>
<stop offset="0.13" stop-color="white" stop-opacity="0.33"/>
<stop offset="0.2" stop-color="white" stop-opacity="0.51"/>
<stop offset="0.27" stop-color="white" stop-opacity="0.66"/>
<stop offset="0.35" stop-color="white" stop-opacity="0.79"/>
<stop offset="0.43" stop-color="white" stop-opacity="0.88"/>
<stop offset="0.51" stop-color="white" stop-opacity="0.95"/>
<stop offset="0.6" stop-color="white" stop-opacity="0.99"/>
<stop offset="0.71" stop-color="white"/>
</linearGradient>
<linearGradient id="paint9_linear_5_7885" x1="36.9229" y1="147.064" x2="37.4532" y2="187.276" gradientUnits="userSpaceOnUse">
<stop stop-color="white" stop-opacity="0"/>
<stop offset="0.06" stop-color="white" stop-opacity="0.13"/>
<stop offset="0.16" stop-color="white" stop-opacity="0.33"/>
<stop offset="0.26" stop-color="white" stop-opacity="0.51"/>
<stop offset="0.37" stop-color="white" stop-opacity="0.66"/>
<stop offset="0.48" stop-color="white" stop-opacity="0.79"/>
<stop offset="0.59" stop-color="white" stop-opacity="0.88"/>
<stop offset="0.71" stop-color="white" stop-opacity="0.95"/>
<stop offset="0.84" stop-color="white" stop-opacity="0.99"/>
<stop offset="1" stop-color="white"/>
</linearGradient>
<linearGradient id="paint10_linear_5_7885" x1="100.51" y1="224.562" x2="108.945" y2="224.562" gradientUnits="userSpaceOnUse">
<stop stop-color="#ECC4D7"/>
<stop offset="0.42" stop-color="#EFD4D1"/>
<stop offset="1" stop-color="#F2EAC9"/>
</linearGradient>
<clipPath id="clip0_5_7885">
<rect width="280" height="322.534" fill="white"/>
</clipPath>
</defs>
</svg>
