<svg width="16" height="16" viewBox="0 0 16 22" fill="none" xmlns="http://www.w3.org/2000/svg">
<path d="M14.3712 9.70395L4.18969 1.54286C3.96645 1.36245 3.70087 1.21926 3.40824 1.12154C3.11562 1.02382 2.80176 0.973511 2.48476 0.973511C2.16775 0.973511 1.85389 1.02382 1.56127 1.12154C1.26865 1.21926 1.00306 1.36245 0.779826 1.54286C0.33258 1.90349 0.081543 2.39133 0.081543 2.89983C0.081543 3.40833 0.33258 3.89617 0.779826 4.25681L9.28046 11.0705L0.779826 17.8843C0.33258 18.2449 0.081543 18.7328 0.081543 19.2413C0.081543 19.7498 0.33258 20.2376 0.779826 20.5982C1.0042 20.7766 1.27031 20.9178 1.56288 21.0135C1.85545 21.1093 2.16873 21.1579 2.48476 21.1564C2.80078 21.1579 3.11406 21.1093 3.40663 21.0135C3.6992 20.9178 3.96531 20.7766 4.18969 20.5982L14.3712 12.4371C14.5963 12.2582 14.775 12.0453 14.8969 11.8108C15.0188 11.5762 15.0815 11.3246 15.0815 11.0705C15.0815 10.8165 15.0188 10.5649 14.8969 10.3303C14.775 10.0958 14.5963 9.88288 14.3712 9.70395Z" fill="#009ED4"/>
</svg>
