<svg width="805" height="684" viewBox="0 0 805 684" fill="none" xmlns="http://www.w3.org/2000/svg">
<path opacity="0.63" d="M573.478 36.4131C486.7 -22.1173 364.754 -10.2888 288.039 76.589C246.095 124.107 229.058 189.469 185.52 235.967C136.502 288.379 77.9201 339.262 55.7027 410.641C32.0905 486.506 52.8134 573.485 105.617 631.506C169.878 702.069 264.327 680.859 353.595 679.737C719.136 675.047 990.826 425.324 645.112 117.479C616.219 91.5785 602.171 55.6853 573.478 36.4131Z" fill="#C9C9C9"/>
<path opacity="0.05" d="M597.512 447.144C549 410.764 536.165 390.11 536.165 390.11C722.188 161.037 346.291 86.256 273.057 243.754C242.53 309.405 180.367 308.007 74.6506 328.631C-22.9865 347.679 -19.9408 451.131 60.54 532.082H642.503C656.159 483.285 619.652 463.746 597.512 447.144Z" fill="#2A94F4"/>
<path opacity="0.1" d="M233.152 193.243C233.152 193.243 227.834 186.048 224.575 182.75C218.705 176.812 211.973 166.317 190.443 174.053C188.769 174.654 187.148 175.451 185.537 176.254C183.639 177.2 177.76 177.225 171.739 171.602C162.171 162.666 158.429 155.924 145.32 155.714C130.067 155.47 127.668 177.834 115.813 183.558C108.269 187.201 88.3655 190.821 84.2488 192.435L233.152 193.243Z" fill="#2A94F4"/>
<path d="M79.104 493.617C80.1092 493.681 105.489 490.543 106.643 466.239C107.796 441.937 91.6224 435.918 95.8796 408.864C100.137 381.808 111.302 374.034 86.2773 354.287C86.2773 354.287 75.1188 346.336 74.5987 335.183C73.977 321.832 51.5952 306.337 36.583 315.243C21.5709 324.149 25.0987 337.91 37.953 360.175C50.8072 382.441 38.4202 386.328 35.9494 393.526C33.4796 400.724 27.7499 408.277 40.8701 425.481C53.9903 442.686 38.3595 463.692 49.5279 480.166C49.5289 480.167 59.3295 492.362 79.104 493.617Z" fill="#2A94F4"/>
<path d="M75.1398 530.868C74.8756 530.798 74.6471 530.628 74.5006 530.391C74.3542 530.155 74.3009 529.869 74.3517 529.593C87.985 455.414 60.1943 354.252 59.9124 353.24C59.8736 353.101 59.8618 352.955 59.8777 352.811C59.8936 352.667 59.9369 352.528 60.0051 352.401C60.0733 352.274 60.165 352.163 60.2751 352.072C60.3852 351.982 60.5114 351.915 60.6467 351.875C60.7819 351.835 60.9234 351.823 61.0632 351.84C61.203 351.856 61.3382 351.901 61.4613 351.971C61.5843 352.041 61.6927 352.136 61.7803 352.249C61.8679 352.362 61.9329 352.492 61.9717 352.631C62.2557 353.649 90.1839 455.315 76.4569 530.004C76.4296 530.152 76.3732 530.292 76.2911 530.417C76.209 530.542 76.103 530.648 75.9796 530.729C75.8562 530.81 75.7181 530.864 75.5736 530.888C75.4292 530.912 75.2815 530.905 75.1398 530.868Z" fill="#009ED4"/>
<path d="M69.4489 392.947C69.2974 392.908 69.1563 392.834 69.0352 392.733C68.9142 392.631 68.8161 392.503 68.748 392.358C68.6799 392.213 68.6433 392.055 68.6408 391.894C68.6383 391.733 68.6699 391.574 68.7335 391.427C68.7903 391.296 74.4553 378.186 76.7796 366.992C76.8437 366.711 77.0124 366.467 77.2495 366.312C77.4865 366.157 77.7731 366.104 78.0475 366.165C78.322 366.225 78.5625 366.394 78.7173 366.635C78.8722 366.876 78.9291 367.17 78.8758 367.454C76.5046 378.879 70.748 392.194 70.6903 392.328C70.4741 392.824 69.945 393.077 69.4489 392.947ZM73.1142 415.388C72.9607 415.348 72.8178 415.273 72.6958 415.169C67.3088 410.581 53.7572 401.944 53.6207 401.856C53.501 401.78 53.3971 401.681 53.3149 401.563C53.2326 401.445 53.1737 401.312 53.1414 401.171C53.1091 401.03 53.1041 400.884 53.1267 400.741C53.1493 400.598 53.199 400.461 53.273 400.338C53.3463 400.214 53.4428 400.106 53.5569 400.021C53.671 399.936 53.8004 399.875 53.9376 399.842C54.0748 399.808 54.217 399.803 54.356 399.827C54.4951 399.851 54.6281 399.903 54.7475 399.98C55.3084 400.337 68.5602 408.784 74.0617 413.469C74.2509 413.628 74.3816 413.849 74.432 414.095C74.4824 414.341 74.4496 414.597 74.3389 414.822C74.2282 415.046 74.0464 415.224 73.8236 415.327C73.6009 415.43 73.3505 415.452 73.1142 415.388ZM76.1569 437.239C76.0011 437.198 75.8562 437.122 75.7329 437.016C75.6095 436.91 75.5109 436.776 75.4443 436.626C75.3777 436.475 75.3449 436.311 75.3482 436.146C75.3515 435.98 75.3909 435.818 75.4635 435.67L83.0164 420.307C83.0784 420.174 83.1653 420.056 83.2721 419.959C83.379 419.862 83.5036 419.788 83.6386 419.741C83.7737 419.694 83.9165 419.675 84.0587 419.685C84.2009 419.696 84.3396 419.735 84.4668 419.802C84.5939 419.868 84.7069 419.96 84.7992 420.072C84.8915 420.184 84.9611 420.313 85.0041 420.453C85.0471 420.593 85.0625 420.741 85.0495 420.887C85.0365 421.033 84.9953 421.175 84.9283 421.305L77.3754 436.668C77.2653 436.891 77.0847 437.07 76.8632 437.173C76.6418 437.277 76.3928 437.3 76.1569 437.239Z" fill="#009ED4"/>
<path d="M310.485 249.261L309.547 246.507L308.61 249.261C307.82 251.584 305.942 253.544 303.399 254.702C305.942 255.86 307.819 257.821 308.61 260.142L309.547 262.898L310.485 260.142C311.275 257.82 313.153 255.86 315.695 254.702C313.153 253.544 311.276 251.584 310.485 249.261ZM467.592 218.094L466.019 213.474L464.446 218.094C463.121 221.988 459.973 225.275 455.71 227.217C459.973 229.159 463.121 232.446 464.446 236.341L466.019 240.96L467.592 236.341C468.917 232.446 472.065 229.159 476.328 227.217C472.065 225.274 468.917 221.987 467.592 218.094Z" fill="white"/>
<g opacity="0.5">
<path d="M546.961 507.922H152.408V288.565C152.408 288.095 152.498 287.63 152.673 287.196C152.847 286.762 153.103 286.368 153.425 286.036C153.748 285.704 154.131 285.441 154.552 285.261C154.973 285.082 155.425 284.989 155.88 284.989H543.489C543.945 284.989 544.396 285.082 544.817 285.261C545.238 285.441 545.621 285.704 545.944 286.036C546.266 286.368 546.522 286.762 546.696 287.196C546.871 287.63 546.961 288.095 546.961 288.565V507.922ZM565.409 531.492H133.96C133.012 531.492 132.103 531.105 131.432 530.414C130.762 529.724 130.385 528.788 130.385 527.811V507.923H568.985V527.811C568.984 528.788 568.607 529.724 567.937 530.414C567.266 531.104 566.357 531.492 565.409 531.492Z" fill="#2A94F4"/>
<path d="M298.427 507.922L303.044 512.495C304.876 514.31 307.32 515.324 309.862 515.324H390.183C391.583 515.324 392.967 515.016 394.241 514.421C395.516 513.827 396.653 512.958 397.576 511.875L400.943 507.922H298.427Z" fill="white"/>
<path d="M167.087 299.737H532.281V495.157H167.087V299.737Z" fill="#F7F7F7"/>
</g>
<path d="M29.9617 531.492H674.642" stroke="#102236" stroke-width="0.375" stroke-miterlimit="10" stroke-linecap="round" stroke-linejoin="round"/>
<path d="M359.279 248.781C386.539 248.781 408.637 226.026 408.637 197.956C408.637 169.886 386.539 147.13 359.279 147.13C332.02 147.13 309.922 169.886 309.922 197.956C309.922 226.026 332.02 248.781 359.279 248.781Z" fill="#F39200"/>
<path d="M359.279 240.959C336.251 240.959 317.518 221.668 317.518 197.956C317.518 174.243 336.252 154.952 359.279 154.952C382.307 154.952 401.041 174.243 401.041 197.956C401.041 221.668 382.307 240.959 359.279 240.959Z" fill="#F39200"/>
<path d="M368.128 196.44C371.166 195.344 373.097 192.112 373.097 188.114C373.097 182.534 369.403 178.852 363.501 178.456V173.471H357.577V178.419H354.857V173.471H348.932V178.419H344.517V186.254H348.742V208.981H344.517V216.812H348.932V222.439H354.857V216.812H357.577V222.439H363.501V216.802C369.959 216.585 374.042 212.528 374.042 206.135C374.041 201.205 371.782 197.427 368.128 196.44ZM356.216 186.254H362.008C362.564 186.254 363.066 186.349 363.501 186.536C364.676 187.039 365.375 188.191 365.375 189.866C365.375 191.624 364.676 192.856 363.501 193.395C363.066 193.593 362.564 193.7 362.008 193.7H356.216V186.254ZM363.501 208.846C363.014 208.977 362.512 209.041 362.008 209.037L356.216 208.981V200.93H362.008C362.55 200.93 363.048 200.996 363.501 201.121C365.242 201.598 366.279 202.958 366.279 204.874C366.279 206.96 365.242 208.359 363.501 208.846Z" fill="white"/>
<path d="M152.329 324.441C169.978 324.441 184.285 309.708 184.285 291.534C184.285 273.361 169.978 258.628 152.329 258.628C134.68 258.628 120.373 273.361 120.373 291.534C120.373 309.708 134.68 324.441 152.329 324.441Z" fill="#F39200"/>
<path d="M152.329 319.377C137.419 319.377 125.29 306.886 125.29 291.534C125.29 276.183 137.42 263.692 152.329 263.692C167.237 263.692 179.367 276.183 179.367 291.534C179.367 306.886 167.238 319.377 152.329 319.377Z" fill="#F39200"/>
<path d="M168.149 289.592C167.682 286.716 165.036 284.665 162.222 284.989C161.098 285.119 160.041 285.609 159.202 286.39C158.363 287.172 157.783 288.204 157.544 289.343L155.48 289.599C154.479 289.722 153.464 289.61 152.511 289.271C151.559 288.931 150.693 288.374 149.98 287.64L148.511 286.127C149.006 285.08 149.17 283.899 148.979 282.75C148.788 281.602 148.252 280.545 147.446 279.727C145.427 277.681 142.118 277.612 140.023 279.575C139.482 280.082 139.046 280.696 138.742 281.381C138.438 282.066 138.272 282.807 138.255 283.56C138.237 284.313 138.369 285.062 138.64 285.761C138.912 286.46 139.319 287.095 139.836 287.628C140.631 288.445 141.654 288.987 142.762 289.178C143.871 289.369 145.009 289.199 146.019 288.693L147.035 289.739C147.819 290.546 148.395 291.541 148.71 292.635C149.025 293.729 149.071 294.886 148.842 296.002L148.509 297.62C147.386 297.764 146.336 298.267 145.506 299.059C144.676 299.85 144.108 300.89 143.883 302.032C143.32 304.89 145.069 307.784 147.81 308.52C149.067 308.86 150.402 308.721 151.568 308.13C152.735 307.538 153.655 306.532 154.159 305.298C154.663 304.064 154.718 302.684 154.313 301.411C153.909 300.139 153.072 299.059 151.956 298.371C152.243 296.971 152.949 295.698 153.975 294.731C155.001 293.765 156.295 293.154 157.675 292.983L157.964 292.947C158.53 294.154 159.5 295.109 160.695 295.638C161.891 296.166 163.232 296.233 164.471 295.825C165.71 295.416 166.765 294.561 167.441 293.416C168.116 292.271 168.368 290.913 168.149 289.592Z" fill="white"/>
<path d="M332.675 577.424H396.587V586.809H332.675V577.424Z" fill="#F39200"/>
<path d="M364.631 564.117C346.982 564.117 332.675 574.277 332.675 586.808C332.675 599.341 346.983 609.501 364.631 609.501C382.28 609.501 396.587 599.341 396.587 586.808C396.588 574.277 382.281 564.117 364.631 564.117Z" fill="#F39200"/>
<path d="M364.631 600.117C382.28 600.117 396.588 589.957 396.588 577.424C396.588 564.891 382.28 554.732 364.631 554.732C346.983 554.732 332.675 564.891 332.675 577.424C332.675 589.957 346.983 600.117 364.631 600.117Z" fill="#F39200"/>
<path d="M364.631 596.624C349.722 596.624 337.593 588.012 337.593 577.424C337.593 566.837 349.723 558.224 364.631 558.224C379.54 558.224 391.67 566.837 391.67 577.424C391.67 588.012 379.541 596.624 364.631 596.624Z" fill="#F39200"/>
<path d="M380.452 576.085C379.984 574.101 377.339 572.687 374.525 572.911C372.154 573.099 370.324 574.349 369.847 575.914L367.783 576.09C365.754 576.263 363.728 575.765 362.283 574.739L360.813 573.695C361.799 572.256 361.448 570.47 359.748 569.282C357.729 567.872 354.419 567.823 352.325 569.178C350.03 570.662 349.967 573.189 352.138 574.73C353.811 575.918 356.306 576.16 358.321 575.465L359.337 576.186C360.929 577.316 361.608 578.941 361.144 580.505L360.811 581.621C358.574 581.819 356.659 583.003 356.185 584.663C355.622 586.634 357.371 588.63 360.111 589.137C363.116 589.693 366.131 588.351 366.766 586.218C367.255 584.574 366.179 582.957 364.258 582.138C364.847 580.158 367.147 578.663 369.977 578.422L370.266 578.398C371.244 579.829 373.417 580.733 375.766 580.533C378.816 580.273 380.965 578.259 380.452 576.085Z" fill="white"/>
<path opacity="0.16" d="M346.943 382.603H203.8C203.528 382.603 203.267 382.491 203.074 382.293C202.882 382.094 202.773 381.826 202.773 381.545V334.714C202.773 334.575 202.8 334.437 202.851 334.309C202.903 334.18 202.978 334.064 203.074 333.965C203.169 333.867 203.282 333.789 203.407 333.736C203.532 333.683 203.665 333.656 203.8 333.656H346.942C347.509 333.656 347.969 334.13 347.969 334.714V381.545C347.97 381.684 347.943 381.822 347.892 381.95C347.84 382.078 347.765 382.195 347.669 382.293C347.574 382.391 347.461 382.469 347.336 382.522C347.212 382.576 347.078 382.603 346.943 382.603Z" fill="#B8B8B8"/>
<path d="M358.15 368.926H220.854C220.587 368.926 220.331 368.817 220.143 368.623C219.954 368.428 219.848 368.165 219.848 367.89V321.014C219.848 320.442 220.298 319.978 220.854 319.978H358.15C358.706 319.978 359.156 320.442 359.156 321.014V367.89C359.156 368.165 359.05 368.428 358.861 368.622C358.672 368.817 358.416 368.926 358.15 368.926Z" fill="#F39200"/>
<path d="M336.474 338.158H238.154C237.951 338.158 237.75 338.117 237.563 338.037C237.376 337.957 237.206 337.84 237.062 337.693C236.919 337.545 236.805 337.37 236.728 337.177C236.65 336.984 236.61 336.777 236.61 336.569C236.61 335.689 237.3 334.979 238.154 334.979H336.474C337.328 334.979 338.018 335.689 338.018 336.569C338.018 336.777 337.978 336.984 337.901 337.177C337.823 337.37 337.709 337.545 337.566 337.693C337.423 337.84 337.252 337.957 337.065 338.037C336.878 338.117 336.677 338.158 336.474 338.158ZM283.584 353.926H238.154C237.951 353.926 237.75 353.885 237.563 353.805C237.376 353.726 237.206 353.609 237.062 353.461C236.919 353.313 236.805 353.138 236.728 352.945C236.65 352.752 236.61 352.546 236.61 352.337C236.61 351.459 237.3 350.748 238.154 350.748H283.584C284.438 350.748 285.127 351.458 285.127 352.337C285.127 353.216 284.438 353.926 283.584 353.926Z" fill="white"/>
<path opacity="0.16" d="M285.166 466.809H152.408V415.326C152.408 414.745 152.866 414.274 153.43 414.274H285.166C285.73 414.274 286.187 414.745 286.187 415.326V465.756C286.187 466.338 285.73 466.809 285.166 466.809Z" fill="#B8B8B8"/>
<path d="M308.331 452.13H121.031C120.708 452.13 120.399 451.998 120.171 451.763C119.943 451.528 119.815 451.209 119.815 450.877V400.848C119.815 400.156 120.36 399.595 121.031 399.595H308.331C309.002 399.595 309.547 400.156 309.547 400.848V450.877C309.547 451.042 309.516 451.205 309.455 451.357C309.394 451.509 309.304 451.647 309.191 451.763C309.078 451.88 308.944 451.972 308.796 452.035C308.649 452.098 308.491 452.13 308.331 452.13Z" fill="#F39200"/>
<path d="M287.046 419.106H181.52C181.303 419.107 181.087 419.063 180.886 418.977C180.685 418.891 180.503 418.766 180.349 418.608C180.195 418.449 180.073 418.261 179.99 418.054C179.907 417.847 179.864 417.625 179.864 417.401C179.864 417.177 179.907 416.955 179.99 416.748C180.073 416.541 180.195 416.353 180.349 416.195C180.503 416.037 180.685 415.911 180.886 415.825C181.087 415.74 181.303 415.696 181.52 415.696H287.046C287.263 415.696 287.479 415.74 287.68 415.825C287.881 415.911 288.064 416.037 288.217 416.195C288.371 416.353 288.493 416.541 288.576 416.748C288.659 416.955 288.702 417.177 288.702 417.401C288.702 417.625 288.659 417.847 288.576 418.054C288.493 418.261 288.371 418.449 288.217 418.608C288.064 418.766 287.881 418.891 287.68 418.977C287.479 419.063 287.263 419.107 287.046 419.106ZM230.279 436.031H181.52C180.605 436.031 179.864 435.269 179.864 434.326C179.864 433.383 180.605 432.621 181.52 432.621H230.279C231.195 432.621 231.935 433.383 231.935 434.326C231.935 435.269 231.196 436.031 230.279 436.031Z" fill="white"/>
<path d="M165.485 440.541H134.955C134.358 440.541 133.872 440.041 133.872 439.426V411.08C133.872 410.464 134.358 409.964 134.955 409.964H165.485C166.083 409.964 166.568 410.464 166.568 411.08V439.426C166.568 440.042 166.083 440.541 165.485 440.541Z" fill="white"/>
<path d="M501.357 481.945H362.587C362.232 481.945 361.891 481.8 361.64 481.541C361.388 481.282 361.247 480.931 361.247 480.565V397.835C361.247 397.073 361.847 396.455 362.587 396.455H501.357C502.097 396.455 502.697 397.073 502.697 397.835V480.565C502.697 481.328 502.097 481.945 501.357 481.945Z" fill="#EBEDFD"/>
<path d="M469.915 415.586H470.899V466.314H469.915V415.586ZM455.047 415.586H456.032V466.314H455.047V415.586ZM440.18 415.586H441.164V466.314H440.18V415.586ZM425.313 415.586H426.297V466.314H425.313V415.586ZM410.445 415.586H411.43V466.314H410.445V415.586ZM395.578 415.586H396.562V466.314H395.578V415.586ZM383.806 472.152H481.46V473.165H383.806V472.152Z" fill="white"/>
<path d="M418.439 464.628C418.045 464.628 417.641 464.577 417.235 464.475C411.57 463.041 408.648 457.681 406.297 453.376C404.658 450.372 403.111 447.534 401.418 447.534C395.901 447.534 392.43 454.244 389.639 459.637C389.147 460.604 388.638 461.561 388.111 462.508C387.989 462.728 387.825 462.921 387.63 463.075C387.435 463.229 387.212 463.342 386.974 463.406C386.736 463.471 386.488 463.486 386.245 463.451C386.001 463.416 385.766 463.332 385.555 463.203C385.342 463.076 385.156 462.907 385.007 462.706C384.859 462.505 384.75 462.275 384.687 462.031C384.624 461.786 384.609 461.531 384.642 461.281C384.675 461.03 384.756 460.789 384.88 460.57C385.341 459.755 385.824 458.821 386.339 457.826C389.427 451.857 393.657 443.682 401.418 443.682C405.301 443.682 407.369 447.475 409.56 451.489C411.761 455.526 414.038 459.699 418.128 460.735C418.47 460.824 418.706 460.786 418.983 460.597C421.4 458.956 422.803 450.246 423.93 443.249C425.626 432.719 426.973 424.373 431.986 424.373C432.052 424.373 432.121 424.373 432.189 424.38C437.231 424.6 438.741 431.367 440.337 438.532C441.669 444.515 443.18 451.298 446.442 451.789C450.3 452.375 451.798 451.024 453.703 449.325C455.471 447.749 457.687 445.797 461.685 446.168C465.256 446.507 467.278 448.93 469.059 451.068C471.498 453.989 473.778 456.746 480.315 456.068C481.351 456.004 482.26 456.734 482.366 457.791C482.415 458.299 482.267 458.807 481.953 459.203C481.64 459.599 481.187 459.85 480.693 459.902C472.226 460.789 468.9 456.79 466.223 453.581C464.422 451.422 463.309 450.191 461.341 450.003C458.913 449.77 457.76 450.807 456.153 452.239C454.057 454.112 451.455 456.432 445.898 455.602C440.105 454.73 438.369 446.936 436.691 439.397C435.59 434.464 434.223 428.325 432.029 428.228H432.006C430.144 428.228 428.44 438.793 427.622 443.881C426.181 452.813 424.823 461.246 421.042 463.814C420.271 464.344 419.366 464.627 418.439 464.628Z" fill="#F39200"/>
<path d="M289.508 572.914L193.098 557.27C192.903 557.238 192.717 557.167 192.548 557.061C192.38 556.955 192.234 556.816 192.118 556.652C192.002 556.488 191.918 556.302 191.872 556.104C191.826 555.907 191.818 555.702 191.849 555.501C191.88 555.301 191.948 555.108 192.051 554.935C192.154 554.762 192.289 554.611 192.449 554.492C192.608 554.372 192.789 554.286 192.981 554.239C193.173 554.191 193.372 554.183 193.566 554.215L289.976 569.859C290.355 569.939 290.69 570.166 290.91 570.494C291.13 570.821 291.22 571.223 291.159 571.617C291.099 572.01 290.894 572.365 290.586 572.606C290.279 572.848 289.892 572.958 289.508 572.914ZM257.145 579.611H170.394C170.04 579.611 169.7 579.467 169.45 579.209C169.199 578.951 169.059 578.601 169.059 578.237C169.059 577.872 169.199 577.522 169.45 577.265C169.7 577.007 170.04 576.862 170.394 576.862H257.145C257.499 576.862 257.839 577.007 258.089 577.265C258.34 577.522 258.48 577.872 258.48 578.237C258.48 578.601 258.34 578.951 258.089 579.209C257.839 579.467 257.499 579.611 257.145 579.611Z" fill="#F39200"/>
<path opacity="0.1" d="M388.458 114.456C388.458 114.456 391.126 111.296 392.761 109.848C395.706 107.24 399.082 102.631 409.882 106.029C410.722 106.292 411.535 106.643 412.343 106.996C413.296 107.412 416.245 107.422 419.265 104.952C424.065 101.028 425.942 98.0675 432.517 97.9751C440.169 97.8674 441.372 107.69 447.318 110.203C451.103 111.803 461.087 113.393 463.152 114.102L388.458 114.456Z" fill="#0086FF"/>
<path d="M589.65 554.374C589.65 554.374 593.455 565.931 594.237 567.845C594.883 569.425 596.267 570.485 597.581 571.539C598.001 571.877 598.418 572.639 598.773 573.281C599.058 573.798 599.04 574.407 598.812 574.953C594.828 584.479 584.042 587.788 583.833 587.044C583.456 585.702 585.167 583.142 587.455 581.941C589.759 580.734 591.182 578.262 591.422 575.612C591.613 573.504 591.273 571.381 590.435 569.448L586.576 560.784L589.65 554.374ZM573.681 567.664L570.395 579.591C569.39 583.241 569.689 587.141 571.237 590.584C571.443 591.036 571.551 591.528 571.554 592.026C571.558 592.525 571.457 593.019 571.258 593.473C571.06 593.928 570.768 594.334 570.403 594.662C570.039 594.99 569.61 595.233 569.145 595.375C562.76 597.32 550.384 601.005 549.868 600.501C547.238 597.936 554.746 594.382 560.361 590.514C564.148 587.906 566.241 574.87 567.103 564.829L572.806 566.656C573.247 566.811 573.58 567.194 573.681 567.664Z" fill="#FA968C"/>
<path d="M561.405 594.017C558.765 594.749 555.908 594.872 553.285 595.055C552.984 595.075 552.692 595.179 552.444 595.355C549.839 597.207 548.471 599.141 549.866 600.501C550.427 601.048 564.971 596.656 570.645 594.916C570.923 594.83 571.181 594.684 571.399 594.486C571.617 594.288 571.792 594.044 571.91 593.771C572.029 593.498 572.088 593.201 572.085 592.902C572.082 592.602 572.016 592.307 571.892 592.036L570.942 589.931C567.932 591.672 564.751 593.091 561.405 594.017ZM575.959 432.943C582.804 434.304 588.24 442.825 586.539 451.897C585.561 457.11 579.808 475.643 573.79 490.209C571.481 495.799 571.953 502.313 575.456 507.202C576.01 507.965 576.492 508.782 576.893 509.64C578.849 513.891 585.921 538.748 589.968 555.297C589.462 557.404 588.084 560.034 586.486 560.885C578.573 546.579 565.854 520.56 563.774 516.039C562.62 513.527 561.365 510.628 560.481 507.923C555.289 499.97 558.657 457.374 560.235 448.958C561.938 439.886 569.114 431.583 575.959 432.943Z" fill="#009ED4"/>
<path d="M587.465 382.313C587.883 374.523 583.467 367.939 577.604 367.606C571.74 367.272 566.648 373.317 566.231 381.106C565.813 388.895 570.228 395.479 576.092 395.813C581.956 396.146 587.048 390.102 587.465 382.313Z" fill="#009ED4"/>
<path d="M579.288 383.31C579.874 375.513 586.363 369.3 593.958 369.284C600.695 369.27 606.267 373.837 608.113 380.011C608.76 382.175 610.705 383.67 612.902 383.761C613.814 383.799 614.747 383.939 615.691 384.194C621.177 385.68 625.226 390.751 625.5 396.585C625.747 401.847 623.117 406.406 619.152 408.869C617.462 409.918 616.433 411.76 616.055 413.755C614.306 422.988 605.689 429.354 596.334 427.759C588.333 426.395 582.257 419.207 582.016 410.86C581.869 405.74 583.819 401.162 586.992 397.86C582.034 395.092 578.82 389.519 579.288 383.31ZM577.822 362.979C577.822 362.979 571.641 366.511 572.088 371.768C572.088 371.768 569.023 369.26 568.73 361.205C568.527 355.623 577.822 362.979 577.822 362.979Z" fill="#009ED4"/>
<path d="M572.319 394.544C572.178 396.372 571.788 398.396 570.734 400.402C570.167 401.431 569.441 402.358 568.585 403.148C567.726 403.904 566.754 404.511 565.705 404.945C563.693 405.748 561.782 405.89 560.06 405.824C558.326 405.755 556.723 405.473 555.195 405.098C552.143 404.333 549.356 403.213 546.662 401.984C544.002 400.76 541.402 399.401 538.872 397.913C533.848 394.976 529.06 391.747 524.406 388.348C519.75 384.946 515.243 381.374 510.977 377.42C510.759 377.219 510.624 376.94 510.6 376.641C510.575 376.341 510.664 376.043 510.847 375.808C511.03 375.574 511.293 375.42 511.583 375.38C511.873 375.339 512.166 375.415 512.403 375.591L512.418 375.602C514.671 377.277 517.025 378.854 519.398 380.384C521.765 381.923 524.161 383.416 526.583 384.862C531.426 387.742 536.37 390.431 541.408 392.767C543.932 393.919 546.461 395.024 549.009 395.951C551.551 396.881 554.126 397.652 556.603 398.075C557.836 398.291 559.044 398.402 560.133 398.365C561.227 398.342 562.174 398.124 562.778 397.81C563.38 397.482 563.634 397.178 563.906 396.625C564.152 396.042 564.343 395.158 564.361 394.091C564.369 393.541 564.484 392.997 564.7 392.494C564.915 391.99 565.227 391.536 565.617 391.159C566.006 390.782 566.465 390.489 566.967 390.298C567.468 390.107 568.002 390.022 568.536 390.048C569.07 390.074 569.593 390.21 570.075 390.448C570.557 390.687 570.988 391.022 571.341 391.435C571.695 391.849 571.964 392.331 572.133 392.853C572.302 393.375 572.367 393.927 572.324 394.476L572.319 394.544Z" fill="#FAB9AF"/>
<path d="M567.987 421.406C565.993 413.853 562.027 397.873 562.713 392.763C562.926 391.185 563.707 389.748 564.902 388.736C566.096 387.725 567.617 387.213 569.161 387.304L589.953 388.485C591.61 388.577 593.167 389.331 594.292 390.587C595.418 391.843 596.024 393.501 595.981 395.21C595.824 401.42 592.293 415.376 590.337 422.675L567.987 421.406Z" fill="#F39200"/>
<path d="M567.088 567.441C566.934 567.328 566.812 567.175 566.734 566.998C566.656 566.82 566.624 566.625 566.643 566.431C567.926 550.709 569.93 530.689 570.473 526.861C570.535 526.423 570.61 525.992 570.694 525.57C568.415 506.769 570.063 466.721 570.113 459.694C570.178 450.455 576.125 440.363 583.095 440.416C590.066 440.468 597.216 448.307 598.996 456.877C600.171 462.532 592.887 491.858 585.564 512.996C584.023 517.445 583.564 522.191 583.968 526.897C584.247 530.152 584.204 533.487 583.846 536.017C583.312 539.784 578.368 554.966 573.799 567.946C573.736 568.131 573.626 568.296 573.48 568.424C573.335 568.551 573.159 568.637 572.971 568.671C570.949 569.011 568.873 568.705 567.088 567.441Z" fill="#009ED4"/>
<path d="M592.211 432.213C591.302 429.043 591.155 425.694 591.783 422.454C593.239 414.926 595.837 400.735 595.993 394.658C596.033 393.096 595.479 391.581 594.449 390.434C593.42 389.286 591.997 388.598 590.482 388.515L587.399 388.34C586.075 391.078 583.471 393.103 579.602 392.883C575.74 392.663 573.367 390.356 572.341 387.484L569.446 387.32C572.221 394.435 570.6 403.521 564.901 408.553C565.711 412.271 566.36 416.003 566.832 419.025C567.472 423.119 566.868 427.312 565.117 431.045C562.107 437.461 559.438 447.873 559.842 452.083C581.372 459.708 597.102 449.27 597.102 449.27L592.211 432.213Z" fill="#F39200"/>
<path d="M576.418 389.194L585.905 388.71L583.49 377.912L577.348 378.343L576.418 389.194Z" fill="#FAB9AF"/>
<path d="M577.348 378.343L583.49 377.912L584.244 381.283C582.793 382.792 580.855 386.117 578.635 385.99C577.953 385.953 577.296 385.713 576.743 385.3L577.348 378.343Z" fill="#FA968C"/>
<path d="M576.862 383.469C578.933 383.586 581.23 382.646 584.465 380.045C586.322 378.552 587.784 375.847 587.885 373.969L588.44 363.582L572.911 362.7C572.911 362.7 571.451 368.149 572.289 373.686C572.919 377.839 575.233 383.377 576.862 383.469Z" fill="#FAB9AF"/>
<path d="M585.358 371.855C585.249 373.881 586.103 375.578 587.266 375.644C588.428 375.71 589.851 373.126 589.96 371.1C590.068 369.074 588.821 368.371 587.658 368.306C586.497 368.239 585.467 369.828 585.358 371.855Z" fill="#FAB9AF"/>
<path d="M590.289 364.95C590.33 364.179 590.223 363.407 589.974 362.678C589.726 361.949 589.34 361.278 588.84 360.703C588.34 360.128 587.734 359.66 587.058 359.326C586.382 358.991 585.649 358.798 584.9 358.755L579.658 358.46C578.176 358.376 576.74 357.898 575.492 357.072C573.7 355.886 571.343 356.113 569.987 357.804C568.522 359.631 567.795 362.149 571.127 364.708C572.783 365.98 575.366 364.822 577.01 365.48C577.114 365.481 577.206 365.47 577.314 365.476L581.934 365.739C583.539 365.83 584.695 367.251 584.653 368.906C584.64 369.411 584.819 369.902 585.152 370.273C585.484 370.645 585.945 370.868 586.435 370.896L586.64 370.907L587.511 368.509L589.898 372.236L590.289 364.95Z" fill="#009ED4"/>
<path d="M511.881 370.871C511.881 370.871 514.37 375.896 513.131 377.187C511.894 378.478 510.833 379.111 508.941 377.326C507.049 375.54 505.281 372.164 504.613 369.92C503.946 367.677 504.369 363.43 504.706 363.008C505.932 361.465 506.726 365.66 507.207 367.672C507.689 369.683 508.426 371.907 509.301 371.395C510.175 370.883 508.973 367.101 509.787 366.173C510.6 365.245 511.881 370.871 511.881 370.871ZM556.91 435.621C556.91 435.621 562.356 435.02 563.086 436.671C563.815 438.322 564.01 439.568 561.717 440.751C559.422 441.934 555.728 442.432 553.455 442.273C551.181 442.115 547.48 440.192 547.216 439.717C546.253 437.988 550.342 438.72 552.339 438.974C554.335 439.23 556.615 439.314 556.462 438.289C556.31 437.265 552.45 437.072 551.898 435.958C551.347 434.845 556.91 435.621 556.91 435.621Z" fill="#FAB9AF"/>
<path d="M574.081 362.584C574.474 364.987 573.636 366.24 580.991 370.373C588.346 374.505 590.821 373.059 592.967 377.18C592.967 377.18 592.289 370.516 588.239 368.013C584.189 365.509 577.034 363.617 574.994 358.236C574.993 358.235 573.812 360.943 574.081 362.584Z" fill="#009ED4"/>
<path d="M595.173 393.295C596.236 394.924 597.082 396.414 597.945 398.015C598.798 399.595 599.597 401.205 600.341 402.842C601.813 406.132 603.099 409.543 604.047 413.136C604.963 416.733 605.55 420.536 605.308 424.538C605.171 426.533 604.802 428.579 604.089 430.558C603.378 432.566 602.291 434.41 600.888 435.986C599.499 437.562 597.851 438.817 596.133 439.763C594.411 440.713 592.624 441.373 590.843 441.86C589.057 442.344 587.275 442.612 585.505 442.817C583.737 442.962 581.978 443.045 580.24 442.997C573.281 442.879 566.573 441.618 560.016 439.971C559.734 439.9 559.489 439.722 559.33 439.472C559.171 439.222 559.111 438.92 559.161 438.625C559.211 438.331 559.367 438.068 559.599 437.888C559.831 437.709 560.12 437.627 560.409 437.659L560.422 437.661C567.025 438.393 573.664 438.89 580.093 438.361C583.295 438.081 586.439 437.54 589.292 436.537C592.127 435.516 594.618 433.96 596.163 431.85C597.731 429.767 598.415 427.13 598.443 424.239C598.458 421.343 597.817 418.281 596.888 415.272C595.972 412.25 594.723 409.259 593.288 406.349C592.577 404.885 591.826 403.443 591.036 402.023C590.257 400.633 589.442 399.266 588.59 397.922L588.538 397.842C587.953 396.936 587.741 395.828 587.949 394.761C588.157 393.694 588.768 392.756 589.648 392.153C590.527 391.55 591.604 391.331 592.64 391.546C593.676 391.76 594.587 392.389 595.173 393.295Z" fill="#FAB9AF"/>
<path d="M575.51 363.109C575.51 363.109 574.795 371.086 567.807 374.539C567.807 374.539 571.12 368.668 571.128 364.707C571.136 360.746 576.103 360.405 575.51 363.109ZM601.162 577.867C601.394 577.624 601.533 577.303 601.554 576.963C601.575 576.623 601.478 576.286 601.279 576.013C600.942 575.553 600.049 574.292 599.378 573.345C599.086 572.934 598.492 572.991 598.255 573.438C595.566 578.494 591.323 582.315 586.034 582.761C584.267 583.85 583.039 586.465 583.336 587.527C583.406 587.777 585.735 587.943 588.261 586.639C599.478 580.846 601.162 577.867 601.162 577.867Z" fill="#009ED4"/>
<path d="M505.321 373.604C524.333 373.604 539.744 357.734 539.744 338.158C539.744 318.581 524.333 302.711 505.321 302.711C486.31 302.711 470.898 318.581 470.898 338.158C470.898 357.734 486.31 373.604 505.321 373.604Z" fill="#F39200"/>
<path d="M505.322 368.149C489.261 368.149 476.196 354.695 476.196 338.157C476.196 321.62 489.261 308.165 505.322 308.165C521.381 308.165 534.447 321.619 534.447 338.157C534.447 354.695 521.381 368.149 505.322 368.149Z" fill="#F39200"/>
<path d="M505.321 319.018L494.731 336.556L505.321 341.672L515.912 336.556L505.321 319.018Z" fill="white"/>
<path d="M505.321 357.296L515.912 339.758L505.321 346.896L494.731 339.758L505.321 357.296Z" fill="white"/>
</svg>
