<svg width="800" height="800" viewBox="0 0 800 800" fill="none" xmlns="http://www.w3.org/2000/svg">
<rect width="800" height="800" rx="50" fill="#F39200"/>
<path d="M552.816 319.371L552.804 319.374C534.372 325.19 517.425 334.946 503.14 347.966C489.058 360.8 477.895 376.503 470.399 394.014C448.358 403.217 427.945 415.898 409.937 431.566V385.914C449.313 382.619 485.976 364.415 512.41 334.983C539.259 305.088 553.461 265.942 552.025 225.785C550.589 185.629 533.628 147.597 504.711 119.696C475.795 91.7958 437.181 76.2041 396.999 76.2041C356.818 76.2041 318.203 91.7958 289.287 119.696C260.371 147.597 243.409 185.629 241.973 225.785C240.537 265.942 254.739 305.088 281.589 334.983C308.023 364.415 344.686 382.619 384.062 385.914V465.671C369.446 449.716 352.577 435.971 333.983 424.876C329.013 405.646 319.762 387.783 306.916 372.625C293.89 357.255 277.514 345.076 259.046 337.021C240.579 328.967 220.511 325.253 200.385 326.165C180.258 327.076 160.608 332.588 142.944 342.278L142.943 342.278C140.535 343.6 138.61 345.654 137.447 348.143C136.285 350.629 135.944 353.421 136.473 356.113C140.294 376.323 148.78 395.363 161.255 411.716C173.731 428.071 189.853 441.288 208.338 450.315C226.822 459.341 247.158 463.928 267.728 463.71C287.91 463.496 307.77 458.663 325.787 449.587C343.454 461.083 359.266 475.196 372.683 491.438H254.812C251.381 491.438 248.09 492.801 245.664 495.227C243.237 497.654 241.874 500.944 241.874 504.376L241.874 548.126L241.874 548.135C241.883 550.078 242.33 551.994 243.181 553.741C244.031 555.486 245.263 557.018 246.786 558.222C271.76 578.225 284.126 597.784 290.317 620.296C296.547 642.951 296.562 668.686 296.562 701.251C296.562 704.682 297.925 707.972 300.351 710.399C302.777 712.825 306.068 714.188 309.499 714.188H484.499C487.931 714.188 491.221 712.825 493.648 710.399C496.074 707.972 497.437 704.682 497.437 701.251C497.437 668.686 497.452 642.951 503.682 620.296C509.872 597.785 522.238 578.225 547.212 558.223C548.735 557.018 549.967 555.487 550.818 553.741C551.669 551.994 552.115 550.078 552.124 548.135V548.126V504.376C552.124 500.944 550.761 497.654 548.335 495.227C545.909 492.801 542.618 491.438 539.187 491.438H409.937V467.428C428.382 447.682 450.427 431.64 474.887 420.162C491.431 431.736 510.415 439.363 530.378 442.453C550.726 445.602 571.529 443.949 591.125 437.626C610.721 431.303 628.566 420.485 643.236 406.035C657.897 391.595 668.979 373.928 675.6 354.444C676.556 351.918 676.698 349.155 676.005 346.544C675.308 343.92 673.804 341.582 671.705 339.86L671.669 339.83L671.631 339.802C654.826 327.298 635.31 318.931 614.666 315.381C594.023 311.831 572.833 313.198 552.816 319.371ZM220.886 427.755C206.983 421.098 194.677 411.525 184.803 399.688C175.293 388.287 168.255 375.043 164.127 360.795C177.747 354.85 192.47 351.829 207.344 351.934C222.788 352.043 238.023 355.52 251.985 362.123C265.947 368.726 278.301 378.296 288.184 390.164C297.701 401.594 304.707 414.892 308.754 429.191C295.105 435.047 280.383 438.009 265.519 437.885C250.086 437.755 234.863 434.3 220.886 427.755ZM267.749 230.938C267.749 205.375 275.33 180.386 289.532 159.131C303.734 137.875 323.92 121.309 347.538 111.527C371.155 101.744 397.143 99.1843 422.215 104.171C447.287 109.159 470.317 121.468 488.393 139.544C506.469 157.62 518.779 180.651 523.766 205.723C528.753 230.795 526.193 256.782 516.411 280.4C506.628 304.017 490.062 324.203 468.807 338.405C447.552 352.608 422.563 360.188 396.999 360.188C362.72 360.188 329.845 346.571 305.606 322.332C281.367 298.092 267.749 265.217 267.749 230.938ZM322.436 688.313C322.372 638.644 319.763 598.69 287.166 561.063H506.833C474.235 598.69 471.626 638.644 471.563 688.313H322.436ZM526.249 535.188H267.749V517.313H526.249V535.188ZM582.345 413.434C567.586 417.908 552.036 419.149 536.753 417.075C522.033 415.076 507.894 410.046 495.227 402.309C501.274 388.751 510.097 376.604 521.133 366.656C532.594 356.325 546.167 348.614 560.908 344.057C575.65 339.501 591.206 338.209 606.497 340.271C621.222 342.257 635.361 347.308 648.003 355.089C641.911 368.626 633.074 380.758 622.048 390.714C610.599 401.051 597.057 408.8 582.345 413.434Z" fill="white" stroke="white" stroke-width="4"/>
<path d="M361.074 274.079C358.279 272.844 354.708 273.093 352.39 275.502C348.758 279.301 350.057 285.455 355.345 287.664C367.146 292.79 379.903 295.646 393.614 296.24V310.186C393.614 312.699 395.257 314.123 397.542 314.123C399.854 314.123 401.65 312.67 401.65 310.186V296.24C424.078 294.976 443.667 282.914 443.667 261.385C443.667 237.478 424.604 230.615 401.65 225.269V182.72C410.821 182.837 419.776 184.45 428.461 187.549C434.265 189.845 438.478 185.594 438.478 180.927C438.478 177.36 436.803 174.972 433.47 173.783C423.704 170.207 413.092 168.243 401.65 167.882V154.117C401.65 151.711 399.946 150 397.542 150C395.106 150 393.614 151.751 393.614 154.117V168.063C365.684 169.552 351.597 185.758 351.597 204.53C351.597 227.475 371.825 234.445 393.614 240.106V281.052C381.56 280.691 370.732 278.367 361.074 274.079ZM401.65 242.07C412.998 245.074 427.577 249.003 427.577 260.313C427.577 272.827 418.929 279.682 401.65 280.872V242.07ZM367.687 203.278C367.687 190.242 380.613 184.275 393.614 183.08V223.305C381.193 220.16 367.687 216.103 367.687 203.278Z" fill="#F5F4F4"/>
</svg>
