<svg width="769" height="615" viewBox="0 0 769 615" fill="none" xmlns="http://www.w3.org/2000/svg">
<path d="M693.5 0H74.5C62.1 0 52 9.93925 52 22.2639V445.974H716V22.2639C716 9.93925 705.9 0 693.5 0Z" fill="#0B4870"/>
<path d="M692.7 9.34277H75.2999C67.5999 9.34277 61.3999 15.5051 61.3999 23.1583V439.712H706.6V23.1583C706.6 15.5051 700.4 9.34277 692.7 9.34277Z" fill="#0E538C"/>
<path d="M84.6001 40.1545H683.4V424.903H84.6001V40.1545Z" fill="#0B4870"/>
<path d="M387.4 26.6372C387.4 28.5256 385.9 30.0165 384 30.0165C382.1 30.0165 380.6 28.5256 380.6 26.6372C380.6 24.7487 382.1 23.2578 384 23.2578C385.9 23.3572 387.4 24.8481 387.4 26.6372Z" fill="#F6F6F6"/>
<path d="M159.7 61.4246H219.7V71.9602H159.7V61.4246Z" fill="#FFBE55"/>
<path d="M105.5 61.4246H130.2V71.9602H105.5V61.4246ZM105.5 80.7067H130.2V91.2423H105.5V80.7067ZM105.5 103.567H130.2V114.103H105.5V103.567ZM105.5 126.328H130.2V136.863H105.5V126.328ZM105.5 149.188H130.2V159.724H105.5V149.188ZM105.5 171.949H130.2V182.485H105.5V171.949ZM232.1 61.4246H433.4V71.9602H232.1V61.4246Z" fill="#CCE9FF"/>
<path d="M180.9 80.7065H240.9V91.2421H180.9V80.7065Z" fill="#FFBE55"/>
<path d="M253.3 80.7065H454.6V91.2421H253.3V80.7065Z" fill="#CCE9FF"/>
<path d="M216.3 103.567H276.3V114.102H216.3V103.567Z" fill="#FFBE55"/>
<path d="M288.7 103.567H490V114.102H288.7V103.567Z" fill="#CCE9FF"/>
<path d="M251.6 126.328H311.6V136.863H251.6V126.328Z" fill="#FFBE55"/>
<path d="M324 126.328H525.3V136.863H324V126.328Z" fill="#CCE9FF"/>
<path d="M216.3 149.188H276.3V159.724H216.3V149.188Z" fill="#FFBE55"/>
<path d="M288.7 149.188H596V159.724H288.7V149.188Z" fill="#CCE9FF"/>
<path d="M180.9 171.949H240.9V182.485H180.9V171.949Z" fill="#FFBE55"/>
<path d="M253.3 171.949H384V182.485H253.3V171.949Z" fill="#CCE9FF"/>
<path opacity="0.4" d="M159.7 201.866H219.7V212.402H159.7V201.866Z" fill="#FFBE55"/>
<path opacity="0.4" d="M105.5 201.866H130.2V212.402H105.5V201.866ZM105.5 221.148H130.2V231.684H105.5V221.148ZM105.5 244.008H130.2V254.544H105.5V244.008ZM105.5 266.769H130.2V277.305H105.5V266.769ZM105.5 289.63H130.2V300.165H105.5V289.63ZM105.5 312.39H130.2V322.926H105.5V312.39ZM232.1 201.866H433.4V212.402H232.1V201.866Z" fill="#CCE9FF"/>
<path opacity="0.4" d="M180.9 221.148H240.9V231.684H180.9V221.148Z" fill="#FFBE55"/>
<path opacity="0.4" d="M253.3 221.148H454.6V231.684H253.3V221.148Z" fill="#CCE9FF"/>
<path opacity="0.4" d="M216.3 244.008H276.3V254.544H216.3V244.008Z" fill="#FFBE55"/>
<path opacity="0.4" d="M288.7 244.008H490V254.544H288.7V244.008Z" fill="#CCE9FF"/>
<path opacity="0.4" d="M159.7 342.208H219.7V352.744H159.7V342.208Z" fill="#FFBE55"/>
<path opacity="0.4" d="M105.5 342.208H130.2V352.744H105.5V342.208ZM105.5 361.59H130.2V372.125H105.5V361.59ZM105.5 384.351H130.2V394.886H105.5V384.351ZM232.1 342.208H433.4V352.744H232.1V342.208Z" fill="#CCE9FF"/>
<path opacity="0.4" d="M180.9 361.59H240.9V372.125H180.9V361.59Z" fill="#FFBE55"/>
<path opacity="0.4" d="M253.3 361.59H454.6V372.125H253.3V361.59Z" fill="#CCE9FF"/>
<path opacity="0.4" d="M216.3 384.351H276.3V394.886H216.3V384.351Z" fill="#FFBE55"/>
<path opacity="0.4" d="M288.7 384.351H490V394.886H288.7V384.351Z" fill="#CCE9FF"/>
<path opacity="0.4" d="M251.6 266.769H311.6V277.305H251.6V266.769Z" fill="#FFBE55"/>
<path opacity="0.4" d="M324 266.769H631.3V277.305H324V266.769Z" fill="#CCE9FF"/>
<path opacity="0.4" d="M216.3 289.63H276.3V300.165H216.3V289.63Z" fill="#FFBE55"/>
<path opacity="0.4" d="M288.7 289.63H490V300.165H288.7V289.63Z" fill="#CCE9FF"/>
<path opacity="0.4" d="M180.9 312.39H240.9V322.926H180.9V312.39Z" fill="#FFBE55"/>
<path opacity="0.4" d="M253.3 312.39H454.6V322.926H253.3V312.39Z" fill="#CCE9FF"/>
<path d="M760.1 438.42H7.9C3.6 438.42 0 441.899 0 446.272V456.41C0 460.684 3.5 464.262 7.9 464.262H760.2C764.5 464.262 768.1 460.783 768.1 456.41V446.272C768 441.899 764.5 438.42 760.1 438.42Z" fill="#D3D3D3"/>
<path d="M448.5 449.651H319.5C317.8 449.651 316.4 451.043 316.4 452.733C316.4 454.422 317.8 455.814 319.5 455.814H448.6C450.3 455.814 451.7 454.422 451.7 452.733C451.6 451.043 450.2 449.651 448.5 449.651Z" fill="#F7F7F7"/>
<path d="M554.6 550.038L554.5 566.04C554.5 566.04 556.5 576.277 558.2 587.211C559.8 598.144 561.1 609.773 559.4 612.456C556.1 617.823 549.6 612.456 548.5 607.089C547.4 601.722 545.8 568.227 545.8 568.227L544.7 546.658L554.6 550.038ZM571 547.851L568.5 562.263C568.5 562.263 563.6 601.623 566.3 607.586C569 613.55 577.7 610.866 577.2 602.716C576.7 594.665 578.8 566.04 578.8 566.04L583.7 548.746L571 547.851Z" fill="#0B4870"/>
<path d="M564.3 372.423L563.1 390.115L609.1 412.18C617.4 416.653 621.4 426.294 618.7 435.24L586.9 552.821L571.1 547.851L585 439.712C586 433.053 581.4 426.891 574.7 425.797L558.3 423.213L540.9 405.521L561.1 423.511C566 427.885 568.4 434.345 567.5 440.805L554.6 550.038L540.3 553.616L533.9 446.173C533.4 439.315 528.8 433.55 522.3 431.463L494 422.517C489.5 419.834 486.7 414.963 486.5 409.696L487.7 371.827L564.3 372.423Z" fill="#0B4870"/>
<path d="M484.7 412.081L492.3 265.179C492.3 265.179 523.7 263.291 533.1 263.291C538.2 263.291 546.9 265.676 553.8 267.863C560.3 269.95 565.6 269.751 568.8 275.715L620.3 373.914L588.6 376.896L578 364.969L583.4 356.918L564.1 311.794L567.9 393.793L484.7 412.081Z" fill="#FFBE55"/>
<path opacity="0.08" d="M564.8 293.903L599 355.229L588.4 367.653C588.4 367.653 584.1 368.547 580 367.156L578.1 364.969L583.5 356.918L564.2 311.794L564.8 293.903Z" fill="#0F0F0F"/>
<path d="M534.4 307.719C524 307.719 505 280.784 505 270.447C505 268.36 505.4 266.372 506 264.483C515.7 263.986 527.8 263.39 533.1 263.39C535.4 263.39 538.4 263.887 541.7 264.583C542.3 266.471 542.7 268.36 542.7 270.447C542.6 280.784 544.8 307.719 534.4 307.719Z" fill="white"/>
<path opacity="0.08" d="M488.5 290.624L484.7 412.976L535.5 400.85L488.5 290.624Z" fill="#0F0F0F"/>
<path d="M536.2 248.282C535.3 250.071 529.1 274.124 529.1 274.124C529.1 274.124 526.9 278.1 521.6 277.603C516.3 277.205 514.1 269.751 514.1 269.751L523.4 239.536L536.2 248.282Z" fill="#FCD2B1"/>
<path d="M503.6 233.473C503.6 250.071 521.3 268.459 538 268.459C554.7 268.459 564 250.071 564 233.473C564 216.874 550.5 203.456 533.8 203.456C517.1 203.357 503.6 216.874 503.6 233.473Z" fill="#FFBCC6"/>
<path d="M539.959 269.232C558.492 266.229 571.066 248.862 568.045 230.442C565.024 212.022 547.55 199.523 529.017 202.526C510.484 205.529 497.91 222.896 500.931 241.317C503.952 259.737 521.425 272.235 539.959 269.232Z" fill="#FFE3CA"/>
<path d="M528.1 397.967C529.4 397.57 540.6 392.103 548.5 392.103C556.4 392.103 566.1 400.452 566.1 400.452C566.1 400.452 567.4 404.825 562.1 403.931C556.8 403.036 562.8 407.211 562.8 407.211C562.8 407.211 562.5 407.41 556.3 408.304C550.1 409.199 526.1 407.907 526.1 407.907L528.1 397.967Z" fill="#FFE3CA"/>
<path d="M492.3 265.278L488 361.888L528 397.868L526.1 408.006L469.8 378.089C464.4 375.206 461.3 369.243 462.1 363.18L472.4 289.232C473.2 279.988 478.9 271.838 487.2 267.763L492.3 265.278ZM524 416.256H625.8V408.801H524C521.9 408.801 520.3 410.491 520.3 412.479C520.2 414.566 521.9 416.256 524 416.256Z" fill="#FFBE55"/>
<path d="M551.9 416.256H650.1C654.4 416.256 658.2 413.373 659.4 409.199L676.7 344.295C678.3 338.232 673.7 332.368 667.4 332.368H581.7C577.4 332.368 573.6 335.251 572.4 339.425L551.9 416.256Z" fill="#FFBE55"/>
<path opacity="0.22" d="M551.9 416.256H650.1C654.4 416.256 658.2 413.373 659.4 409.199L676.7 344.295C678.3 338.232 673.7 332.368 667.4 332.368H581.7C577.4 332.368 573.6 335.251 572.4 339.425L551.9 416.256Z" fill="white"/>
<path d="M609.7 380.077C608.6 384.351 611.3 387.73 615.7 387.73C620.1 387.73 624.5 384.251 625.6 380.077C626.7 375.803 624 372.423 619.6 372.423C615.2 372.324 610.8 375.803 609.7 380.077Z" fill="white"/>
<path d="M534.5 202.065C552 202.065 566.3 215.185 568.3 231.982C562.4 236.355 554.7 238.244 547.4 237.051C538.8 235.56 531.1 229.696 527.5 221.844C527.8 225.621 528 229.398 527.4 233.075C526.8 236.753 525.2 240.43 522.2 242.816C522 240.231 521.7 237.448 520.4 235.162C519 232.876 516.1 231.286 513.7 232.28C511.9 232.976 510.8 234.765 510.5 236.653C510.2 238.542 510.7 240.43 511.4 242.219C512.5 245.002 514.1 247.586 516.1 249.674C512.1 250.27 507.8 250.767 503.8 250.369C501.7 245.897 500.4 241.027 500.4 235.759C500.4 217.172 515.7 202.065 534.5 202.065Z" fill="#009ED4"/>
<path d="M505.2 241.424C505.2 247.09 509.8 251.662 515.5 251.662C521.2 251.662 525.8 247.09 525.8 241.424C525.8 235.759 521.2 231.187 515.5 231.187C509.9 231.187 505.2 235.759 505.2 241.424ZM571 547.851L569.2 558.685L580 562.064L583 551.429L571 547.851ZM554.5 562.064L545.5 563.754L545 552.423L554.6 550.038L554.5 562.064Z" fill="#FFE3CA"/>
<path d="M515.5 217.669C523.895 217.669 530.7 210.905 530.7 202.562C530.7 194.218 523.895 187.454 515.5 187.454C507.105 187.454 500.3 194.218 500.3 202.562C500.3 210.905 507.105 217.669 515.5 217.669Z" fill="#009ED4"/>
</svg>
