<svg width="800" height="800" viewBox="0 0 800 800" fill="none" xmlns="http://www.w3.org/2000/svg">
<rect width="800" height="800" rx="50" fill="#F39200"/>
<path d="M190.219 424.352C189.523 414.14 181.098 406.021 170.729 406.021H125.589C114.755 406.021 105.932 414.839 105.932 425.678V590.936C105.932 601.77 114.755 610.588 125.589 610.588H170.729C178.711 610.588 185.566 605.774 188.628 598.909L341.95 677.063C381.272 697.159 428.795 700.249 472.166 682.158C531 657.687 635.401 612.679 673.636 586.151C694.753 571.56 700.428 542.251 686.297 520.813C686.274 520.784 686.251 520.756 686.24 520.727C686.171 520.618 686.09 520.503 686.021 520.394C675.026 503.982 652.278 496.755 632.322 503.298C622.224 506.634 601.068 513.586 578.031 520.942C618.469 490.017 643.42 441.622 643.42 388.472C643.42 339.241 621.886 293.186 584.979 261.674C586.062 260.779 587.194 259.946 588.181 258.934C595.81 251.144 600.003 240.948 600.003 230.234C600.003 207.854 581.805 189.644 559.424 189.644H558.703L572.062 151.5C574.532 144.411 573.498 136.921 569.259 130.958C564.893 124.834 557.839 121.175 550.359 121.175C543.903 121.175 537.894 123.875 534.562 128.947L532.62 124.513C527.887 113.207 516.915 105.906 504.679 105.906C495.029 105.906 486.056 110.473 480.346 118.211C479.944 118.659 479.576 119.136 479.243 119.647C477.485 122.307 474.911 122.703 473.533 122.703C471.223 122.703 469.098 121.56 467.846 119.653C462.205 111.076 452.715 105.958 442.478 105.958C430.242 105.958 419.293 113.242 414.732 124.134L413.71 128.85C404.07 118.119 385.895 119.515 377.795 130.975C373.544 136.955 372.533 144.452 375.026 151.535L388.524 190.095C366.727 192.533 352.474 210.57 352.474 230.234C352.474 242.97 358.319 254.303 367.422 261.768C330.637 293.295 309.183 339.31 309.183 388.472C309.183 400.616 310.595 412.591 313.159 424.3C300.588 424.305 358.696 424.281 190.219 424.352ZM166.823 587.058H129.461V429.55H166.823V587.058ZM639.675 525.65C649.705 522.364 661.251 525.69 666.467 533.491L666.478 533.502C666.536 533.594 666.593 533.681 666.651 533.772C673.797 544.607 670.936 559.422 660.24 566.803C623.786 592.102 521.097 636.323 463.124 660.438C427.853 675.144 386.757 673.536 352.646 656.101L190.364 573.381V447.881H313.422C365.563 447.881 360.432 502.5 425.084 502.5H491.583C502.515 502.626 512.689 510.129 514.721 520.763C516.867 534.244 506.246 545.836 493.397 545.836H339.365C332.862 545.836 327.6 551.104 327.6 557.601C327.6 564.098 332.862 569.365 339.365 569.365H493.397C507.695 569.365 625.033 530.487 639.675 525.65ZM413.066 152.35C422.476 152.35 430.782 146.709 433.988 138.569L436.263 133.606C437.871 129.78 441.421 129.487 442.478 129.487C443.845 129.487 446.407 129.889 448.188 132.583C453.806 141.131 463.285 146.232 473.533 146.232C483.184 146.232 492.145 141.717 497.855 134.065C498.292 133.588 498.682 133.083 499.038 132.537C500.796 129.837 503.324 129.435 504.679 129.435C505.736 129.435 509.309 129.74 510.987 133.755L512.928 138.213C516.513 146.715 524.774 152.212 533.965 152.212C539.514 152.212 544.822 150.167 548.843 146.611L533.781 189.643H413.296L398.234 146.617C402.37 150.288 407.632 152.35 413.066 152.35ZM381.127 218.102C388.163 210.923 396.888 213.854 404.944 213.173C446.919 213.173 523.353 213.173 559.424 213.173C568.822 213.173 576.474 220.824 576.474 230.234C576.474 238.441 570.484 246.507 560.504 247.393L393.179 247.41L391.605 247.347C382.712 246.496 376.003 239.138 376.003 230.234C376.003 225.644 377.761 221.405 381.127 218.102ZM393.937 270.939H558.563C597.039 297.795 619.891 341.459 619.891 388.471C619.891 444.48 587.722 494.44 538.181 517.952C534.979 496.57 516.607 478.97 493.397 478.97H491.583C491.489 478.969 491.4 478.941 491.306 478.941H425.061C411.373 478.941 398.577 474.136 388.437 466.114C388.261 465.972 388.069 465.856 387.894 465.712C376.97 456.853 368.429 437.059 338.227 428.005C334.562 415.223 332.712 401.959 332.712 388.471C332.712 341.476 355.53 297.818 393.937 270.939Z" fill="#F5F4F4"/>
<path d="M476.277 476.718C531.413 476.718 576.266 431.859 576.266 376.718C576.266 321.576 531.413 276.718 476.277 276.718C421.142 276.718 376.277 321.576 376.277 376.718C376.277 431.859 421.142 476.718 476.277 476.718ZM476.277 300.247C518.442 300.247 552.736 334.553 552.736 376.718C552.736 418.882 518.442 453.188 476.277 453.188C434.113 453.188 399.807 418.882 399.807 376.718C399.807 334.553 434.113 300.247 476.277 300.247Z" fill="#F5F4F4"/>
<path d="M453.587 401.988C451.804 401.201 449.527 401.359 448.049 402.896C445.734 405.318 446.562 409.242 449.933 410.651C457.459 413.919 465.593 415.74 474.336 416.119V425.012C474.336 426.614 475.384 427.522 476.84 427.522C478.315 427.522 479.46 426.596 479.46 425.012V416.119C493.761 415.313 506.252 407.622 506.252 393.894C506.252 378.649 494.097 374.273 479.46 370.864V343.733C485.308 343.808 491.018 344.836 496.556 346.812C500.257 348.276 502.944 345.566 502.944 342.59C502.944 340.315 501.875 338.793 499.75 338.034C493.523 335.754 486.756 334.502 479.46 334.272V325.494C479.46 323.96 478.373 322.869 476.841 322.869C475.287 322.869 474.336 323.986 474.336 325.494V334.387C456.526 335.336 447.544 345.67 447.544 357.64C447.544 372.271 460.442 376.715 474.336 380.325V406.434C466.65 406.204 459.745 404.722 453.587 401.988ZM479.46 381.578C486.696 383.493 495.992 385.998 495.992 393.21C495.992 401.189 490.478 405.561 479.46 406.319V381.578ZM457.803 356.842C457.803 348.529 466.046 344.724 474.336 343.963V369.612C466.415 367.607 457.803 365.019 457.803 356.842Z" fill="#F5F4F4"/>
</svg>
